<svg width="50" height="50" viewBox="0 0 50 50" fill="none" xmlns="http://www.w3.org/2000/svg">
<g id="Tilda_Icons_24fn_bank">
<g id="Group">
<path id="Vector" d="M6.13125 38.5137C5.73274 38.5137 5.41016 38.8363 5.41016 39.2348C5.41016 39.6333 5.73274 39.9559 6.13125 39.9559H43.2305C43.629 39.9559 43.9516 39.6333 43.9516 39.2348C43.9516 38.8363 43.629 38.5137 43.2305 38.5137H39.2062V17.2293H43.2305C43.629 17.2293 43.9516 16.9067 43.9516 16.5082C43.9516 16.1097 43.629 15.7871 43.2305 15.7871H10.2628C10.1982 15.7683 10.1317 15.7549 10.0613 15.7549C9.9908 15.7549 9.9238 15.7683 9.85978 15.7871H6.13125C5.73274 15.7871 5.41016 16.1097 5.41016 16.5082C5.41016 16.9067 5.73274 17.2293 6.13125 17.2293H9.34316V38.5137H6.13125ZM20.5481 38.5137V17.2293H28.5164V38.5137H20.5481ZM37.764 38.5137H29.9585V17.2293H37.764V38.5137ZM10.7794 17.2293H19.1059V38.5137H10.7794V17.2293Z" fill="#252525"/>
<path id="Vector_2" d="M47.6048 44.387H1.76015C1.36164 44.387 1.03906 44.7095 1.03906 45.1081C1.03906 45.5066 1.36164 45.8291 1.76015 45.8291H47.6048C48.0033 45.8291 48.3259 45.5066 48.3259 45.1081C48.3259 44.7095 48.0033 44.387 47.6048 44.387Z" fill="#252525"/>
<path id="Vector_3" d="M48.2266 15.7815L25.304 2.68372C25.0832 2.55766 24.8112 2.55717 24.5904 2.68273L1.51745 15.7805C1.17105 15.977 1.04995 16.4172 1.24648 16.7636C1.37948 16.9979 1.62316 17.1289 1.87427 17.1289C1.99487 17.1289 2.11695 17.0986 2.22961 17.0351L24.9452 4.1398L47.5115 17.0336C47.8559 17.2301 48.2966 17.1115 48.4951 16.7651C48.6926 16.4197 48.5725 15.9795 48.2266 15.7815Z" fill="#252525"/>
</g>
</g>
</svg>
