<svg width="51" height="50" viewBox="0 0 51 50" fill="none" xmlns="http://www.w3.org/2000/svg">
<g id="Frame 45163">
<g id="Group">
<path id="Vector" d="M15.1232 8.92358C7.84367 8.92358 1.92325 16.2127 1.92325 25.173C1.92325 34.1334 7.84367 41.4225 15.1232 41.4225C22.4011 41.4225 28.3231 34.1334 28.3231 25.173C28.3215 16.2127 22.4011 8.92358 15.1232 8.92358ZM15.1232 43.3469C6.78428 43.3469 0 35.1941 0 25.173C0 15.1519 6.78428 7.00073 15.1232 7.00073C23.4621 7.00073 30.2464 15.1535 30.2464 25.173C30.2448 35.1941 23.4605 43.3469 15.1232 43.3469Z" fill="#252525"/>
<path id="Vector_2" d="M15.1198 43.3467C14.756 43.3467 14.4066 43.1384 14.2448 42.7859C14.038 42.3357 9.25713 31.6945 14.3377 24.6137C15.4917 23.0065 16.1424 20.9939 16.2722 18.6337C16.301 18.1033 16.753 17.7011 17.2851 17.7267C17.8156 17.7556 18.2211 18.2091 18.1922 18.7394C18.0416 21.4699 17.2707 23.8237 15.9004 25.7337C11.4641 31.9172 15.9468 41.8838 15.9933 41.9847C16.2145 42.4671 16.0029 43.0375 15.5189 43.2586C15.3907 43.3179 15.2545 43.3467 15.1198 43.3467Z" fill="#252525"/>
<path id="Vector_3" d="M16.9876 15.3558C16.5228 15.3558 16.1141 15.0193 16.0388 14.545C15.4874 11.0823 14.2646 8.38877 14.2517 8.36153C14.0306 7.87922 14.2421 7.30877 14.7261 7.08765C15.2086 6.86653 15.7791 7.07803 16.0003 7.56194C16.0548 7.68051 17.345 10.5247 17.938 14.2438C18.0213 14.7677 17.6639 15.2612 17.1398 15.3446C17.0885 15.3526 17.0372 15.3558 16.9876 15.3558Z" fill="#252525"/>
<path id="Vector_4" d="M34.5427 40.6906C33.3006 40.6906 32.0681 40.4951 30.874 40.0993C28.8194 39.4183 26.9682 38.1508 25.5226 36.4331C25.1812 36.0261 25.2325 35.4204 25.6396 35.0775C26.0467 34.7362 26.6525 34.7875 26.9939 35.1945C28.228 36.6607 29.7361 37.6958 31.4799 38.2726C34.4257 39.2484 37.6711 38.7613 40.6201 36.9026C43.6284 35.0054 45.962 31.9209 47.1897 28.213C49.7027 20.6291 46.7425 12.8032 40.5929 10.765C37.2496 9.65781 33.5025 10.4493 30.3131 12.9378C29.8948 13.2647 29.2906 13.1894 28.9636 12.7712C28.6367 12.353 28.712 11.7489 29.1303 11.422C32.8358 8.53293 37.2352 7.62921 41.1971 8.94153C48.3532 11.3114 51.8616 20.2285 49.0151 28.8187C47.6464 32.9464 45.0292 36.3963 41.6443 38.529C39.3748 39.9599 36.9403 40.6906 34.5427 40.6906Z" fill="#252525"/>
<path id="Vector_5" d="M31.1726 40.1475C30.9386 40.1475 30.703 40.0626 30.5171 39.8895C30.1292 39.5274 30.1068 38.9201 30.4674 38.5307C30.4786 38.5179 31.6278 37.2728 32.8154 35.3709C33.293 34.6065 33.7161 33.8342 34.0719 33.0747C34.3941 32.3873 34.6665 31.7031 34.8797 31.0381C35.6137 28.758 35.6923 26.6621 35.1121 24.8049C32.7657 17.2835 39.8818 9.52493 40.1847 9.19805C40.5469 8.80868 41.1543 8.78784 41.5438 9.14997C41.9332 9.5121 41.9541 10.1194 41.5918 10.5088C41.5261 10.5809 34.9342 17.7818 36.9472 24.2345C37.646 26.4762 37.5658 28.9647 36.7084 31.6278C36.4696 32.3697 36.1683 33.1308 35.8109 33.8919C35.423 34.7187 34.963 35.5599 34.4454 36.39C33.1536 38.4586 31.9243 39.7854 31.873 39.8414C31.6887 40.0449 31.4307 40.1475 31.1726 40.1475Z" fill="#252525"/>
</g>
</g>
</svg>
