<svg width="50" height="50" viewBox="0 0 50 50" fill="none" xmlns="http://www.w3.org/2000/svg">
<g id="Tilda_Icons_3st_card">
<g id="Group">
<path id="Vector" d="M44.5322 9.72559H5.2907C3.30621 9.72559 1.69141 11.3404 1.69141 13.3249V15.7304V20.9141V36.4996C1.69141 38.4841 3.30621 40.0984 5.2907 40.0984H44.5322C46.5167 40.0984 48.131 38.4841 48.131 36.4996V20.9141V15.7304V13.3249C48.131 11.3404 46.5167 9.72559 44.5322 9.72559ZM3.18563 13.3249C3.18613 12.164 4.1298 11.2203 5.2902 11.2203H44.5317C45.6921 11.2203 46.6358 12.1645 46.6358 13.3249V14.983H3.18563V13.3249ZM46.6362 36.4991C46.6362 37.659 45.6921 38.6031 44.5322 38.6031H5.2907C4.1303 38.6031 3.18613 37.659 3.18613 36.4991V21.661H46.6362V36.4991ZM46.6362 20.1662H3.18613V16.4773H46.6362V20.1662Z" fill="#252525"/>
<path id="Vector_2" d="M8.9139 35.6569C10.3513 35.6569 11.5202 34.4885 11.5202 33.0526C11.5202 31.6157 10.3513 30.4463 8.9139 30.4463C7.47747 30.4463 6.30859 31.6157 6.30859 33.0526C6.30859 34.4885 7.47747 35.6569 8.9139 35.6569ZM8.9139 31.941C9.52673 31.941 10.0255 32.4397 10.0255 33.0526C10.0255 33.6644 9.52673 34.1622 8.9139 34.1622C8.30156 34.1622 7.80332 33.6644 7.80332 33.0526C7.80332 32.4397 8.30156 31.941 8.9139 31.941Z" fill="#252525"/>
<path id="Vector_3" d="M14.4895 33.8883H35.5472C35.9603 33.8883 36.2946 33.554 36.2946 33.1409C36.2946 32.7279 35.9603 32.3936 35.5472 32.3936H14.4895C14.0765 32.3936 13.7422 32.7279 13.7422 33.1409C13.7422 33.554 14.0765 33.8883 14.4895 33.8883Z" fill="#252525"/>
</g>
</g>
</svg>
