<svg width="50" height="50" viewBox="0 0 50 50" fill="none" xmlns="http://www.w3.org/2000/svg">
<g id="Tilda_Icons_3st_cart">
<path id="Vector" d="M46.9475 9.15078C46.806 8.98537 46.5988 8.8902 46.3805 8.8902H11.116L9.67808 4.07121C9.58292 3.75433 9.29195 3.5376 8.96161 3.5376H3.44658C3.03354 3.5376 2.69922 3.87192 2.69922 4.28496C2.69922 4.698 3.03354 5.03232 3.44658 5.03232H8.40458L17.4895 35.4769C17.4905 35.4803 17.4935 35.4833 17.4945 35.4868L18.623 39.3253C17.9105 40.0333 17.4691 41.0133 17.4691 42.094C17.4691 44.2514 19.2234 46.0067 21.3793 46.0067C23.4659 46.0067 25.1704 44.3585 25.2755 42.2943H35.0704C35.07 42.3217 35.0665 42.3486 35.0665 42.3765C35.0665 44.5319 36.8198 46.2857 38.9747 46.2857C41.1296 46.2857 42.8834 44.5319 42.8834 42.3765C42.8834 40.2211 41.1296 38.4673 38.9747 38.4673C37.3808 38.4673 36.0091 39.4279 35.4018 40.7996H25.0623C24.871 40.254 24.5625 39.7523 24.1415 39.3312C23.4036 38.5934 22.4231 38.1863 21.3808 38.1863C21.3803 38.1863 21.3798 38.1863 21.3798 38.1863C20.8671 38.1863 20.3783 38.2879 19.9294 38.4683L19.2069 36.0105H42.4614C42.8306 36.0105 43.1444 35.7409 43.1998 35.3762L47.1194 9.75017C47.1523 9.53493 47.0895 9.3162 46.9475 9.15078ZM38.9747 39.9625C40.3055 39.9625 41.3886 41.0457 41.3886 42.377C41.3886 43.7083 40.3055 44.7915 38.9747 44.7915C37.6439 44.7915 36.5612 43.7083 36.5612 42.377C36.5612 41.0457 37.6439 39.9625 38.9747 39.9625ZM21.3798 39.6815C22.023 39.6815 22.6284 39.9326 23.0838 40.3885C23.5397 40.8444 23.7903 41.4508 23.7903 42.095C23.7903 43.4283 22.7086 44.513 21.3788 44.513C20.047 44.513 18.9633 43.4283 18.9633 42.095C18.9638 40.7642 20.0475 39.6815 21.3798 39.6815ZM41.8191 34.5162H18.767L17.354 29.7092C17.3361 29.6484 17.3091 29.5931 17.2783 29.5408L11.5619 10.3849H45.5101L41.8191 34.5162Z" fill="#252525"/>
</g>
</svg>
