<svg width="26" height="26" viewBox="0 0 26 26" fill="none" xmlns="http://www.w3.org/2000/svg">
<path d="M23.4198 10.7334H22.3112C22.4792 9.72559 22.58 8.85215 22.6472 8.18027C22.7311 7.39082 22.1097 6.70215 21.3034 6.70215H1.34873C0.559275 6.70215 -0.0622092 7.39082 0.00497834 8.18027C0.441697 12.5979 2.47412 25.5146 11.3261 25.5146C16.1636 25.5146 18.9519 21.6682 20.5812 17.4521H22.0761C22.0761 17.4521 23.7558 17.4521 24.0917 16.4443L25.4354 13.4209C25.4354 12.01 24.73 10.7334 23.4198 10.7334ZM15.878 22.424C14.5511 23.5998 13.0562 24.1709 11.3261 24.1709C9.59599 24.1709 8.10107 23.5998 6.77412 22.424C5.61514 21.3826 4.59053 19.8877 3.73389 17.9729C2.15498 14.3783 1.55029 10.2127 1.34873 8.0627H21.3034C21.0851 10.2295 20.4972 14.3783 18.9183 17.9896C18.0616 19.8877 17.037 21.3826 15.878 22.424ZM22.8655 15.9068C22.8655 15.9236 22.8487 15.9404 22.8487 15.9404C22.7144 16.0244 22.3448 16.1084 22.0761 16.1084H21.4882L22.5968 12.0771H23.4198C23.8397 12.0771 24.0245 12.665 24.0749 13.1689L22.8655 15.9068Z" fill="#0057B8"/>
<path d="M9.31055 3.67852C9.31055 3.71211 9.31055 3.7625 9.32734 3.79609C9.34414 3.88008 9.34414 3.96406 9.36094 4.04805C9.39453 4.19922 9.42813 4.33359 9.46172 4.46797C9.5457 4.71992 9.62969 4.92148 9.69688 5.05586C9.73047 5.12305 9.76406 5.17344 9.78086 5.20703C9.79766 5.24062 9.81445 5.25742 9.81445 5.25742C9.84805 5.30781 9.91523 5.3582 9.98242 5.34141C10.0664 5.32461 10.1336 5.24062 10.1168 5.13984V5.12305C10.1168 5.12305 10.1 5.03906 10.0832 4.90469C10.0664 4.77031 10.0328 4.56875 9.99922 4.33359C9.98242 4.21602 9.96563 4.09844 9.96563 3.96406C9.96563 3.89687 9.96563 3.82969 9.96563 3.7793C9.96563 3.7457 9.96563 3.71211 9.96563 3.66172V3.62812V3.61133V3.57773C9.98242 3.47695 10.016 3.39297 10.0832 3.29219C10.1504 3.19141 10.2512 3.09063 10.3688 2.92266C10.4191 2.83867 10.4863 2.75469 10.5367 2.63711C10.5535 2.58672 10.5703 2.53633 10.5871 2.46914C10.6039 2.41875 10.6207 2.35156 10.6207 2.30117C10.6207 2.26758 10.6375 2.23399 10.6375 2.21719V2.15V2.08281V2.06602V2.04922V2.01562C10.6375 1.93164 10.6207 1.84766 10.6039 1.76367C10.5535 1.42773 10.4863 1.14219 10.4191 0.907032C10.352 0.655078 10.268 0.470313 10.2176 0.319141C10.1672 0.184766 10.1336 0.100781 10.1336 0.100781C10.1 0.0335935 10.0328 0 9.96563 0C9.86484 0.0167969 9.81445 0.100781 9.81445 0.184765C9.81445 0.184765 9.83125 0.26875 9.84805 0.403125C9.86484 0.5375 9.88164 0.75586 9.91523 0.991016C9.94883 1.22617 9.96562 1.51172 9.98242 1.79727C9.98242 1.86445 9.98242 1.94844 9.98242 2.01562C9.98242 2.03242 9.96563 2.18359 9.96563 2.20039C9.94883 2.23398 9.93203 2.28438 9.91523 2.33477C9.89844 2.38516 9.86484 2.43555 9.83125 2.48594C9.74727 2.58672 9.62969 2.72109 9.51211 2.88906C9.39453 3.07383 9.32734 3.30898 9.32734 3.51055V3.59453C9.32734 3.61133 9.32734 3.61133 9.32734 3.64492L9.31055 3.67852Z" fill="#0057B8"/>
<path d="M10.6543 3.64492V3.67852C10.6543 3.71211 10.6543 3.7625 10.6711 3.79609C10.6879 3.88008 10.6879 3.96406 10.7047 4.04805C10.7383 4.19922 10.7719 4.33359 10.8055 4.46797C10.8895 4.71992 10.9734 4.92148 11.0406 5.05586C11.0742 5.12305 11.1078 5.17344 11.1246 5.20703C11.1414 5.24062 11.1582 5.25742 11.1582 5.25742C11.1918 5.30781 11.259 5.3582 11.3262 5.34141C11.4102 5.32461 11.4773 5.24062 11.4605 5.13984V5.12305C11.4605 5.12305 11.4438 5.03906 11.427 4.90469C11.4102 4.77031 11.3766 4.56875 11.343 4.33359C11.3262 4.21602 11.3094 4.09844 11.3094 3.96406C11.3094 3.89687 11.3094 3.82969 11.3094 3.7793C11.3094 3.7457 11.3094 3.71211 11.3094 3.66172V3.62812V3.61133V3.57773C11.3262 3.47695 11.3598 3.39297 11.427 3.29219C11.4941 3.19141 11.5949 3.09063 11.7125 2.92266C11.7629 2.83867 11.8301 2.75469 11.8805 2.63711C11.8973 2.58672 11.9141 2.53633 11.9309 2.46914C11.9477 2.41875 11.9645 2.35156 11.9645 2.30117C11.9645 2.26758 11.9812 2.23399 11.9812 2.21719V2.15V2.08281V2.06602V2.04922V2.01562C11.9812 1.93164 11.9645 1.84766 11.9477 1.76367C11.8973 1.42773 11.8301 1.14219 11.7629 0.907032C11.6957 0.655078 11.6117 0.470313 11.5613 0.319141C11.5109 0.184766 11.4773 0.100781 11.4773 0.100781C11.4437 0.0335935 11.3766 0 11.3094 0C11.2086 0.0167969 11.1582 0.100781 11.1582 0.184765C11.1582 0.184765 11.175 0.26875 11.1918 0.403125C11.2086 0.5375 11.2254 0.75586 11.259 0.991016C11.2926 1.22617 11.3094 1.51172 11.3262 1.79727C11.3262 1.86445 11.3262 1.94844 11.3262 2.01562C11.3262 2.03242 11.3094 2.18359 11.3094 2.20039C11.2926 2.23398 11.2758 2.28438 11.259 2.33477C11.2422 2.38516 11.2086 2.43555 11.175 2.48594C11.091 2.58672 10.9734 2.72109 10.8559 2.88906C10.7383 3.07383 10.6711 3.30898 10.6711 3.51055V3.59453C10.6543 3.62813 10.6543 3.62813 10.6543 3.64492Z" fill="#0057B8"/>
<path d="M11.998 3.64492V3.67852C11.998 3.71211 11.998 3.7625 12.0148 3.79609C12.0316 3.88008 12.0316 3.96406 12.0484 4.04805C12.082 4.19922 12.1156 4.33359 12.1492 4.46797C12.2332 4.71992 12.3172 4.92148 12.3844 5.05586C12.418 5.12305 12.4516 5.17344 12.4684 5.20703C12.4852 5.24062 12.502 5.25742 12.502 5.25742C12.5355 5.30781 12.6027 5.3582 12.6699 5.34141C12.7539 5.32461 12.8211 5.24062 12.8043 5.13984V5.12305C12.8043 5.12305 12.7875 5.03906 12.7707 4.90469C12.7539 4.77031 12.7203 4.56875 12.6867 4.33359C12.6699 4.21602 12.6531 4.09844 12.6531 3.96406C12.6531 3.89687 12.6531 3.82969 12.6531 3.7793C12.6531 3.7457 12.6531 3.71211 12.6531 3.66172V3.62812V3.61133V3.57773C12.6699 3.47695 12.7035 3.39297 12.7707 3.29219C12.8379 3.19141 12.9387 3.09063 13.0563 2.92266C13.1066 2.83867 13.1738 2.75469 13.2242 2.63711C13.241 2.58672 13.2578 2.53633 13.2746 2.46914C13.2914 2.41875 13.3082 2.35156 13.3082 2.30117C13.3082 2.26758 13.325 2.23399 13.325 2.21719V2.15V2.08281V2.06602V2.04922V2.01562C13.325 1.93164 13.3082 1.84766 13.2914 1.76367C13.241 1.42773 13.1738 1.14219 13.1066 0.907032C13.0395 0.655078 12.9555 0.470313 12.9051 0.319141C12.8547 0.184766 12.8211 0.100781 12.8211 0.100781C12.7875 0.0335935 12.7203 0 12.6531 0C12.5523 0.0167969 12.502 0.100781 12.502 0.184765C12.502 0.184765 12.5187 0.26875 12.5355 0.403125C12.5523 0.5375 12.5691 0.75586 12.6027 0.991016C12.6363 1.22617 12.6531 1.51172 12.6699 1.79727C12.6699 1.86445 12.6699 1.94844 12.6699 2.01562C12.6699 2.03242 12.6531 2.18359 12.6531 2.20039C12.6363 2.23398 12.6195 2.28438 12.6027 2.33477C12.5859 2.38516 12.5523 2.43555 12.5188 2.48594C12.4348 2.58672 12.3172 2.72109 12.1996 2.88906C12.082 3.07383 12.0148 3.30898 12.0148 3.51055V3.59453C11.998 3.62813 11.998 3.62813 11.998 3.64492Z" fill="#0057B8"/>
<path d="M19.0184 9.38965H3.63244C3.21252 9.38965 2.91018 9.75918 2.96057 10.1623C3.17893 11.5229 3.49807 13.1354 3.98518 14.7646C4.18674 15.4365 4.4219 16.1084 4.67385 16.7635C6.30315 20.8451 8.46994 22.8271 11.3086 22.8271C14.1473 22.8271 16.3141 20.8451 17.9434 16.7635C18.2121 16.1084 18.4305 15.4365 18.6321 14.7646C19.1192 13.1354 19.4383 11.5229 19.6567 10.1623C19.7406 9.75918 19.4215 9.38965 19.0184 9.38965ZM19.3375 10.1119C19.1024 11.6572 18.7832 13.1018 18.3969 14.4287H4.25393C3.8676 13.1018 3.54846 11.6572 3.3133 10.1119C3.2965 10.0111 3.3301 9.92715 3.39729 9.84316C3.46447 9.75918 3.54846 9.72559 3.64924 9.72559H19.0184C19.1192 9.72559 19.2031 9.75918 19.2703 9.84316C19.3375 9.91035 19.3543 10.0111 19.3375 10.1119Z" fill="#0057B8"/>
<path d="M11.4092 10.7502C11.3252 10.6998 11.2245 10.7334 11.1741 10.8174L9.83032 13.169C9.77993 13.253 9.81352 13.3538 9.8975 13.4041C9.9311 13.4209 9.94789 13.4209 9.98149 13.4209C10.0319 13.4209 10.0991 13.3873 10.1327 13.337L11.4764 10.9854C11.51 10.9014 11.4932 10.8006 11.4092 10.7502Z" fill="#0057B8"/>
<path d="M10.5694 10.7502C10.4854 10.6998 10.3846 10.7334 10.3342 10.8174L8.99047 13.169C8.94008 13.253 8.97368 13.3538 9.05766 13.4041C9.09125 13.4209 9.10805 13.4209 9.14164 13.4209C9.19204 13.4209 9.25922 13.3873 9.29282 13.337L10.6366 10.9854C10.6702 10.9014 10.6534 10.8006 10.5694 10.7502Z" fill="#0057B8"/>
<path d="M9.72954 10.7502C9.64555 10.6998 9.54477 10.7334 9.49438 10.8174L8.15063 13.169C8.10024 13.253 8.13383 13.3538 8.21782 13.4041C8.25141 13.4209 8.26821 13.4209 8.3018 13.4209C8.35219 13.4209 8.41938 13.3873 8.45297 13.337L9.79672 10.9854C9.83032 10.9014 9.81352 10.8006 9.72954 10.7502Z" fill="#0057B8"/>
<path d="M8.88969 10.7502C8.80571 10.6998 8.70493 10.7334 8.65454 10.8174L7.31079 13.169C7.26039 13.253 7.29399 13.3538 7.37797 13.4041C7.41157 13.4209 7.42836 13.4209 7.46196 13.4209C7.51235 13.4209 7.57954 13.3873 7.61313 13.337L8.95688 10.9854C8.99047 10.9014 8.97368 10.8006 8.88969 10.7502Z" fill="#0057B8"/>
<path d="M8.04985 10.7502C7.96586 10.6998 7.86508 10.7334 7.81469 10.8174L6.47094 13.169C6.42055 13.253 6.45414 13.3538 6.53813 13.4041C6.57172 13.4209 6.58852 13.4209 6.62211 13.4209C6.6725 13.4209 6.73969 13.3873 6.77329 13.337L8.11704 10.9854C8.15063 10.9014 8.13383 10.8006 8.04985 10.7502Z" fill="#0057B8"/>
<path d="M7.21 10.7502C7.12602 10.6998 7.02524 10.7334 6.97485 10.8174L5.6311 13.169C5.58071 13.253 5.6143 13.3538 5.69829 13.4041C5.73188 13.4209 5.74868 13.4209 5.78227 13.4209C5.83266 13.4209 5.89985 13.3873 5.93344 13.337L7.27719 10.9854C7.31079 10.9014 7.29399 10.8006 7.21 10.7502Z" fill="#0057B8"/>
<path d="M6.37016 10.7502C6.28618 10.6998 6.18539 10.7334 6.135 10.8174L4.79125 13.169C4.74086 13.253 4.77446 13.3538 4.85844 13.4041C4.89204 13.4209 4.90883 13.4209 4.94243 13.4209C4.99282 13.4209 5.06 13.3873 5.0936 13.337L6.43735 10.9854C6.47094 10.9014 6.45415 10.8006 6.37016 10.7502Z" fill="#0057B8"/>
<path d="M5.53032 10.7502C5.44633 10.6998 5.34555 10.7334 5.29516 10.8174L4.45532 12.3291C4.40493 12.4131 4.43852 12.5139 4.5225 12.5643C4.5561 12.5811 4.57289 12.5811 4.60649 12.5811C4.67368 12.5811 4.72407 12.5475 4.75766 12.4971L5.5975 10.9854C5.6311 10.9014 5.6143 10.8006 5.53032 10.7502Z" fill="#0057B8"/>
<path d="M12.2491 10.7502C12.1651 10.6998 12.0643 10.7334 12.0139 10.8174L10.6702 13.169C10.6198 13.253 10.6534 13.3538 10.7373 13.4041C10.7709 13.4209 10.7877 13.4209 10.8213 13.4209C10.8717 13.4209 10.9389 13.3873 10.9725 13.337L12.3163 10.9854C12.3498 10.9014 12.3331 10.8006 12.2491 10.7502Z" fill="#0057B8"/>
<path d="M13.0889 10.7502C13.0049 10.6998 12.9041 10.7334 12.8538 10.8174L11.51 13.169C11.4596 13.253 11.4932 13.3538 11.5772 13.4041C11.6108 13.4209 11.6276 13.4209 11.6612 13.4209C11.7116 13.4209 11.7788 13.3873 11.8123 13.337L13.1561 10.9854C13.1897 10.9014 13.1729 10.8006 13.0889 10.7502Z" fill="#0057B8"/>
<path d="M13.9288 10.7502C13.8448 10.6998 13.744 10.7334 13.6936 10.8174L12.3498 13.169C12.2995 13.253 12.3331 13.3538 12.417 13.4041C12.4506 13.4209 12.4674 13.4209 12.501 13.4209C12.5514 13.4209 12.6186 13.3873 12.6522 13.337L13.9959 10.9854C14.0295 10.9014 14.0127 10.8006 13.9288 10.7502Z" fill="#0057B8"/>
<path d="M14.7686 10.7502C14.6846 10.6998 14.5838 10.7334 14.5334 10.8174L13.1897 13.169C13.1393 13.253 13.1729 13.3538 13.2569 13.4041C13.2905 13.4209 13.3073 13.4209 13.3409 13.4209C13.3913 13.4209 13.4584 13.3873 13.492 13.337L14.8358 10.9854C14.8694 10.9014 14.8526 10.8006 14.7686 10.7502Z" fill="#0057B8"/>
<path d="M15.6084 10.7502C15.5245 10.6998 15.4237 10.7334 15.3733 10.8174L14.0295 13.169C13.9791 13.253 14.0127 13.3538 14.0967 13.4041C14.1303 13.4209 14.1471 13.4209 14.1807 13.4209C14.2311 13.4209 14.2983 13.3873 14.3319 13.337L15.6756 10.9854C15.7092 10.9014 15.6924 10.8006 15.6084 10.7502Z" fill="#0057B8"/>
<path d="M16.4483 10.7502C16.3643 10.6998 16.2635 10.7334 16.2131 10.8174L14.8694 13.169C14.819 13.253 14.8526 13.3538 14.9366 13.4041C14.9702 13.4209 14.987 13.4209 15.0206 13.4209C15.0709 13.4209 15.1381 13.3873 15.1717 13.337L16.5155 10.9854C16.5491 10.9014 16.5323 10.8006 16.4483 10.7502Z" fill="#0057B8"/>
<path d="M17.2881 10.7502C17.2041 10.6998 17.1034 10.7334 17.053 10.8174L15.7092 13.169C15.6588 13.253 15.6924 13.3538 15.7764 13.4041C15.81 13.4209 15.8268 13.4209 15.8604 13.4209C15.9108 13.4209 15.978 13.3873 16.0116 13.337L17.3553 10.9854C17.3889 10.9014 17.3721 10.8006 17.2881 10.7502Z" fill="#0057B8"/>
<path d="M18.128 10.7502C18.044 10.6998 17.9432 10.7334 17.8928 10.8174L16.5491 13.169C16.4987 13.253 16.5323 13.3538 16.6163 13.4041C16.6498 13.4209 16.6666 13.4209 16.7002 13.4209C16.7506 13.4209 16.8178 13.3873 16.8514 13.337L18.1952 10.9854C18.2288 10.9014 18.212 10.8006 18.128 10.7502Z" fill="#0057B8"/>
<path d="M18.2959 11.926C18.212 11.8756 18.1112 11.9092 18.0608 11.9932L17.3889 13.169C17.3385 13.253 17.3721 13.3538 17.4561 13.4041C17.4897 13.4209 17.5065 13.4209 17.5401 13.4209C17.5905 13.4209 17.6577 13.3873 17.6913 13.337L18.3631 12.1612C18.3967 12.0772 18.3799 11.9764 18.2959 11.926Z" fill="#0057B8"/>
</svg>
