<svg width="40" height="40" viewBox="0 0 40 40" fill="none" xmlns="http://www.w3.org/2000/svg">
<path d="M9 16H31L29.5487 33.4152C29.3328 36.0067 27.1664 38 24.566 38H15.434C12.8336 38 10.6672 36.0067 10.4513 33.4152L9 16Z" stroke="#252525" stroke-width="1.5"/>
<circle cx="3.5" cy="3.5" r="3.5" transform="matrix(-1 0 0 1 24 24)" stroke="#252525" stroke-width="1.5"/>
<path d="M6 12.3333C6 10.4924 7.49238 9 9.33333 9H30.6667C32.5076 9 34 10.4924 34 12.3333V12.6667C34 14.5076 32.5076 16 30.6667 16H9.33333C7.49238 16 6 14.5076 6 12.6667V12.3333Z" stroke="#252525" stroke-width="1.5"/>
<path d="M9 5.33333C9 3.49238 10.4924 2 12.3333 2H27.6667C29.5076 2 31 3.49238 31 5.33333V7.33333C31 8.25381 30.2538 9 29.3333 9H10.6667C9.74619 9 9 8.25381 9 7.33333V5.33333Z" stroke="#252525" stroke-width="1.5"/>
</svg>
