<svg width="50" height="50" viewBox="0 0 50 50" fill="none" xmlns="http://www.w3.org/2000/svg">
<g id="Tilda_Icons_3st_kid">
<g id="Group">
<path id="Vector" d="M24.9018 24.6515C14.4935 24.6515 6.02734 33.1176 6.02734 43.526C6.02734 43.9244 6.37595 44.273 6.77436 44.273H16.6847C18.3281 47.012 21.3162 48.9045 24.7026 48.9045C28.0891 48.9045 31.1269 47.0618 32.7206 44.273H42.9795C43.3779 44.273 43.7265 43.9244 43.7265 43.526C43.7763 33.1176 35.3102 24.6515 24.9018 24.6515ZM7.57117 42.779C7.82017 37.0021 10.858 31.9722 15.3899 28.9842V39.5419C15.3899 40.6873 15.5891 41.7332 15.9875 42.779H7.57117ZM24.7026 47.3607C20.37 47.3607 16.8839 43.8248 16.8839 39.5419V28.0877C19.2744 26.8427 22.0134 26.0957 24.9018 26.0957C27.6409 26.0957 30.2305 26.7431 32.5712 27.8885V39.4921C32.5712 40.7869 32.2724 41.9822 31.7246 43.028C31.6748 43.0778 31.6748 43.1276 31.625 43.1774C30.2803 45.7172 27.6907 47.3607 24.7026 47.3607ZM33.4676 42.779C33.8162 41.783 34.0652 40.6873 34.0652 39.5419V28.7352C38.7963 31.6734 42.0333 36.8527 42.2823 42.7292H33.4676V42.779Z" fill="#252525"/>
<path id="Vector_2" d="M24.6027 22.6096C30.5788 22.6096 35.4592 17.7292 35.4592 11.7531C35.4592 11.5041 35.4592 11.2551 35.4094 11.0061H39.6425C40.0409 11.0061 40.3895 10.6574 40.3895 10.259C40.3895 9.86063 40.0409 9.51203 39.6425 9.51203H35.2102C34.1644 4.63155 29.7819 0.946289 24.6027 0.946289C18.6266 0.946289 13.7461 5.82677 13.7461 11.8029C13.7461 17.7292 18.6266 22.6096 24.6027 22.6096ZM24.6027 2.44031C28.9851 2.44031 32.6704 5.47816 33.6664 9.56183H15.5389C16.5349 5.47816 20.2202 2.44031 24.6027 2.44031ZM15.2899 11.0559H33.8656C33.8656 11.3049 33.9154 11.5539 33.9154 11.8029C33.9154 16.9323 29.7321 21.1654 24.5529 21.1654C19.3736 21.1654 15.2401 16.9323 15.2401 11.7531C15.2401 11.5041 15.2401 11.2551 15.2899 11.0559Z" fill="#252525"/>
</g>
</g>
</svg>
