<svg width="50" height="50" viewBox="0 0 50 50" fill="none" xmlns="http://www.w3.org/2000/svg">
<g id="Tilda_Icons_7cafe_croissant">
<path id="Vector" d="M42.474 25.8526L42.8581 25.3519C42.8895 25.3106 42.9169 25.2662 42.9399 25.2189C43.3325 24.3958 43.3514 23.4297 42.9952 22.4252C42.4137 20.787 40.8134 19.0751 39.1029 18.2624C39.075 18.249 39.0466 18.2415 39.0182 18.232C38.9873 18.2111 38.9559 18.1897 38.921 18.1728C37.7173 17.5978 36.0816 17.3118 34.6526 17.4239C33.963 17.4782 33.3477 17.6217 32.8166 17.8434L33.0488 16.7538C33.0592 16.7024 33.0652 16.6501 33.0652 16.5983C33.0652 12.9552 28.0718 10.6299 24.634 10.6299C24.5881 10.6299 24.5428 10.6339 24.4989 10.6418C24.4551 10.6339 24.4103 10.6299 24.3639 10.6299C20.9276 10.6299 15.9357 12.9552 15.9357 16.5983C15.9357 16.6506 15.9412 16.7024 15.9521 16.7538L16.1644 17.7517C15.6382 17.5171 15.0289 17.3601 14.3448 17.2954C12.9183 17.1603 11.3434 17.4264 10.1282 18.0073C10.0953 18.0228 10.0664 18.0432 10.037 18.0626C10.0056 18.0726 9.97372 18.0816 9.94283 18.0965C8.72612 18.6755 7.52636 19.7323 6.73366 20.9226C5.7581 22.3879 5.53489 23.8552 6.10587 25.053C6.12829 25.0998 6.1557 25.1446 6.18759 25.1865L6.93495 26.1606C3.44626 29.0514 2.21561 32.9705 4.09697 35.4762C4.80447 36.4203 5.89213 37.0212 7.24236 37.2135C7.55675 37.2584 7.88061 37.2803 8.21194 37.2803C10.1162 37.2803 12.2492 36.5434 14.1639 35.2276C14.8724 35.8479 15.6004 36.232 16.4738 36.232C17.0293 36.232 17.6431 36.08 18.3482 35.7432L18.533 35.657C18.5604 35.6446 18.5868 35.6301 18.6122 35.6142C18.8369 35.4742 19.5938 34.9735 20.1842 34.2804C20.9754 35.6371 22.1657 36.3979 24.3649 36.3979H24.6345C26.7455 36.3979 27.9293 35.6999 28.722 34.4388C29.15 34.9829 29.7549 35.4597 30.5152 35.8225L30.6946 35.9067C31.4021 36.2445 32.0179 36.3964 32.5744 36.3964C33.6222 36.3964 34.4618 35.8489 35.3108 34.9909C37.3964 36.4776 39.8084 37.3341 41.8876 37.3341C42.2204 37.3341 42.5452 37.3122 42.8581 37.2679C44.1471 37.0845 45.177 36.5225 45.8371 35.6431C47.6841 33.1808 46.1685 28.8879 42.474 25.8526ZM7.45212 35.7333C6.50347 35.5982 5.75661 35.1992 5.29175 34.5788C3.93404 32.7707 5.05857 29.6786 7.84274 27.3449L12.5676 33.5046C12.7499 33.7269 12.9278 33.9381 13.1032 34.1409C11.2313 35.3631 9.12272 35.9699 7.45212 35.7333ZM19.4423 32.5849C19.4239 33.0722 18.5215 33.8958 17.8559 34.3223L17.7084 34.391C16.1928 35.1154 15.5969 34.8404 13.7384 32.5754L7.42571 24.3445C7.02862 23.4088 7.59711 22.3221 7.97777 21.7506C8.61751 20.7895 9.61648 19.9066 10.5851 19.4458C10.6184 19.4298 10.6483 19.4094 10.6782 19.3895C10.7101 19.3795 10.742 19.37 10.7729 19.3556C11.7395 18.8937 13.0543 18.674 14.2038 18.7831C14.9038 18.8494 16.1459 19.103 16.5998 20.0536C16.6213 20.0985 16.6516 20.1348 16.68 20.1732L18.8843 30.5321C19.0661 31.2705 19.2455 31.9466 19.4458 32.561C19.4448 32.5689 19.4423 32.5764 19.4423 32.5849ZM24.6335 34.9022H24.3639C21.8563 34.9022 21.2514 33.8948 20.3406 30.1973L17.4319 16.5246C17.5091 13.9676 21.5987 12.1246 24.3644 12.1246C24.4103 12.1246 24.4556 12.1206 24.4994 12.1126C24.5433 12.1206 24.5881 12.1246 24.6345 12.1246C27.4012 12.1246 31.4928 13.9676 31.57 16.5246L28.6632 30.1744C27.731 33.9516 27.1601 34.9022 24.6335 34.9022ZM31.3333 34.5549L31.154 34.4707C30.2247 34.0273 29.6159 33.3716 29.5242 32.7169C29.5222 32.701 29.5162 32.687 29.5132 32.6716C29.731 32.0219 29.9238 31.3014 30.1196 30.5087L32.3278 20.1403C32.7792 19.2061 34.0512 18.9704 34.7707 18.9136C35.9346 18.8225 37.3117 19.0601 38.2773 19.5215C38.3052 19.5349 38.3346 19.5429 38.363 19.5524C38.3944 19.5738 38.4263 19.5952 38.4617 19.6122C39.8204 20.2579 41.1347 21.6515 41.5866 22.9255C41.8004 23.5274 41.8113 24.06 41.62 24.5109L35.3227 32.7234C33.4508 35.0073 32.854 35.2804 31.3333 34.5549ZM44.6408 34.7453C44.2178 35.3088 43.5472 35.659 42.6474 35.7871C40.8178 36.0472 38.378 35.2933 36.3147 33.8664C36.375 33.7936 36.4333 33.7259 36.4946 33.6511L41.5662 27.0375C44.5213 29.4973 45.9562 32.9924 44.6408 34.7453Z" fill="#252525"/>
</g>
</svg>
