<svg width="34" height="40" viewBox="0 0 34 40" fill="none" xmlns="http://www.w3.org/2000/svg">
<g id="Group">
<path id="Vector" d="M32.0159 7.4105H30.4899C30.4873 7.4105 30.486 7.4105 30.4834 7.4105H25.6079C25.1834 7.4105 24.8384 7.75538 24.8384 8.17976C24.8384 8.60413 25.1834 8.94901 25.6079 8.94901H29.6435L28.8087 17.5852H23.6599C22.0262 15.4415 19.4832 14.1735 16.7761 14.1735C14.069 14.1735 11.526 15.4415 9.8923 17.5852H4.74352L3.90869 8.94901H21.4299C21.8543 8.94901 22.1993 8.60413 22.1993 8.17976C22.1993 7.75538 21.8543 7.4105 21.4299 7.4105H1.53757V5.92326C1.53757 4.67322 2.55452 3.65653 3.80484 3.65653H29.7461C30.9964 3.65653 32.0134 4.67322 32.0134 5.92326V7.4105H32.0159ZM26.7928 38.4628H6.76199L5.7579 28.0624H9.89358C11.5273 30.2061 14.0703 31.4728 16.7774 31.4728C19.4845 31.4728 22.0274 30.2048 23.6612 28.0624H27.7969L26.7928 38.4628ZM27.9456 26.5239H23.2688C23.0162 26.5239 22.7789 26.6483 22.6353 26.856C21.3042 28.7843 19.1152 29.9343 16.7774 29.9343C14.4396 29.9343 12.2506 28.783 10.9195 26.856C10.7759 26.6483 10.5386 26.5239 10.286 26.5239H5.60913L4.89487 19.1224H10.2872C10.5399 19.1224 10.7771 18.9981 10.9208 18.7904C12.2519 16.8621 14.4409 15.712 16.7787 15.712C19.1164 15.712 21.3055 16.8634 22.6366 18.7904C22.7802 18.9981 23.0174 19.1224 23.2701 19.1224H28.6625L27.9456 26.5239ZM29.7486 2.11802H28.4368V0.769256C28.4368 0.344883 28.0918 0 27.6673 0C27.2429 0 26.8979 0.344883 26.8979 0.769256V2.11674H3.80613C1.70687 2.11674 0 3.82447 0 5.92198V8.17847C0 8.60285 0.34496 8.94773 0.769428 8.94773H2.36473L5.29752 39.3051C5.33599 39.7 5.66684 40 6.0631 40H27.4904C27.8866 40 28.2188 39.6987 28.256 39.3051L31.1888 8.94773H32.7841C33.2085 8.94773 33.5535 8.60285 33.5535 8.17847V5.92198C33.5548 3.82447 31.8466 2.11802 29.7486 2.11802Z" fill="#252525"/>
</g>
</svg>
