<svg width="48" height="48" viewBox="0 0 48 48" fill="none" xmlns="http://www.w3.org/2000/svg">
<g clip-path="url(#clip0_862_13031)">
<path d="M16.4632 0.196873L16.2195 0.384373V2.49375V4.59375H15.1695C14.0257 4.60312 13.857 4.65937 13.6882 5.1C13.632 5.25937 13.5945 6.40312 13.5945 8.025V10.6969L12.9195 10.6687L12.2351 10.6406L12.207 7.0125L12.1882 3.38437L11.9445 3.19687C11.8038 3.08437 11.6163 3 11.5226 3C11.2788 3 5.05383 6.12187 4.85696 6.34687C4.71633 6.50625 4.68821 6.7875 4.66946 8.5875L4.64133 10.6406L3.45071 10.6687C2.29758 10.6969 2.25071 10.6969 2.06321 10.9406C1.87571 11.1844 1.87571 11.2312 1.87571 22.2187V33.2625L1.16321 33.3C0.0288307 33.3562 0.0944558 33.0937 0.0944558 37.275C0.0944558 40.6594 0.103831 40.7906 0.281956 40.9687C0.535081 41.2219 1.06008 41.2219 1.31321 40.9687C1.49133 40.7906 1.50071 40.6594 1.50071 37.7344V34.6875H8.43821H15.3757V40.6406V46.5938H8.43821H1.50071V45.0938C1.50071 43.7156 1.48196 43.575 1.31321 43.4062C1.06008 43.1531 0.535081 43.1531 0.281956 43.4062C0.103831 43.5844 0.0944558 43.7156 0.0944558 45.5625C0.0944558 47.5406 0.0944558 47.5406 0.328831 47.7656L0.553831 48H20.5601C39.9757 48 40.5757 47.9906 40.7913 47.8219C40.9507 47.7 41.007 47.55 41.007 47.2969C41.007 46.7906 40.7351 46.5938 40.0226 46.5938H39.4695V35.9156C39.4695 29.55 39.432 25.1344 39.3851 25.0031C39.3382 24.8719 38.8882 24.4219 38.3913 23.9906L37.4913 23.2031V19.3969C37.5007 15.8812 37.4913 15.5719 37.3413 15.3844C37.0976 15.0938 36.657 15.0375 36.3757 15.2625L36.1413 15.45L36.0945 18.7406L36.0476 22.0219L35.1851 21.3L34.3132 20.5781V16.7531V12.9375H39.5632H44.8132V29.7656V46.5938H44.2507C43.7726 46.5938 43.6413 46.6312 43.4538 46.8281C43.1538 47.1187 43.1538 47.475 43.4538 47.7656C43.6695 47.9906 43.7445 48 44.7195 48C45.6945 48 45.7695 47.9906 45.9851 47.7656L46.2195 47.5406V30.1875V12.8438H46.8757C47.457 12.8438 47.5695 12.8156 47.7663 12.6094C47.8976 12.4875 48.0007 12.3 48.0007 12.1969C48.0007 11.8312 46.8851 8.85938 46.6788 8.69062C46.5288 8.56875 46.3038 8.53125 45.7132 8.53125H44.9445L43.2757 5.71875C42.0663 3.68437 41.5413 2.8875 41.4007 2.85938C41.2976 2.83125 40.9976 2.80312 40.7351 2.79375L40.2663 2.76562L40.2195 1.55625C40.1726 0.375 40.1632 0.346874 39.9195 0.159374C39.7132 0 39.6101 -0.00937653 39.357 0.0562477C38.907 0.1875 38.8132 0.449997 38.8132 1.70625V2.8125H38.0351C37.3788 2.8125 37.2195 2.84062 37.0882 2.99062C37.0038 3.08437 36.3007 4.35938 35.532 5.82187L34.1445 8.48438L33.3476 8.5125C32.6726 8.53125 32.532 8.56875 32.3632 8.74687C32.1288 8.99062 31.1257 11.7937 31.1257 12.1875C31.1257 12.6281 31.4913 12.8438 32.2601 12.8438H32.907V16.0875C32.907 18.6469 32.8788 19.3125 32.7945 19.2562C32.7288 19.2187 31.8007 18.45 30.732 17.55L28.782 15.9187V10.575C28.782 4.94062 28.7726 4.80937 28.3601 4.65C28.2757 4.62187 27.7413 4.59375 27.1788 4.59375H26.157V2.48438C26.157 0.440624 26.1476 0.375 25.9507 0.1875C25.7538 0 25.6413 0 21.2257 0C16.8007 0 16.707 0 16.4632 0.196873ZM24.7507 3V4.59375H21.1882H17.6257V3V1.40625H21.1882H24.7507V3ZM41.3163 5.175C41.6351 5.70937 42.207 6.675 42.6007 7.33125L43.3038 8.53125H39.507H35.7101L36.432 7.14375C36.8257 6.38437 37.3413 5.41875 37.5663 4.9875L37.9882 4.21875H39.3663H40.7538L41.3163 5.175ZM10.782 7.78125V10.6875H8.43821H6.09446V8.95312V7.21875L8.41946 6.05625C9.69446 5.40937 10.7445 4.88437 10.7632 4.88437C10.7726 4.875 10.782 6.17812 10.782 7.78125ZM27.3757 13.6406C27.3757 21.1594 27.3757 21.2812 27.5632 21.4687C27.8163 21.7219 28.3226 21.7125 28.557 21.4594C28.7163 21.2812 28.7445 21.0656 28.782 19.5281L28.8288 17.7937L33.4413 21.6656L38.0632 25.5469V36.0656V46.5938H33.4226H28.782V35.4937C28.782 24.4125 28.782 24.4031 28.5851 24.15C28.4351 23.9625 28.3132 23.9062 28.032 23.9062C27.3288 23.9062 27.3757 23.0062 27.3757 35.4562V46.5938H22.0788H16.782V40.1812C16.782 32.6812 16.8851 33.3562 15.7132 33.3L15.0007 33.2625V19.6312V6H21.1882H27.3757V13.6406ZM46.0507 10.7062L46.3132 11.4375H39.5538C34.182 11.4375 32.8038 11.4094 32.832 11.3156C32.8601 11.2594 32.9726 10.9219 33.0851 10.5656L33.3007 9.9375L39.5445 9.95625L45.7788 9.98438L46.0507 10.7062ZM13.5945 22.6875V33.2812H8.43821H3.28196V22.6875V12.0938H8.43821H13.5945V22.6875Z" fill="#0057B8"/>
<path d="M17.3063 8.54086L17.0625 8.72836V19.969V31.2096L17.3063 31.3971C17.6156 31.6409 17.9156 31.6502 18.1969 31.4159L18.4219 31.2377V19.969V8.70023L18.1969 8.52211C17.9156 8.28773 17.6156 8.29711 17.3063 8.54086Z" fill="#0057B8"/>
<path d="M20.8688 8.54044L20.625 8.72794V19.9686V31.2092L20.8688 31.3967C21.2719 31.7154 21.675 31.6404 21.8906 31.2092C22.0969 30.8154 22.0969 9.12169 21.8906 8.72794C21.675 8.29668 21.2719 8.22169 20.8688 8.54044Z" fill="#0057B8"/>
<path d="M24.302 8.40891C24.2363 8.43704 24.1238 8.57766 24.0488 8.71829C23.8426 9.12141 23.8332 30.8058 24.0488 31.2089C24.2738 31.6495 24.7801 31.7339 25.1082 31.3777L25.3145 31.162V19.9589V8.74641L25.0988 8.54954C24.8926 8.35266 24.5738 8.29641 24.302 8.40891Z" fill="#0057B8"/>
<path d="M31.1344 27.6191C30.9469 27.8628 30.9375 27.9659 30.9375 31.3503C30.9375 34.7347 30.9469 34.8472 31.125 35.0441C31.4063 35.3441 31.8938 35.3253 32.1469 35.0066C32.3344 34.7628 32.3438 34.6503 32.3438 31.2941V27.8347L32.1094 27.6097C31.8 27.2909 31.3875 27.3003 31.1344 27.6191Z" fill="#0057B8"/>
<path d="M34.5947 27.6285C34.4072 27.8722 34.3978 27.9753 34.4259 29.0722C34.4541 30.0847 34.4822 30.291 34.6322 30.4597C34.8666 30.7128 35.3728 30.7222 35.6259 30.4691C35.7947 30.3003 35.8134 30.1597 35.8134 29.016C35.8134 27.8722 35.7947 27.7316 35.6259 27.5628C35.3447 27.2816 34.8478 27.3097 34.5947 27.6285Z" fill="#0057B8"/>
<path d="M34.6031 32.2123C34.4156 32.4561 34.4062 32.5686 34.4062 35.7842C34.4062 38.5123 34.4344 39.1498 34.5469 39.3654C34.7625 39.7967 35.1656 39.8717 35.5688 39.5529L35.8125 39.3654V35.8498C35.8125 32.4654 35.8031 32.3342 35.625 32.1561C35.3438 31.8748 34.8469 31.9029 34.6031 32.2123Z" fill="#0057B8"/>
<path d="M31.125 36.7503C30.9563 36.9191 30.9375 37.0597 30.9375 38.1847C30.9375 39.3097 30.9563 39.4503 31.125 39.6378C31.4063 39.9378 31.8938 39.9191 32.1469 39.6003C32.325 39.3753 32.3438 39.2253 32.3438 38.1566C32.3438 37.0409 32.3344 36.9566 32.1281 36.7691C31.8469 36.5066 31.3781 36.4972 31.125 36.7503Z" fill="#0057B8"/>
<path d="M31.125 41.3441C30.9563 41.5128 30.9375 41.6534 30.9375 42.7784C30.9375 43.9034 30.9563 44.0441 31.125 44.2316C31.4063 44.5316 31.8938 44.5128 32.1469 44.1941C32.325 43.9691 32.3438 43.8191 32.3438 42.7503C32.3438 41.6347 32.3344 41.5503 32.1281 41.3628C31.8469 41.1003 31.3781 41.0909 31.125 41.3441Z" fill="#0057B8"/>
<path d="M34.5947 41.4097C34.4072 41.6535 34.3978 41.7566 34.4259 42.8535C34.4541 43.866 34.4822 44.0722 34.6322 44.241C34.8666 44.4941 35.3728 44.5035 35.6259 44.2503C35.7947 44.0816 35.8134 43.941 35.8134 42.7972C35.8134 41.6535 35.7947 41.5128 35.6259 41.3441C35.3447 41.0628 34.8478 41.091 34.5947 41.4097Z" fill="#0057B8"/>
<path d="M5.15625 14.4378C5.04375 14.5503 4.96875 14.7472 4.96875 14.9535C4.96875 15.591 5.65313 15.891 6.075 15.441C6.34688 15.1503 6.3375 14.766 6.04688 14.4847C5.775 14.2035 5.40938 14.1847 5.15625 14.4378Z" fill="#0057B8"/>
<path d="M8.02747 14.4469C7.53997 14.8312 7.81184 15.6562 8.43997 15.6562C9.06809 15.6562 9.33997 14.8312 8.85247 14.4469C8.71184 14.3344 8.53372 14.25 8.43997 14.25C8.34622 14.25 8.16809 14.3344 8.02747 14.4469Z" fill="#0057B8"/>
<path d="M10.8286 14.4841C10.5286 14.7747 10.5193 15.1779 10.8099 15.4497C11.2599 15.881 11.9068 15.581 11.9068 14.9529C11.9068 14.306 11.2693 14.0341 10.8286 14.4841Z" fill="#0057B8"/>
<path d="M5.12976 17.6062C4.91414 17.8406 4.92351 18.4031 5.13914 18.5906C5.23289 18.6844 5.46726 18.75 5.65476 18.75C6.03914 18.75 6.28289 18.4969 6.28289 18.0938C6.28289 17.9625 6.21726 17.7562 6.13289 17.6437C5.94539 17.3812 5.35476 17.3531 5.12976 17.6062Z" fill="#0057B8"/>
<path d="M7.93125 17.6437C7.84688 17.7562 7.78125 17.9625 7.78125 18.0938C7.78125 18.5062 8.025 18.75 8.4375 18.75C8.85 18.75 9.09375 18.5062 9.09375 18.0938C9.09375 17.6812 8.85 17.4375 8.4375 17.4375C8.16563 17.4375 8.03438 17.4937 7.93125 17.6437Z" fill="#0057B8"/>
<path d="M10.7438 17.6437C10.6594 17.7562 10.5938 17.9625 10.5938 18.0938C10.5938 18.4969 10.8375 18.75 11.2406 18.75C11.6813 18.75 11.9062 18.525 11.9062 18.075C11.9062 17.6625 11.6719 17.4375 11.2219 17.4375C10.9781 17.4375 10.8469 17.4937 10.7438 17.6437Z" fill="#0057B8"/>
<path d="M5.15943 20.7188C4.7563 21.1219 5.03755 21.9375 5.5813 21.9375C5.90943 21.9375 6.28443 21.5437 6.28443 21.2062C6.28443 20.6437 5.55318 20.325 5.15943 20.7188Z" fill="#0057B8"/>
<path d="M7.96793 20.7188C7.68668 21 7.7148 21.4969 8.02418 21.7406C8.1648 21.8531 8.34293 21.9375 8.43668 21.9375C8.53043 21.9375 8.70855 21.8531 8.84918 21.7406C9.33668 21.3562 9.0648 20.5312 8.43668 20.5312C8.2773 20.5312 8.07105 20.6156 7.96793 20.7188Z" fill="#0057B8"/>
<path d="M10.7987 20.7472C10.5268 21.0379 10.5362 21.4222 10.8268 21.7035C11.2674 22.1535 11.9049 21.8816 11.9049 21.2347C11.9049 20.5972 11.2205 20.2972 10.7987 20.7472Z" fill="#0057B8"/>
<path d="M5.2125 23.8219C5.025 23.9719 4.96875 24.0937 4.96875 24.3656C4.96875 24.7969 5.19375 25.0312 5.60625 25.0312C6.23437 25.0312 6.50625 24.3094 6.04687 23.8594C5.76562 23.5781 5.54062 23.5687 5.2125 23.8219Z" fill="#0057B8"/>
<path d="M8.02747 23.8219C7.53997 24.2062 7.81184 25.0312 8.43997 25.0312C9.06809 25.0312 9.33997 24.2062 8.85247 23.8219C8.71184 23.7094 8.53372 23.625 8.43997 23.625C8.34622 23.625 8.16809 23.7094 8.02747 23.8219Z" fill="#0057B8"/>
<path d="M10.8273 23.8594C10.3585 24.3187 10.6398 25.0312 11.2773 25.0312C11.6804 25.0312 11.9054 24.7875 11.9054 24.3469C11.9054 24.0937 11.8398 23.9625 11.6616 23.8219C11.3335 23.5687 11.1085 23.5781 10.8273 23.8594Z" fill="#0057B8"/>
<path d="M5.12873 26.9814C4.87561 27.2626 4.92248 27.797 5.22248 28.0314C5.85998 28.5283 6.66623 27.572 6.09436 27.0001C5.85061 26.7564 5.33498 26.7564 5.12873 26.9814Z" fill="#0057B8"/>
<path d="M7.96793 27C7.68668 27.2812 7.7148 27.7781 8.02418 28.0219C8.1648 28.1344 8.34293 28.2188 8.43668 28.2188C8.53043 28.2188 8.70855 28.1344 8.84918 28.0219C9.33668 27.6375 9.0648 26.8125 8.43668 26.8125C8.2773 26.8125 8.07105 26.8969 7.96793 27Z" fill="#0057B8"/>
<path d="M10.7809 27.0001C10.2091 27.572 11.0153 28.5283 11.6528 28.0314C11.9622 27.7876 12.0091 27.2158 11.7372 26.972C11.5028 26.7564 11.0059 26.7751 10.7809 27.0001Z" fill="#0057B8"/>
<path d="M5.15625 30.0941C5.04375 30.2066 4.96875 30.4035 4.96875 30.6097C4.96875 31.2472 5.65313 31.5472 6.075 31.0972C6.34688 30.8066 6.3375 30.4222 6.04688 30.141C5.775 29.8597 5.40938 29.841 5.15625 30.0941Z" fill="#0057B8"/>
<path d="M7.98542 30.1219C7.56354 30.5719 7.83542 31.3125 8.43542 31.3125C9.04479 31.3125 9.32604 30.5344 8.87604 30.1125C8.59479 29.85 8.23854 29.85 7.98542 30.1219Z" fill="#0057B8"/>
<path d="M10.8286 30.1404C10.5286 30.431 10.5193 30.8341 10.8099 31.106C11.2599 31.5372 11.9068 31.2372 11.9068 30.6091C11.9068 29.9622 11.2693 29.6904 10.8286 30.1404Z" fill="#0057B8"/>
<path d="M39.2063 15.1873C39.0938 15.2342 38.9531 15.3842 38.9062 15.5155C38.85 15.6655 38.8125 17.2405 38.8125 19.3967C38.8125 22.9405 38.8219 23.0436 39.0094 23.2873C39.2531 23.5967 39.75 23.6248 40.0312 23.3436C40.2094 23.1655 40.2188 23.0342 40.2188 19.3217V15.478L39.975 15.2905C39.7031 15.0748 39.5438 15.0561 39.2063 15.1873Z" fill="#0057B8"/>
<path d="M41.8781 15.2812L41.625 15.478V19.303C41.625 23.6062 41.6156 23.5312 42.2719 23.5312C42.5156 23.5312 42.6844 23.4655 42.8063 23.3343C42.975 23.1468 42.9844 22.9405 42.9844 19.303C42.9844 15.103 43.0031 15.253 42.4219 15.1312C42.2156 15.0937 42.0656 15.1312 41.8781 15.2812Z" fill="#0057B8"/>
<path d="M41.867 26.1188C41.6514 26.3344 41.5952 26.6719 41.7264 26.925C41.8764 27.2156 41.9889 27.2812 42.3452 27.2812C42.6639 27.2812 43.0295 26.9344 43.0295 26.625C43.0295 26.5313 42.9452 26.3531 42.8327 26.2125C42.6077 25.9313 42.1014 25.875 41.867 26.1188Z" fill="#0057B8"/>
<path d="M41.8213 29.5876C41.5963 29.8689 41.587 29.9814 41.7182 30.3282C41.9057 30.8345 42.6932 30.8251 42.9276 30.3095C43.2557 29.597 42.2995 28.9782 41.8213 29.5876Z" fill="#0057B8"/>
<path d="M41.8224 32.9626C41.5599 33.2907 41.5787 33.6095 41.8599 33.8907C42.3099 34.3501 42.9755 34.0689 42.9755 33.422C42.9755 32.7657 42.2162 32.4657 41.8224 32.9626Z" fill="#0057B8"/>
<path d="M41.8599 36.328C41.5787 36.6092 41.5599 36.928 41.8224 37.2561C42.2162 37.753 42.9755 37.453 42.9755 36.7967C42.9755 36.1498 42.3099 35.8686 41.8599 36.328Z" fill="#0057B8"/>
<path d="M3.65543 37.125C3.37418 37.4062 3.4023 37.9031 3.71168 38.1469C3.95543 38.3438 4.04918 38.3438 8.43668 38.3438C12.8242 38.3438 12.9179 38.3438 13.1617 38.1469C13.4711 37.9031 13.4992 37.4062 13.2179 37.125C13.0398 36.9469 12.9086 36.9375 8.43668 36.9375C3.9648 36.9375 3.83355 36.9469 3.65543 37.125Z" fill="#0057B8"/>
<path d="M42.0015 39.5908C41.8703 39.6564 41.739 39.8345 41.6828 40.0126C41.6171 40.2658 41.6265 40.3689 41.7859 40.5751C42.0015 40.8658 42.489 40.9595 42.7234 40.772C43.1171 40.4345 43.0421 39.722 42.5921 39.5533C42.3015 39.4501 42.2828 39.4501 42.0015 39.5908Z" fill="#0057B8"/>
<path d="M3.6571 40.125C3.42273 40.3594 3.41335 40.7906 3.64773 41.0719L3.82585 41.2969H8.43835H13.0509L13.229 41.0719C13.4634 40.7906 13.454 40.3594 13.2196 40.125C13.0415 39.9469 12.9102 39.9375 8.43835 39.9375C3.96648 39.9375 3.83523 39.9469 3.6571 40.125Z" fill="#0057B8"/>
<path d="M3.87314 42.9375C3.47939 43.0969 3.34814 43.6594 3.62001 44.0437L3.76064 44.25H8.43876H13.1169L13.2575 44.0437C13.4544 43.7625 13.445 43.3781 13.2294 43.1156L13.0513 42.8906L8.56064 42.8719C6.09501 42.8625 3.98564 42.8906 3.87314 42.9375Z" fill="#0057B8"/>
<path d="M41.867 43.0875C41.6514 43.3031 41.5952 43.6406 41.7264 43.8938C41.8764 44.1844 41.9889 44.25 42.3452 44.25C42.6639 44.25 43.0295 43.9031 43.0295 43.5938C43.0295 43.5 42.9452 43.3219 42.8327 43.1813C42.6077 42.9 42.1014 42.8438 41.867 43.0875Z" fill="#0057B8"/>
</g>
<defs>
<clipPath id="clip0_862_13031">
<rect width="48" height="48" fill="white"/>
</clipPath>
</defs>
</svg>
