<svg width="22" height="30" viewBox="0 0 22 30" fill="none" xmlns="http://www.w3.org/2000/svg">
<path fill-rule="evenodd" clip-rule="evenodd" d="M1.63914 13.0578V28.9655H0.517241C0.231724 28.9655 0 29.1972 0 29.4828C0 29.7683 0.231724 30 0.517241 30H21.0114C21.2969 30 21.5286 29.7683 21.5286 29.4828C21.5286 29.1972 21.2969 28.9655 21.0114 28.9655H20.1626V13.0578H20.25C20.6617 13.0578 21.0564 12.8943 21.3476 12.6036C21.6383 12.3124 21.8017 11.9178 21.8017 11.506V1.55172C21.8017 1.14 21.6383 0.745345 21.3476 0.454655C21.0564 0.163448 20.6617 0 20.25 0C16.7085 0 5.09328 0 1.55172 0C1.14 0 0.745345 0.163448 0.454138 0.454655C0.163448 0.745345 0 1.14 0 1.55172C0 3.825 0 9.23328 0 11.506C0 11.9178 0.163448 12.3124 0.454138 12.6036C0.745345 12.8943 1.14 13.0578 1.55172 13.0578H1.63914ZM2.67362 28.9655V13.0578H19.1281V28.9655H2.67362ZM18.1422 14.4828C18.1422 14.1972 17.9105 13.9655 17.625 13.9655H4.17672C3.89121 13.9655 3.65948 14.1972 3.65948 14.4828V27.6248C3.65948 27.9103 3.89121 28.1421 4.17672 28.1421H17.625C17.9105 28.1421 18.1422 27.9103 18.1422 27.6248V14.4828ZM8.74397 15H4.69397V27.1076H7.46741L6.56121 19.0847C6.54466 18.9388 6.59121 18.7919 6.68948 18.6822C6.78776 18.5726 6.92793 18.5095 7.07535 18.5095H14.7264C14.8738 18.5095 15.014 18.5726 15.1122 18.6822C15.2105 18.7919 15.2571 18.9388 15.2405 19.0847L14.3343 27.1076H17.1078V15H13.0578V16.2491C13.0578 16.5347 12.826 16.7664 12.5405 16.7664H11.4181V17.069C11.4181 17.3545 11.1864 17.5862 10.9009 17.5862C10.6153 17.5862 10.3836 17.3545 10.3836 17.069V16.7664H9.26121C8.97569 16.7664 8.74397 16.5347 8.74397 16.2491V15ZM13.7803 22.7948C13.2248 23.1466 12.7381 23.2712 12.3 23.2712C11.6741 23.2712 11.129 23.0069 10.5936 22.6841C9.84879 22.2352 9.12207 21.6197 7.95828 22.2367L8.47138 26.7797H13.3303L13.7803 22.7948ZM7.83569 21.151C8.96328 20.686 9.7981 21.0129 10.574 21.4629C10.8967 21.6502 11.2066 21.8622 11.5298 22.0236C11.7853 22.1509 12.0491 22.2465 12.3455 22.2357C12.7697 22.2202 13.2393 21.991 13.831 21.45C13.8647 21.4184 13.9019 21.3931 13.9412 21.3724L14.1476 19.544H7.65414L7.83569 21.151ZM12.0233 15.1267V15.7319H9.77845V15.1267H12.0233ZM20.7672 8.7931H1.03448V11.506C1.03448 11.6431 1.08879 11.775 1.18552 11.8717C1.28276 11.969 1.41414 12.0233 1.55172 12.0233H20.25C20.3876 12.0233 20.519 11.969 20.6162 11.8717C20.7129 11.775 20.7672 11.6431 20.7672 11.506V8.7931ZM17.43 1.03448V4.88948C17.43 5.175 17.1983 5.40672 16.9128 5.40672H4.88897C4.60345 5.40672 4.37172 5.175 4.37172 4.88948V1.03448H1.55172C1.41414 1.03448 1.28276 1.08879 1.18552 1.18603C1.08879 1.28276 1.03448 1.41466 1.03448 1.55172V7.75862H20.7672V1.55172C20.7672 1.41466 20.7129 1.28276 20.6162 1.18603C20.519 1.08879 20.3876 1.03448 20.25 1.03448H17.43ZM16.3955 1.03448V4.37224H5.40621V1.03448H8.05655H16.3955ZM9.80793 3.22034H11.9938C12.2793 3.22034 12.511 2.98862 12.511 2.7031C12.511 2.4181 12.2793 2.18586 11.9938 2.18586H9.80793C9.52241 2.18586 9.29069 2.4181 9.29069 2.7031C9.29069 2.98862 9.52241 3.22034 9.80793 3.22034Z" fill="#0057B8"/>
</svg>
