<svg width="50" height="50" viewBox="0 0 50 50" fill="none" xmlns="http://www.w3.org/2000/svg">
<g id="ph:house-line-thin">
<path id="Vector" d="M46.875 41.4065H42.9688V22.5667C42.9686 22.2429 42.9013 21.9227 42.7712 21.6262C42.6411 21.3297 42.451 21.0634 42.2129 20.844L26.5762 6.08032C26.1429 5.68638 25.5778 5.46891 24.9922 5.47071C24.4067 5.47252 23.8429 5.69348 23.4121 6.09009L7.79883 20.8342C7.55734 21.0537 7.36433 21.3211 7.23216 21.6194C7.09998 21.9177 7.03155 22.2404 7.03125 22.5667V41.4065H3.125C2.9178 41.4065 2.71909 41.4888 2.57257 41.6353C2.42606 41.7818 2.34375 41.9805 2.34375 42.1877C2.34375 42.3949 2.42606 42.5937 2.57257 42.7402C2.71909 42.8867 2.9178 42.969 3.125 42.969H46.875C47.0822 42.969 47.2809 42.8867 47.4274 42.7402C47.5739 42.5937 47.6562 42.3949 47.6562 42.1877C47.6562 41.9805 47.5739 41.7818 47.4274 41.6353C47.2809 41.4888 47.0822 41.4065 46.875 41.4065ZM8.59375 22.5667C8.59499 22.4559 8.61924 22.3466 8.66497 22.2458C8.7107 22.1449 8.7769 22.0546 8.85938 21.9807L24.4727 7.23657C24.6159 7.10864 24.8011 7.03793 24.9932 7.03793C25.1852 7.03793 25.3705 7.10864 25.5137 7.23657L41.1504 21.9983C41.2319 22.0724 41.2969 22.1629 41.341 22.2639C41.3851 22.3649 41.4073 22.474 41.4062 22.5842V41.4065H30.4688V31.2502C30.4688 30.6286 30.2218 30.0325 29.7823 29.593C29.3427 29.1534 28.7466 28.9065 28.125 28.9065H21.875C21.2534 28.9065 20.6573 29.1534 20.2177 29.593C19.7782 30.0325 19.5312 30.6286 19.5312 31.2502V41.4065H8.59375V22.5667ZM28.9062 41.4065H21.0938V31.2502C21.0938 31.043 21.1761 30.8443 21.3226 30.6978C21.4691 30.5513 21.6678 30.469 21.875 30.469H28.125C28.3322 30.469 28.5309 30.5513 28.6774 30.6978C28.8239 30.8443 28.9062 31.043 28.9062 31.2502V41.4065Z" fill="#252525"/>
</g>
</svg>
