<svg width="50" height="50" viewBox="0 0 50 50" fill="none" xmlns="http://www.w3.org/2000/svg">
<g id="Tilda_Icons_7cafe_man">
<g id="Group">
<path id="Vector" d="M25.7358 26.3779C16.3634 26.3779 8.73828 34.0025 8.73828 43.3749C8.73828 43.788 9.0726 44.1223 9.48564 44.1223H41.9824C42.3955 44.1223 42.7298 43.788 42.7298 43.3749C42.7293 34.0025 35.1062 26.3779 25.7358 26.3779ZM34.8227 42.6276H16.8272V30.6977C17.9921 29.8771 19.2736 29.2119 20.6428 28.7341V35.1799C20.6428 35.5929 20.9771 35.9272 21.3901 35.9272H30.1218C30.5348 35.9272 30.8692 35.5929 30.8692 35.1799V28.7481C32.2986 29.2513 33.6319 29.9588 34.8352 30.8347C34.8282 30.8761 34.8222 30.9174 34.8222 30.9608L34.8227 42.6276ZM29.3744 28.3066V34.432H22.1375V28.2972C23.2929 28.0216 24.4972 27.8727 25.7358 27.8727C26.9889 27.8727 28.2071 28.0246 29.3744 28.3066ZM15.3325 31.8959V42.6276H10.2504C10.4532 38.3796 12.3759 34.578 15.3325 31.8959ZM36.3174 42.6276V32.0619C39.1709 34.7334 41.0188 38.4673 41.2166 42.6276H36.3174Z" fill="#252525"/>
<path id="Vector_2" d="M25.4513 24.6918C30.8542 24.6918 35.2497 20.2978 35.2497 14.8974C35.2497 9.49448 30.8542 5.099 25.4513 5.099C20.0478 5.099 15.6523 9.49448 15.6523 14.8974C15.6518 20.2983 20.0478 24.6918 25.4513 24.6918ZM25.4513 6.59372C28.9439 6.59372 31.9344 8.76456 33.1585 11.8253C31.8422 11.2363 29.6873 10.1138 28.3077 9.36195C28.0984 9.24785 27.8463 9.24088 27.6306 9.34252C27.5972 9.35846 24.2734 10.9304 22.1145 11.8302L21.9093 11.9159C20.3009 12.5881 19.2586 13.022 17.313 13.2457C18.0808 9.45612 21.4379 6.59372 25.4513 6.59372ZM17.1535 14.7664C19.5247 14.5322 20.7244 14.0315 22.4857 13.2951L22.69 13.2099C24.4682 12.4685 27.0122 11.2842 27.927 10.8552C29.064 11.468 32.4266 13.2542 33.6458 13.6154C33.7111 14.0345 33.7549 14.46 33.7549 14.8969C33.7549 19.4738 30.0301 23.1966 25.4513 23.1966C20.8724 23.1966 17.1471 19.4733 17.1471 14.8969C17.1466 14.8536 17.1525 14.8107 17.1535 14.7664Z" fill="#252525"/>
</g>
</g>
</svg>
