<svg width="50" height="41" viewBox="0 0 50 41" fill="none" xmlns="http://www.w3.org/2000/svg">
<g id="Group">
<path id="Vector" d="M35.8132 28.6822C35.8105 28.6822 35.8073 28.6822 35.8046 28.6822C35.523 28.6789 35.2634 28.5298 35.1191 28.288L27.4417 15.3946C27.4202 15.3585 27.4019 15.3214 27.3863 15.2826C26.4289 13.7108 25.9238 11.9097 25.9238 10.0633C25.9335 4.51122 30.4544 0 36.0038 0C36.0081 0 36.0119 0 36.0162 0C38.7101 0.00376922 41.2393 1.05592 43.1379 2.96207C45.0354 4.86661 46.0779 7.39845 46.0741 10.0902C46.0741 11.9091 45.5712 13.7006 44.6181 15.282C44.5998 15.3337 44.5756 15.3833 44.5459 15.4312L36.4987 28.3031C36.35 28.5384 36.091 28.6822 35.8132 28.6822ZM28.9042 14.693L35.8299 26.3243L43.0862 14.7177C43.1045 14.6682 43.1276 14.6197 43.1562 14.574C44.008 13.2133 44.4582 11.6625 44.4582 10.0897V10.0886C44.462 7.82706 43.5864 5.70122 41.9931 4.10145C40.3993 2.50169 38.2756 1.61861 36.014 1.61484C36.0108 1.61484 36.007 1.61484 36.0033 1.61484C31.3429 1.61484 27.5467 5.40291 27.5392 10.0644C27.5392 11.655 27.9867 13.2068 28.8326 14.5508C28.8617 14.5955 28.8854 14.6434 28.9042 14.693Z" fill="#252525"/>
<path id="Vector_2" d="M36.0057 13.847C36.003 13.847 36.0003 13.847 35.9971 13.847C34.8598 13.847 33.7888 13.4028 32.9838 12.5962C32.1778 11.7885 31.7352 10.7159 31.7373 9.57489C31.7384 8.43766 32.1832 7.36774 32.9898 6.56328C33.7953 5.76044 34.8647 5.31836 36.0025 5.31836C36.0035 5.31836 36.0052 5.31836 36.0068 5.31836C38.3571 5.32105 40.2681 7.23689 40.266 9.58943C40.2649 10.7283 39.8201 11.7987 39.0135 12.6032C38.2085 13.4055 37.1408 13.847 36.0057 13.847ZM36.0019 6.93374C35.2955 6.93374 34.6305 7.20836 34.1302 7.70751C33.6295 8.20666 33.3532 8.87112 33.3527 9.57758C33.3516 10.2867 33.6268 10.9533 34.1275 11.4552C34.6272 11.956 35.2922 12.2317 35.9987 12.2317C36.0003 12.2317 36.0019 12.2317 36.0041 12.2317C36.7105 12.2317 37.3734 11.9576 37.8731 11.4595C38.3738 10.9603 38.6501 10.2954 38.6506 9.58835C38.6517 8.12697 37.4649 6.9359 36.0046 6.93428C36.0041 6.93374 36.003 6.93374 36.0019 6.93374Z" fill="#252525"/>
<path id="Vector_3" d="M49.1925 40.1395H0.807506C0.536122 40.1395 0.283045 40.0033 0.133353 39.7766C-0.0158005 39.5504 -0.0416466 39.264 0.0649686 39.0141L8.86611 18.4223C8.99318 18.1251 9.28557 17.9318 9.60864 17.9318H30.376C30.8224 17.9318 31.1837 18.2931 31.1837 18.7395C31.1837 19.1858 30.8224 19.5471 30.376 19.5471H10.1417L2.03089 38.5236H47.9686L40.1081 20.1351C39.9326 19.7248 40.1232 19.2505 40.5335 19.0749C40.9422 18.8999 41.4182 19.0895 41.5937 19.5003L49.935 39.0136C50.0416 39.2634 50.0158 39.5499 49.8666 39.776C49.717 40.0033 49.4639 40.1395 49.1925 40.1395Z" fill="#252525"/>
<path id="Vector_4" d="M35.9083 39.9947C35.5034 39.9947 35.1539 39.691 35.1071 39.2786C35.1022 39.2387 34.5864 35.2649 29.0225 34.321C28.505 34.2332 27.6796 34.153 26.7233 34.0609C21.4576 33.5515 16.6546 32.8903 15.7284 30.4279C15.1307 28.8394 16.0041 27.6285 16.7052 26.6555C17.473 25.5904 17.7261 25.1251 17.3341 24.4569C17.0859 24.0337 16.2954 23.6891 15.5308 23.3558C14.0339 22.7032 11.9834 21.8093 11.9727 19.3593C11.9705 18.9129 12.3307 18.55 12.7766 18.5479C12.7777 18.5479 12.7793 18.5479 12.7804 18.5479C13.2251 18.5479 13.5859 18.907 13.588 19.3518C13.594 20.6548 14.5702 21.1745 16.177 21.875C17.1785 22.3117 18.214 22.7629 18.7282 23.6401C19.6893 25.2791 18.7223 26.621 18.0163 27.6005C17.354 28.5191 16.962 29.1194 17.241 29.8593C17.8898 31.584 23.9615 32.1709 26.8794 32.4536C27.8664 32.5489 28.7188 32.6313 29.2928 32.7287C36.0408 33.8741 36.688 38.8834 36.7122 39.096C36.7629 39.5392 36.4446 39.9393 36.0015 39.9899C35.9702 39.9931 35.939 39.9947 35.9083 39.9947Z" fill="#252525"/>
</g>
</svg>
