<svg width="48" height="48" viewBox="0 0 48 48" fill="none" xmlns="http://www.w3.org/2000/svg">
<g clip-path="url(#clip0_862_13011)">
<path opacity="0.936" fill-rule="evenodd" clip-rule="evenodd" d="M23.5788 -0.046875C23.8289 -0.046875 24.0788 -0.046875 24.3288 -0.046875C24.4829 0.0296658 24.5923 0.154666 24.6569 0.328125C24.673 0.83102 24.7199 1.33102 24.7976 1.82812C25.3594 1.53108 25.9532 1.42171 26.5788 1.5C26.7507 1.54687 26.8601 1.65625 26.9069 1.82812C26.9835 2.1529 26.9522 2.4654 26.8132 2.76562C26.4037 2.98027 25.9818 3.16777 25.5476 3.32812C25.7022 3.52968 25.874 3.71718 26.0632 3.89062C26.4225 5.03125 26.032 5.42187 24.8913 5.0625C24.593 4.7485 24.2805 4.45162 23.9538 4.17187C23.5927 4.51747 23.2177 4.84559 22.8288 5.15625C21.907 5.35938 21.5475 5 21.7507 4.07812C21.936 3.81454 22.1392 3.56453 22.3601 3.32812C21.9258 3.16777 21.5039 2.98027 21.0944 2.76562C20.8967 2.36429 20.9124 1.97366 21.1413 1.59375C21.8241 1.38667 22.4804 1.4648 23.1101 1.82812C23.1878 1.33102 23.2347 0.83102 23.2507 0.328125C23.3154 0.154666 23.4247 0.0296658 23.5788 -0.046875Z" fill="#0057B8"/>
<path opacity="0.982" fill-rule="evenodd" clip-rule="evenodd" d="M47.9531 25.0785C47.9531 32.5785 47.9531 40.0785 47.9531 47.5785C47.8594 47.7348 47.7344 47.8598 47.5781 47.9535C31.8281 47.9535 16.0781 47.9535 0.328125 47.9535C0.171875 47.8598 0.046875 47.7348 -0.046875 47.5785C-0.046875 40.0785 -0.046875 32.5785 -0.046875 25.0785C0.239623 24.7278 0.614623 24.6185 1.07812 24.7504C1.71721 25.3113 2.34221 25.8894 2.95312 26.4848C3.52988 25.9549 4.09238 25.4081 4.64062 24.8442C5.01562 24.6567 5.39062 24.6567 5.76562 24.8442C5.82429 24.9145 5.87117 24.9927 5.90625 25.0785C5.95312 26.4532 5.96874 27.8282 5.95312 29.2035C6.70312 29.2035 7.45312 29.2035 8.20312 29.2035C8.18751 27.8282 8.20313 26.4532 8.25 25.0785C8.39331 24.7958 8.62768 24.6708 8.95312 24.7035C9.1532 24.7049 9.3407 24.7518 9.51562 24.8442C10.0639 25.4081 10.6264 25.9549 11.2031 26.4848C11.7799 25.9549 12.3424 25.4081 12.8906 24.8442C13.2656 24.6567 13.6406 24.6567 14.0156 24.8442C14.0743 24.9145 14.1212 24.9927 14.1562 25.0785C14.2031 27.9534 14.2188 30.8284 14.2031 33.7035C15.2032 33.7035 16.2031 33.7035 17.2031 33.7035C17.1875 28.3285 17.2031 22.9534 17.25 17.5785C18.0667 16.8253 18.9416 16.1378 19.875 15.516C20.9872 12.2729 22.081 9.02298 23.1562 5.76604C23.2651 5.3598 23.5308 5.1723 23.9531 5.20354C24.3755 5.1723 24.6412 5.3598 24.75 5.76604C25.8252 9.02298 26.919 12.2729 28.0312 15.516C28.9646 16.1378 29.8396 16.8253 30.6562 17.5785C30.7031 22.9534 30.7188 28.3285 30.7031 33.7035C31.7032 33.7035 32.7031 33.7035 33.7031 33.7035C33.6875 30.8284 33.7031 27.9534 33.75 25.0785C33.8933 24.7958 34.1277 24.6708 34.4531 24.7035C34.6532 24.7049 34.8407 24.7518 35.0156 24.8442C35.5639 25.4081 36.1264 25.9549 36.7031 26.4848C37.2799 25.9549 37.8424 25.4081 38.3906 24.8442C38.7656 24.6567 39.1406 24.6567 39.5156 24.8442C39.5743 24.9145 39.6212 24.9927 39.6562 25.0785C39.7031 26.4532 39.7188 27.8282 39.7031 29.2035C40.4531 29.2035 41.2031 29.2035 41.9531 29.2035C41.9375 27.8282 41.9531 26.4532 42 25.0785C42.1433 24.7958 42.3777 24.6708 42.7031 24.7035C42.9032 24.7049 43.0907 24.7518 43.2656 24.8442C43.8139 25.4081 44.3764 25.9549 44.9531 26.4848C45.564 25.8894 46.189 25.3113 46.8281 24.7504C47.2916 24.6185 47.6666 24.7278 47.9531 25.0785ZM23.8594 8.67229C23.9528 8.66949 24.0154 8.71636 24.0469 8.81292C24.7477 10.9464 25.4663 13.0714 26.2031 15.1879C25.4641 15.5731 24.7141 15.9325 23.9531 16.266C23.1922 15.9325 22.4422 15.5731 21.7031 15.1879C22.4688 13.0316 23.1876 10.8597 23.8594 8.67229ZM21.7031 17.016C22.3374 17.2862 22.9625 17.5831 23.5781 17.9067C23.8282 17.9692 24.0781 17.9692 24.3281 17.9067C24.9218 17.6098 25.5157 17.3129 26.1094 17.016C26.203 18.327 26.2343 19.6395 26.2031 20.9535C24.7031 20.9535 23.2031 20.9535 21.7031 20.9535C21.7031 19.641 21.7031 18.3285 21.7031 17.016ZM20.1094 17.2973C20.2027 18.4994 20.234 19.7182 20.2031 20.9535C19.7032 20.9535 19.2031 20.9535 18.7031 20.9535C18.672 20.0763 18.7033 19.2014 18.7969 18.3285C19.2409 17.983 19.6784 17.6392 20.1094 17.2973ZM27.7031 17.2973C28.1857 17.6173 28.6545 17.961 29.1094 18.3285C29.2029 19.2014 29.2342 20.0763 29.2031 20.9535C28.7032 20.9535 28.2031 20.9535 27.7031 20.9535C27.7031 19.7348 27.7031 18.516 27.7031 17.2973ZM18.7031 22.4535C22.2031 22.4535 25.7032 22.4535 29.2031 22.4535C29.2031 26.2035 29.2031 29.9535 29.2031 33.7035C25.7032 33.7035 22.2031 33.7035 18.7031 33.7035C18.7031 29.9535 18.7031 26.2035 18.7031 22.4535ZM23.2969 25.5473C24.6545 25.3427 25.5763 25.874 26.0625 27.141C26.2843 28.4635 25.7687 29.3541 24.5156 29.8129C23.1932 30.0347 22.3026 29.5191 21.8438 28.266C21.6404 26.9849 22.1248 26.0786 23.2969 25.5473ZM1.45312 27.4223C1.77788 27.7 2.09039 27.9969 2.39062 28.3129C2.76562 28.5004 3.14062 28.5004 3.51562 28.3129C3.8125 28.016 4.10937 27.7192 4.40625 27.4223C4.41042 28.4626 4.47292 29.4939 4.59375 30.516C4.6641 30.5747 4.74223 30.6216 4.82812 30.6567C6.32812 30.7192 7.82812 30.7192 9.32812 30.6567C9.414 30.6216 9.49219 30.5747 9.5625 30.516C9.68334 29.4939 9.74588 28.4626 9.75 27.4223C10.0469 27.7192 10.3437 28.016 10.6406 28.3129C11.0156 28.5004 11.3906 28.5004 11.7656 28.3129C12.0625 28.016 12.3593 27.7192 12.6562 27.4223C12.7031 33.766 12.7188 40.1098 12.7031 46.4535C8.95312 46.4535 5.20312 46.4535 1.45312 46.4535C1.45312 40.1098 1.45312 33.7661 1.45312 27.4223ZM35.2031 27.4223C35.5279 27.7 35.8403 27.9969 36.1406 28.3129C36.5156 28.5004 36.8906 28.5004 37.2656 28.3129C37.5625 28.016 37.8593 27.7192 38.1562 27.4223C38.1604 28.4626 38.2229 29.4939 38.3438 30.516C38.4141 30.5747 38.4922 30.6216 38.5781 30.6567C40.0781 30.7192 41.5781 30.7192 43.0781 30.6567C43.164 30.6216 43.2422 30.5747 43.3125 30.516C43.4333 29.4939 43.4959 28.4626 43.5 27.4223C43.7969 27.7192 44.0937 28.016 44.3906 28.3129C44.7656 28.5004 45.1406 28.5004 45.5156 28.3129C45.8125 28.016 46.1093 27.7192 46.4062 27.4223C46.4531 33.766 46.4688 40.1098 46.4531 46.4535C42.7031 46.4535 38.9531 46.4535 35.2031 46.4535C35.2031 40.1098 35.2031 33.7661 35.2031 27.4223ZM14.2031 35.2035C20.7031 35.2035 27.2032 35.2035 33.7031 35.2035C33.7031 38.9535 33.7031 42.7035 33.7031 46.4535C32.2031 46.4535 30.7031 46.4535 29.2031 46.4535C29.2188 44.8595 29.2031 43.2658 29.1562 41.6723C28.1515 38.3955 25.9484 37.0362 22.5469 37.5942C20.5251 38.2458 19.2594 39.6052 18.75 41.6723C18.7031 43.2658 18.6875 44.8595 18.7031 46.4535C17.2031 46.4535 15.7031 46.4535 14.2031 46.4535C14.2031 42.7035 14.2031 38.9535 14.2031 35.2035ZM23.2031 39.0473C25.8307 38.8834 27.315 40.1022 27.6562 42.7035C27.7031 43.9531 27.7188 45.2032 27.7031 46.4535C25.2031 46.4535 22.7032 46.4535 20.2031 46.4535C20.1875 45.2032 20.2031 43.9531 20.25 42.7035C20.3951 40.794 21.3795 39.5753 23.2031 39.0473Z" fill="#0057B8"/>
<path opacity="0.927" fill-rule="evenodd" clip-rule="evenodd" d="M23.1106 23.9527C25.2508 23.6758 26.7353 24.5196 27.5637 26.4839C28.0998 28.7711 27.3029 30.3805 25.1731 31.312C22.8859 31.8481 21.2765 31.0512 20.345 28.9214C19.8222 26.4349 20.7441 24.7786 23.1106 23.9527ZM23.2981 25.5464C22.1261 26.0777 21.6417 26.984 21.845 28.2652C22.3038 29.5182 23.1944 30.0339 24.5169 29.812C25.7699 29.3532 26.2856 28.4626 26.0637 27.1402C25.5776 25.8731 24.6557 25.3419 23.2981 25.5464Z" fill="#0057B8"/>
</g>
<defs>
<clipPath id="clip0_862_13011">
<rect width="48" height="48" fill="white"/>
</clipPath>
</defs>
</svg>
