<svg width="50" height="50" viewBox="0 0 50 50" fill="none" xmlns="http://www.w3.org/2000/svg">
<g id="Tilda_Icons_24fn_signature">
<g id="Group">
<path id="Vector" d="M5.67426 42.6193C5.67526 42.6253 5.67774 42.6307 5.67923 42.6367C5.68915 42.6843 5.70404 42.7305 5.7234 42.7751C5.72985 42.79 5.73729 42.8039 5.74474 42.8183C5.7631 42.8541 5.78394 42.8873 5.80826 42.9201C5.81818 42.9335 5.82761 42.9469 5.83853 42.9598C5.86732 42.9935 5.90007 43.0243 5.9363 43.0526C5.94374 43.0585 5.9492 43.0665 5.95665 43.0719C5.95814 43.0729 5.96012 43.0734 5.96161 43.0744C5.96409 43.0764 5.96608 43.0789 5.96856 43.0804C6.00776 43.1077 6.05044 43.1225 6.09263 43.1414C6.11694 43.1523 6.13928 43.1687 6.16459 43.1766C6.23605 43.1995 6.3095 43.2114 6.38295 43.2114H6.38345C6.38394 43.2114 6.38493 43.2114 6.38493 43.2114C6.46434 43.2114 6.54176 43.1935 6.6167 43.1677C6.62613 43.1642 6.63655 43.1657 6.64647 43.1622L17.3398 38.9791C17.5983 38.8779 17.7755 38.6377 17.7963 38.3603L18.1695 33.3012C18.172 33.2977 18.176 33.2962 18.1785 33.2928L36.0147 7.65604C36.1244 7.49922 36.1666 7.30468 36.1323 7.11659C36.0991 6.9285 35.9914 6.76125 35.8341 6.65157L30.173 2.71758C29.8465 2.49128 29.3978 2.57118 29.1695 2.89822L11.3398 28.534C11.3353 28.5409 11.3323 28.5483 11.3284 28.5548L6.86285 30.6828C6.62811 30.7945 6.47178 31.0238 6.45392 31.2828L5.66434 42.4397C5.66384 42.4446 5.66533 42.4491 5.66533 42.4541C5.66235 42.5096 5.66434 42.5647 5.67426 42.6193ZM29.9418 4.31311L34.4187 7.42478L17.4063 31.8774L12.9358 28.7652L29.9418 4.31311ZM11.9661 29.8481L16.7328 33.1657L16.3909 37.8014L8.35218 40.9459L11.1289 37.001C11.3576 36.6754 11.2797 36.2258 10.9542 35.9965C10.6281 35.7672 10.1785 35.8451 9.9492 36.1717L7.28617 39.9553L7.86335 31.8034L11.9661 29.8481Z" fill="#252525"/>
<path id="Vector_2" d="M46.778 45.5275H2.52187C2.12336 45.5275 1.80078 45.85 1.80078 46.2486C1.80078 46.6471 2.12336 46.9696 2.52187 46.9696H46.778C47.1765 46.9696 47.499 46.6471 47.499 46.2486C47.499 45.85 47.1765 45.5275 46.778 45.5275Z" fill="#252525"/>
<path id="Vector_3" d="M36.426 36.8432C36.7873 38.6248 36.2925 39.7275 36.0131 39.7851C35.9069 39.8044 35.6488 39.6898 35.3392 39.2834C34.961 38.7881 34.6513 38.0422 34.489 37.2372C34.4866 37.2258 34.4836 37.2139 34.4806 37.203C33.9903 34.8645 32.6072 33.3116 31.2677 33.5841C30.0523 33.8307 29.3972 35.4625 29.6186 37.5057C29.6121 37.5747 29.6121 37.6451 29.6265 37.7166C30.0627 39.8759 29.5218 41.4774 28.9734 41.5896C28.7154 41.6427 28.3203 41.3707 27.9605 40.8987C27.4826 40.2724 27.089 39.3394 26.8771 38.3325C26.8756 38.3231 26.8737 38.3141 26.8717 38.3042C26.296 35.4506 24.6603 33.5404 23.0627 33.8635C21.4747 34.1866 20.7099 36.5821 21.2836 39.4342C21.362 39.8248 21.7417 40.0779 22.1327 39.9995C22.5233 39.9211 22.7759 39.5404 22.6975 39.1504C22.2632 36.9901 22.8032 35.3886 23.3491 35.2774C23.8945 35.1598 25.0027 36.4089 25.4469 38.534C25.4484 38.5444 25.4503 38.5538 25.4523 38.5642C25.7069 39.8169 26.1903 40.9568 26.8136 41.7742C27.4444 42.601 28.1734 43.0397 28.9 43.0397C29.0201 43.0397 29.1407 43.0278 29.2608 43.0035C30.7198 42.7067 31.4811 40.6645 31.1526 38.1265C31.156 38.0655 31.1551 38.004 31.1421 37.9414C30.7823 36.1573 31.2747 35.0556 31.5541 34.9985C31.8379 34.9335 32.7183 35.7647 33.0791 37.5464C33.0811 37.5573 33.0841 37.5682 33.0866 37.5791C33.297 38.5836 33.6886 39.4982 34.1928 40.1588C34.7268 40.859 35.3516 41.2307 35.9814 41.2307C36.0881 41.2307 36.1948 41.2203 36.3015 41.199C37.6528 40.9221 38.3134 38.9434 37.8459 36.5891C37.8449 36.5851 37.8454 36.5811 37.8449 36.5772C37.6563 35.6536 37.832 35.0134 37.9605 34.8327C38.1506 34.9464 38.5536 35.4566 38.7446 36.396C38.7491 36.4183 38.7551 36.4402 38.761 36.4615C38.9149 37.1707 39.1948 37.8169 39.5541 38.2893C39.9625 38.8268 40.4672 39.1186 40.9714 39.1186C41.0578 39.1186 41.1441 39.1102 41.23 39.0928C42.3114 38.8729 42.8325 37.4139 42.4682 35.6243C42.3893 35.2332 42.0042 34.9831 41.6181 35.061C41.2275 35.1404 40.9754 35.5211 41.0548 35.9111C41.2429 36.8372 41.0667 37.4774 40.9387 37.6566C40.7486 37.5419 40.3466 37.0303 40.1575 36.0928C40.1526 36.07 40.1471 36.0476 40.1407 36.0258C39.761 34.2829 38.7307 33.1767 37.6657 33.397C36.5928 33.6178 36.0742 35.0615 36.4265 36.8347C36.426 36.8372 36.4255 36.8402 36.426 36.8432Z" fill="#252525"/>
</g>
</g>
</svg>
