<svg width="48" height="48" viewBox="0 0 48 48" fill="none" xmlns="http://www.w3.org/2000/svg">
<g clip-path="url(#clip0_862_13024)">
<path opacity="0.947" fill-rule="evenodd" clip-rule="evenodd" d="M47.9531 17.9529C47.9531 23.5153 47.9531 29.0779 47.9531 34.6404C47.8116 34.7656 47.6553 34.875 47.4844 34.9685C43.5469 35.031 39.6094 35.031 35.6719 34.9685C35.0752 34.537 34.4502 34.4745 33.7969 34.781C33.2344 35.1248 32.6719 35.4685 32.1094 35.8123C31.1719 36.2498 30.2344 36.2498 29.2969 35.8123C28.6559 35.4135 27.9997 35.0385 27.3281 34.6873C27.0781 34.6247 26.8282 34.6247 26.5781 34.6873C25.9066 35.0385 25.2503 35.4135 24.6094 35.8123C23.1237 36.3464 21.78 36.0964 20.5781 35.0623C20.1306 34.7127 19.6306 34.5877 19.0781 34.6873C18.2817 35.101 17.5005 35.5385 16.7344 35.9998C15.994 36.2658 15.244 36.2971 14.4844 36.0935C13.6406 35.7497 12.7969 35.406 11.9531 35.0623C8.10938 35.031 4.26562 34.9997 0.421875 34.9685C0.250963 34.875 0.0947128 34.7656 -0.046875 34.6404C-0.046875 29.0779 -0.046875 23.5153 -0.046875 17.9529C0.390616 16.6253 1.29686 15.7971 2.67188 15.4685C4.98438 15.4373 7.29687 15.406 9.60938 15.3748C11.8361 14.0972 14.0706 12.8316 16.3125 11.5779C15.3053 9.62722 14.2428 7.68971 13.125 5.76538C12.805 5.97223 12.4613 6.12847 12.0938 6.23413C11.337 5.99545 11.1495 5.5267 11.5312 4.82788C11.8208 4.69104 12.0864 4.51916 12.3281 4.31226C11.8666 3.78063 11.601 3.17125 11.5312 2.48413C11.9477 1.80863 12.4477 1.74613 13.0312 2.29663C13.2467 2.72937 13.4967 3.13562 13.7812 3.51538C14.0619 3.31257 14.3745 3.18757 14.7188 3.14038C15.4808 3.28942 15.6996 3.72692 15.375 4.45288C15.1012 4.66027 14.8042 4.83215 14.4844 4.96851C15.5937 6.89038 16.7032 8.81226 17.8125 10.7341C18.1222 10.5403 18.4503 10.3841 18.7969 10.2654C19.0135 10.3323 19.2167 10.4261 19.4062 10.5466C20.375 12.2341 21.3438 13.9216 22.3125 15.6091C22.6398 16.081 22.6242 16.5342 22.2656 16.9685C20.3649 18.2131 18.4899 19.4944 16.6406 20.8123C14.9969 22.2428 13.7313 23.9459 12.8438 25.9216C12.7657 28.516 12.7812 31.1097 12.8906 33.7029C13.7341 34.109 14.6091 34.4215 15.5156 34.6404C15.7428 34.6316 15.9615 34.5847 16.1719 34.4998C16.835 34.0561 17.5224 33.6499 18.2344 33.281C19.0469 32.9685 19.8593 32.9685 20.6719 33.281C21.2185 33.5699 21.7498 33.8824 22.2656 34.2185C22.7364 34.5471 23.2364 34.6096 23.7656 34.406C24.4066 34.0073 25.0628 33.6323 25.7344 33.281C26.5469 32.9685 27.3593 32.9685 28.1719 33.281C28.7185 33.5699 29.2498 33.8824 29.7656 34.2185C30.2364 34.5471 30.7364 34.6096 31.2656 34.406C32.0102 33.9478 32.7757 33.5259 33.5625 33.1404C34.1034 32.9588 34.6504 32.9276 35.2031 33.0466C35.2188 30.7339 35.2031 28.4214 35.1562 26.1091C34.2604 24.0558 32.9634 22.2902 31.2656 20.8123C29.4163 19.4944 27.5413 18.2131 25.6406 16.9685C25.282 16.5342 25.2665 16.081 25.5938 15.6091C26.5625 13.9216 27.5313 12.2341 28.5 10.5466C28.6896 10.4261 28.8927 10.3323 29.1094 10.2654C29.456 10.3841 29.7841 10.5403 30.0938 10.7341C31.2031 8.81226 32.3125 6.89038 33.4219 4.96851C33.102 4.83215 32.8051 4.66027 32.5312 4.45288C32.2067 3.72692 32.4254 3.28942 33.1875 3.14038C33.5317 3.18757 33.8443 3.31257 34.125 3.51538C34.4637 3.04191 34.7918 2.55754 35.1094 2.06226C35.8156 1.73638 36.253 1.95513 36.4219 2.71851C36.2209 3.29391 35.9396 3.82516 35.5781 4.31226C35.8198 4.51916 36.0854 4.69104 36.375 4.82788C36.7567 5.5267 36.5692 5.99545 35.8125 6.23413C35.445 6.12847 35.1012 5.97223 34.7812 5.76538C33.7031 7.67163 32.625 9.57791 31.5469 11.4841C33.7782 12.8033 36.0282 14.1001 38.2969 15.3748C40.6094 15.406 42.9218 15.4373 45.2344 15.4685C46.6094 15.7971 47.5156 16.6253 47.9531 17.9529ZM18.3281 12.2341C18.4215 12.2261 18.4996 12.2574 18.5625 12.3279C18.7657 12.6717 18.9687 13.0153 19.1719 13.3591C16.9997 14.6485 14.8122 15.9141 12.6094 17.156C12.5156 17.2185 12.4219 17.2185 12.3281 17.156C12.1321 16.7879 11.8821 16.4598 11.5781 16.1716C13.834 14.8566 16.084 13.5441 18.3281 12.2341ZM29.3906 12.2341C31.682 13.4893 33.9632 14.7706 36.2344 16.0779C36.3301 16.1249 36.3457 16.1874 36.2812 16.2654C35.9904 16.5196 35.7561 16.8165 35.5781 17.156C33.2564 15.9944 30.9752 14.7288 28.7344 13.3591C28.9542 12.9815 29.1729 12.6065 29.3906 12.2341ZM19.8281 14.8591C19.9215 14.8511 19.9996 14.8824 20.0625 14.9529C20.2775 15.3046 20.4806 15.6641 20.6719 16.031C19.0469 17.156 17.4218 18.281 15.7969 19.406C14.6138 20.37 13.5981 21.4794 12.75 22.7341C12.6719 21.4517 12.6876 20.1704 12.7969 18.8904C15.1618 17.5678 17.5056 16.224 19.8281 14.8591ZM27.8906 14.8591C30.3069 16.1769 32.7131 17.5206 35.1094 18.8904C35.2187 20.1704 35.2343 21.4517 35.1562 22.7341C34.3082 21.4794 33.2925 20.37 32.1094 19.406C30.4844 18.281 28.8593 17.156 27.2344 16.031C27.4424 15.6302 27.6611 15.2397 27.8906 14.8591ZM2.85938 17.0154C5.17208 16.9997 7.48459 17.0154 9.79688 17.0623C10.6188 17.3447 11.0719 17.9229 11.1562 18.7966C11.2031 23.6715 11.2188 28.5465 11.2031 33.4216C7.95312 33.4216 4.70313 33.4216 1.45312 33.4216C1.4375 28.5465 1.45312 23.6715 1.5 18.7966C1.59503 17.9149 2.04817 17.3212 2.85938 17.0154ZM38.1094 17.0154C40.4221 16.9997 42.7346 17.0154 45.0469 17.0623C45.8688 17.3447 46.3219 17.9229 46.4062 18.7966C46.4531 23.6715 46.4688 28.5465 46.4531 33.4216C43.2031 33.4216 39.9532 33.4216 36.7031 33.4216C36.6875 28.5465 36.7031 23.6715 36.75 18.7966C36.8451 17.9149 37.2982 17.3212 38.1094 17.0154Z" fill="#0057B8"/>
<path opacity="0.931" fill-rule="evenodd" clip-rule="evenodd" d="M47.9531 39.4219C47.9531 39.6719 47.9531 39.9218 47.9531 40.1719C47.6635 40.521 47.2885 40.7554 46.8281 40.875C45.9751 41.0814 45.1313 41.0502 44.2969 40.7812C43.7502 40.4924 43.2189 40.1798 42.7031 39.8437C42.2032 39.6562 41.7031 39.6562 41.2031 39.8437C40.6873 40.1798 40.156 40.4924 39.6094 40.7812C38.6719 41.0937 37.7344 41.0937 36.7969 40.7812C36.2502 40.4924 35.7189 40.1798 35.2031 39.8437C34.7032 39.6562 34.2031 39.6562 33.7031 39.8437C33.1873 40.1798 32.656 40.4924 32.1094 40.7812C31.1719 41.0937 30.2344 41.0937 29.2969 40.7812C28.7502 40.4924 28.2189 40.1798 27.7031 39.8437C27.2032 39.6562 26.7031 39.6562 26.2031 39.8437C25.6873 40.1798 25.156 40.4924 24.6094 40.7812C23.6719 41.0937 22.7344 41.0937 21.7969 40.7812C21.2502 40.4924 20.7189 40.1798 20.2031 39.8437C19.7032 39.6562 19.2031 39.6562 18.7031 39.8437C18.1873 40.1798 17.656 40.4924 17.1094 40.7812C16.1719 41.0937 15.2344 41.0937 14.2969 40.7812C13.7502 40.4924 13.2189 40.1798 12.7031 39.8437C12.2032 39.6562 11.7031 39.6562 11.2031 39.8437C10.6873 40.1798 10.156 40.4924 9.60938 40.7812C8.67188 41.0937 7.73438 41.0937 6.79688 40.7812C6.2502 40.4924 5.71895 40.1798 5.20312 39.8437C4.70313 39.6562 4.20312 39.6562 3.70312 39.8437C2.81228 40.3986 1.90603 40.9299 0.984375 41.4375C0.569692 41.5423 0.225941 41.4329 -0.046875 41.1094C-0.046875 40.8281 -0.046875 40.5469 -0.046875 40.2656C0.966319 39.5554 2.02883 38.9147 3.14062 38.3437C4.01562 38.0313 4.89063 38.0313 5.76562 38.3437C6.39063 38.6875 7.01562 39.0312 7.64062 39.375C8.01562 39.4375 8.39062 39.4375 8.76562 39.375C9.39066 39.0312 10.0156 38.6875 10.6406 38.3437C11.5156 38.0313 12.3907 38.0313 13.2656 38.3437C13.8907 38.6875 14.5156 39.0312 15.1406 39.375C15.5156 39.4375 15.8906 39.4375 16.2656 39.375C16.8907 39.0312 17.5156 38.6875 18.1406 38.3437C19.0156 38.0313 19.8907 38.0313 20.7656 38.3437C21.3907 38.6875 22.0156 39.0312 22.6406 39.375C23.0156 39.4375 23.3906 39.4375 23.7656 39.375C24.3907 39.0312 25.0156 38.6875 25.6406 38.3437C26.5156 38.0313 27.3907 38.0313 28.2656 38.3437C28.8907 38.6875 29.5156 39.0312 30.1406 39.375C30.5156 39.4375 30.8906 39.4375 31.2656 39.375C31.8907 39.0312 32.5156 38.6875 33.1406 38.3437C34.0156 38.0313 34.8907 38.0313 35.7656 38.3437C36.3907 38.6875 37.0156 39.0312 37.6406 39.375C38.0156 39.4375 38.3906 39.4375 38.7656 39.375C39.3907 39.0312 40.0156 38.6875 40.6406 38.3437C41.5156 38.0313 42.3907 38.0313 43.2656 38.3437C43.8907 38.6875 44.5156 39.0312 45.1406 39.375C45.5156 39.4375 45.8906 39.4375 46.2656 39.375C46.6614 39.0833 47.099 38.9896 47.5781 39.0937C47.7516 39.1584 47.8766 39.2677 47.9531 39.4219Z" fill="#0057B8"/>
<path opacity="0.931" fill-rule="evenodd" clip-rule="evenodd" d="M47.9531 43.9219C47.9531 44.1719 47.9531 44.4218 47.9531 44.6719C47.6635 45.021 47.2885 45.2554 46.8281 45.375C45.9751 45.5814 45.1313 45.5502 44.2969 45.2812C43.7502 44.9924 43.2189 44.6798 42.7031 44.3437C42.2032 44.1562 41.7031 44.1562 41.2031 44.3437C40.6873 44.6798 40.156 44.9924 39.6094 45.2812C38.6719 45.5937 37.7344 45.5937 36.7969 45.2812C36.2502 44.9924 35.7189 44.6798 35.2031 44.3437C34.7032 44.1562 34.2031 44.1562 33.7031 44.3437C33.1873 44.6798 32.656 44.9924 32.1094 45.2812C31.1719 45.5937 30.2344 45.5937 29.2969 45.2812C28.7502 44.9924 28.2189 44.6798 27.7031 44.3437C27.2032 44.1562 26.7031 44.1562 26.2031 44.3437C25.6873 44.6798 25.156 44.9924 24.6094 45.2812C23.6719 45.5937 22.7344 45.5937 21.7969 45.2812C21.2502 44.9924 20.7189 44.6798 20.2031 44.3437C19.7032 44.1562 19.2031 44.1562 18.7031 44.3437C18.1873 44.6798 17.656 44.9924 17.1094 45.2812C16.1719 45.5937 15.2344 45.5937 14.2969 45.2812C13.7502 44.9924 13.2189 44.6798 12.7031 44.3437C12.2032 44.1562 11.7031 44.1562 11.2031 44.3437C10.6873 44.6798 10.156 44.9924 9.60938 45.2812C8.67188 45.5937 7.73438 45.5937 6.79688 45.2812C6.2502 44.9924 5.71895 44.6798 5.20312 44.3437C4.70313 44.1562 4.20312 44.1562 3.70312 44.3437C2.81228 44.8986 1.90603 45.4299 0.984375 45.9375C0.569692 46.0423 0.225941 45.9329 -0.046875 45.6094C-0.046875 45.3281 -0.046875 45.0469 -0.046875 44.7656C0.966319 44.0554 2.02883 43.4147 3.14062 42.8437C4.01562 42.5313 4.89063 42.5313 5.76562 42.8437C6.39063 43.1875 7.01562 43.5312 7.64062 43.875C8.01562 43.9375 8.39062 43.9375 8.76562 43.875C9.39066 43.5312 10.0156 43.1875 10.6406 42.8437C11.5156 42.5313 12.3907 42.5313 13.2656 42.8437C13.8907 43.1875 14.5156 43.5312 15.1406 43.875C15.5156 43.9375 15.8906 43.9375 16.2656 43.875C16.8907 43.5312 17.5156 43.1875 18.1406 42.8437C19.0156 42.5313 19.8907 42.5313 20.7656 42.8437C21.3907 43.1875 22.0156 43.5312 22.6406 43.875C23.0156 43.9375 23.3906 43.9375 23.7656 43.875C24.3907 43.5312 25.0156 43.1875 25.6406 42.8437C26.5156 42.5313 27.3907 42.5313 28.2656 42.8437C28.8907 43.1875 29.5156 43.5312 30.1406 43.875C30.5156 43.9375 30.8906 43.9375 31.2656 43.875C31.8907 43.5312 32.5156 43.1875 33.1406 42.8437C34.0156 42.5313 34.8907 42.5313 35.7656 42.8437C36.3907 43.1875 37.0156 43.5312 37.6406 43.875C38.0156 43.9375 38.3906 43.9375 38.7656 43.875C39.3907 43.5312 40.0156 43.1875 40.6406 42.8437C41.5156 42.5313 42.3907 42.5313 43.2656 42.8437C43.8907 43.1875 44.5156 43.5312 45.1406 43.875C45.5156 43.9375 45.8906 43.9375 46.2656 43.875C46.6614 43.5833 47.099 43.4896 47.5781 43.5937C47.7516 43.6584 47.8766 43.7677 47.9531 43.9219Z" fill="#0057B8"/>
</g>
<defs>
<clipPath id="clip0_862_13024">
<rect width="48" height="48" fill="white"/>
</clipPath>
</defs>
</svg>
