<svg width="40" height="40" viewBox="0 0 40 40" fill="none" xmlns="http://www.w3.org/2000/svg">
<path d="M20 23.0909C22.5606 23.0909 24.6364 21.0151 24.6364 18.4545C24.6364 15.894 22.5606 13.8182 20 13.8182C17.4394 13.8182 15.3636 15.894 15.3636 18.4545C15.3636 21.0151 17.4394 23.0909 20 23.0909ZM20 23.0909C15.7323 23.0909 12.2727 26.5505 12.2727 30.8182M20 23.0909C24.2677 23.0909 27.7273 26.5505 27.7273 30.8182M15.3636 37H24.6364C28.964 37 31.1279 37 32.7808 36.1578C34.2348 35.4169 35.4169 34.2348 36.1578 32.7808C37 31.1279 37 28.964 37 24.6364V15.3636C37 11.036 37 8.87212 36.1578 7.21916C35.4169 5.76518 34.2348 4.58306 32.7808 3.84222C31.1279 3 28.964 3 24.6364 3H15.3636C11.036 3 8.87212 3 7.21916 3.84222C5.76518 4.58306 4.58306 5.76518 3.84222 7.21916C3 8.87212 3 11.036 3 15.3636V24.6364C3 28.964 3 31.1279 3.84222 32.7808C4.58306 34.2348 5.76518 35.4169 7.21916 36.1578C8.87212 37 11.036 37 15.3636 37ZM14.1273 30.8182H25.8727C27.6038 30.8182 28.4693 30.8182 29.1305 30.4813C29.7121 30.185 30.185 29.7121 30.4813 29.1305C30.8182 28.4693 30.8182 27.6038 30.8182 25.8727V14.1273C30.8182 12.3962 30.8182 11.5307 30.4813 10.8695C30.185 10.2879 29.7121 9.81504 29.1305 9.51871C28.4693 9.18182 27.6038 9.18182 25.8727 9.18182H14.1273C12.3962 9.18182 11.5307 9.18182 10.8695 9.51871C10.2879 9.81504 9.81504 10.2879 9.51871 10.8695C9.18182 11.5307 9.18182 12.3962 9.18182 14.1273V25.8727C9.18182 27.6038 9.18182 28.4693 9.51871 29.1305C9.81504 29.7121 10.2879 30.185 10.8695 30.4813C11.5307 30.8182 12.3962 30.8182 14.1273 30.8182Z" fill="transparent" stroke="currentColor" stroke-width="1.5"/>
</svg>
