<svg width="50" height="50" viewBox="0 0 50 50" fill="none" xmlns="http://www.w3.org/2000/svg">
<g id="truck">
<path id="Icon" d="M29.1667 36.4584V11.4584C29.1667 10.8831 28.7004 10.4167 28.1251 10.4167H5.20841C4.63312 10.4167 4.16675 10.8831 4.16675 11.4584V36.4584C4.16675 37.0337 4.63312 37.5001 5.20841 37.5001H8.33341M29.1667 36.4584C29.1667 37.0337 28.7004 37.5001 28.1251 37.5001H16.6667M29.1667 36.4584V17.7084C29.1667 17.1331 29.6331 16.6667 30.2084 16.6667H37.0686C37.3449 16.6667 37.6098 16.7765 37.8052 16.9718L45.5283 24.695C45.7237 24.8903 45.8334 25.1553 45.8334 25.4316V36.4584C45.8334 37.0337 45.367 37.5001 44.7917 37.5001H41.6667M29.1667 36.4584C29.1667 37.0337 29.6331 37.5001 30.2084 37.5001H33.3334M8.33341 37.5001C8.33341 39.8013 10.1989 41.6667 12.5001 41.6667C14.8013 41.6667 16.6667 39.8013 16.6667 37.5001M8.33341 37.5001C8.33341 35.1989 10.1989 33.3334 12.5001 33.3334C14.8013 33.3334 16.6667 35.1989 16.6667 37.5001M33.3334 37.5001C33.3334 39.8013 35.1989 41.6667 37.5001 41.6667C39.8013 41.6667 41.6667 39.8013 41.6667 37.5001M33.3334 37.5001C33.3334 35.1989 35.1989 33.3334 37.5001 33.3334C39.8013 33.3334 41.6667 35.1989 41.6667 37.5001" stroke="#222222" stroke-width="1.5"/>
</g>
</svg>
