<svg width="50" height="50" viewBox="0 0 50 50" fill="none" xmlns="http://www.w3.org/2000/svg">
<circle cx="7.0922" cy="7.0922" r="7.0922" transform="matrix(-1 0 0 1 32.5391 10.416)" stroke="white" stroke-width="1.5"/>
<path d="M13.0352 35.1229C13.0352 33.5974 13.9941 32.2366 15.4307 31.7236V31.7236C21.9076 29.4104 28.9854 29.4104 35.4623 31.7236V31.7236C36.8989 32.2366 37.8579 33.5974 37.8579 35.1229V39.1383C37.8579 40.3554 36.7799 41.2904 35.575 41.1182L29.2649 40.2168C26.7322 39.855 24.1609 39.855 21.6281 40.2168L15.318 41.1182C14.1131 41.2904 13.0352 40.3554 13.0352 39.1383V35.1229Z" stroke="white" stroke-width="1.5"/>
<path d="M36.0838 24.7972C39.1614 24.7972 41.6562 22.3024 41.6562 19.2248C41.6562 16.1472 39.1614 13.6523 36.0838 13.6523" stroke="white" stroke-width="1.5" stroke-linecap="round"/>
<path d="M42.186 37.5091L42.732 37.5871C44.3696 37.821 45.8348 36.5503 45.8348 34.8961V33.0635C45.8348 31.8649 45.0813 30.7957 43.9526 30.3926C42.8266 29.9905 41.6776 29.6773 40.5156 29.4531" stroke="white" stroke-width="1.5" stroke-linecap="round"/>
<path d="M13.881 24.7972C10.8035 24.7972 8.30859 22.3024 8.30859 19.2248C8.30859 16.1472 10.8035 13.6523 13.881 13.6523" stroke="white" stroke-width="1.5" stroke-linecap="round"/>
<path d="M7.77881 37.5091L7.23282 37.5871C5.59521 37.821 4.13007 36.5503 4.13007 34.8961V33.0635C4.13007 31.8649 4.88354 30.7957 6.01229 30.3926C7.13823 29.9905 8.28728 29.6773 9.44922 29.4531" stroke="white" stroke-width="1.5" stroke-linecap="round"/>
</svg>
