<svg width="49" height="49" viewBox="0 0 49 49" fill="none" xmlns="http://www.w3.org/2000/svg">
<circle cx="6.125" cy="6.125" r="6.125" transform="matrix(-1 0 0 1 30.625 18.375)" stroke="white" stroke-width="1.5"/>
<path d="M33.688 10.0781L34.063 9.42861L33.688 10.0781ZM33.688 38.9185L33.313 38.269L33.688 38.9185ZM15.313 38.9185L15.688 38.269H15.688L15.313 38.9185ZM15.313 10.0781L15.688 10.7276L15.313 10.0781ZM18.3227 5.57837L19.0661 5.67742L18.3227 5.57837ZM5.38786 19.3661L4.97777 19.994L5.38786 19.3661ZM5.00747 18.4124L4.29149 18.1891L5.00747 18.4124ZM10.2847 38.4219L10.5251 39.1323L10.2847 38.4219ZM9.37867 38.2153L9.93405 37.7112L9.37867 38.2153ZM18.9102 44.1403L18.7052 44.8617L18.9102 44.1403ZM18.3228 43.419L17.5794 43.5179L18.3228 43.419ZM30.6781 43.4195L31.4215 43.5184L30.6781 43.4195ZM30.0906 44.1409L30.2955 44.8624L30.0906 44.1409ZM39.6239 38.2159L40.1793 38.7199L39.6239 38.2159ZM38.7177 38.4224L38.9583 37.712L38.7177 38.4224ZM43.9964 18.4148L44.7124 18.1915L43.9964 18.4148ZM5.38756 29.6302L5.79762 30.2582L5.38756 29.6302ZM38.7173 10.5744L38.4767 9.86406L38.7173 10.5744ZM39.6234 10.7809L39.0681 11.285L39.6234 10.7809ZM9.3792 10.7815L9.93457 11.2856L9.3792 10.7815ZM10.2852 10.5749L10.5255 9.8645L10.2852 10.5749ZM43.6155 29.6314L43.2053 30.2592L43.6155 29.6314ZM43.9957 30.5849L44.7117 30.8082L43.9957 30.5849ZM30.6782 5.57781L31.4216 5.47882L30.6782 5.57781ZM30.0907 4.8565L29.8858 5.57797L30.0907 4.8565ZM29.9347 5.6768C30.2065 7.71753 31.3899 9.61736 33.313 10.7276L34.063 9.42861C32.5602 8.56095 31.6345 7.07794 31.4216 5.47882L29.9347 5.6768ZM33.313 10.7276C35.0966 11.7574 37.1509 11.8967 38.9578 11.2848L38.4767 9.86406C37.0612 10.3434 35.4573 10.2336 34.063 9.42861L33.313 10.7276ZM44.7124 18.1915C43.7853 15.2177 42.2205 12.5262 40.1787 10.2769L39.0681 11.285C40.9662 13.3761 42.4196 15.8768 43.2804 18.638L44.7124 18.1915ZM41.5861 24.5C41.5861 22.6154 42.5554 20.9568 44.0262 19.9962L43.2059 18.7403C41.3291 19.9662 40.0861 22.0878 40.0861 24.5H41.5861ZM44.0257 29.0035C42.5552 28.0428 41.5861 26.3844 41.5861 24.5H40.0861C40.0861 26.9119 41.3288 29.0333 43.2053 30.2592L44.0257 29.0035ZM40.1793 38.7199C42.2202 36.4713 43.7846 33.7808 44.7117 30.8082L43.2797 30.3616C42.4189 33.1216 40.9659 35.6214 39.0686 37.7118L40.1793 38.7199ZM34.063 39.5681C35.4574 38.763 37.0615 38.6533 38.4771 39.1327L38.9583 37.712C37.1513 37.1 35.0968 37.2391 33.313 38.269L34.063 39.5681ZM31.4215 43.5184C31.6343 41.9191 32.56 40.4358 34.063 39.5681L33.313 38.269C31.3897 39.3794 30.2062 41.2796 29.9346 43.3206L31.4215 43.5184ZM24.5016 45.6654C26.5095 45.6654 28.4533 45.3856 30.2955 44.8624L29.8857 43.4195C28.1755 43.9052 26.3695 44.1654 24.5016 44.1654V45.6654ZM18.7052 44.8617C20.5482 45.3853 22.4928 45.6654 24.5016 45.6654V44.1654C22.6328 44.1654 20.8261 43.9049 19.1152 43.4188L18.7052 44.8617ZM14.938 39.5681C16.4408 40.4357 17.3665 41.9188 17.5794 43.5179L19.0662 43.32C18.7945 41.2792 17.6111 39.3793 15.688 38.269L14.938 39.5681ZM10.5251 39.1323C11.9404 38.6533 13.544 38.7632 14.938 39.5681L15.688 38.269C13.9047 37.2395 11.8509 37.1 10.0443 37.7115L10.5251 39.1323ZM4.29112 30.8071C5.21809 33.7799 6.78238 36.4705 8.82329 38.7193L9.93405 37.7112C8.03674 35.6206 6.58379 33.1208 5.72312 30.3606L4.29112 30.8071ZM7.41817 24.498C7.41817 26.3829 6.44861 28.0416 4.9775 29.0023L5.79762 30.2582C7.67489 29.0324 8.91817 26.9106 8.91817 24.498H7.41817ZM4.97777 19.994C6.44872 20.9546 7.41817 22.6133 7.41817 24.498H8.91817C8.91817 22.0856 7.67504 19.964 5.79795 18.7381L4.97777 19.994ZM8.82384 10.2775C6.78293 12.5261 5.21858 15.2165 4.29149 18.1891L5.72346 18.6357C6.58425 15.8757 8.03725 13.376 9.93457 11.2856L8.82384 10.2775ZM14.938 9.42861C13.5441 10.2333 11.9407 10.3433 10.5255 9.8645L10.0448 11.2854C11.8513 11.8966 13.9049 11.7571 15.688 10.7276L14.938 9.42861ZM17.5793 5.47931C17.3662 7.07825 16.4406 8.56104 14.938 9.42861L15.688 10.7276C17.6108 9.61748 18.7942 7.71792 19.0661 5.67742L17.5793 5.47931ZM24.5016 3.33203C22.4927 3.33203 20.5481 3.61208 18.7051 4.13573L19.1151 5.57862C20.826 5.09249 22.6327 4.83203 24.5016 4.83203V3.33203ZM30.2956 4.13503C28.4533 3.61183 26.5095 3.33203 24.5016 3.33203V4.83203C26.3696 4.83203 28.1755 5.09225 29.8858 5.57797L30.2956 4.13503ZM19.0661 5.67742C19.0713 5.63855 19.086 5.60943 19.099 5.59301C19.1051 5.58537 19.1097 5.58169 19.1118 5.58026C19.1136 5.57905 19.1143 5.57882 19.1151 5.57862L18.7051 4.13573C18.0456 4.3231 17.6563 4.9009 17.5793 5.47931L19.0661 5.67742ZM5.79795 18.7381C5.76055 18.7137 5.73804 18.6825 5.72844 18.6594C5.72403 18.6488 5.72319 18.6421 5.72303 18.6396C5.72292 18.6377 5.72305 18.637 5.72346 18.6357L4.29149 18.1891C4.06075 18.9289 4.43184 19.6375 4.97777 19.994L5.79795 18.7381ZM10.0443 37.7115C10.0073 37.724 9.97473 37.7237 9.95425 37.7194C9.94472 37.7173 9.93932 37.7147 9.93708 37.7135C9.93517 37.7124 9.93458 37.7118 9.93405 37.7112L8.82329 38.7193C9.28331 39.2262 9.97277 39.3192 10.5251 39.1323L10.0443 37.7115ZM19.1152 43.4188C19.1144 43.4186 19.1137 43.4184 19.1119 43.4172C19.1098 43.4157 19.1052 43.4121 19.0991 43.4044C19.0861 43.388 19.0714 43.3589 19.0662 43.32L17.5794 43.5179C17.6564 44.0964 18.0457 44.6743 18.7052 44.8617L19.1152 43.4188ZM29.9346 43.3206C29.9295 43.3595 29.9148 43.3886 29.9018 43.4051C29.8957 43.4127 29.891 43.4164 29.8889 43.4178C29.8872 43.419 29.8864 43.4193 29.8857 43.4195L30.2955 44.8624C30.9552 44.6751 31.3446 44.097 31.4215 43.5184L29.9346 43.3206ZM39.0686 37.7118C39.0681 37.7124 39.0675 37.713 39.0656 37.7141C39.0633 37.7153 39.0579 37.7179 39.0484 37.7199C39.0279 37.7243 38.9954 37.7246 38.9583 37.712L38.4771 39.1327C39.0295 39.3198 39.7192 39.2269 40.1793 38.7199L39.0686 37.7118ZM43.2804 18.638C43.2808 18.6393 43.2809 18.64 43.2808 18.6419C43.2807 18.6444 43.2798 18.6511 43.2754 18.6617C43.2658 18.6848 43.2433 18.7159 43.2059 18.7403L44.0262 19.9962C44.572 19.6397 44.943 18.9312 44.7124 18.1915L43.2804 18.638ZM5.72312 30.3606C5.72271 30.3593 5.72258 30.3586 5.72269 30.3567C5.72285 30.3542 5.72369 30.3475 5.7281 30.3369C5.7377 30.3138 5.76021 30.2826 5.79762 30.2582L4.9775 29.0023C4.43155 29.3588 4.06043 30.0673 4.29112 30.8071L5.72312 30.3606ZM38.9578 11.2848C38.9949 11.2723 39.0274 11.2725 39.0479 11.2769C39.0574 11.2789 39.0628 11.2815 39.065 11.2828C39.067 11.2838 39.0675 11.2844 39.0681 11.285L40.1787 10.2769C39.7187 9.76998 39.0291 9.67701 38.4767 9.86406L38.9578 11.2848ZM9.93457 11.2856C9.93509 11.285 9.93568 11.2844 9.93759 11.2833C9.93983 11.2821 9.94523 11.2795 9.95476 11.2775C9.97524 11.2731 10.0078 11.2728 10.0448 11.2854L10.5255 9.8645C9.97321 9.67763 9.28383 9.77069 8.82384 10.2775L9.93457 11.2856ZM43.2053 30.2592C43.2426 30.2837 43.2651 30.3148 43.2747 30.3379C43.2792 30.3485 43.28 30.3552 43.2801 30.3577C43.2803 30.3596 43.2801 30.3603 43.2797 30.3616L44.7117 30.8082C44.9424 30.0685 44.5715 29.3601 44.0257 29.0035L43.2053 30.2592ZM31.4216 5.47882C31.3446 4.9003 30.9552 4.32235 30.2956 4.13503L29.8858 5.57797C29.8865 5.57817 29.8873 5.5784 29.889 5.57961C29.8911 5.58103 29.8958 5.58472 29.9019 5.59236C29.9149 5.60879 29.9296 5.63791 29.9347 5.6768L31.4216 5.47882Z" fill="white"/>
</svg>
