<svg width="49" height="49" viewBox="0 0 49 49" fill="none" xmlns="http://www.w3.org/2000/svg">
<path d="M23.4731 3.75143C23.9395 2.97645 25.0631 2.97645 25.5295 3.75143L31.6315 13.891C31.7991 14.1694 32.0724 14.368 32.389 14.4413L43.9179 17.1114C44.799 17.3155 45.1462 18.384 44.5533 19.0671L36.7957 28.0038C36.5827 28.2492 36.4783 28.5705 36.5064 28.8942L37.5296 40.684C37.6078 41.5851 36.6988 42.2455 35.866 41.8926L24.9694 37.2763C24.6702 37.1495 24.3324 37.1495 24.0332 37.2763L13.1366 41.8926C12.3038 42.2455 11.3948 41.5851 11.473 40.684L12.4962 28.8942C12.5243 28.5705 12.4199 28.2492 12.2069 28.0038L4.44928 19.0671C3.85635 18.384 4.20355 17.3155 5.08473 17.1114L16.6136 14.4413C16.9302 14.368 17.2035 14.1694 17.3711 13.891L23.4731 3.75143Z" stroke="white" stroke-width="1.5"/>
</svg>
