<svg width="40" height="40" viewBox="0 0 40 40" fill="none" xmlns="http://www.w3.org/2000/svg">
<path d="M13.3337 24.25C12.9194 24.25 12.5837 24.5858 12.5837 25C12.5837 25.4142 12.9194 25.75 13.3337 25.75V24.25ZM16.667 25.75C17.0812 25.75 17.417 25.4142 17.417 25C17.417 24.5858 17.0812 24.25 16.667 24.25V25.75ZM13.3337 17.5833C12.9194 17.5833 12.5837 17.9191 12.5837 18.3333C12.5837 18.7475 12.9194 19.0833 13.3337 19.0833V17.5833ZM23.3337 19.0833C23.7479 19.0833 24.0837 18.7475 24.0837 18.3333C24.0837 17.9191 23.7479 17.5833 23.3337 17.5833V19.0833ZM13.3337 10.9167C12.9194 10.9167 12.5837 11.2525 12.5837 11.6667C12.5837 12.0809 12.9194 12.4167 13.3337 12.4167V10.9167ZM23.3337 12.4167C23.7479 12.4167 24.0837 12.0809 24.0837 11.6667C24.0837 11.2525 23.7479 10.9167 23.3337 10.9167V12.4167ZM29.2503 15C29.2503 15.4142 29.5861 15.75 30.0003 15.75C30.4145 15.75 30.7503 15.4142 30.7503 15H29.2503ZM15.0003 35.75C15.4145 35.75 15.7503 35.4142 15.7503 35C15.7503 34.5858 15.4145 34.25 15.0003 34.25V35.75ZM8.46374 34.6247L8.80948 33.9592L8.80947 33.9591L8.46374 34.6247ZM7.04228 33.2032L6.37672 33.549H6.37672L7.04228 33.2032ZM28.2036 5.37529L27.8578 6.04085V6.04085L28.2036 5.37529ZM29.625 6.79675L28.9595 7.14248V7.14248L29.625 6.79675ZM8.46374 5.37529L8.11801 4.70973V4.70973L8.46374 5.37529ZM7.04228 6.79675L6.37672 6.45102L7.04228 6.79675ZM13.3337 25.75H16.667V24.25H13.3337V25.75ZM13.3337 19.0833H23.3337V17.5833H13.3337V19.0833ZM13.3337 12.4167H23.3337V10.9167H13.3337V12.4167ZM12.0337 5.75H24.6337V4.25H12.0337V5.75ZM29.2503 10.3667V15H30.7503V10.3667H29.2503ZM15.0003 34.25H12.0337V35.75H15.0003V34.25ZM7.41699 29.6333V10.3667H5.91699V29.6333H7.41699ZM12.0337 34.25C11.0719 34.25 10.3965 34.2494 9.86983 34.2057C9.35217 34.1627 9.04581 34.0819 8.80948 33.9592L8.11801 35.2903C8.60414 35.5428 9.13359 35.6497 9.74569 35.7005C10.3488 35.7506 11.0971 35.75 12.0337 35.75V34.25ZM5.91699 29.6333C5.91699 30.5699 5.91639 31.3182 5.96648 31.9213C6.01731 32.5334 6.1242 33.0629 6.37672 33.549L7.70784 32.8575C7.58507 32.6212 7.50432 32.3148 7.46133 31.7972C7.41759 31.2705 7.41699 30.5951 7.41699 29.6333H5.91699ZM8.80947 33.9591C8.33765 33.7141 7.95294 33.3293 7.70784 32.8575L6.37672 33.549C6.76413 34.2948 7.37222 34.9029 8.11801 35.2903L8.80947 33.9591ZM24.6337 5.75C25.5954 5.75 26.2708 5.7506 26.7975 5.79434C27.3152 5.83733 27.6215 5.91808 27.8578 6.04085L28.5493 4.70973C28.0632 4.45721 27.5337 4.35032 26.9216 4.29948C26.3185 4.2494 25.5702 4.25 24.6337 4.25V5.75ZM30.7503 10.3667C30.7503 9.4301 30.7509 8.68182 30.7008 8.0787C30.65 7.4666 30.5431 6.93715 30.2906 6.45102L28.9595 7.14248C29.0822 7.37882 29.163 7.68517 29.206 8.20284C29.2497 8.72948 29.2503 9.40493 29.2503 10.3667H30.7503ZM27.8578 6.04085C28.3297 6.28594 28.7144 6.67065 28.9595 7.14248L30.2906 6.45102C29.9032 5.70523 29.2951 5.09714 28.5493 4.70973L27.8578 6.04085ZM12.0337 4.25C11.0971 4.25 10.3488 4.2494 9.74569 4.29948C9.13359 4.35032 8.60414 4.45721 8.11801 4.70973L8.80947 6.04085C9.04581 5.91808 9.35217 5.83733 9.86983 5.79434C10.3965 5.7506 11.0719 5.75 12.0337 5.75V4.25ZM7.41699 10.3667C7.41699 9.40493 7.41759 8.72948 7.46133 8.20284C7.50432 7.68517 7.58507 7.37882 7.70784 7.14248L6.37672 6.45102C6.1242 6.93715 6.01731 7.4666 5.96648 8.0787C5.91639 8.68182 5.91699 9.4301 5.91699 10.3667H7.41699ZM8.11801 4.70973C7.37222 5.09714 6.76413 5.70523 6.37672 6.45102L7.70784 7.14248C7.95294 6.67065 8.33765 6.28594 8.80948 6.04085L8.11801 4.70973ZM30.917 25C30.917 26.4267 29.7604 27.5833 28.3337 27.5833V29.0833C30.5888 29.0833 32.417 27.2552 32.417 25H30.917ZM28.3337 27.5833C26.9069 27.5833 25.7503 26.4267 25.7503 25H24.2503C24.2503 27.2552 26.0785 29.0833 28.3337 29.0833V27.5833ZM25.7503 25C25.7503 23.5733 26.9069 22.4167 28.3337 22.4167V20.9167C26.0785 20.9167 24.2503 22.7448 24.2503 25H25.7503ZM28.3337 22.4167C29.7604 22.4167 30.917 23.5733 30.917 25H32.417C32.417 22.7448 30.5888 20.9167 28.3337 20.9167V22.4167ZM34.9917 34.25H21.6756V35.75H34.9917V34.25ZM34.2503 34.9914C34.2503 34.5819 34.5823 34.25 34.9917 34.25V35.75C35.4107 35.75 35.7503 35.4104 35.7503 34.9914H34.2503ZM28.3337 29.0833C31.5979 29.0833 34.2503 31.7297 34.2503 34.9914H35.7503C35.7503 30.8988 32.4238 27.5833 28.3337 27.5833V29.0833ZM22.417 34.9914C22.417 31.7297 25.0695 29.0833 28.3337 29.0833V27.5833C24.2435 27.5833 20.917 30.8988 20.917 34.9914H22.417ZM20.917 34.9914C20.917 35.4104 21.2566 35.75 21.6756 35.75V34.25C22.085 34.25 22.417 34.5819 22.417 34.9914H20.917Z" fill="currentColor"/>
</svg>
