<svg width="30" height="30" viewBox="0 0 30 30" fill="none" xmlns="http://www.w3.org/2000/svg">
<path d="M25 15.1375C25 15.0875 25 15.075 25 15.025C25 14.9625 25 14.875 25 14.875C24.9875 14.25 24.9375 13.8 24.85 13.2875V13.275V13.2625C24.85 13.2625 24.85 13.2625 24.85 13.25C24.8 12.975 24.7375 12.7 24.675 12.425C24.675 12.425 24.675 12.425 24.675 12.4125C24.675 12.4125 24.675 12.4125 24.675 12.4C24.5375 11.8875 24.3625 11.4 24.15 10.925C23.95 10.475 23.7125 10.0375 23.45 9.625C23.1875 9.225 22.9 8.8375 22.5875 8.475C22.275 8.1125 21.9375 7.775 21.5875 7.475C21.225 7.1625 20.8375 6.875 20.4375 6.6125C20.025 6.35 19.5875 6.1125 19.1375 5.9125C18.6625 5.7 18.175 5.525 17.6625 5.3875C17.6625 5.3875 17.6625 5.3875 17.65 5.3875C17.65 5.3875 17.65 5.3875 17.6375 5.3875C17.375 5.3125 17.1 5.2625 16.825 5.2125C16.2625 5.1125 15.6875 5.0625 15.1 5.0625H15.0875C15.0375 5.0625 15 5.0625 14.95 5.0625C14.15 5.0625 13.375 5.175 12.6375 5.3625C9 6.2 6.2 8.9875 5.3 12.5375C5.1125 13.275 5 14.05 5 14.85C5 14.8875 5 14.925 5 14.9625V14.975C5 15.5625 5.05 16.15 5.15 16.7125C5.2 16.9875 5.2625 17.2625 5.325 17.525C5.325 17.525 5.325 17.525 5.325 17.5375C5.325 17.5375 5.325 17.5375 5.325 17.55C5.4625 18.0625 5.6375 18.55 5.85 19.025C6.05 19.475 6.2875 19.9125 6.55 20.325C6.8125 20.725 7.1 21.1125 7.4125 21.475C7.725 21.8375 8.0625 22.175 8.4125 22.475C8.775 22.7875 9.1625 23.075 9.5625 23.3375C9.975 23.6 10.4125 23.8375 10.8625 24.0375C11.3375 24.25 11.8375 24.425 12.3375 24.5625C12.3375 24.5625 12.3375 24.5625 12.35 24.5625C12.35 24.5625 12.35 24.5625 12.3625 24.5625C12.625 24.6375 12.9 24.6875 13.175 24.7375C13.7375 24.8375 14.325 24.8875 14.9125 24.8875C14.9625 24.8875 15 24.8875 15.05 24.8875C15.85 24.8875 16.625 24.775 17.3625 24.5875C20.9125 23.6875 23.7 20.9 24.6 17.35C24.8875 16.7 25 15.925 25 15.1375ZM23.4125 19.4125L19.425 23.4C19.05 23.6 18.6625 23.775 18.2625 23.925L23.9375 18.25C23.775 18.65 23.6 19.0375 23.4125 19.4125ZM24.1 17.725L17.725 24.1C17.4375 24.1875 17.15 24.2625 16.8625 24.3125L24.3125 16.8625C24.2625 17.15 24.1875 17.4375 24.1 17.725ZM24.3875 16.425L16.425 24.3875C16.1875 24.425 15.9375 24.45 15.7 24.4625L24.4625 15.7C24.45 15.95 24.425 16.1875 24.3875 16.425ZM15.3375 24.4875C15.225 24.4875 15.1125 24.5 15 24.5C14.9 24.5 14.7875 24.5 14.6875 24.4875L24.5 14.675C24.5 14.775 24.5125 14.8875 24.5125 14.9875C24.5125 15.1 24.5125 15.2125 24.5 15.325L15.3375 24.4875ZM13.7625 24.4125L24.4125 13.7625C24.4375 13.9625 24.4625 14.15 24.475 14.35L14.35 24.475C14.15 24.4625 13.95 24.4375 13.7625 24.4125ZM12.9125 24.2625L24.2625 12.9125C24.3 13.0875 24.3375 13.275 24.3625 13.45L13.45 24.375C13.275 24.3375 13.0875 24.3 12.9125 24.2625ZM12.125 24.05L24.05 12.125C24.1 12.2875 24.15 12.4625 24.2 12.625L12.625 24.2C12.45 24.15 12.2875 24.1 12.125 24.05ZM11.3875 23.7875L23.7875 11.3875C23.85 11.5375 23.9125 11.7 23.9625 11.85L11.8625 23.95C11.7 23.9125 11.55 23.85 11.3875 23.7875ZM10.7125 23.475L23.475 10.7125C23.55 10.8625 23.6125 11 23.6875 11.15L11.15 23.675C11 23.6125 10.85 23.5375 10.7125 23.475ZM10.0625 23.1125L23.1125 10.0625C23.2 10.2 23.275 10.3375 23.35 10.475L10.475 23.35C10.3375 23.275 10.2 23.2 10.0625 23.1125ZM9.4625 22.7125L22.7125 9.4625C22.8 9.5875 22.8875 9.7125 22.975 9.85L9.85 22.975C9.7125 22.8875 9.5875 22.8 9.4625 22.7125ZM8.9 22.275L22.275 8.9C22.375 9.0125 22.475 9.1375 22.5625 9.2625L9.2625 22.5625C9.1375 22.475 9.0125 22.375 8.9 22.275ZM8.375 21.8L21.8 8.375C21.9125 8.4875 22.0125 8.6 22.1125 8.7125L8.7125 22.1125C8.6 22.0125 8.4875 21.9125 8.375 21.8ZM7.8875 21.2875L21.2875 7.8875C21.4 7.9875 21.5125 8.0875 21.625 8.2L8.2 21.625C8.0875 21.5125 7.9875 21.4 7.8875 21.2875ZM7.4375 20.7375L20.7375 7.4375C20.8625 7.525 20.975 7.625 21.1 7.725L7.725 21.1C7.625 20.9875 7.525 20.8625 7.4375 20.7375ZM7.025 20.15L20.15 7.025C20.275 7.1125 20.4125 7.2 20.5375 7.2875L7.2875 20.5375C7.2 20.4125 7.1125 20.2875 7.025 20.15ZM6.65 19.525L19.525 6.65C19.6625 6.725 19.8 6.8 19.9375 6.8875L6.8875 19.9375C6.8 19.8 6.725 19.6625 6.65 19.525ZM6.325 18.85L18.85 6.325C19 6.3875 19.15 6.4625 19.2875 6.5375L6.525 19.2875C6.4625 19.15 6.3875 19 6.325 18.85ZM6.0375 18.1375L18.1375 6.0375C18.3 6.0875 18.45 6.15 18.6 6.2125L6.2 18.6125C6.15 18.45 6.0875 18.3 6.0375 18.1375ZM5.8 17.375L17.375 5.8C17.55 5.8375 17.7125 5.8875 17.875 5.95L5.95 17.875C5.9 17.7125 5.85 17.55 5.8 17.375ZM5.5 15C5.5 14.8875 5.5 14.775 5.5125 14.6625L14.675 5.5C14.7875 5.5 14.9 5.4875 15.0125 5.4875C15.1125 5.4875 15.225 5.4875 15.325 5.5L5.5125 15.3125C5.5 15.2125 5.5 15.1 5.5 15ZM6.5875 10.5875L10.575 6.6C10.95 6.4 11.3375 6.225 11.7375 6.075L6.075 11.75C6.225 11.35 6.4 10.9625 6.5875 10.5875ZM5.9 12.275L12.275 5.9C12.5625 5.8125 12.85 5.7375 13.1375 5.6875L5.6875 13.1375C5.7375 12.85 5.8125 12.5625 5.9 12.275ZM5.6125 13.575L13.575 5.6125C13.8125 5.575 14.05 5.55 14.3 5.5375L5.5375 14.3C5.55 14.05 5.575 13.8125 5.6125 13.575ZM5.525 15.65L15.65 5.525C15.85 5.5375 16.0375 5.5625 16.2375 5.5875L5.5875 16.2375C5.5625 16.05 5.5375 15.85 5.525 15.65ZM5.625 16.55L16.55 5.625C16.7375 5.65 16.9125 5.6875 17.0875 5.725L5.7375 17.075C5.7 16.9125 5.6625 16.725 5.625 16.55ZM9.7125 7.1125L7.1125 9.7125C7.8 8.6875 8.6875 7.8 9.7125 7.1125ZM20.2875 22.8875L22.8875 20.2875C22.2 21.3125 21.3125 22.2 20.2875 22.8875Z" fill="#0057B8"/>
<path d="M15 1C7.2625 1 1 7.2625 1 15C1 22.7375 7.2625 29 15 29C22.7375 29 29 22.7375 29 15C29 7.2625 22.7375 1 15 1ZM15 28C7.8375 28 2 22.1625 2 15C2 7.8375 7.8375 2 15 2C22.1625 2 28 7.8375 28 15C28 22.1625 22.1625 28 15 28Z" fill="#0057B8"/>
</svg>
