<svg width="245" height="165" viewBox="0 0 245 165" fill="none" xmlns="http://www.w3.org/2000/svg">
<g id="Group" opacity="0.9">
<g id="Group_2">
<path id="Vector" d="M55.2442 115.409C52.7833 113.339 50.4454 110.711 49.9085 105.241C49.6736 102.824 50.1322 100.665 51.0718 98.8086C48.6444 103.138 46.2171 110.543 47.056 119.022C47.2797 121.304 47.5706 123.261 48.0068 125.096C52.3582 124 57.1682 121.494 55.2442 115.409Z" fill="url(#paint0_linear_0_828)" stroke="#F1F4F7" stroke-width="2" stroke-miterlimit="10"/>
</g>
<g id="Group_3">
<path id="Vector_2" d="M98.4434 152.882C95.9825 150.813 93.6446 148.184 93.1077 142.714C92.8728 140.298 93.3314 138.139 94.271 136.282C91.8437 140.611 89.4163 148.016 90.2552 156.495C90.479 158.777 90.7698 160.735 91.2061 162.569C95.5574 161.473 100.367 158.968 98.4434 152.882Z" fill="url(#paint1_linear_0_828)" stroke="#F1F4F7" stroke-width="2" stroke-miterlimit="10"/>
</g>
<g id="Group_4">
<path id="Vector_3" d="M101.35 77.9351C98.8888 75.8657 96.5509 73.2369 96.0139 67.767C95.779 65.3508 96.2377 63.1918 97.1773 61.335C94.7499 65.664 92.3225 73.0692 93.1615 81.5482C93.3852 83.8302 93.676 85.7877 94.1123 87.6222C98.4637 86.526 103.274 84.0203 101.35 77.9351Z" fill="url(#paint2_linear_0_828)" stroke="#F1F4F7" stroke-width="2" stroke-miterlimit="10"/>
</g>
<g id="Group_5">
<path id="Vector_4" d="M144.549 115.409C142.088 113.339 139.75 110.711 139.213 105.241C138.978 102.824 139.437 100.665 140.377 98.8086C137.949 103.138 135.522 110.543 136.361 119.022C136.584 121.304 136.875 123.261 137.312 125.096C141.674 124 146.473 121.494 144.549 115.409Z" fill="url(#paint3_linear_0_828)" stroke="#F1F4F7" stroke-width="2" stroke-miterlimit="10"/>
</g>
<g id="Group_6">
<path id="Vector_5" d="M147.459 40.4624C144.998 38.393 142.66 35.7643 142.123 30.2943C141.888 27.8781 142.347 25.7192 143.287 23.8623C140.859 28.1913 138.432 35.5965 139.271 44.0755C139.495 46.3575 139.785 48.3151 140.222 50.1496C144.573 49.0533 149.383 46.5477 147.459 40.4624Z" fill="url(#paint4_linear_0_828)" stroke="#F1F4F7" stroke-width="2" stroke-miterlimit="10"/>
</g>
<g id="Group_7">
<path id="Vector_6" d="M190.67 77.9351C188.209 75.8657 185.871 73.2369 185.334 67.767C185.099 65.3508 185.558 63.1918 186.498 61.335C184.07 65.664 181.643 73.0692 182.482 81.5482C182.706 83.8302 182.996 85.7877 183.433 87.6222C187.784 86.526 192.594 84.0203 190.67 77.9351Z" fill="url(#paint5_linear_0_828)" stroke="#F1F4F7" stroke-width="2" stroke-miterlimit="10"/>
</g>
<g id="Group_8">
<path id="Vector_7" d="M187.764 152.893C185.303 150.824 182.965 148.195 182.428 142.725C182.193 140.309 182.652 138.15 183.591 136.293C181.164 140.622 178.737 148.027 179.576 156.506C179.799 158.788 180.09 160.746 180.526 162.58C184.878 161.473 189.688 158.967 187.764 152.893Z" fill="url(#paint6_linear_0_828)" stroke="#F1F4F7" stroke-width="2" stroke-miterlimit="10"/>
</g>
<path id="Vector_8" d="M61.8638 129.011C61.2597 122.848 59.1567 118.675 55.2416 115.42C58.027 124.246 46.6619 125.532 43.0824 125.935C43.0824 125.935 43.0824 125.935 43.0824 125.946L16.5937 128.966C9.52414 129.772 3.02503 134.895 3.79687 142.725C4.3338 148.195 6.67169 150.824 9.13262 152.893C12.2759 150.6 17.6229 149.437 22.1756 148.866L48.2503 145.891C57.1433 144.873 62.7475 137.915 61.8638 129.011Z" fill="url(#paint7_linear_0_828)" stroke="#F1F4F7" stroke-width="2" stroke-miterlimit="10"/>
<path id="Vector_9" d="M107.973 91.5374C107.369 85.3738 105.266 81.2014 101.351 77.9463C104.136 86.7721 92.7713 88.0585 89.1917 88.4612C89.1917 88.4612 89.1917 88.4612 89.1917 88.4724L62.7031 91.4926C55.6335 92.298 49.1344 97.4212 49.9062 105.251C50.4432 110.721 52.7811 113.35 55.242 115.42C58.3853 113.126 63.7322 111.963 68.285 111.393L94.3597 108.417C103.253 107.399 108.857 100.441 107.973 91.5374Z" fill="url(#paint8_linear_0_828)" stroke="#F1F4F7" stroke-width="2" stroke-miterlimit="10"/>
<path id="Vector_10" d="M151.188 129.011C150.584 122.848 148.481 118.675 144.566 115.42C147.351 124.246 135.986 125.532 132.407 125.935C132.407 125.935 132.407 125.935 132.407 125.946L105.918 128.966C98.8484 129.772 92.3492 134.895 93.1211 142.725C93.658 148.195 95.9959 150.824 98.4568 152.893C101.6 150.6 106.947 149.437 111.5 148.866L137.575 145.891C146.456 144.873 152.061 137.915 151.188 129.011Z" fill="url(#paint9_linear_0_828)" stroke="#F1F4F7" stroke-width="2" stroke-miterlimit="10"/>
<path id="Vector_11" d="M154.094 54.0647C153.49 47.9012 151.387 43.7288 147.472 40.4736C150.257 49.2994 138.892 50.5858 135.313 50.9885C135.313 50.9885 135.313 50.9885 135.313 50.9997L108.824 54.02C101.755 54.8253 95.2555 59.9486 96.0273 67.7788C96.5643 73.2488 98.9022 75.8776 101.363 77.947C104.506 75.6538 109.853 74.4905 114.406 73.92L140.481 70.9445C149.363 69.9266 154.967 62.9688 154.094 54.0647Z" fill="url(#paint10_linear_0_828)" stroke="#F1F4F7" stroke-width="2" stroke-miterlimit="10"/>
<path id="Vector_12" d="M197.293 91.5374C196.689 85.3738 194.586 81.2014 190.671 77.9463C193.457 86.7721 182.092 88.0585 178.512 88.4612C178.512 88.4612 178.512 88.4612 178.512 88.4724L152.023 91.4926C144.954 92.298 138.455 97.4212 139.227 105.251C139.763 110.721 142.101 113.35 144.562 115.42C147.706 113.126 153.053 111.963 157.605 111.393L183.68 108.417C192.573 107.399 198.177 100.441 197.293 91.5374Z" fill="url(#paint11_linear_0_828)" stroke="#F1F4F7" stroke-width="2" stroke-miterlimit="10"/>
<path id="Vector_13" d="M200.204 16.5911C199.6 10.4275 197.497 6.25515 193.581 3C196.367 11.8258 185.002 13.1122 181.422 13.5149C181.422 13.5149 181.422 13.5149 181.422 13.5261L154.934 16.5463C147.864 17.3517 141.365 22.475 142.137 30.3052C142.674 35.7752 145.012 38.4039 147.472 40.4733C150.616 38.1802 155.963 37.0168 160.515 36.4464L186.59 33.4709C195.472 32.4529 201.076 25.4952 200.204 16.5911Z" fill="url(#paint12_linear_0_828)" stroke="#F1F4F7" stroke-width="2" stroke-miterlimit="10"/>
<path id="Vector_14" d="M243.403 54.0647C242.799 47.9012 240.696 43.7288 236.781 40.4736C239.566 49.2994 228.201 50.5858 224.621 50.9885C224.621 50.9885 224.621 50.9885 224.621 50.9997L198.133 54.02C191.063 54.8253 184.564 59.9486 185.336 67.7788C185.873 73.2488 188.211 75.8776 190.672 77.947C193.815 75.6538 199.162 74.4905 203.715 73.92L229.789 70.9445C238.682 69.9266 244.287 62.9688 243.403 54.0647Z" fill="url(#paint13_linear_0_828)" stroke="#F1F4F7" stroke-width="2" stroke-miterlimit="10"/>
<path id="Vector_15" d="M240.504 129.011C239.9 122.848 237.797 118.675 233.882 115.42C236.668 124.246 225.303 125.532 221.723 125.935C221.723 125.935 221.723 125.935 221.723 125.946L195.234 128.966C188.165 129.772 181.666 134.895 182.437 142.725C182.974 148.195 185.312 150.824 187.773 152.893C190.917 150.6 196.263 149.437 200.816 148.866L226.891 145.891C235.773 144.873 241.377 137.915 240.504 129.011Z" fill="url(#paint14_linear_0_828)" stroke="#F1F4F7" stroke-width="2" stroke-miterlimit="10"/>
<g id="Group_9">
<path id="Vector_16" d="M9.35751 153.643C6.89657 151.574 4.55868 148.945 4.02175 143.475C3.78684 141.059 4.24547 138.9 5.1851 137.043C2.75772 141.372 0.330344 148.777 1.1693 157.256C1.39302 159.538 1.68386 161.496 2.12012 163.33C6.48269 162.234 11.2815 159.728 9.35751 153.643Z" fill="url(#paint15_linear_0_828)" stroke="#F1F4F7" stroke-width="2" stroke-miterlimit="10"/>
</g>
</g>
<defs>
<linearGradient id="paint0_linear_0_828" x1="46.8904" y1="111.958" x2="55.6771" y2="111.958" gradientUnits="userSpaceOnUse">
<stop offset="0.1688" stop-color="#0057B8"/>
<stop offset="0.4822" stop-color="#0075BE"/>
<stop offset="0.5947" stop-color="#0277BF"/>
<stop offset="0.7684" stop-color="#0277BF"/>
<stop offset="0.9852" stop-color="#1E9CD7"/>
<stop offset="0.9897" stop-color="#219ED8"/>
<stop offset="0.9925" stop-color="#29A4DA"/>
<stop offset="0.9948" stop-color="#38AFDF"/>
<stop offset="0.9969" stop-color="#4CBEE5"/>
<stop offset="0.9988" stop-color="#67D1ED"/>
<stop offset="1" stop-color="#7CE0F4"/>
</linearGradient>
<linearGradient id="paint1_linear_0_828" x1="90.0953" y1="149.432" x2="98.882" y2="149.432" gradientUnits="userSpaceOnUse">
<stop offset="0.1688" stop-color="#0057B8"/>
<stop offset="0.4822" stop-color="#0075BE"/>
<stop offset="0.5947" stop-color="#0277BF"/>
<stop offset="0.7684" stop-color="#0277BF"/>
<stop offset="0.9852" stop-color="#1E9CD7"/>
<stop offset="0.9897" stop-color="#219ED8"/>
<stop offset="0.9925" stop-color="#29A4DA"/>
<stop offset="0.9948" stop-color="#38AFDF"/>
<stop offset="0.9969" stop-color="#4CBEE5"/>
<stop offset="0.9988" stop-color="#67D1ED"/>
<stop offset="1" stop-color="#7CE0F4"/>
</linearGradient>
<linearGradient id="paint2_linear_0_828" x1="92.9983" y1="74.4846" x2="101.785" y2="74.4846" gradientUnits="userSpaceOnUse">
<stop offset="0.1688" stop-color="#0057B8"/>
<stop offset="0.4822" stop-color="#0075BE"/>
<stop offset="0.5947" stop-color="#0277BF"/>
<stop offset="0.7684" stop-color="#0277BF"/>
<stop offset="0.9852" stop-color="#1E9CD7"/>
<stop offset="0.9897" stop-color="#219ED8"/>
<stop offset="0.9925" stop-color="#29A4DA"/>
<stop offset="0.9948" stop-color="#38AFDF"/>
<stop offset="0.9969" stop-color="#4CBEE5"/>
<stop offset="0.9988" stop-color="#67D1ED"/>
<stop offset="1" stop-color="#7CE0F4"/>
</linearGradient>
<linearGradient id="paint3_linear_0_828" x1="136.203" y1="111.958" x2="144.99" y2="111.958" gradientUnits="userSpaceOnUse">
<stop offset="0.1688" stop-color="#0057B8"/>
<stop offset="0.4822" stop-color="#0075BE"/>
<stop offset="0.5947" stop-color="#0277BF"/>
<stop offset="0.7684" stop-color="#0277BF"/>
<stop offset="0.9852" stop-color="#1E9CD7"/>
<stop offset="0.9897" stop-color="#219ED8"/>
<stop offset="0.9925" stop-color="#29A4DA"/>
<stop offset="0.9948" stop-color="#38AFDF"/>
<stop offset="0.9969" stop-color="#4CBEE5"/>
<stop offset="0.9988" stop-color="#67D1ED"/>
<stop offset="1" stop-color="#7CE0F4"/>
</linearGradient>
<linearGradient id="paint4_linear_0_828" x1="139.11" y1="37.0119" x2="147.897" y2="37.0119" gradientUnits="userSpaceOnUse">
<stop offset="0.1688" stop-color="#0057B8"/>
<stop offset="0.4822" stop-color="#0075BE"/>
<stop offset="0.5947" stop-color="#0277BF"/>
<stop offset="0.7684" stop-color="#0277BF"/>
<stop offset="0.9852" stop-color="#1E9CD7"/>
<stop offset="0.9897" stop-color="#219ED8"/>
<stop offset="0.9925" stop-color="#29A4DA"/>
<stop offset="0.9948" stop-color="#38AFDF"/>
<stop offset="0.9969" stop-color="#4CBEE5"/>
<stop offset="0.9988" stop-color="#67D1ED"/>
<stop offset="1" stop-color="#7CE0F4"/>
</linearGradient>
<linearGradient id="paint5_linear_0_828" x1="182.315" y1="74.4846" x2="191.102" y2="74.4846" gradientUnits="userSpaceOnUse">
<stop offset="0.1688" stop-color="#0057B8"/>
<stop offset="0.4822" stop-color="#0075BE"/>
<stop offset="0.5947" stop-color="#0277BF"/>
<stop offset="0.7684" stop-color="#0277BF"/>
<stop offset="0.9852" stop-color="#1E9CD7"/>
<stop offset="0.9897" stop-color="#219ED8"/>
<stop offset="0.9925" stop-color="#29A4DA"/>
<stop offset="0.9948" stop-color="#38AFDF"/>
<stop offset="0.9969" stop-color="#4CBEE5"/>
<stop offset="0.9988" stop-color="#67D1ED"/>
<stop offset="1" stop-color="#7CE0F4"/>
</linearGradient>
<linearGradient id="paint6_linear_0_828" x1="179.413" y1="149.432" x2="188.199" y2="149.432" gradientUnits="userSpaceOnUse">
<stop offset="0.1688" stop-color="#0057B8"/>
<stop offset="0.4822" stop-color="#0075BE"/>
<stop offset="0.5947" stop-color="#0277BF"/>
<stop offset="0.7684" stop-color="#0277BF"/>
<stop offset="0.9852" stop-color="#1E9CD7"/>
<stop offset="0.9897" stop-color="#219ED8"/>
<stop offset="0.9925" stop-color="#29A4DA"/>
<stop offset="0.9948" stop-color="#38AFDF"/>
<stop offset="0.9969" stop-color="#4CBEE5"/>
<stop offset="0.9988" stop-color="#67D1ED"/>
<stop offset="1" stop-color="#7CE0F4"/>
</linearGradient>
<linearGradient id="paint7_linear_0_828" x1="3.7302" y1="134.151" x2="61.9554" y2="134.151" gradientUnits="userSpaceOnUse">
<stop offset="0.1688" stop-color="#0057B8"/>
<stop offset="0.4822" stop-color="#0075BE"/>
<stop offset="0.5947" stop-color="#0277BF"/>
<stop offset="0.7684" stop-color="#0277BF"/>
<stop offset="0.9852" stop-color="#1E9CD7"/>
<stop offset="0.9897" stop-color="#219ED8"/>
<stop offset="0.9925" stop-color="#29A4DA"/>
<stop offset="0.9948" stop-color="#38AFDF"/>
<stop offset="0.9969" stop-color="#4CBEE5"/>
<stop offset="0.9988" stop-color="#67D1ED"/>
<stop offset="1" stop-color="#7CE0F4"/>
</linearGradient>
<linearGradient id="paint8_linear_0_828" x1="49.8419" y1="96.6773" x2="108.067" y2="96.6773" gradientUnits="userSpaceOnUse">
<stop offset="0.1688" stop-color="#0057B8"/>
<stop offset="0.4822" stop-color="#0075BE"/>
<stop offset="0.5947" stop-color="#0277BF"/>
<stop offset="0.7684" stop-color="#0277BF"/>
<stop offset="0.9852" stop-color="#1E9CD7"/>
<stop offset="0.9897" stop-color="#219ED8"/>
<stop offset="0.9925" stop-color="#29A4DA"/>
<stop offset="0.9948" stop-color="#38AFDF"/>
<stop offset="0.9969" stop-color="#4CBEE5"/>
<stop offset="0.9988" stop-color="#67D1ED"/>
<stop offset="1" stop-color="#7CE0F4"/>
</linearGradient>
<linearGradient id="paint9_linear_0_828" x1="93.0513" y1="134.151" x2="151.276" y2="134.151" gradientUnits="userSpaceOnUse">
<stop offset="0.1688" stop-color="#0057B8"/>
<stop offset="0.4822" stop-color="#0075BE"/>
<stop offset="0.5947" stop-color="#0277BF"/>
<stop offset="0.7684" stop-color="#0277BF"/>
<stop offset="0.9852" stop-color="#1E9CD7"/>
<stop offset="0.9897" stop-color="#219ED8"/>
<stop offset="0.9925" stop-color="#29A4DA"/>
<stop offset="0.9948" stop-color="#38AFDF"/>
<stop offset="0.9969" stop-color="#4CBEE5"/>
<stop offset="0.9988" stop-color="#67D1ED"/>
<stop offset="1" stop-color="#7CE0F4"/>
</linearGradient>
<linearGradient id="paint10_linear_0_828" x1="95.9543" y1="59.2045" x2="154.179" y2="59.2045" gradientUnits="userSpaceOnUse">
<stop offset="0.1688" stop-color="#0057B8"/>
<stop offset="0.4822" stop-color="#0075BE"/>
<stop offset="0.5947" stop-color="#0277BF"/>
<stop offset="0.7684" stop-color="#0277BF"/>
<stop offset="0.9852" stop-color="#1E9CD7"/>
<stop offset="0.9897" stop-color="#219ED8"/>
<stop offset="0.9925" stop-color="#29A4DA"/>
<stop offset="0.9948" stop-color="#38AFDF"/>
<stop offset="0.9969" stop-color="#4CBEE5"/>
<stop offset="0.9988" stop-color="#67D1ED"/>
<stop offset="1" stop-color="#7CE0F4"/>
</linearGradient>
<linearGradient id="paint11_linear_0_828" x1="139.159" y1="96.6773" x2="197.384" y2="96.6773" gradientUnits="userSpaceOnUse">
<stop offset="0.1688" stop-color="#0057B8"/>
<stop offset="0.4822" stop-color="#0075BE"/>
<stop offset="0.5947" stop-color="#0277BF"/>
<stop offset="0.7684" stop-color="#0277BF"/>
<stop offset="0.9852" stop-color="#1E9CD7"/>
<stop offset="0.9897" stop-color="#219ED8"/>
<stop offset="0.9925" stop-color="#29A4DA"/>
<stop offset="0.9948" stop-color="#38AFDF"/>
<stop offset="0.9969" stop-color="#4CBEE5"/>
<stop offset="0.9988" stop-color="#67D1ED"/>
<stop offset="1" stop-color="#7CE0F4"/>
</linearGradient>
<linearGradient id="paint12_linear_0_828" x1="142.066" y1="21.7307" x2="200.291" y2="21.7307" gradientUnits="userSpaceOnUse">
<stop offset="0.1688" stop-color="#0057B8"/>
<stop offset="0.4822" stop-color="#0075BE"/>
<stop offset="0.5947" stop-color="#0277BF"/>
<stop offset="0.7684" stop-color="#0277BF"/>
<stop offset="0.9852" stop-color="#1E9CD7"/>
<stop offset="0.9897" stop-color="#219ED8"/>
<stop offset="0.9925" stop-color="#29A4DA"/>
<stop offset="0.9948" stop-color="#38AFDF"/>
<stop offset="0.9969" stop-color="#4CBEE5"/>
<stop offset="0.9988" stop-color="#67D1ED"/>
<stop offset="1" stop-color="#7CE0F4"/>
</linearGradient>
<linearGradient id="paint13_linear_0_828" x1="185.271" y1="59.2044" x2="243.496" y2="59.2044" gradientUnits="userSpaceOnUse">
<stop offset="0.1688" stop-color="#0057B8"/>
<stop offset="0.4822" stop-color="#0075BE"/>
<stop offset="0.5947" stop-color="#0277BF"/>
<stop offset="0.7684" stop-color="#0277BF"/>
<stop offset="0.9852" stop-color="#1E9CD7"/>
<stop offset="0.9897" stop-color="#219ED8"/>
<stop offset="0.9925" stop-color="#29A4DA"/>
<stop offset="0.9948" stop-color="#38AFDF"/>
<stop offset="0.9969" stop-color="#4CBEE5"/>
<stop offset="0.9988" stop-color="#67D1ED"/>
<stop offset="1" stop-color="#7CE0F4"/>
</linearGradient>
<linearGradient id="paint14_linear_0_828" x1="182.365" y1="134.151" x2="240.59" y2="134.151" gradientUnits="userSpaceOnUse">
<stop offset="0.1688" stop-color="#0057B8"/>
<stop offset="0.4822" stop-color="#0075BE"/>
<stop offset="0.5947" stop-color="#0277BF"/>
<stop offset="0.7684" stop-color="#0277BF"/>
<stop offset="0.9852" stop-color="#1E9CD7"/>
<stop offset="0.9897" stop-color="#219ED8"/>
<stop offset="0.9925" stop-color="#29A4DA"/>
<stop offset="0.9948" stop-color="#38AFDF"/>
<stop offset="0.9969" stop-color="#4CBEE5"/>
<stop offset="0.9988" stop-color="#67D1ED"/>
<stop offset="1" stop-color="#7CE0F4"/>
</linearGradient>
<linearGradient id="paint15_linear_0_828" x1="1.01135" y1="150.192" x2="9.79812" y2="150.192" gradientUnits="userSpaceOnUse">
<stop offset="0.1688" stop-color="#0057B8"/>
<stop offset="0.4822" stop-color="#0075BE"/>
<stop offset="0.5947" stop-color="#0277BF"/>
<stop offset="0.7684" stop-color="#0277BF"/>
<stop offset="0.9852" stop-color="#1E9CD7"/>
<stop offset="0.9897" stop-color="#219ED8"/>
<stop offset="0.9925" stop-color="#29A4DA"/>
<stop offset="0.9948" stop-color="#38AFDF"/>
<stop offset="0.9969" stop-color="#4CBEE5"/>
<stop offset="0.9988" stop-color="#67D1ED"/>
<stop offset="1" stop-color="#7CE0F4"/>
</linearGradient>
</defs>
</svg>
