<svg width="49" height="49" viewBox="0 0 49 49" fill="none" xmlns="http://www.w3.org/2000/svg">
<circle cx="6.125" cy="6.125" r="6.125" transform="matrix(-1 0 0 1 30.625 18.375)" stroke="white" stroke-width="1.5"/>
<path d="M33.6802 10.0801L33.3052 10.7296L33.6802 10.0801ZM33.6802 38.9185L33.3052 38.269V38.269L33.6802 38.9185ZM15.3052 38.9185L15.6802 38.269L15.3052 38.9185ZM15.3052 10.0801L15.6802 10.7296L15.3052 10.0801ZM18.3149 5.58043L17.5715 5.48136L18.3149 5.58043ZM18.9021 4.85931L18.697 4.13791L18.9021 4.85931ZM5.38376 19.3679L5.79382 18.7399L5.38376 19.3679ZM5.00333 18.4142L4.28733 18.191L5.00333 18.4142ZM10.2789 38.4212L10.5191 39.1317L10.2789 38.4212ZM18.9022 44.1401L18.6971 44.8615L18.9022 44.1401ZM30.6701 43.4214L31.4135 43.5201L30.6701 43.4214ZM30.0824 44.1432L29.8776 43.4216L30.0824 44.1432ZM39.6198 38.2171L40.1751 38.7212L39.6198 38.2171ZM38.7131 38.4235L38.9541 37.7132L38.7131 38.4235ZM43.9916 18.4127L44.7076 18.1894L43.9916 18.4127ZM43.6109 19.3666L43.201 18.7384L43.6109 19.3666ZM5.0035 30.5857L4.28751 30.809L5.0035 30.5857ZM5.3839 29.632L5.79399 30.26L5.3839 29.632ZM38.7127 10.5753L38.4717 9.86506L38.7127 10.5753ZM39.6193 10.7816L39.0639 11.2857L39.6193 10.7816ZM10.2794 10.5776L10.5195 9.86705L10.2794 10.5776ZM43.6107 29.6333L44.0206 29.0052L43.6107 29.6333ZM43.9914 30.5872L43.2754 30.3639L43.9914 30.5872ZM30.6701 5.57788L29.9267 5.67665L30.6701 5.57788ZM30.0825 4.85624L30.2872 4.13472L30.0825 4.85624ZM29.9267 5.67665C30.1979 7.71817 31.3815 9.61893 33.3052 10.7296L34.0552 9.43056C32.5519 8.56261 31.6261 7.07888 31.4136 5.47912L29.9267 5.67665ZM33.3052 10.7296C35.09 11.76 37.1458 11.8988 38.9536 11.2856L38.4717 9.86506C37.0556 10.3455 35.4504 10.2361 34.0552 9.43056L33.3052 10.7296ZM44.7076 18.1894C43.7803 15.2167 42.2157 12.5262 40.1746 10.2775L39.0639 11.2857C40.9615 13.3761 42.4147 15.8759 43.2756 18.636L44.7076 18.1894ZM41.5783 24.5C41.5783 22.6145 42.5486 20.9551 44.0207 19.9947L43.201 18.7384C41.3226 19.9641 40.0783 22.0865 40.0783 24.5H41.5783ZM44.0206 29.0052C42.5486 28.0448 41.5783 26.3855 41.5783 24.5H40.0783C40.0783 26.9134 41.3225 29.0358 43.2009 30.2615L44.0206 29.0052ZM40.1751 38.7212C42.2159 36.4728 43.7802 33.7828 44.7074 30.8106L43.2754 30.3639C42.4146 33.1235 40.9616 35.6229 39.0644 37.7131L40.1751 38.7212ZM34.0552 39.5681C35.4505 38.7625 37.0559 38.6531 38.4721 39.1337L38.9541 37.7132C37.1462 37.0998 35.0902 37.2385 33.3052 38.269L34.0552 39.5681ZM31.4135 43.5201C31.6259 41.9201 32.5517 40.4361 34.0552 39.5681L33.3052 38.269C31.3812 39.3798 30.1976 41.2809 29.9266 43.3227L31.4135 43.5201ZM24.4977 45.6663C26.5039 45.6663 28.4462 45.387 30.2871 44.8647L29.8776 43.4216C28.1686 43.9066 26.3641 44.1663 24.4977 44.1663V45.6663ZM18.6971 44.8615C20.5413 45.3859 22.4874 45.6663 24.4977 45.6663V44.1663C22.6275 44.1663 20.8194 43.9055 19.1073 43.4187L18.6971 44.8615ZM14.9302 39.5681C16.433 40.4357 17.3586 41.9187 17.5716 43.5178L19.0584 43.3199C18.7867 41.2791 17.6033 39.3793 15.6802 38.269L14.9302 39.5681ZM10.5191 39.1317C11.934 38.6534 13.5368 38.7636 14.9302 39.5681L15.6802 38.269C13.8977 37.2399 11.8449 37.1002 10.0388 37.7107L10.5191 39.1317ZM4.28751 30.809C5.21425 33.7806 6.77781 36.4702 8.81767 38.7184L9.92856 37.7104C8.03222 35.6204 6.57995 33.1214 5.71949 30.3624L4.28751 30.809ZM7.41428 24.5C7.41428 26.3847 6.44481 28.0435 4.97382 29.0041L5.79399 30.26C7.67112 29.0341 8.91428 26.9124 8.91428 24.5H7.41428ZM4.97369 19.9958C6.44475 20.9564 7.41428 22.6152 7.41428 24.5H8.91428C8.91428 22.0875 7.67105 19.9657 5.79382 18.7399L4.97369 19.9958ZM8.81823 10.2804C6.77796 12.5288 5.21413 15.2189 4.28733 18.191L5.71932 18.6375C6.57984 15.878 8.03236 13.3786 9.92907 11.2884L8.81823 10.2804ZM14.9302 9.43056C13.5369 10.235 11.9343 10.3452 10.5195 9.86705L10.0393 11.2881C11.8452 11.8984 13.8979 11.7586 15.6802 10.7296L14.9302 9.43056ZM17.5715 5.48136C17.3584 7.08026 16.4328 8.56301 14.9302 9.43056L15.6802 10.7296C17.603 9.61945 18.7864 7.71994 19.0583 5.6795L17.5715 5.48136ZM24.4977 3.33301C22.4873 3.33301 20.5412 3.61349 18.697 4.13791L19.1072 5.58072C20.8194 5.09386 22.6274 4.83301 24.4977 4.83301V3.33301ZM30.2872 4.13472C28.4463 3.61235 26.504 3.33301 24.4977 3.33301V4.83301C26.3642 4.83301 28.1687 5.09281 29.8777 5.57775L30.2872 4.13472ZM19.0583 5.6795C19.0635 5.64063 19.0782 5.61152 19.0912 5.5951C19.0972 5.58747 19.1019 5.58378 19.104 5.58236C19.1058 5.58115 19.1065 5.58092 19.1072 5.58072L18.697 4.13791C18.0377 4.32538 17.6485 4.90307 17.5715 5.48136L19.0583 5.6795ZM5.79382 18.7399C5.75642 18.7155 5.73391 18.6843 5.7243 18.6612C5.71989 18.6506 5.71905 18.6439 5.7189 18.6414C5.71878 18.6395 5.71891 18.6388 5.71932 18.6375L4.28733 18.191C4.05663 18.9308 4.42774 19.6393 4.97369 19.9958L5.79382 18.7399ZM10.0388 37.7107C10.0017 37.7232 9.96923 37.723 9.94875 37.7186C9.93922 37.7165 9.93382 37.7139 9.93158 37.7127C9.92967 37.7116 9.92908 37.711 9.92856 37.7104L8.81767 38.7184C9.27753 39.2252 9.96681 39.3184 10.5191 39.1317L10.0388 37.7107ZM19.1073 43.4187C19.1066 43.4185 19.1059 43.4182 19.1041 43.417C19.102 43.4156 19.0973 43.4119 19.0913 43.4043C19.0783 43.3879 19.0636 43.3587 19.0584 43.3199L17.5716 43.5178C17.6486 44.0962 18.0377 44.674 18.6971 44.8615L19.1073 43.4187ZM29.9266 43.3227C29.9214 43.3616 29.9067 43.3908 29.8937 43.4072C29.8876 43.4149 29.8829 43.4186 29.8809 43.42C29.8791 43.4212 29.8783 43.4214 29.8776 43.4216L30.2871 44.8647C30.9471 44.6774 31.3367 44.099 31.4135 43.5201L29.9266 43.3227ZM39.0644 37.7131C39.0639 37.7136 39.0633 37.7143 39.0614 37.7153C39.0592 37.7166 39.0538 37.7191 39.0442 37.7212C39.0237 37.7256 38.9912 37.7258 38.9541 37.7132L38.4721 39.1337C39.0247 39.3212 39.7148 39.2284 40.1751 38.7212L39.0644 37.7131ZM43.2756 18.636C43.276 18.6373 43.2762 18.638 43.276 18.6399C43.2759 18.6424 43.275 18.6491 43.2706 18.6598C43.261 18.6829 43.2385 18.714 43.201 18.7384L44.0207 19.9947C44.567 19.6383 44.9384 18.9295 44.7076 18.1894L43.2756 18.636ZM5.71949 30.3624C5.71908 30.3611 5.71895 30.3604 5.71907 30.3585C5.71922 30.356 5.72006 30.3493 5.72447 30.3387C5.73407 30.3156 5.75658 30.2844 5.79399 30.26L4.97382 29.0041C4.42788 29.3606 4.05679 30.0692 4.28751 30.809L5.71949 30.3624ZM38.9536 11.2856C38.9907 11.273 39.0232 11.2732 39.0437 11.2776C39.0533 11.2796 39.0587 11.2822 39.0609 11.2835C39.0628 11.2845 39.0634 11.2851 39.0639 11.2857L40.1746 10.2775C39.7142 9.7704 39.0243 9.67763 38.4717 9.86506L38.9536 11.2856ZM9.92907 11.2884C9.9296 11.2878 9.93019 11.2872 9.9321 11.2861C9.93434 11.2848 9.93974 11.2823 9.94926 11.2802C9.96974 11.2758 10.0022 11.2756 10.0393 11.2881L10.5195 9.86705C9.96724 9.68041 9.27805 9.77363 8.81823 10.2804L9.92907 11.2884ZM43.2009 30.2615C43.2383 30.2859 43.2608 30.317 43.2705 30.3401C43.2749 30.3508 43.2757 30.3575 43.2759 30.36C43.276 30.3619 43.2759 30.3626 43.2754 30.3639L44.7074 30.8106C44.9383 30.0705 44.5668 29.3617 44.0206 29.0052L43.2009 30.2615ZM31.4136 5.47912C31.3367 4.90031 30.9472 4.322 30.2872 4.13472L29.8777 5.57775C29.8784 5.57795 29.8792 5.57819 29.881 5.5794C29.883 5.58082 29.8877 5.58451 29.8938 5.59215C29.9068 5.60859 29.9215 5.63774 29.9267 5.67665L31.4136 5.47912Z" fill="white"/>
</svg>
