<svg width="49" height="49" viewBox="0 0 49 49" fill="none" xmlns="http://www.w3.org/2000/svg">
<path d="M23.477 3.75046C23.9434 2.97547 25.067 2.97547 25.5334 3.75046L31.6354 13.89C31.803 14.1684 32.0763 14.367 32.3929 14.4403L43.9218 17.1104C44.803 17.3145 45.1502 18.3831 44.5572 19.0661L36.7996 28.0028C36.5866 28.2482 36.4822 28.5695 36.5103 28.8932L37.5335 40.683C37.6117 41.5841 36.7027 42.2445 35.8699 41.8917L24.9733 37.2753C24.6741 37.1485 24.3363 37.1485 24.0371 37.2753L13.1405 41.8917C12.3077 42.2445 11.3987 41.5841 11.4769 40.683L12.5001 28.8932C12.5282 28.5695 12.4238 28.2482 12.2108 28.0028L4.45319 19.0661C3.86026 18.3831 4.20746 17.3145 5.08863 17.1104L16.6176 14.4403C16.9341 14.367 17.2074 14.1684 17.375 13.89L23.477 3.75046Z" stroke="white" stroke-width="1.5"/>
</svg>
