<svg width="50" height="50" viewBox="0 0 50 50" fill="none" xmlns="http://www.w3.org/2000/svg">
<circle cx="7.0922" cy="7.0922" r="7.0922" transform="matrix(-1 0 0 1 32.5469 10.416)" stroke="white" stroke-width="1.5"/>
<path d="M13.0391 35.1229C13.0391 33.5974 13.998 32.2366 15.4346 31.7236V31.7236C21.9115 29.4104 28.9893 29.4104 35.4662 31.7236V31.7236C36.9028 32.2366 37.8618 33.5974 37.8618 35.1229V39.1383C37.8618 40.3554 36.7838 41.2904 35.5789 41.1182L29.2688 40.2168C26.7361 39.855 24.1648 39.855 21.632 40.2168L15.3219 41.1182C14.117 41.2904 13.0391 40.3554 13.0391 39.1383V35.1229Z" stroke="white" stroke-width="1.5"/>
<path d="M36.0843 24.7972C39.1619 24.7972 41.6567 22.3024 41.6567 19.2248C41.6567 16.1472 39.1619 13.6523 36.0843 13.6523" stroke="white" stroke-width="1.5" stroke-linecap="round"/>
<path d="M42.1865 37.5101L42.7325 37.5881C44.3701 37.822 45.8353 36.5513 45.8353 34.8971V33.0644C45.8353 31.8659 45.0818 30.7967 43.953 30.3936C42.8271 29.9914 41.6781 29.6783 40.5161 29.4541" stroke="white" stroke-width="1.5" stroke-linecap="round"/>
<path d="M13.8498 24.7972C10.7722 24.7972 8.27734 22.3024 8.27734 19.2248C8.27734 16.1472 10.7722 13.6523 13.8498 13.6523" stroke="white" stroke-width="1.5" stroke-linecap="round"/>
<path d="M7.74756 37.5101L7.20157 37.5881C5.56396 37.822 4.09882 36.5513 4.09882 34.8971V33.0644C4.09882 31.8659 4.85229 30.7967 5.98104 30.3936C7.10698 29.9914 8.25603 29.6783 9.41797 29.4541" stroke="white" stroke-width="1.5" stroke-linecap="round"/>
</svg>
