<svg width="245" height="165" fill="none" xmlns="http://www.w3.org/2000/svg"><g opacity=".9" stroke="#F1F4F7" stroke-width="2" stroke-miterlimit="10"><path d="M55.244 115.409c-2.46-2.07-4.799-4.698-5.336-10.168-.234-2.417.224-4.576 1.164-6.432-2.428 4.329-4.855 11.734-4.016 20.213.224 2.282.515 4.239.95 6.074 4.352-1.096 9.162-3.602 7.238-9.687z" fill="url(#paint0_linear_0_828)"/><path d="M98.443 152.882c-2.46-2.069-4.798-4.698-5.335-10.168-.235-2.416.223-4.575 1.163-6.432-2.427 4.329-4.855 11.734-4.016 20.213.224 2.282.515 4.24.951 6.074 4.351-1.096 9.161-3.601 7.237-9.687z" fill="url(#paint1_linear_0_828)"/><path d="M101.35 77.935c-2.461-2.07-4.8-4.698-5.336-10.168-.235-2.416.224-4.575 1.163-6.432-2.427 4.329-4.855 11.734-4.016 20.213.224 2.282.515 4.24.951 6.074 4.352-1.096 9.162-3.602 7.238-9.687z" fill="url(#paint2_linear_0_828)"/><path d="M144.549 115.409c-2.461-2.07-4.799-4.698-5.336-10.168-.235-2.417.224-4.576 1.164-6.432-2.428 4.329-4.855 11.734-4.016 20.213.223 2.282.514 4.239.951 6.074 4.362-1.096 9.161-3.602 7.237-9.687z" fill="url(#paint3_linear_0_828)"/><path d="M147.459 40.462c-2.461-2.069-4.799-4.698-5.336-10.168-.235-2.416.224-4.575 1.164-6.432-2.428 4.33-4.855 11.735-4.016 20.213.224 2.282.514 4.24.951 6.075 4.351-1.097 9.161-3.602 7.237-9.688z" fill="url(#paint4_linear_0_828)"/><path d="M190.67 77.935c-2.461-2.07-4.799-4.698-5.336-10.168-.235-2.416.224-4.575 1.164-6.432-2.428 4.329-4.855 11.734-4.016 20.213.224 2.282.514 4.24.951 6.074 4.351-1.096 9.161-3.602 7.237-9.687z" fill="url(#paint5_linear_0_828)"/><path d="M187.764 152.893c-2.461-2.069-4.799-4.698-5.336-10.168-.235-2.416.224-4.575 1.163-6.432-2.427 4.329-4.854 11.734-4.015 20.213.223 2.282.514 4.24.95 6.074 4.352-1.107 9.162-3.613 7.238-9.687z" fill="url(#paint6_linear_0_828)"/><path d="M61.864 129.011c-.604-6.163-2.707-10.336-6.622-13.591 2.785 8.826-8.58 10.112-12.16 10.515v.011l-26.488 3.02c-7.07.806-13.569 5.929-12.797 13.759.537 5.47 2.875 8.099 5.336 10.168 3.143-2.293 8.49-3.456 13.043-4.027l26.074-2.975c8.893-1.018 14.498-7.976 13.614-16.88z" fill="url(#paint7_linear_0_828)"/><path d="M107.973 91.537c-.604-6.163-2.707-10.336-6.622-13.59 2.785 8.825-8.58 10.111-12.16 10.514v.011l-26.488 3.02c-7.07.806-13.569 5.93-12.797 13.759.537 5.47 2.875 8.099 5.336 10.169 3.143-2.294 8.49-3.457 13.043-4.027l26.075-2.976c8.893-1.018 14.497-7.976 13.613-16.88z" fill="url(#paint8_linear_0_828)"/><path d="M151.188 129.011c-.604-6.163-2.707-10.336-6.622-13.591 2.785 8.826-8.58 10.112-12.159 10.515v.011l-26.489 3.02c-7.07.806-13.569 5.929-12.797 13.759.537 5.47 2.875 8.099 5.336 10.168 3.143-2.293 8.49-3.456 13.043-4.027l26.075-2.975c8.881-1.018 14.486-7.976 13.613-16.88z" fill="url(#paint9_linear_0_828)"/><path d="M154.094 54.065c-.604-6.164-2.707-10.336-6.622-13.591 2.785 8.825-8.58 10.112-12.159 10.515v.01l-26.489 3.021c-7.069.805-13.569 5.929-12.797 13.759.537 5.47 2.875 8.099 5.336 10.168 3.143-2.293 8.49-3.457 13.043-4.027l26.075-2.975c8.882-1.018 14.486-7.976 13.613-16.88z" fill="url(#paint10_linear_0_828)"/><path d="M197.293 91.537c-.604-6.163-2.707-10.336-6.622-13.59 2.786 8.825-8.579 10.111-12.159 10.514v.011l-26.489 3.02c-7.069.806-13.568 5.93-12.796 13.759.536 5.47 2.874 8.099 5.335 10.169 3.144-2.294 8.491-3.457 13.043-4.027l26.075-2.976c8.893-1.018 14.497-7.976 13.613-16.88z" fill="url(#paint11_linear_0_828)"/><path d="M200.204 16.591C199.6 10.427 197.497 6.255 193.581 3c2.786 8.826-8.579 10.112-12.159 10.515v.011l-26.488 3.02c-7.07.806-13.569 5.929-12.797 13.76.537 5.47 2.875 8.098 5.335 10.167 3.144-2.293 8.491-3.456 13.043-4.027l26.075-2.975c8.882-1.018 14.486-7.976 13.614-16.88z" fill="url(#paint12_linear_0_828)"/><path d="M243.403 54.065c-.604-6.164-2.707-10.336-6.622-13.591 2.785 8.825-8.58 10.112-12.16 10.515v.01l-26.488 3.021c-7.07.805-13.569 5.929-12.797 13.759.537 5.47 2.875 8.099 5.336 10.168 3.143-2.293 8.49-3.457 13.043-4.027l26.074-2.975c8.893-1.018 14.498-7.976 13.614-16.88z" fill="url(#paint13_linear_0_828)"/><path d="M240.504 129.011c-.604-6.163-2.707-10.336-6.622-13.591 2.786 8.826-8.579 10.112-12.159 10.515v.011l-26.489 3.02c-7.069.806-13.568 5.929-12.797 13.759.537 5.47 2.875 8.099 5.336 10.168 3.144-2.293 8.49-3.456 13.043-4.027l26.075-2.975c8.882-1.018 14.486-7.976 13.613-16.88z" fill="url(#paint14_linear_0_828)"/><path d="M9.358 153.643c-2.461-2.069-4.8-4.698-5.336-10.168-.235-2.416.223-4.575 1.163-6.432-2.427 4.329-4.855 11.734-4.016 20.213.224 2.282.515 4.24.951 6.074 4.363-1.096 9.162-3.602 7.238-9.687z" fill="url(#paint15_linear_0_828)"/></g><defs><linearGradient id="paint0_linear_0_828" x1="46.89" y1="111.958" x2="55.677" y2="111.958" gradientUnits="userSpaceOnUse"><stop offset=".169" stop-color="#0057B8"/><stop offset=".482" stop-color="#0075BE"/><stop offset=".595" stop-color="#0277BF"/><stop offset=".768" stop-color="#0277BF"/><stop offset=".985" stop-color="#1E9CD7"/><stop offset=".99" stop-color="#219ED8"/><stop offset=".993" stop-color="#29A4DA"/><stop offset=".995" stop-color="#38AFDF"/><stop offset=".997" stop-color="#4CBEE5"/><stop offset=".999" stop-color="#67D1ED"/><stop offset="1" stop-color="#7CE0F4"/></linearGradient><linearGradient id="paint1_linear_0_828" x1="90.095" y1="149.432" x2="98.882" y2="149.432" gradientUnits="userSpaceOnUse"><stop offset=".169" stop-color="#0057B8"/><stop offset=".482" stop-color="#0075BE"/><stop offset=".595" stop-color="#0277BF"/><stop offset=".768" stop-color="#0277BF"/><stop offset=".985" stop-color="#1E9CD7"/><stop offset=".99" stop-color="#219ED8"/><stop offset=".993" stop-color="#29A4DA"/><stop offset=".995" stop-color="#38AFDF"/><stop offset=".997" stop-color="#4CBEE5"/><stop offset=".999" stop-color="#67D1ED"/><stop offset="1" stop-color="#7CE0F4"/></linearGradient><linearGradient id="paint2_linear_0_828" x1="92.998" y1="74.485" x2="101.785" y2="74.485" gradientUnits="userSpaceOnUse"><stop offset=".169" stop-color="#0057B8"/><stop offset=".482" stop-color="#0075BE"/><stop offset=".595" stop-color="#0277BF"/><stop offset=".768" stop-color="#0277BF"/><stop offset=".985" stop-color="#1E9CD7"/><stop offset=".99" stop-color="#219ED8"/><stop offset=".993" stop-color="#29A4DA"/><stop offset=".995" stop-color="#38AFDF"/><stop offset=".997" stop-color="#4CBEE5"/><stop offset=".999" stop-color="#67D1ED"/><stop offset="1" stop-color="#7CE0F4"/></linearGradient><linearGradient id="paint3_linear_0_828" x1="136.203" y1="111.958" x2="144.99" y2="111.958" gradientUnits="userSpaceOnUse"><stop offset=".169" stop-color="#0057B8"/><stop offset=".482" stop-color="#0075BE"/><stop offset=".595" stop-color="#0277BF"/><stop offset=".768" stop-color="#0277BF"/><stop offset=".985" stop-color="#1E9CD7"/><stop offset=".99" stop-color="#219ED8"/><stop offset=".993" stop-color="#29A4DA"/><stop offset=".995" stop-color="#38AFDF"/><stop offset=".997" stop-color="#4CBEE5"/><stop offset=".999" stop-color="#67D1ED"/><stop offset="1" stop-color="#7CE0F4"/></linearGradient><linearGradient id="paint4_linear_0_828" x1="139.11" y1="37.012" x2="147.897" y2="37.012" gradientUnits="userSpaceOnUse"><stop offset=".169" stop-color="#0057B8"/><stop offset=".482" stop-color="#0075BE"/><stop offset=".595" stop-color="#0277BF"/><stop offset=".768" stop-color="#0277BF"/><stop offset=".985" stop-color="#1E9CD7"/><stop offset=".99" stop-color="#219ED8"/><stop offset=".993" stop-color="#29A4DA"/><stop offset=".995" stop-color="#38AFDF"/><stop offset=".997" stop-color="#4CBEE5"/><stop offset=".999" stop-color="#67D1ED"/><stop offset="1" stop-color="#7CE0F4"/></linearGradient><linearGradient id="paint5_linear_0_828" x1="182.315" y1="74.485" x2="191.102" y2="74.485" gradientUnits="userSpaceOnUse"><stop offset=".169" stop-color="#0057B8"/><stop offset=".482" stop-color="#0075BE"/><stop offset=".595" stop-color="#0277BF"/><stop offset=".768" stop-color="#0277BF"/><stop offset=".985" stop-color="#1E9CD7"/><stop offset=".99" stop-color="#219ED8"/><stop offset=".993" stop-color="#29A4DA"/><stop offset=".995" stop-color="#38AFDF"/><stop offset=".997" stop-color="#4CBEE5"/><stop offset=".999" stop-color="#67D1ED"/><stop offset="1" stop-color="#7CE0F4"/></linearGradient><linearGradient id="paint6_linear_0_828" x1="179.413" y1="149.432" x2="188.199" y2="149.432" gradientUnits="userSpaceOnUse"><stop offset=".169" stop-color="#0057B8"/><stop offset=".482" stop-color="#0075BE"/><stop offset=".595" stop-color="#0277BF"/><stop offset=".768" stop-color="#0277BF"/><stop offset=".985" stop-color="#1E9CD7"/><stop offset=".99" stop-color="#219ED8"/><stop offset=".993" stop-color="#29A4DA"/><stop offset=".995" stop-color="#38AFDF"/><stop offset=".997" stop-color="#4CBEE5"/><stop offset=".999" stop-color="#67D1ED"/><stop offset="1" stop-color="#7CE0F4"/></linearGradient><linearGradient id="paint7_linear_0_828" x1="3.73" y1="134.151" x2="61.955" y2="134.151" gradientUnits="userSpaceOnUse"><stop offset=".169" stop-color="#0057B8"/><stop offset=".482" stop-color="#0075BE"/><stop offset=".595" stop-color="#0277BF"/><stop offset=".768" stop-color="#0277BF"/><stop offset=".985" stop-color="#1E9CD7"/><stop offset=".99" stop-color="#219ED8"/><stop offset=".993" stop-color="#29A4DA"/><stop offset=".995" stop-color="#38AFDF"/><stop offset=".997" stop-color="#4CBEE5"/><stop offset=".999" stop-color="#67D1ED"/><stop offset="1" stop-color="#7CE0F4"/></linearGradient><linearGradient id="paint8_linear_0_828" x1="49.842" y1="96.677" x2="108.067" y2="96.677" gradientUnits="userSpaceOnUse"><stop offset=".169" stop-color="#0057B8"/><stop offset=".482" stop-color="#0075BE"/><stop offset=".595" stop-color="#0277BF"/><stop offset=".768" stop-color="#0277BF"/><stop offset=".985" stop-color="#1E9CD7"/><stop offset=".99" stop-color="#219ED8"/><stop offset=".993" stop-color="#29A4DA"/><stop offset=".995" stop-color="#38AFDF"/><stop offset=".997" stop-color="#4CBEE5"/><stop offset=".999" stop-color="#67D1ED"/><stop offset="1" stop-color="#7CE0F4"/></linearGradient><linearGradient id="paint9_linear_0_828" x1="93.051" y1="134.151" x2="151.276" y2="134.151" gradientUnits="userSpaceOnUse"><stop offset=".169" stop-color="#0057B8"/><stop offset=".482" stop-color="#0075BE"/><stop offset=".595" stop-color="#0277BF"/><stop offset=".768" stop-color="#0277BF"/><stop offset=".985" stop-color="#1E9CD7"/><stop offset=".99" stop-color="#219ED8"/><stop offset=".993" stop-color="#29A4DA"/><stop offset=".995" stop-color="#38AFDF"/><stop offset=".997" stop-color="#4CBEE5"/><stop offset=".999" stop-color="#67D1ED"/><stop offset="1" stop-color="#7CE0F4"/></linearGradient><linearGradient id="paint10_linear_0_828" x1="95.954" y1="59.205" x2="154.179" y2="59.205" gradientUnits="userSpaceOnUse"><stop offset=".169" stop-color="#0057B8"/><stop offset=".482" stop-color="#0075BE"/><stop offset=".595" stop-color="#0277BF"/><stop offset=".768" stop-color="#0277BF"/><stop offset=".985" stop-color="#1E9CD7"/><stop offset=".99" stop-color="#219ED8"/><stop offset=".993" stop-color="#29A4DA"/><stop offset=".995" stop-color="#38AFDF"/><stop offset=".997" stop-color="#4CBEE5"/><stop offset=".999" stop-color="#67D1ED"/><stop offset="1" stop-color="#7CE0F4"/></linearGradient><linearGradient id="paint11_linear_0_828" x1="139.159" y1="96.677" x2="197.384" y2="96.677" gradientUnits="userSpaceOnUse"><stop offset=".169" stop-color="#0057B8"/><stop offset=".482" stop-color="#0075BE"/><stop offset=".595" stop-color="#0277BF"/><stop offset=".768" stop-color="#0277BF"/><stop offset=".985" stop-color="#1E9CD7"/><stop offset=".99" stop-color="#219ED8"/><stop offset=".993" stop-color="#29A4DA"/><stop offset=".995" stop-color="#38AFDF"/><stop offset=".997" stop-color="#4CBEE5"/><stop offset=".999" stop-color="#67D1ED"/><stop offset="1" stop-color="#7CE0F4"/></linearGradient><linearGradient id="paint12_linear_0_828" x1="142.066" y1="21.731" x2="200.291" y2="21.731" gradientUnits="userSpaceOnUse"><stop offset=".169" stop-color="#0057B8"/><stop offset=".482" stop-color="#0075BE"/><stop offset=".595" stop-color="#0277BF"/><stop offset=".768" stop-color="#0277BF"/><stop offset=".985" stop-color="#1E9CD7"/><stop offset=".99" stop-color="#219ED8"/><stop offset=".993" stop-color="#29A4DA"/><stop offset=".995" stop-color="#38AFDF"/><stop offset=".997" stop-color="#4CBEE5"/><stop offset=".999" stop-color="#67D1ED"/><stop offset="1" stop-color="#7CE0F4"/></linearGradient><linearGradient id="paint13_linear_0_828" x1="185.271" y1="59.204" x2="243.496" y2="59.204" gradientUnits="userSpaceOnUse"><stop offset=".169" stop-color="#0057B8"/><stop offset=".482" stop-color="#0075BE"/><stop offset=".595" stop-color="#0277BF"/><stop offset=".768" stop-color="#0277BF"/><stop offset=".985" stop-color="#1E9CD7"/><stop offset=".99" stop-color="#219ED8"/><stop offset=".993" stop-color="#29A4DA"/><stop offset=".995" stop-color="#38AFDF"/><stop offset=".997" stop-color="#4CBEE5"/><stop offset=".999" stop-color="#67D1ED"/><stop offset="1" stop-color="#7CE0F4"/></linearGradient><linearGradient id="paint14_linear_0_828" x1="182.365" y1="134.151" x2="240.59" y2="134.151" gradientUnits="userSpaceOnUse"><stop offset=".169" stop-color="#0057B8"/><stop offset=".482" stop-color="#0075BE"/><stop offset=".595" stop-color="#0277BF"/><stop offset=".768" stop-color="#0277BF"/><stop offset=".985" stop-color="#1E9CD7"/><stop offset=".99" stop-color="#219ED8"/><stop offset=".993" stop-color="#29A4DA"/><stop offset=".995" stop-color="#38AFDF"/><stop offset=".997" stop-color="#4CBEE5"/><stop offset=".999" stop-color="#67D1ED"/><stop offset="1" stop-color="#7CE0F4"/></linearGradient><linearGradient id="paint15_linear_0_828" x1="1.011" y1="150.192" x2="9.798" y2="150.192" gradientUnits="userSpaceOnUse"><stop offset=".169" stop-color="#0057B8"/><stop offset=".482" stop-color="#0075BE"/><stop offset=".595" stop-color="#0277BF"/><stop offset=".768" stop-color="#0277BF"/><stop offset=".985" stop-color="#1E9CD7"/><stop offset=".99" stop-color="#219ED8"/><stop offset=".993" stop-color="#29A4DA"/><stop offset=".995" stop-color="#38AFDF"/><stop offset=".997" stop-color="#4CBEE5"/><stop offset=".999" stop-color="#67D1ED"/><stop offset="1" stop-color="#7CE0F4"/></linearGradient></defs></svg>