<svg width="245" height="158" viewBox="0 0 245 158" fill="none" xmlns="http://www.w3.org/2000/svg">
<path d="M55.2442 115.409C52.7833 113.339 50.4454 110.711 49.9085 105.241C49.6736 102.824 50.1322 100.665 51.0718 98.8086C48.6444 103.138 46.2171 110.543 47.056 119.022C47.2797 121.304 47.5706 123.261 48.0068 125.096C52.3582 124 57.1682 121.494 55.2442 115.409Z" fill="url(#paint0_linear_813_7887)" stroke="#0057B8" stroke-width="2" stroke-miterlimit="10"/>
<path d="M98.4434 152.881C95.9825 150.812 93.6446 148.183 93.1077 142.713C92.8728 140.297 93.3314 138.138 94.271 136.281C91.8437 140.61 89.4163 148.015 90.2552 156.494C90.479 158.776 90.7698 160.734 91.2061 162.569C95.5574 161.472 100.367 158.967 98.4434 152.881Z" fill="url(#paint1_linear_813_7887)" stroke="#0057B8" stroke-width="2" stroke-miterlimit="10"/>
<path d="M101.35 77.9361C98.8888 75.8666 96.5509 73.2379 96.0139 67.7679C95.779 65.3517 96.2377 63.1928 97.1773 61.3359C94.7499 65.6649 92.3225 73.0701 93.1615 81.5492C93.3852 83.8311 93.676 85.7887 94.1123 87.6232C98.4637 86.527 103.274 84.0213 101.35 77.9361Z" fill="url(#paint2_linear_813_7887)" stroke="#0057B8" stroke-width="2" stroke-miterlimit="10"/>
<path d="M144.549 115.409C142.088 113.339 139.75 110.711 139.213 105.241C138.978 102.824 139.437 100.665 140.377 98.8086C137.949 103.138 135.522 110.543 136.361 119.022C136.584 121.304 136.875 123.261 137.312 125.096C141.674 124 146.473 121.494 144.549 115.409Z" fill="url(#paint3_linear_813_7887)" stroke="#0057B8" stroke-width="2" stroke-miterlimit="10"/>
<path d="M147.459 40.4615C144.998 38.392 142.66 35.7633 142.123 30.2933C141.888 27.8771 142.347 25.7182 143.287 23.8613C140.859 28.1903 138.432 35.5955 139.271 44.0746C139.495 46.3565 139.785 48.3141 140.222 50.1486C144.573 49.0524 149.383 46.5467 147.459 40.4615Z" fill="url(#paint4_linear_813_7887)" stroke="#0057B8" stroke-width="2" stroke-miterlimit="10"/>
<path d="M190.67 77.9361C188.209 75.8666 185.871 73.2379 185.334 67.7679C185.099 65.3517 185.558 63.1928 186.498 61.3359C184.07 65.6649 181.643 73.0701 182.482 81.5492C182.706 83.8311 182.996 85.7887 183.433 87.6232C187.784 86.527 192.594 84.0213 190.67 77.9361Z" fill="url(#paint5_linear_813_7887)" stroke="#0057B8" stroke-width="2" stroke-miterlimit="10"/>
<path d="M187.764 152.893C185.303 150.824 182.965 148.195 182.428 142.725C182.193 140.309 182.652 138.15 183.591 136.293C181.164 140.622 178.737 148.027 179.576 156.506C179.799 158.788 180.09 160.746 180.526 162.58C184.878 161.473 189.688 158.967 187.764 152.893Z" fill="url(#paint6_linear_813_7887)" stroke="#0057B8" stroke-width="2" stroke-miterlimit="10"/>
<path d="M61.8638 129.011C61.2597 122.847 59.1567 118.675 55.2416 115.42C58.027 124.246 46.6619 125.532 43.0824 125.935C43.0824 125.935 43.0824 125.935 43.0824 125.946L16.5937 128.966C9.52414 129.772 3.02503 134.895 3.79687 142.725C4.3338 148.195 6.67169 150.824 9.13262 152.893C12.2759 150.6 17.6229 149.437 22.1756 148.866L48.2503 145.891C57.1433 144.873 62.7475 137.915 61.8638 129.011Z" fill="url(#paint7_linear_813_7887)" stroke="#0057B8" stroke-width="2" stroke-miterlimit="10"/>
<path d="M107.973 91.5383C107.369 85.3748 105.266 81.2024 101.351 77.9473C104.136 86.7731 92.7713 88.0595 89.1917 88.4622C89.1917 88.4622 89.1917 88.4622 89.1917 88.4734L62.7031 91.4936C55.6335 92.299 49.1344 97.4222 49.9062 105.252C50.4432 110.722 52.7811 113.351 55.242 115.421C58.3853 113.127 63.7322 111.964 68.285 111.394L94.3597 108.418C103.253 107.4 108.857 100.442 107.973 91.5383Z" fill="url(#paint8_linear_813_7887)" stroke="#0057B8" stroke-width="2" stroke-miterlimit="10"/>
<path d="M151.188 129.011C150.584 122.847 148.481 118.675 144.566 115.42C147.351 124.246 135.986 125.532 132.407 125.935C132.407 125.935 132.407 125.935 132.407 125.946L105.918 128.966C98.8484 129.772 92.3492 134.895 93.1211 142.725C93.658 148.195 95.9959 150.824 98.4568 152.893C101.6 150.6 106.947 149.437 111.5 148.866L137.575 145.891C146.456 144.873 152.061 137.915 151.188 129.011Z" fill="url(#paint9_linear_813_7887)" stroke="#0057B8" stroke-width="2" stroke-miterlimit="10"/>
<path d="M154.094 54.0637C153.49 47.9002 151.387 43.7278 147.472 40.4727C150.257 49.2985 138.892 50.5849 135.313 50.9876C135.313 50.9876 135.313 50.9876 135.313 50.9988L108.824 54.019C101.755 54.8244 95.2555 59.9476 96.0273 67.7779C96.5643 73.2479 98.9022 75.8766 101.363 77.946C104.506 75.6529 109.853 74.4895 114.406 73.919L140.481 70.9435C149.363 69.9256 154.967 62.9678 154.094 54.0637Z" fill="url(#paint10_linear_813_7887)" stroke="#0057B8" stroke-width="2" stroke-miterlimit="10"/>
<path d="M197.293 91.5383C196.689 85.3748 194.586 81.2024 190.671 77.9473C193.457 86.7731 182.092 88.0595 178.512 88.4622C178.512 88.4622 178.512 88.4622 178.512 88.4734L152.023 91.4936C144.954 92.299 138.455 97.4222 139.227 105.252C139.763 110.722 142.101 113.351 144.562 115.421C147.706 113.127 153.053 111.964 157.605 111.394L183.68 108.418C192.573 107.4 198.177 100.442 197.293 91.5383Z" fill="url(#paint11_linear_813_7887)" stroke="#0057B8" stroke-width="2" stroke-miterlimit="10"/>
<path d="M200.204 16.5911C199.6 10.4275 197.497 6.25515 193.581 3C196.367 11.8258 185.002 13.1122 181.422 13.5149C181.422 13.5149 181.422 13.5149 181.422 13.5261L154.934 16.5463C147.864 17.3517 141.365 22.475 142.137 30.3052C142.674 35.7752 145.012 38.4039 147.472 40.4733C150.616 38.1802 155.963 37.0168 160.515 36.4464L186.59 33.4709C195.472 32.4529 201.076 25.4952 200.204 16.5911Z" fill="url(#paint12_linear_813_7887)" stroke="#0057B8" stroke-width="2" stroke-miterlimit="10"/>
<path d="M243.403 54.0637C242.799 47.9002 240.696 43.7278 236.781 40.4727C239.566 49.2985 228.201 50.5849 224.621 50.9876C224.621 50.9876 224.621 50.9876 224.621 50.9988L198.133 54.019C191.063 54.8244 184.564 59.9476 185.336 67.7779C185.873 73.2479 188.211 75.8766 190.672 77.946C193.815 75.6529 199.162 74.4895 203.715 73.919L229.789 70.9435C238.682 69.9256 244.287 62.9678 243.403 54.0637Z" fill="url(#paint13_linear_813_7887)" stroke="#0057B8" stroke-width="2" stroke-miterlimit="10"/>
<path d="M240.504 129.011C239.9 122.847 237.797 118.675 233.882 115.42C236.668 124.246 225.303 125.532 221.723 125.935C221.723 125.935 221.723 125.935 221.723 125.946L195.234 128.966C188.165 129.772 181.666 134.895 182.437 142.725C182.974 148.195 185.312 150.824 187.773 152.893C190.917 150.6 196.263 149.437 200.816 148.866L226.891 145.891C235.773 144.873 241.377 137.915 240.504 129.011Z" fill="url(#paint14_linear_813_7887)" stroke="#0057B8" stroke-width="2" stroke-miterlimit="10"/>
<path d="M9.35751 153.643C6.89657 151.574 4.55868 148.945 4.02175 143.475C3.78684 141.059 4.24547 138.9 5.1851 137.043C2.75772 141.372 0.330344 148.777 1.1693 157.256C1.39302 159.538 1.68386 161.496 2.12012 163.33C6.48269 162.234 11.2815 159.728 9.35751 153.643Z" fill="url(#paint15_linear_813_7887)" stroke="#0057B8" stroke-width="2" stroke-miterlimit="10"/>
<defs>
<linearGradient id="paint0_linear_813_7887" x1="46.8904" y1="111.958" x2="55.6771" y2="111.958" gradientUnits="userSpaceOnUse">
<stop offset="0.1688" stop-color="#0057B8"/>
<stop offset="0.4822" stop-color="#0075BE"/>
<stop offset="0.5947" stop-color="#0277BF"/>
<stop offset="0.7684" stop-color="#0277BF"/>
<stop offset="0.9852" stop-color="#1E9CD7"/>
<stop offset="0.9897" stop-color="#219ED8"/>
<stop offset="0.9925" stop-color="#29A4DA"/>
<stop offset="0.9948" stop-color="#38AFDF"/>
<stop offset="0.9969" stop-color="#4CBEE5"/>
<stop offset="0.9988" stop-color="#67D1ED"/>
<stop offset="1" stop-color="#7CE0F4"/>
</linearGradient>
<linearGradient id="paint1_linear_813_7887" x1="90.0953" y1="149.431" x2="98.882" y2="149.431" gradientUnits="userSpaceOnUse">
<stop offset="0.1688" stop-color="#0057B8"/>
<stop offset="0.4822" stop-color="#0075BE"/>
<stop offset="0.5947" stop-color="#0277BF"/>
<stop offset="0.7684" stop-color="#0277BF"/>
<stop offset="0.9852" stop-color="#1E9CD7"/>
<stop offset="0.9897" stop-color="#219ED8"/>
<stop offset="0.9925" stop-color="#29A4DA"/>
<stop offset="0.9948" stop-color="#38AFDF"/>
<stop offset="0.9969" stop-color="#4CBEE5"/>
<stop offset="0.9988" stop-color="#67D1ED"/>
<stop offset="1" stop-color="#7CE0F4"/>
</linearGradient>
<linearGradient id="paint2_linear_813_7887" x1="92.9983" y1="74.4856" x2="101.785" y2="74.4856" gradientUnits="userSpaceOnUse">
<stop offset="0.1688" stop-color="#0057B8"/>
<stop offset="0.4822" stop-color="#0075BE"/>
<stop offset="0.5947" stop-color="#0277BF"/>
<stop offset="0.7684" stop-color="#0277BF"/>
<stop offset="0.9852" stop-color="#1E9CD7"/>
<stop offset="0.9897" stop-color="#219ED8"/>
<stop offset="0.9925" stop-color="#29A4DA"/>
<stop offset="0.9948" stop-color="#38AFDF"/>
<stop offset="0.9969" stop-color="#4CBEE5"/>
<stop offset="0.9988" stop-color="#67D1ED"/>
<stop offset="1" stop-color="#7CE0F4"/>
</linearGradient>
<linearGradient id="paint3_linear_813_7887" x1="136.203" y1="111.958" x2="144.99" y2="111.958" gradientUnits="userSpaceOnUse">
<stop offset="0.1688" stop-color="#0057B8"/>
<stop offset="0.4822" stop-color="#0075BE"/>
<stop offset="0.5947" stop-color="#0277BF"/>
<stop offset="0.7684" stop-color="#0277BF"/>
<stop offset="0.9852" stop-color="#1E9CD7"/>
<stop offset="0.9897" stop-color="#219ED8"/>
<stop offset="0.9925" stop-color="#29A4DA"/>
<stop offset="0.9948" stop-color="#38AFDF"/>
<stop offset="0.9969" stop-color="#4CBEE5"/>
<stop offset="0.9988" stop-color="#67D1ED"/>
<stop offset="1" stop-color="#7CE0F4"/>
</linearGradient>
<linearGradient id="paint4_linear_813_7887" x1="139.11" y1="37.0109" x2="147.897" y2="37.0109" gradientUnits="userSpaceOnUse">
<stop offset="0.1688" stop-color="#0057B8"/>
<stop offset="0.4822" stop-color="#0075BE"/>
<stop offset="0.5947" stop-color="#0277BF"/>
<stop offset="0.7684" stop-color="#0277BF"/>
<stop offset="0.9852" stop-color="#1E9CD7"/>
<stop offset="0.9897" stop-color="#219ED8"/>
<stop offset="0.9925" stop-color="#29A4DA"/>
<stop offset="0.9948" stop-color="#38AFDF"/>
<stop offset="0.9969" stop-color="#4CBEE5"/>
<stop offset="0.9988" stop-color="#67D1ED"/>
<stop offset="1" stop-color="#7CE0F4"/>
</linearGradient>
<linearGradient id="paint5_linear_813_7887" x1="182.315" y1="74.4856" x2="191.102" y2="74.4856" gradientUnits="userSpaceOnUse">
<stop offset="0.1688" stop-color="#0057B8"/>
<stop offset="0.4822" stop-color="#0075BE"/>
<stop offset="0.5947" stop-color="#0277BF"/>
<stop offset="0.7684" stop-color="#0277BF"/>
<stop offset="0.9852" stop-color="#1E9CD7"/>
<stop offset="0.9897" stop-color="#219ED8"/>
<stop offset="0.9925" stop-color="#29A4DA"/>
<stop offset="0.9948" stop-color="#38AFDF"/>
<stop offset="0.9969" stop-color="#4CBEE5"/>
<stop offset="0.9988" stop-color="#67D1ED"/>
<stop offset="1" stop-color="#7CE0F4"/>
</linearGradient>
<linearGradient id="paint6_linear_813_7887" x1="179.413" y1="149.432" x2="188.199" y2="149.432" gradientUnits="userSpaceOnUse">
<stop offset="0.1688" stop-color="#0057B8"/>
<stop offset="0.4822" stop-color="#0075BE"/>
<stop offset="0.5947" stop-color="#0277BF"/>
<stop offset="0.7684" stop-color="#0277BF"/>
<stop offset="0.9852" stop-color="#1E9CD7"/>
<stop offset="0.9897" stop-color="#219ED8"/>
<stop offset="0.9925" stop-color="#29A4DA"/>
<stop offset="0.9948" stop-color="#38AFDF"/>
<stop offset="0.9969" stop-color="#4CBEE5"/>
<stop offset="0.9988" stop-color="#67D1ED"/>
<stop offset="1" stop-color="#7CE0F4"/>
</linearGradient>
<linearGradient id="paint7_linear_813_7887" x1="3.7302" y1="134.151" x2="61.9554" y2="134.151" gradientUnits="userSpaceOnUse">
<stop offset="0.1688" stop-color="#0057B8"/>
<stop offset="0.4822" stop-color="#0075BE"/>
<stop offset="0.5947" stop-color="#0277BF"/>
<stop offset="0.7684" stop-color="#0277BF"/>
<stop offset="0.9852" stop-color="#1E9CD7"/>
<stop offset="0.9897" stop-color="#219ED8"/>
<stop offset="0.9925" stop-color="#29A4DA"/>
<stop offset="0.9948" stop-color="#38AFDF"/>
<stop offset="0.9969" stop-color="#4CBEE5"/>
<stop offset="0.9988" stop-color="#67D1ED"/>
<stop offset="1" stop-color="#7CE0F4"/>
</linearGradient>
<linearGradient id="paint8_linear_813_7887" x1="49.8419" y1="96.6782" x2="108.067" y2="96.6782" gradientUnits="userSpaceOnUse">
<stop offset="0.1688" stop-color="#0057B8"/>
<stop offset="0.4822" stop-color="#0075BE"/>
<stop offset="0.5947" stop-color="#0277BF"/>
<stop offset="0.7684" stop-color="#0277BF"/>
<stop offset="0.9852" stop-color="#1E9CD7"/>
<stop offset="0.9897" stop-color="#219ED8"/>
<stop offset="0.9925" stop-color="#29A4DA"/>
<stop offset="0.9948" stop-color="#38AFDF"/>
<stop offset="0.9969" stop-color="#4CBEE5"/>
<stop offset="0.9988" stop-color="#67D1ED"/>
<stop offset="1" stop-color="#7CE0F4"/>
</linearGradient>
<linearGradient id="paint9_linear_813_7887" x1="93.0513" y1="134.151" x2="151.276" y2="134.151" gradientUnits="userSpaceOnUse">
<stop offset="0.1688" stop-color="#0057B8"/>
<stop offset="0.4822" stop-color="#0075BE"/>
<stop offset="0.5947" stop-color="#0277BF"/>
<stop offset="0.7684" stop-color="#0277BF"/>
<stop offset="0.9852" stop-color="#1E9CD7"/>
<stop offset="0.9897" stop-color="#219ED8"/>
<stop offset="0.9925" stop-color="#29A4DA"/>
<stop offset="0.9948" stop-color="#38AFDF"/>
<stop offset="0.9969" stop-color="#4CBEE5"/>
<stop offset="0.9988" stop-color="#67D1ED"/>
<stop offset="1" stop-color="#7CE0F4"/>
</linearGradient>
<linearGradient id="paint10_linear_813_7887" x1="95.9543" y1="59.2035" x2="154.179" y2="59.2035" gradientUnits="userSpaceOnUse">
<stop offset="0.1688" stop-color="#0057B8"/>
<stop offset="0.4822" stop-color="#0075BE"/>
<stop offset="0.5947" stop-color="#0277BF"/>
<stop offset="0.7684" stop-color="#0277BF"/>
<stop offset="0.9852" stop-color="#1E9CD7"/>
<stop offset="0.9897" stop-color="#219ED8"/>
<stop offset="0.9925" stop-color="#29A4DA"/>
<stop offset="0.9948" stop-color="#38AFDF"/>
<stop offset="0.9969" stop-color="#4CBEE5"/>
<stop offset="0.9988" stop-color="#67D1ED"/>
<stop offset="1" stop-color="#7CE0F4"/>
</linearGradient>
<linearGradient id="paint11_linear_813_7887" x1="139.159" y1="96.6782" x2="197.384" y2="96.6782" gradientUnits="userSpaceOnUse">
<stop offset="0.1688" stop-color="#0057B8"/>
<stop offset="0.4822" stop-color="#0075BE"/>
<stop offset="0.5947" stop-color="#0277BF"/>
<stop offset="0.7684" stop-color="#0277BF"/>
<stop offset="0.9852" stop-color="#1E9CD7"/>
<stop offset="0.9897" stop-color="#219ED8"/>
<stop offset="0.9925" stop-color="#29A4DA"/>
<stop offset="0.9948" stop-color="#38AFDF"/>
<stop offset="0.9969" stop-color="#4CBEE5"/>
<stop offset="0.9988" stop-color="#67D1ED"/>
<stop offset="1" stop-color="#7CE0F4"/>
</linearGradient>
<linearGradient id="paint12_linear_813_7887" x1="142.066" y1="21.7307" x2="200.291" y2="21.7307" gradientUnits="userSpaceOnUse">
<stop offset="0.1688" stop-color="#0057B8"/>
<stop offset="0.4822" stop-color="#0075BE"/>
<stop offset="0.5947" stop-color="#0277BF"/>
<stop offset="0.7684" stop-color="#0277BF"/>
<stop offset="0.9852" stop-color="#1E9CD7"/>
<stop offset="0.9897" stop-color="#219ED8"/>
<stop offset="0.9925" stop-color="#29A4DA"/>
<stop offset="0.9948" stop-color="#38AFDF"/>
<stop offset="0.9969" stop-color="#4CBEE5"/>
<stop offset="0.9988" stop-color="#67D1ED"/>
<stop offset="1" stop-color="#7CE0F4"/>
</linearGradient>
<linearGradient id="paint13_linear_813_7887" x1="185.271" y1="59.2034" x2="243.496" y2="59.2034" gradientUnits="userSpaceOnUse">
<stop offset="0.1688" stop-color="#0057B8"/>
<stop offset="0.4822" stop-color="#0075BE"/>
<stop offset="0.5947" stop-color="#0277BF"/>
<stop offset="0.7684" stop-color="#0277BF"/>
<stop offset="0.9852" stop-color="#1E9CD7"/>
<stop offset="0.9897" stop-color="#219ED8"/>
<stop offset="0.9925" stop-color="#29A4DA"/>
<stop offset="0.9948" stop-color="#38AFDF"/>
<stop offset="0.9969" stop-color="#4CBEE5"/>
<stop offset="0.9988" stop-color="#67D1ED"/>
<stop offset="1" stop-color="#7CE0F4"/>
</linearGradient>
<linearGradient id="paint14_linear_813_7887" x1="182.365" y1="134.151" x2="240.59" y2="134.151" gradientUnits="userSpaceOnUse">
<stop offset="0.1688" stop-color="#0057B8"/>
<stop offset="0.4822" stop-color="#0075BE"/>
<stop offset="0.5947" stop-color="#0277BF"/>
<stop offset="0.7684" stop-color="#0277BF"/>
<stop offset="0.9852" stop-color="#1E9CD7"/>
<stop offset="0.9897" stop-color="#219ED8"/>
<stop offset="0.9925" stop-color="#29A4DA"/>
<stop offset="0.9948" stop-color="#38AFDF"/>
<stop offset="0.9969" stop-color="#4CBEE5"/>
<stop offset="0.9988" stop-color="#67D1ED"/>
<stop offset="1" stop-color="#7CE0F4"/>
</linearGradient>
<linearGradient id="paint15_linear_813_7887" x1="1.01135" y1="150.192" x2="9.79812" y2="150.192" gradientUnits="userSpaceOnUse">
<stop offset="0.1688" stop-color="#0057B8"/>
<stop offset="0.4822" stop-color="#0075BE"/>
<stop offset="0.5947" stop-color="#0277BF"/>
<stop offset="0.7684" stop-color="#0277BF"/>
<stop offset="0.9852" stop-color="#1E9CD7"/>
<stop offset="0.9897" stop-color="#219ED8"/>
<stop offset="0.9925" stop-color="#29A4DA"/>
<stop offset="0.9948" stop-color="#38AFDF"/>
<stop offset="0.9969" stop-color="#4CBEE5"/>
<stop offset="0.9988" stop-color="#67D1ED"/>
<stop offset="1" stop-color="#7CE0F4"/>
</linearGradient>
</defs>
</svg>
