<svg width="478" height="478" viewBox="0 0 478 478" fill="none" xmlns="http://www.w3.org/2000/svg">
<g opacity="0.24">
<path d="M232.044 397.785C328.092 397.785 405.955 319.922 405.955 223.874C405.955 127.826 328.092 49.9629 232.044 49.9629C135.995 49.9629 58.1328 127.826 58.1328 223.874C58.1328 319.922 135.995 397.785 232.044 397.785Z" stroke="white" stroke-width="0.43" stroke-miterlimit="10"/>
<path d="M222.481 419.615C330.587 419.615 418.225 331.978 418.225 223.872C418.225 115.766 330.587 28.1289 222.481 28.1289C114.375 28.1289 26.7383 115.766 26.7383 223.872C26.7383 331.978 114.375 419.615 222.481 419.615Z" stroke="white" stroke-width="0.43" stroke-miterlimit="10"/>
<path d="M238.996 454.816C358.188 454.816 454.812 358.192 454.812 239C454.812 119.808 358.188 23.1836 238.996 23.1836C119.804 23.1836 23.1797 119.808 23.1797 239C23.1797 358.192 119.804 454.816 238.996 454.816Z" stroke="white" stroke-width="0.43" stroke-miterlimit="10"/>
<path d="M239 477C370.444 477 477 370.444 477 239C477 107.556 370.444 1 239 1C107.556 1 1 107.556 1 239C1 370.444 107.556 477 239 477Z" stroke="white" stroke-width="0.43" stroke-miterlimit="10"/>
<path d="M245.686 378.62C331.151 378.62 400.435 309.337 400.435 223.872C400.435 138.406 331.151 69.123 245.686 69.123C160.221 69.123 90.9375 138.406 90.9375 223.872C90.9375 309.337 160.221 378.62 245.686 378.62Z" stroke="white" stroke-width="0.43" stroke-miterlimit="10"/>
<path d="M227.686 355.527C300.396 355.527 359.34 296.584 359.34 223.873C359.34 151.162 300.396 92.2188 227.686 92.2188C154.975 92.2188 96.0312 151.162 96.0312 223.873C96.0312 296.584 154.975 355.527 227.686 355.527Z" stroke="white" stroke-width="0.43" stroke-miterlimit="10"/>
</g>
</svg>
