<svg width="576" height="576" viewBox="0 0 576 576" fill="none" xmlns="http://www.w3.org/2000/svg">
<g opacity="0.24">
<path d="M279.615 479.476C395.438 479.476 489.331 385.582 489.331 269.759C489.331 153.936 395.438 60.043 279.615 60.043C163.792 60.043 69.8984 153.936 69.8984 269.759C69.8984 385.582 163.792 479.476 279.615 479.476Z" stroke="white" stroke-width="0.4322" stroke-miterlimit="10"/>
<path d="M268.078 505.801C398.441 505.801 504.122 400.121 504.122 269.758C504.122 139.395 398.441 33.7148 268.078 33.7148C137.715 33.7148 32.0352 139.395 32.0352 269.758C32.0352 400.121 137.715 505.801 268.078 505.801Z" stroke="white" stroke-width="0.4322" stroke-miterlimit="10"/>
<path d="M287.995 548.248C431.727 548.248 548.244 431.73 548.244 287.999C548.244 144.267 431.727 27.75 287.995 27.75C144.264 27.75 27.7461 144.267 27.7461 287.999C27.7461 431.73 144.264 548.248 287.995 548.248Z" stroke="white" stroke-width="0.4322" stroke-miterlimit="10"/>
<path d="M288 575C446.506 575 575 446.506 575 288C575 129.494 446.506 1 288 1C129.494 1 1 129.494 1 288C1 446.506 129.494 575 288 575Z" stroke="white" stroke-width="0.4322" stroke-miterlimit="10"/>
<path d="M296.062 456.368C399.123 456.368 482.67 372.82 482.67 269.759C482.67 166.698 399.123 83.1504 296.062 83.1504C193.001 83.1504 109.453 166.698 109.453 269.759C109.453 372.82 193.001 456.368 296.062 456.368Z" stroke="white" stroke-width="0.4322" stroke-miterlimit="10"/>
<path d="M274.353 428.519C362.034 428.519 433.113 357.44 433.113 269.76C433.113 182.079 362.034 111 274.353 111C186.673 111 115.594 182.079 115.594 269.76C115.594 357.44 186.673 428.519 274.353 428.519Z" stroke="white" stroke-width="0.4322" stroke-miterlimit="10"/>
</g>
</svg>
