<svg width="60" height="60" viewBox="0 0 60 60" fill="none" xmlns="http://www.w3.org/2000/svg">
<rect width="60" height="60" rx="7" fill="#252525"/>
<path d="M49.6276 34.1006C48.9584 33.1488 47.7391 32.8167 46.709 33.2077C46.6667 32.7899 46.529 32.3867 46.2815 32.0341C45.496 30.9111 43.9402 30.6368 42.8323 31.4101L42.4213 31.6786C42.3702 31.2851 42.237 30.9053 42.0026 30.5707C41.2152 29.4497 39.6598 29.1753 38.5344 29.9608C38.5217 29.9696 38.5125 29.9803 38.5008 29.99C38.496 29.9939 38.4901 29.9944 38.4853 29.9987C35.2175 32.7335 31.2279 35.5616 30.2071 35.5616C29.4513 35.5616 27.1508 34.2733 25.3032 33.2379C22.9473 31.9184 20.7222 30.6719 19.4455 30.5731C17.0483 30.399 9.73162 34.6463 8.90385 35.1322C8.5673 35.3297 8.45446 35.7625 8.65192 36.0991C8.84938 36.4351 9.28223 36.5485 9.61879 36.351C12.5982 34.6021 17.8595 31.8644 19.3366 31.9831C20.3025 32.0575 22.5922 33.34 24.6121 34.4717C27.2768 35.9643 29.0004 36.8855 30.0636 36.9609C30.1098 36.9706 30.1579 36.9755 30.2071 36.9755H35.056C35.9402 36.9755 36.66 37.6953 36.66 38.5804C36.66 39.4656 35.9407 40.1864 35.056 40.1864C35.0492 40.1864 35.0429 40.1883 35.0361 40.1883C35.0258 40.1888 35.0166 40.1869 35.0064 40.1878C34.9587 40.1917 30.2187 40.5215 28.2641 40.1956C26.4325 39.8902 24.0917 37.812 24.0683 37.7911C23.7775 37.5299 23.3305 37.5552 23.0708 37.846C22.8106 38.1369 22.8349 38.5833 23.1253 38.8435C23.2333 38.9403 25.7939 41.2169 28.0316 41.59C28.7626 41.7116 29.8083 41.7515 30.8724 41.7515C32.8898 41.7515 34.9738 41.607 35.1056 41.5978H35.1071C36.747 41.57 38.0733 40.2287 38.0733 38.5809C38.0733 36.9166 36.7198 35.5626 35.056 35.5626H33.4C35.788 34.0549 38.5407 31.7948 39.3544 31.1149C39.8412 30.7832 40.5075 30.9024 40.845 31.3829C41.0099 31.6183 41.0731 31.9043 41.0226 32.1883C40.972 32.4723 40.8154 32.7189 40.5805 32.8838C40.5683 32.8925 40.5586 32.9032 40.5469 32.9125C40.5231 32.9314 40.4988 32.9499 40.4783 32.9713C40.4657 32.9845 40.4555 32.9991 40.4438 33.0127C40.4258 33.0346 40.4073 33.056 40.3923 33.0793C40.382 33.0954 40.3743 33.1124 40.3655 33.1289C40.3529 33.1523 40.3397 33.1751 40.33 33.1999C40.3227 33.2184 40.3183 33.2379 40.3125 33.2568C40.3052 33.2811 40.2969 33.3045 40.2921 33.3293C40.2882 33.3497 40.2872 33.3706 40.2853 33.3911C40.2828 33.4154 40.2794 33.4392 40.2794 33.4635C40.2794 33.4854 40.2828 33.5073 40.2848 33.5292C40.2872 33.5525 40.2882 33.5754 40.2925 33.5982C40.2969 33.6216 40.3052 33.6444 40.3125 33.6678C40.3188 33.6887 40.3242 33.7096 40.3324 33.7305C40.3422 33.7544 40.3558 33.7767 40.3684 33.7996C40.3772 33.8156 40.3835 33.8327 40.3937 33.8487C40.3957 33.8516 40.3981 33.8541 40.4 33.857C40.4025 33.8604 40.4034 33.8643 40.4059 33.8672C40.4132 33.8774 40.4229 33.8847 40.4302 33.8944C40.454 33.9256 40.4793 33.9542 40.5075 33.9805C40.5216 33.9936 40.5362 34.0048 40.5508 34.0165C40.578 34.0374 40.6058 34.0564 40.6349 34.0734C40.6515 34.0831 40.6675 34.0924 40.685 34.1002C40.7171 34.1152 40.7507 34.1269 40.7843 34.1366C40.7998 34.141 40.8144 34.1473 40.83 34.1507C40.8786 34.1614 40.9282 34.1678 40.9783 34.1682C40.9807 34.1682 40.9827 34.1692 40.9846 34.1692C40.9909 34.1692 40.9973 34.1663 41.0036 34.1663C41.0576 34.1648 41.1111 34.1561 41.1641 34.142C41.1801 34.1376 41.1962 34.1337 41.2122 34.1284C41.2667 34.1094 41.3202 34.0865 41.3708 34.0535L43.6221 32.5818C44.1104 32.2423 44.783 32.36 45.123 32.8463C45.2879 33.0808 45.3516 33.3658 45.3015 33.6483C45.2514 33.9324 45.0938 34.1794 44.8579 34.3448L44.1352 34.8511C43.8157 35.0753 43.7384 35.5159 43.9621 35.8355C44.0997 36.0315 44.3186 36.1365 44.5413 36.1365C44.6814 36.1365 44.8229 36.0952 44.9465 36.0086L45.6575 35.5101L46.9682 34.6507C47.4555 34.3107 48.1291 34.4284 48.4686 34.9119C48.8091 35.3997 48.6894 36.0738 48.2021 36.4137C48.2021 36.4137 48.2011 36.4147 48.2002 36.4152C40.5299 41.8001 31.83 47.38 30.5495 47.3956C29.5977 47.3956 27.4947 46.1418 25.6388 45.0358C23.545 43.7878 21.5675 42.6089 20.1707 42.4226C17.3819 42.0525 13.0879 45.2843 12.6074 45.6544C12.2981 45.8923 12.2407 46.3358 12.4781 46.6451C12.7159 46.9549 13.1599 47.0123 13.4692 46.7745C14.6467 45.8699 18.1115 43.5733 19.9839 43.8243C21.0928 43.9721 23.1233 45.1822 24.9151 46.2502C27.1231 47.5663 29.2081 48.8094 30.549 48.8094C32.8869 48.8094 46.3403 39.4481 49.0138 37.5717C49.0542 37.5435 49.0902 37.5119 49.1228 37.4774C50.1485 36.6671 50.3863 35.1891 49.6276 34.1006Z" fill="#FF671F"/>
<path d="M24.6549 21.1204C27.4889 21.1204 29.7942 18.8151 29.7942 15.9811C29.7942 13.1471 27.4884 10.8418 24.6549 10.8418C21.8214 10.8418 19.5156 13.1471 19.5156 15.9811C19.5156 18.8151 21.8209 21.1204 24.6549 21.1204ZM24.6549 12.2551C26.7097 12.2551 28.3809 13.9267 28.3809 15.9811C28.3809 18.0354 26.7093 19.707 24.6549 19.707C22.6006 19.707 20.929 18.0354 20.929 15.9811C20.929 13.9267 22.6006 12.2551 24.6549 12.2551Z" fill="#FF671F"/>
<path d="M37.3628 19.9306C39.5402 19.9306 41.3114 18.1593 41.3114 15.9819C41.3114 13.8045 39.5397 12.0332 37.3628 12.0332C35.1858 12.0332 33.4141 13.8045 33.4141 15.9819C33.4141 18.1593 35.1854 19.9306 37.3628 19.9306ZM37.3628 13.4465C38.7605 13.4465 39.8981 14.5836 39.8981 15.9819C39.8981 17.3802 38.7605 18.5173 37.3628 18.5173C35.965 18.5173 34.8274 17.3802 34.8274 15.9819C34.8274 14.5836 35.965 13.4465 37.3628 13.4465Z" fill="#FF671F"/>
<path d="M25.6875 26.9786C25.6875 29.8121 27.9928 32.1174 30.8258 32.1174C33.6593 32.1174 35.9646 29.8121 35.9646 26.9786C35.9646 24.1452 33.6593 21.8398 30.8258 21.8398C27.9928 21.8398 25.6875 24.1452 25.6875 26.9786ZM30.8263 23.2532C32.8807 23.2532 34.5518 24.9243 34.5518 26.9786C34.5518 29.033 32.8802 30.7041 30.8263 30.7041C28.7724 30.7041 27.1013 29.033 27.1013 26.9786C27.1013 24.9243 28.7719 23.2532 30.8263 23.2532Z" fill="#FF671F"/>
</svg>
