<svg width="60" height="60" viewBox="0 0 60 60" fill="none" xmlns="http://www.w3.org/2000/svg">
<rect width="60" height="60" rx="7" fill="#252525"/>
<path d="M13.2872 33.8129H19.2652C19.67 33.8129 19.9976 33.4848 19.9976 33.0805C19.9976 32.6762 19.67 32.348 19.2652 32.348H14.1627C14.2613 31.9232 14.4073 31.4452 14.6036 31.1191C14.961 30.5229 15.9166 29.7529 16.276 29.4907C16.7369 29.1284 17.1544 28.8535 17.5225 28.6108C18.5216 27.9521 19.3848 27.3837 19.3848 25.9487C19.3848 24.0986 17.8795 22.5938 16.0299 22.5938C14.1788 22.5938 12.673 24.0991 12.673 25.9487C12.673 26.3535 13.0006 26.6811 13.4054 26.6811C13.8102 26.6811 14.1378 26.3535 14.1378 25.9487C14.1378 24.9062 14.9864 24.0586 16.0299 24.0586C17.0724 24.0586 17.92 24.9062 17.92 25.9487C17.92 26.5693 17.6705 26.7592 16.7169 27.3876C16.3438 27.6333 15.88 27.9389 15.3927 28.3227C15.2438 28.4311 13.9225 29.4076 13.3478 30.3652C12.7697 31.3271 12.5792 32.827 12.5597 32.995C12.5353 33.203 12.6007 33.4115 12.7399 33.5678C12.8785 33.723 13.0783 33.8129 13.2872 33.8129Z" fill="#7289A1"/>
<path d="M20.584 31.1285H24.3848V33.1344C24.3848 33.5386 24.7124 33.8668 25.1172 33.8668C25.522 33.8668 25.8496 33.5386 25.8496 33.1344V31.1285H26.998C27.4028 31.1285 27.7304 30.8004 27.7304 30.3961C27.7304 29.9918 27.4028 29.6637 26.998 29.6637H25.8496V23.3825C25.8496 23.0578 25.6357 22.7722 25.3242 22.6804C25.0137 22.5886 24.6782 22.7126 24.5019 22.985L19.9688 29.9986C19.8233 30.2242 19.8125 30.5108 19.9405 30.7462C20.0684 30.9815 20.3159 31.1285 20.584 31.1285ZM24.3848 25.8649V29.6637H21.9297L24.3848 25.8649Z" fill="#7289A1"/>
<path d="M29.0314 38.8046C29.0987 38.8236 29.1661 38.8329 29.233 38.8329C29.5514 38.8329 29.8448 38.6234 29.9366 38.3017L34.5406 22.1871C34.6519 21.7984 34.4268 21.3927 34.0377 21.2818C33.6495 21.172 33.2432 21.3961 33.1324 21.7847L28.5284 37.8988C28.4171 38.288 28.6427 38.6933 29.0314 38.8046Z" fill="#7289A1"/>
<path d="M37.8184 24.5698H42.5873L40.5551 28.017H38.6426C38.2383 28.017 37.9101 28.3447 37.9101 28.7495C37.9101 29.1542 38.2383 29.4819 38.6426 29.4819H39.6914L37.4482 33.2865C37.2427 33.6351 37.3584 34.0839 37.707 34.2894C37.8237 34.3588 37.9517 34.391 38.0786 34.391C38.3291 34.391 38.5737 34.2621 38.7099 34.0307L41.3916 29.4824H43.2294C43.6337 29.4824 43.9618 29.1547 43.9618 28.7499C43.9618 28.3452 43.6337 28.0175 43.2294 28.0175H42.2553L44.5004 24.21C44.6337 23.9834 44.6357 23.7026 44.5058 23.4746C44.3749 23.2466 44.1323 23.1055 43.8696 23.1055H37.8184C37.4141 23.1055 37.0859 23.4331 37.0859 23.8379C37.0859 24.2427 37.4141 24.5698 37.8184 24.5698Z" fill="#7289A1"/>
<path d="M51.7549 14.0898H6.84179C6.43701 14.0898 6.10938 14.4175 6.10938 14.8223V44.1164C6.10938 44.5207 6.43701 44.8488 6.84179 44.8488H51.7549C52.1592 44.8488 52.4873 44.5207 52.4873 44.1164V14.8223C52.4873 14.4175 52.1592 14.0898 51.7549 14.0898ZM51.0225 43.384H7.5742V15.5547H51.0225V43.384Z" fill="#7289A1"/>
</svg>
