<svg width="60" height="60" viewBox="0 0 60 60" fill="none" xmlns="http://www.w3.org/2000/svg">
<rect width="60" height="60" rx="7" fill="#252525"/>
<path d="M25.5264 26.8984C24.3298 26.8984 23.1602 27.2533 22.1653 27.918C21.1704 28.5828 20.395 29.5276 19.9371 30.6331C19.4792 31.7385 19.3594 32.955 19.5928 34.1285C19.8262 35.302 20.4024 36.38 21.2485 37.2261C22.0946 38.0722 23.1726 38.6484 24.3461 38.8818C25.5197 39.1152 26.7361 38.9954 27.8415 38.5375C28.947 38.0796 29.8918 37.3042 30.5566 36.3093C31.2214 35.3144 31.5762 34.1448 31.5762 32.9482C31.5736 31.3445 30.9354 29.8072 29.8014 28.6732C28.6674 27.5392 27.1301 26.901 25.5264 26.8984ZM25.5264 37.5426C24.6177 37.5426 23.7294 37.2731 22.9739 36.7683C22.2183 36.2635 21.6295 35.5459 21.2817 34.7064C20.934 33.8669 20.843 32.9431 21.0203 32.0519C21.1976 31.1607 21.6351 30.3421 22.2777 29.6995C22.9202 29.057 23.7388 28.6194 24.6301 28.4422C25.5213 28.2649 26.445 28.3559 27.2846 28.7036C28.1241 29.0513 28.8416 29.6402 29.3464 30.3958C29.8513 31.1513 30.1207 32.0396 30.1207 32.9482C30.1182 34.166 29.6333 35.3331 28.7722 36.1941C27.9112 37.0552 26.7441 37.54 25.5264 37.5426Z" fill="#3A9463"/>
<path d="M13.0012 26.832C12.8082 26.832 12.6231 26.9087 12.4866 27.0452C12.3501 27.1817 12.2734 27.3667 12.2734 27.5598V38.233C12.2734 38.426 12.3501 38.6111 12.4866 38.7476C12.6231 38.8841 12.8082 38.9607 13.0012 38.9607C13.1942 38.9607 13.3793 38.8841 13.5157 38.7476C13.6522 38.6111 13.7289 38.426 13.7289 38.233V27.5598C13.7289 27.3667 13.6522 27.1817 13.5157 27.0452C13.3793 26.9087 13.1942 26.832 13.0012 26.832Z" fill="#3A9463"/>
<path d="M37.7512 26.832C37.5582 26.832 37.3731 26.9087 37.2366 27.0452C37.1001 27.1817 37.0234 27.3667 37.0234 27.5598V38.233C37.0234 38.426 37.1001 38.6111 37.2366 38.7476C37.3731 38.8841 37.5582 38.9607 37.7512 38.9607C37.9442 38.9607 38.1293 38.8841 38.2657 38.7476C38.4022 38.6111 38.4789 38.426 38.4789 38.233V27.5598C38.4789 27.3667 38.4022 27.1817 38.2657 27.0452C38.1293 26.9087 37.9442 26.832 37.7512 26.832Z" fill="#3A9463"/>
<path d="M48.4224 15.6738H16.8878C16.6948 15.6738 16.5097 15.7505 16.3732 15.887C16.2367 16.0234 16.16 16.2085 16.16 16.4016V19.555H13.4917C13.2987 19.555 13.1136 19.6317 12.9771 19.7682C12.8407 19.9046 12.764 20.0897 12.764 20.2827V23.9214H9.61054C9.41753 23.9214 9.23243 23.998 9.09596 24.1345C8.95948 24.271 8.88281 24.4561 8.88281 24.6491V41.6293C8.88281 41.8223 8.95948 42.0074 9.09596 42.1438C9.23243 42.2803 9.41753 42.357 9.61054 42.357H41.1452C41.3382 42.357 41.5233 42.2803 41.6598 42.1438C41.7962 42.0074 41.8729 41.8223 41.8729 41.6293V37.9907H45.0264C45.2194 37.9907 45.4045 37.914 45.541 37.7775C45.6774 37.641 45.7541 37.4559 45.7541 37.2629V34.1095H48.4224C48.6154 34.1095 48.8005 34.0328 48.937 33.8963C49.0735 33.7599 49.1501 33.5748 49.1501 33.3817V16.4016C49.1501 16.2085 49.0735 16.0234 48.937 15.887C48.8005 15.7505 48.6154 15.6738 48.4224 15.6738ZM40.4175 40.9015H10.3383V25.3768H40.4175V40.9015ZM44.2987 36.5352H41.8729V24.6491C41.8729 24.4561 41.7962 24.271 41.6598 24.1345C41.5233 23.998 41.3382 23.9214 41.1452 23.9214H14.2194V21.0105H44.2987V36.5352ZM47.6947 32.654H45.7541V20.2827C45.7541 20.0897 45.6774 19.9046 45.541 19.7682C45.4045 19.6317 45.2194 19.555 45.0264 19.555H17.6155V17.1293H47.6947V32.654Z" fill="#3A9463"/>
</svg>
