<svg width="60" height="60" viewBox="0 0 60 60" fill="none" xmlns="http://www.w3.org/2000/svg">
<rect width="60" height="60" rx="7" fill="#252525"/>
<path d="M30.4739 43.327H13.9789C14.159 39.798 15.6857 36.4725 18.2445 34.0355C20.8033 31.5986 24.1993 30.2358 27.7329 30.228C30.3724 30.2256 32.9559 30.989 35.1702 32.4257C35.333 32.5312 35.531 32.5677 35.7207 32.5272C35.9104 32.4867 36.0762 32.3726 36.1817 32.2098C36.2872 32.047 36.3238 31.849 36.2833 31.6593C36.2428 31.4696 36.1286 31.3038 35.9658 31.1983C33.5098 29.6075 30.6445 28.7648 27.7183 28.7725C23.6788 28.7905 19.8111 30.4091 16.9629 33.2737C14.1147 36.1383 12.5183 40.0151 12.5235 44.0547C12.5235 44.2477 12.6001 44.4328 12.7366 44.5693C12.8731 44.7057 13.0582 44.7824 13.2512 44.7824H30.4739C30.6669 44.7824 30.852 44.7057 30.9885 44.5693C31.125 44.4328 31.2017 44.2477 31.2017 44.0547C31.2017 43.8617 31.125 43.6766 30.9885 43.5401C30.852 43.4036 30.6669 43.327 30.4739 43.327Z" fill="#4E88C4"/>
<path d="M27.8034 27.0735C29.5785 27.0735 31.3138 26.5472 32.7898 25.5609C34.2657 24.5747 35.4161 23.173 36.0954 21.533C36.7747 19.893 36.9525 18.0883 36.6062 16.3473C36.2599 14.6063 35.405 13.0071 34.1498 11.7518C32.8946 10.4966 31.2954 9.64182 29.5544 9.29551C27.8133 8.9492 26.0087 9.12694 24.3687 9.80625C22.7287 10.4856 21.3269 11.6359 20.3407 13.1119C19.3545 14.5879 18.8281 16.3232 18.8281 18.0983C18.832 20.4775 19.7788 22.7582 21.4612 24.4405C23.1435 26.1229 25.4242 27.0697 27.8034 27.0735ZM27.8034 10.5785C29.2906 10.5785 30.7445 11.0195 31.9812 11.8458C33.2178 12.6721 34.1816 13.8465 34.7508 15.2206C35.3199 16.5947 35.4688 18.1066 35.1787 19.5653C34.8885 21.024 34.1723 22.3639 33.1207 23.4156C32.069 24.4673 30.7291 25.1835 29.2704 25.4736C27.8117 25.7638 26.2997 25.6148 24.9257 25.0457C23.5516 24.4765 22.3772 23.5127 21.5509 22.2761C20.7246 21.0395 20.2836 19.5856 20.2836 18.0983C20.2861 16.1047 21.0792 14.1935 22.4889 12.7838C23.8986 11.3742 25.8098 10.5811 27.8034 10.5785Z" fill="#4E88C4"/>
<path d="M48.6938 36.71L45.9818 33.998C45.8438 33.8695 45.6614 33.7995 45.4728 33.8028C45.2843 33.8062 45.1044 33.8825 44.9711 34.0159C44.8378 34.1492 44.7614 34.3291 44.7581 34.5176C44.7547 34.7061 44.8247 34.8886 44.9533 35.0266L45.9721 36.0502H34.8137C34.6207 36.0502 34.4356 36.1269 34.2991 36.2634C34.1626 36.3998 34.0859 36.5849 34.0859 36.7779C34.0859 36.971 34.1626 37.1561 34.2991 37.2925C34.4356 37.429 34.6207 37.5057 34.8137 37.5057H46.8696L44.929 39.4463C44.8575 39.5129 44.8002 39.5932 44.7604 39.6825C44.7206 39.7718 44.6992 39.8681 44.6975 39.9658C44.6958 40.0635 44.7138 40.1606 44.7504 40.2512C44.787 40.3418 44.8414 40.4241 44.9105 40.4933C44.9796 40.5624 45.0619 40.6168 45.1526 40.6534C45.2432 40.69 45.3402 40.708 45.4379 40.7063C45.5357 40.7046 45.632 40.6832 45.7213 40.6434C45.8106 40.6036 45.8909 40.5463 45.9575 40.4748L48.6695 37.7628C48.8058 37.6264 48.8823 37.4414 48.8823 37.2485C48.8823 37.0557 48.8058 36.8707 48.6695 36.7343L48.6938 36.71Z" fill="#4E88C4"/>
<path d="M47.4508 42.8421H35.0795L37.0783 40.8433C37.2154 40.7069 37.2926 40.5217 37.293 40.3284C37.2935 40.135 37.2171 39.9494 37.0807 39.8124C36.9444 39.6754 36.7591 39.5981 36.5658 39.5977C36.3724 39.5972 36.1868 39.6736 36.0498 39.81L33.3378 42.5219C33.2015 42.6584 33.125 42.8434 33.125 43.0362C33.125 43.229 33.2015 43.414 33.3378 43.5505L36.0498 46.2673C36.1164 46.3388 36.1968 46.3961 36.286 46.4359C36.3753 46.4757 36.4717 46.4971 36.5694 46.4988C36.6671 46.5005 36.7641 46.4825 36.8548 46.4459C36.9454 46.4093 37.0277 46.3549 37.0968 46.2858C37.1659 46.2167 37.2204 46.1343 37.257 46.0437C37.2936 45.9531 37.3115 45.8561 37.3098 45.7583C37.3081 45.6606 37.2867 45.5643 37.2469 45.475C37.2072 45.3857 37.1498 45.3054 37.0783 45.2388L36.1226 44.2976H47.4508C47.6438 44.2976 47.8289 44.2209 47.9654 44.0844C48.1018 43.948 48.1785 43.7629 48.1785 43.5699C48.1785 43.3769 48.1018 43.1918 47.9654 43.0553C47.8289 42.9188 47.6438 42.8421 47.4508 42.8421Z" fill="#4E88C4"/>
</svg>
