<svg width="50" height="50" fill="none" xmlns="http://www.w3.org/2000/svg"><g fill="#252525"><path d="M6.131 38.514a.72.72 0 100 1.442h37.1a.72.72 0 100-1.442h-4.025V17.229h4.024a.72.72 0 100-1.442H10.264a.716.716 0 00-.202-.032.712.712 0 00-.201.032H6.13a.72.72 0 100 1.442h3.212v21.285H6.131zm14.417 0V17.229h7.968v21.285h-7.968zm17.216 0h-7.806V17.229h7.806v21.285zM10.779 17.229h8.327v21.285h-8.327V17.229zm36.826 27.158H1.76a.72.72 0 100 1.442h45.845a.72.72 0 100-1.442z"/><path d="M48.227 15.781L25.304 2.684a.722.722 0 00-.714-.001L1.517 15.78a.721.721 0 00.713 1.254L24.945 4.14l22.566 12.894a.722.722 0 00.716-1.252z"/></g></svg>