<svg width="51" height="50" fill="none" xmlns="http://www.w3.org/2000/svg"><g fill="#252525"><path d="M15.123 8.924c-7.28 0-13.2 7.289-13.2 16.249 0 8.96 5.92 16.25 13.2 16.25 7.278 0 13.2-7.29 13.2-16.25-.002-8.96-5.922-16.25-13.2-16.25zm0 34.423C6.784 43.347 0 35.194 0 25.173 0 15.152 6.784 7.001 15.123 7.001c8.34 0 15.123 8.152 15.123 18.172-.001 10.021-6.785 18.174-15.123 18.174z"/><path d="M15.12 43.347a.963.963 0 01-.875-.561c-.207-.45-4.988-11.091.093-18.172 1.154-1.608 1.804-3.62 1.934-5.98a.962.962 0 011.92.105c-.15 2.73-.921 5.085-2.292 6.995-4.436 6.183.047 16.15.093 16.25a.96.96 0 01-.873 1.363zm1.868-27.991a.961.961 0 01-.95-.811c-.55-3.463-1.773-6.156-1.786-6.183a.96.96 0 111.748-.8c.055.119 1.345 2.963 1.938 6.682a.962.962 0 01-.95 1.112zM34.543 40.69c-1.242 0-2.475-.195-3.669-.59-2.055-.682-3.906-1.95-5.351-3.667a.962.962 0 011.47-1.239c1.235 1.467 2.743 2.502 4.487 3.079 2.946.975 6.191.488 9.14-1.37 3.008-1.898 5.342-4.982 6.57-8.69 2.513-7.584-.447-15.41-6.597-17.448-3.343-1.107-7.09-.316-10.28 2.173a.962.962 0 01-1.183-1.516c3.706-2.89 8.105-3.793 12.067-2.48 7.156 2.37 10.665 11.287 7.818 19.877-1.369 4.127-3.986 7.577-7.37 9.71-2.27 1.43-4.705 2.162-7.102 2.162z"/><path d="M31.173 40.148a.963.963 0 01-.705-1.617c.01-.013 1.16-1.258 2.347-3.16.478-.765.901-1.537 1.257-2.296.322-.688.594-1.372.808-2.037.734-2.28.812-4.376.232-6.233-2.346-7.521 4.77-15.28 5.073-15.607a.96.96 0 111.407 1.31c-.066.073-6.658 7.274-4.645 13.727.699 2.241.619 4.73-.239 7.393-.238.742-.54 1.503-.897 2.264a24.088 24.088 0 01-1.366 2.498c-1.291 2.069-2.52 3.395-2.572 3.451a.942.942 0 01-.7.306z"/></g></svg>