<svg width="50" height="50" fill="none" xmlns="http://www.w3.org/2000/svg"><g fill="#252525"><path d="M44.532 9.726H5.291a3.604 3.604 0 00-3.6 3.599V36.5a3.603 3.603 0 003.6 3.598h39.241a3.603 3.603 0 003.599-3.598V13.325c0-1.985-1.614-3.6-3.599-3.6zM3.186 13.325c0-1.161.944-2.105 2.104-2.105h39.242c1.16 0 2.104.944 2.104 2.105v1.658H3.186v-1.658zm43.45 23.174c0 1.16-.944 2.104-2.104 2.104H5.291A2.107 2.107 0 013.186 36.5V21.661h43.45v14.838zm0-16.333H3.186v-3.689h43.45v3.69z"/><path d="M8.914 35.657a2.608 2.608 0 002.606-2.604 2.61 2.61 0 00-2.606-2.607 2.609 2.609 0 00-2.605 2.607 2.608 2.608 0 002.605 2.604zm0-3.716a1.112 1.112 0 11-1.11 1.112c0-.613.498-1.112 1.11-1.112zm5.576 1.947h21.057a.747.747 0 100-1.494H14.49a.747.747 0 100 1.494z"/></g></svg>