<svg width="50" height="50" fill="none" xmlns="http://www.w3.org/2000/svg"><path d="M46.947 9.15a.746.746 0 00-.567-.26H11.116L9.678 4.071a.748.748 0 00-.716-.533H3.447a.747.747 0 100 1.494h4.958l9.085 30.445c0 .003.004.006.005.01l1.128 3.838a3.893 3.893 0 00-1.154 2.769 3.916 3.916 0 003.91 3.913 3.91 3.91 0 003.896-3.713h9.795c0 .028-.004.055-.004.083a3.913 3.913 0 003.909 3.909 3.914 3.914 0 003.908-3.91 3.914 3.914 0 00-3.908-3.909 3.91 3.91 0 00-3.573 2.333h-10.34a3.89 3.89 0 00-.92-1.469 3.88 3.88 0 00-2.761-1.145h-.001a3.88 3.88 0 00-1.45.282l-.723-2.458H42.46c.37 0 .683-.27.739-.634L47.12 9.75a.747.747 0 00-.172-.6zm-7.972 30.813a2.417 2.417 0 012.414 2.414 2.417 2.417 0 01-2.414 2.414 2.417 2.417 0 01-2.414-2.414 2.417 2.417 0 012.414-2.415zM21.38 39.68c.643 0 1.248.252 1.704.708a2.417 2.417 0 01-1.705 4.124 2.42 2.42 0 01-2.416-2.418 2.418 2.418 0 012.417-2.413zm20.44-5.165H18.766l-1.413-4.807a.748.748 0 00-.076-.168l-5.716-19.156H45.51l-3.69 24.131z" fill="#252525"/></svg>