<svg width="26" height="26" fill="none" xmlns="http://www.w3.org/2000/svg"><path d="M23.42 10.733h-1.11a38.7 38.7 0 00.336-2.553 1.341 1.341 0 00-1.344-1.478H1.35A1.36 1.36 0 00.006 8.18c.437 4.418 2.47 17.335 11.321 17.335 4.838 0 7.626-3.847 9.255-8.063h1.495s1.68 0 2.016-1.008l1.343-3.023c0-1.411-.705-2.688-2.015-2.688zm-7.542 11.691c-1.327 1.176-2.822 1.747-4.552 1.747-1.73 0-3.225-.571-4.552-1.747-1.159-1.041-2.183-2.536-3.04-4.451-1.579-3.595-2.184-7.76-2.385-9.91h19.954c-.218 2.166-.806 6.315-2.385 9.927-.856 1.898-1.881 3.393-3.04 4.434zm6.988-6.517c0 .017-.017.033-.017.033-.135.084-.504.168-.773.168h-.588l1.109-4.03h.823c.42 0 .604.587.655 1.09l-1.21 2.739zM9.31 3.679c0 .033 0 .084.017.117.017.084.017.168.034.252.034.151.067.286.1.42.085.252.169.453.236.588.033.067.067.117.084.151.017.034.033.05.033.05.034.05.101.101.168.084a.174.174 0 00.135-.201v-.017s-.017-.084-.034-.218c-.017-.135-.05-.336-.084-.571a2.515 2.515 0 01-.033-.37v-.386a.69.69 0 01.117-.286c.067-.1.168-.201.286-.37.05-.083.117-.167.168-.285.016-.05.033-.1.05-.168a.597.597 0 00.034-.168c0-.033.016-.067.016-.084v-.201a1.28 1.28 0 00-.033-.252 6.757 6.757 0 00-.185-.857c-.067-.252-.151-.437-.201-.588-.05-.134-.084-.218-.084-.218A.185.185 0 009.966 0c-.101.017-.152.1-.152.185 0 0 .017.084.034.218s.034.353.067.588c.034.235.05.52.067.806v.219c0 .016-.016.168-.016.184a1.004 1.004 0 00-.05.135.714.714 0 01-.085.15c-.084.102-.201.236-.319.404-.117.185-.185.42-.185.622v.134l-.016.034zm1.344-.034v.034c0 .033 0 .084.017.117.017.084.017.168.034.252.033.151.067.286.1.42.085.252.168.453.236.588.033.067.067.117.084.151.016.034.033.05.033.05.034.05.101.101.168.084a.174.174 0 00.134-.201v-.017s-.016-.084-.033-.218c-.017-.135-.05-.336-.084-.571a2.515 2.515 0 01-.034-.37v-.386a.69.69 0 01.118-.286c.067-.1.168-.201.286-.37.05-.083.117-.167.168-.285.016-.05.033-.1.05-.168a.597.597 0 00.034-.168c0-.033.016-.067.016-.084v-.201c0-.084-.017-.168-.033-.252a6.757 6.757 0 00-.185-.857c-.067-.252-.151-.437-.202-.588-.05-.134-.084-.218-.084-.218A.185.185 0 0011.31 0c-.1.017-.15.1-.15.185 0 0 .016.084.033.218s.033.353.067.588.05.52.067.806v.219c0 .016-.017.168-.017.184a1.382 1.382 0 00-.05.135.68.68 0 01-.084.15c-.084.102-.202.236-.32.404a1.22 1.22 0 00-.184.622v.084c-.017.033-.017.033-.017.05zm1.344 0v.034c0 .033 0 .084.017.117.017.084.017.168.033.252.034.151.068.286.101.42.084.252.168.453.235.588.034.067.068.117.084.151.017.034.034.05.034.05.034.05.1.101.168.084a.174.174 0 00.134-.201v-.017s-.017-.084-.033-.218c-.017-.135-.05-.336-.084-.571a2.515 2.515 0 01-.034-.37v-.386a.69.69 0 01.118-.286c.067-.1.168-.201.285-.37.05-.083.118-.167.168-.285.017-.05.034-.1.05-.168a.597.597 0 00.034-.168c0-.033.017-.067.017-.084v-.201c0-.084-.017-.168-.034-.252a6.757 6.757 0 00-.184-.857c-.067-.252-.151-.437-.202-.588-.05-.134-.084-.218-.084-.218A.185.185 0 0012.653 0c-.1.017-.151.1-.151.185 0 0 .017.084.034.218.016.134.033.353.067.588.033.235.05.52.067.806v.219c0 .016-.017.168-.017.184a1.004 1.004 0 00-.05.135c-.017.05-.05.1-.084.15-.084.102-.202.236-.32.404a1.22 1.22 0 00-.184.622v.084c-.017.033-.017.033-.017.05z" fill="#0057B8"/><path d="M19.018 9.39H3.632a.68.68 0 00-.671.772c.218 1.36.537 2.973 1.024 4.603.202.671.437 1.343.689 1.998 1.63 4.082 3.796 6.064 6.635 6.064 2.838 0 5.005-1.982 6.634-6.064.27-.655.487-1.327.69-1.998.486-1.63.805-3.242 1.024-4.603a.648.648 0 00-.639-.772zm.32.722a33.504 33.504 0 01-.941 4.317H4.254a33.509 33.509 0 01-.94-4.317c-.018-.1.016-.185.083-.269a.302.302 0 01.252-.117h15.37a.3.3 0 01.251.117c.067.067.084.168.067.269z" fill="#0057B8"/><path d="M11.41 10.75c-.085-.05-.185-.017-.236.067L9.83 13.17c-.05.084-.016.185.068.235.033.017.05.017.083.017a.2.2 0 00.152-.084l1.343-2.352c.034-.084.017-.184-.067-.235zm-.84 0c-.085-.05-.185-.017-.236.067L8.99 13.17c-.05.084-.016.185.068.235.033.017.05.017.084.017a.2.2 0 00.15-.084l1.345-2.352c.033-.084.016-.184-.068-.235zm-.84 0c-.084-.05-.185-.017-.236.067L8.151 13.17c-.05.084-.017.185.067.235.033.017.05.017.084.017a.2.2 0 00.151-.084l1.344-2.352c.033-.084.017-.184-.067-.235zm-.84 0c-.084-.05-.185-.017-.235.067L7.31 13.17c-.05.084-.017.185.067.235.034.017.05.017.084.017a.2.2 0 00.151-.084l1.344-2.352c.033-.084.017-.184-.067-.235zm-.84 0c-.084-.05-.185-.017-.235.067L6.47 13.17c-.05.084-.017.185.067.235.034.017.05.017.084.017a.2.2 0 00.151-.084l1.344-2.352c.034-.084.017-.184-.067-.235zm-.84 0c-.084-.05-.185-.017-.235.067L5.63 13.17c-.05.084-.017.185.067.235.034.017.05.017.084.017a.2.2 0 00.151-.084l1.344-2.352c.034-.084.017-.184-.067-.235zm-.84 0c-.084-.05-.185-.017-.235.067L4.791 13.17c-.05.084-.017.185.067.235.034.017.05.017.084.017a.2.2 0 00.152-.084l1.343-2.352c.034-.084.017-.184-.067-.235zm-.84 0c-.084-.05-.184-.017-.235.067l-.84 1.512c-.05.084-.016.185.067.235.034.017.05.017.084.017a.176.176 0 00.152-.084l.84-1.512c.033-.084.016-.184-.068-.235zm6.72 0c-.085-.05-.186-.017-.236.067L10.67 13.17c-.05.084-.017.185.067.235.034.017.05.017.084.017a.2.2 0 00.152-.084l1.343-2.352c.034-.084.017-.184-.067-.235zm.839 0c-.084-.05-.185-.017-.235.067L11.51 13.17c-.05.084-.017.185.067.235.034.017.05.017.084.017a.2.2 0 00.151-.084l1.344-2.352c.034-.084.017-.184-.067-.235zm.84 0c-.084-.05-.185-.017-.235.067L12.35 13.17c-.05.084-.017.185.067.235.034.017.05.017.084.017a.2.2 0 00.151-.084l1.344-2.352c.034-.084.017-.184-.067-.235zm.84 0c-.084-.05-.185-.017-.236.067L13.19 13.17c-.05.084-.017.185.067.235.034.017.05.017.084.017a.2.2 0 00.151-.084l1.344-2.352c.033-.084.017-.184-.067-.235zm.839 0c-.084-.05-.184-.017-.235.067L14.03 13.17c-.05.084-.017.185.067.235.033.017.05.017.084.017a.2.2 0 00.15-.084l1.345-2.352c.033-.084.016-.184-.068-.235zm.84 0c-.084-.05-.184-.017-.235.067L14.87 13.17c-.05.084-.016.185.068.235.033.017.05.017.084.017a.2.2 0 00.15-.084l1.345-2.352c.033-.084.016-.184-.068-.235zm.84 0c-.084-.05-.185-.017-.235.067l-1.344 2.352c-.05.084-.017.185.067.235.034.017.05.017.084.017a.2.2 0 00.152-.084l1.343-2.352c.034-.084.017-.184-.067-.235zm.84 0c-.084-.05-.185-.017-.235.067l-1.344 2.352c-.05.084-.017.185.067.235.034.017.05.017.084.017a.2.2 0 00.151-.084l1.344-2.352c.034-.084.017-.184-.067-.235zm.168 1.176c-.084-.05-.185-.017-.235.067l-.672 1.176c-.05.084-.017.185.067.235.034.017.05.017.084.017a.2.2 0 00.151-.084l.672-1.176c.034-.084.017-.185-.067-.235z" fill="#0057B8"/></svg>