<svg width="40" height="40" fill="none" xmlns="http://www.w3.org/2000/svg"><path d="M9 16h22l-1.451 17.415A5 5 0 0124.566 38h-9.132a5 5 0 01-4.983-4.585L9 16z" stroke="#252525" stroke-width="1.5"/><circle cx="3.5" cy="3.5" r="3.5" transform="matrix(-1 0 0 1 24 24)" stroke="#252525" stroke-width="1.5"/><path d="M6 12.333A3.333 3.333 0 019.333 9h21.334A3.333 3.333 0 0134 12.333v.334A3.333 3.333 0 0130.667 16H9.333A3.333 3.333 0 016 12.667v-.334zm3-7A3.333 3.333 0 0112.333 2h15.334A3.333 3.333 0 0131 5.333v2C31 8.253 30.254 9 29.333 9H10.667C9.747 9 9 8.254 9 7.333v-2z" stroke="#252525" stroke-width="1.5"/></svg>