<svg width="50" height="50" fill="none" xmlns="http://www.w3.org/2000/svg"><path d="M24.902 24.651c-10.409 0-18.875 8.467-18.875 18.875 0 .398.349.747.747.747h9.91c1.644 2.739 4.632 4.631 8.019 4.631a9.25 9.25 0 008.018-4.631H42.98a.766.766 0 00.747-.747c.05-10.408-8.417-18.875-18.825-18.875zM7.572 42.78a17.383 17.383 0 017.818-13.795v10.558a8.9 8.9 0 00.598 3.237H7.57zm17.13 4.582c-4.332 0-7.818-3.536-7.818-7.82V28.089c2.39-1.245 5.13-1.992 8.018-1.992 2.739 0 5.328.647 7.67 1.793v11.603c0 1.295-.3 2.49-.847 3.536-.05.05-.05.1-.1.15-1.345 2.54-3.934 4.183-6.922 4.183zm8.766-4.582c.348-.996.597-2.092.597-3.237V28.735c4.731 2.938 7.968 8.118 8.217 13.994h-8.814v.05zm-8.865-20.17c5.976 0 10.856-4.88 10.856-10.857 0-.249 0-.498-.05-.747h4.233a.766.766 0 00.747-.747.766.766 0 00-.747-.747H35.21C34.164 4.632 29.782.946 24.603.946c-5.976 0-10.857 4.88-10.857 10.857 0 5.926 4.88 10.807 10.857 10.807zm0-20.17c4.382 0 8.067 3.038 9.063 7.122H15.54c.996-4.084 4.681-7.122 9.064-7.122zm-9.313 8.616h18.576c0 .249.05.498.05.747 0 5.13-4.184 9.362-9.363 9.362-5.18 0-9.313-4.233-9.313-9.412 0-.249 0-.498.05-.697z" fill="#252525"/></svg>