<svg width="50" height="50" fill="none" xmlns="http://www.w3.org/2000/svg"><path d="M42.474 25.853l.384-.501a.791.791 0 00.082-.133c.393-.823.411-1.79.055-2.794-.581-1.638-2.182-3.35-3.892-4.163-.028-.013-.056-.02-.085-.03-.03-.02-.062-.042-.097-.06-1.204-.574-2.84-.86-4.268-.748a5.98 5.98 0 00-1.836.42l.232-1.09a.787.787 0 00.016-.156c0-3.643-4.993-5.968-8.431-5.968a.764.764 0 00-.135.012.757.757 0 00-.135-.012c-3.436 0-8.428 2.325-8.428 5.968 0 .053.005.104.016.156l.212.998a5.8 5.8 0 00-1.82-.457c-1.426-.135-3 .131-4.216.712a.693.693 0 00-.091.056c-.031.01-.063.019-.094.034-1.217.578-2.417 1.635-3.21 2.826-.975 1.465-1.198 2.932-.627 4.13a.77.77 0 00.082.133l.747.975c-3.489 2.89-4.72 6.81-2.838 9.315.707.944 1.795 1.545 3.145 1.738.315.044.639.066.97.066 1.904 0 4.037-.737 5.952-2.052.708.62 1.436 1.004 2.31 1.004.555 0 1.17-.152 1.874-.489l.185-.086a.671.671 0 00.08-.043c.224-.14.98-.64 1.571-1.334.791 1.357 1.982 2.118 4.18 2.118h.27c2.111 0 3.295-.698 4.088-1.96.428.545 1.033 1.022 1.793 1.384l.18.085c.707.338 1.323.49 1.88.49 1.047 0 1.887-.548 2.736-1.406 2.085 1.487 4.497 2.343 6.577 2.343.332 0 .657-.022.97-.066 1.29-.184 2.319-.745 2.98-1.625 1.846-2.462.33-6.755-3.364-9.79zm-35.022 9.88c-.949-.135-1.695-.534-2.16-1.154-1.358-1.808-.233-4.9 2.55-7.234l4.726 6.16c.182.222.36.433.535.636-1.872 1.222-3.98 1.829-5.65 1.592zm11.99-3.148c-.018.487-.92 1.31-1.586 1.737l-.148.069c-1.515.724-2.111.45-3.97-1.816l-6.312-8.23c-.397-.936.171-2.023.552-2.594.64-.962 1.638-1.844 2.607-2.305.033-.016.063-.037.093-.056a.828.828 0 00.095-.034c.966-.462 2.281-.682 3.43-.573.7.066 1.943.32 2.397 1.27.021.046.052.082.08.12l2.204 10.36c.182.737.361 1.414.562 2.028-.001.008-.004.015-.004.024zm5.192 2.317h-.27c-2.508 0-3.113-1.007-4.023-4.705l-2.91-13.672c.078-2.557 4.168-4.4 6.933-4.4a.752.752 0 00.135-.012.75.75 0 00.136.012c2.766 0 6.858 1.843 6.935 4.4l-2.907 13.65c-.932 3.777-1.503 4.727-4.03 4.727zm6.7-.347l-.18-.084c-.93-.444-1.538-1.1-1.63-1.754-.002-.016-.008-.03-.01-.045.217-.65.41-1.37.606-2.163l2.208-10.369c.451-.934 1.723-1.17 2.443-1.226 1.164-.091 2.54.146 3.506.607.028.014.058.022.086.031a.762.762 0 00.099.06c1.358.646 2.673 2.04 3.125 3.314.213.601.224 1.134.033 1.585l-6.297 8.212c-1.872 2.284-2.469 2.557-3.99 1.832zm13.307.19c-.423.564-1.094.914-1.994 1.042-1.83.26-4.269-.494-6.332-1.92l.18-.216 5.071-6.614c2.955 2.46 4.39 5.955 3.075 7.708z" fill="#252525"/></svg>