<svg width="34" height="40" fill="none" xmlns="http://www.w3.org/2000/svg"><path d="M32.016 7.41h-6.408a.77.77 0 000 1.539h4.035l-.834 8.636h-5.15a8.656 8.656 0 00-6.883-3.412 8.656 8.656 0 00-6.884 3.412H4.744L3.909 8.95h17.52a.77.77 0 000-1.538H1.539v-1.49a2.27 2.27 0 012.267-2.266h25.941a2.27 2.27 0 012.267 2.266V7.41h.003zm-5.223 31.053H6.762l-1.004-10.4h4.136a8.655 8.655 0 0013.767 0h4.136l-1.004 10.4zm1.153-11.94h-4.677a.771.771 0 00-.634.333 7.118 7.118 0 01-5.858 3.078 7.122 7.122 0 01-5.858-3.078.771.771 0 00-.633-.332H5.609l-.714-7.402h5.392c.253 0 .49-.124.634-.332a7.118 7.118 0 015.858-3.078 7.122 7.122 0 015.858 3.078.77.77 0 00.633.332h5.393l-.717 7.402zm1.803-24.405h-1.312V.769a.77.77 0 00-1.54 0v1.348H3.808A3.81 3.81 0 000 5.922v2.256c0 .425.345.77.77.77h1.595l2.933 30.357a.768.768 0 00.765.695H27.49a.769.769 0 00.766-.695l2.933-30.357h1.595a.77.77 0 00.77-.77V5.922a3.808 3.808 0 00-3.805-3.804z" fill="#252525"/></svg>