<svg width="48" height="48" fill="none" xmlns="http://www.w3.org/2000/svg"><g clip-path="url(#clip0_862_13031)" fill="#0057B8"><path d="M16.463.197l-.244.187v4.21h-1.05c-1.143.01-1.312.065-1.48.506-.057.16-.095 1.303-.095 2.925v2.672l-.675-.028-.684-.028-.028-3.628-.019-3.629-.244-.187c-.14-.113-.328-.197-.421-.197-.244 0-6.47 3.122-6.666 3.347-.14.16-.169.44-.188 2.24l-.028 2.054-1.19.028c-1.153.028-1.2.028-1.388.272-.187.243-.187.29-.187 11.278v11.044l-.713.037C.03 33.356.094 33.094.094 37.275c0 3.384.01 3.516.188 3.694.253.253.778.253 1.031 0 .178-.178.188-.31.188-3.235v-3.047h13.875v11.907H1.5v-1.5c0-1.378-.019-1.519-.188-1.688-.253-.253-.778-.253-1.031 0-.178.178-.188.31-.188 2.157 0 1.978 0 1.978.235 2.203L.554 48H20.56c19.416 0 20.016-.01 20.231-.178.16-.122.216-.272.216-.525 0-.506-.272-.703-.984-.703h-.554V35.916c0-6.366-.037-10.782-.084-10.913-.047-.131-.497-.581-.994-1.012l-.9-.788v-3.806c.01-3.516 0-3.825-.15-4.013-.243-.29-.684-.347-.965-.122l-.235.188-.047 3.29-.046 3.282-.863-.722-.872-.722v-7.641h10.5v33.657h-.562c-.478 0-.61.037-.797.234-.3.29-.3.647 0 .938.215.225.29.234 1.265.234.975 0 1.05-.01 1.266-.234l.234-.225V12.844h.657c.581 0 .694-.028.89-.235.132-.121.235-.309.235-.412 0-.366-1.116-3.338-1.322-3.506-.15-.122-.375-.16-.966-.16h-.769L43.276 5.72c-1.21-2.035-1.735-2.832-1.875-2.86a4.218 4.218 0 00-.666-.065l-.469-.028-.047-1.21c-.046-1.181-.056-1.21-.3-1.397-.206-.159-.309-.168-.562-.103-.45.131-.544.394-.544 1.65v1.107h-.778c-.656 0-.816.028-.947.178-.084.093-.787 1.368-1.556 2.83l-1.387 2.663-.797.028c-.675.02-.816.057-.985.235-.234.244-1.237 3.047-1.237 3.44 0 .441.365.657 1.134.657h.647v3.243c0 2.56-.028 3.226-.112 3.17-.066-.038-.994-.807-2.063-1.707l-1.95-1.631v-5.344c0-5.634-.01-5.766-.422-5.925-.084-.028-.619-.056-1.181-.056h-1.022v-2.11c0-2.043-.01-2.109-.206-2.296C25.754 0 25.64 0 21.226 0c-4.425 0-4.519 0-4.763.197zM24.751 3v1.594h-7.125V1.406h7.125V3zm16.565 2.175c.32.534.891 1.5 1.285 2.156l.703 1.2H35.71l.722-1.387c.394-.76.91-1.725 1.134-2.157l.422-.768h2.766l.562.956zM10.782 7.781v2.907H6.094v-3.47L8.42 6.056a114.316 114.316 0 012.344-1.172c.01-.009.019 1.294.019 2.897zm16.594 5.86c0 7.518 0 7.64.187 7.828.253.253.76.243.994-.01.16-.178.188-.393.225-1.93l.047-1.735 4.612 3.872 4.622 3.88v21.049h-9.281v-11.1c0-11.081 0-11.09-.197-11.344-.15-.188-.272-.244-.553-.244-.703 0-.656-.9-.656 11.55v11.138H16.782V40.18c0-7.5.103-6.825-1.069-6.881l-.712-.037V6h12.375v7.64zm18.675-2.935l.262.732h-6.76c-5.371 0-6.75-.029-6.721-.122.028-.057.14-.394.253-.75l.216-.629 6.243.02 6.235.027.272.722zM13.595 22.688V33.28H3.282V12.094h10.312v10.594z"/><path d="M17.306 8.54l-.244.188V31.21l.244.188c.31.244.61.253.89.019l.226-.178V8.7l-.225-.178c-.281-.234-.581-.225-.89.019zm3.563 0l-.244.188v22.481l.244.188c.403.318.806.243 1.022-.188.206-.394.206-22.087 0-22.481-.216-.431-.62-.506-1.022-.188zm3.433-.131c-.066.028-.178.169-.253.31-.206.402-.216 22.087 0 22.49.225.44.731.525 1.06.169l.205-.216V8.746L25.1 8.55a.75.75 0 00-.797-.141zm6.832 19.211c-.187.243-.197.346-.197 3.73 0 3.385.01 3.497.188 3.694a.68.68 0 001.022-.037c.187-.244.197-.357.197-3.713v-3.46l-.235-.224c-.309-.32-.722-.31-.975.01zm3.461.008c-.188.244-.197.347-.17 1.444.03 1.013.057 1.219.207 1.388.235.253.74.262.994.01.169-.17.187-.31.187-1.454s-.018-1.284-.187-1.453a.705.705 0 00-1.031.066zm.008 4.584c-.187.244-.197.357-.197 3.572 0 2.728.028 3.366.14 3.581.217.432.62.507 1.023.188l.243-.188V35.85c0-3.385-.009-3.516-.187-3.694a.7.7 0 00-1.022.056zm-3.478 4.538c-.169.17-.188.31-.188 1.435s.02 1.265.188 1.453c.281.3.769.281 1.022-.038.178-.225.197-.375.197-1.443 0-1.116-.01-1.2-.216-1.388-.281-.262-.75-.272-1.003-.019zm0 4.594c-.169.169-.188.31-.188 1.434 0 1.125.02 1.266.188 1.454a.68.68 0 001.022-.038c.178-.225.197-.375.197-1.444 0-1.115-.01-1.2-.216-1.387-.281-.263-.75-.272-1.003-.019zm3.47.066c-.188.244-.197.347-.17 1.444.03 1.012.057 1.218.207 1.387.235.253.74.263.994.01.169-.17.187-.31.187-1.454 0-1.143-.018-1.284-.187-1.453a.705.705 0 00-1.031.066zM5.156 14.438c-.112.112-.187.31-.187.515 0 .638.684.938 1.106.488.272-.29.263-.675-.028-.956-.272-.281-.638-.3-.89-.047zm2.871.009c-.487.384-.215 1.21.413 1.21s.9-.826.412-1.21c-.14-.113-.318-.197-.412-.197-.094 0-.272.084-.413.197zm2.802.037c-.3.29-.31.694-.02.966.45.431 1.098.131 1.098-.497 0-.647-.638-.919-1.078-.469zM5.13 17.606c-.216.235-.206.797.01.985.093.093.327.159.515.159.384 0 .628-.253.628-.656a.889.889 0 00-.15-.45c-.188-.263-.778-.29-1.003-.038zm2.801.038a.889.889 0 00-.15.45c0 .412.244.656.657.656.412 0 .656-.244.656-.656 0-.413-.244-.657-.656-.657-.272 0-.404.057-.507.207zm2.813 0a.888.888 0 00-.15.45c0 .403.244.656.647.656.44 0 .665-.225.665-.675 0-.412-.234-.637-.684-.637-.244 0-.375.056-.478.206zM5.16 20.719c-.404.403-.122 1.218.421 1.218.328 0 .703-.393.703-.73 0-.563-.73-.882-1.125-.488zm2.808 0a.7.7 0 00.056 1.022c.14.112.319.197.413.197.093 0 .272-.085.412-.197.488-.385.216-1.21-.412-1.21a.75.75 0 00-.47.188zm2.831.028c-.272.29-.263.675.028.956.44.45 1.078.179 1.078-.468 0-.638-.684-.938-1.106-.488zm-5.586 3.075c-.188.15-.244.272-.244.544 0 .43.225.665.637.665.628 0 .9-.722.44-1.172-.28-.28-.505-.29-.833-.037zm2.814 0c-.487.384-.215 1.21.413 1.21s.9-.826.412-1.21c-.14-.113-.318-.197-.412-.197-.094 0-.272.084-.413.197zm2.8.038c-.469.459-.187 1.171.45 1.171.403 0 .628-.243.628-.684 0-.253-.065-.385-.243-.525-.329-.253-.554-.244-.835.037zm-5.698 3.121c-.253.282-.207.816.093 1.05.638.497 1.444-.459.872-1.03-.243-.245-.759-.245-.965-.02zM7.968 27a.7.7 0 00.056 1.022c.14.112.319.197.413.197.093 0 .272-.085.412-.197.488-.384.216-1.21-.412-1.21a.75.75 0 00-.47.188zm2.812 0c-.57.572.235 1.528.873 1.031.31-.243.356-.815.084-1.059-.234-.216-.731-.197-.956.028zm-5.624 3.094a.756.756 0 00-.187.516c0 .637.684.937 1.106.487.272-.29.263-.675-.028-.956-.272-.281-.638-.3-.89-.047zm2.829.028c-.421.45-.15 1.19.45 1.19.61 0 .891-.778.441-1.2-.281-.262-.637-.262-.89.01zm2.844.018c-.3.291-.31.694-.02.966.45.431 1.098.131 1.098-.497 0-.647-.638-.919-1.078-.469zm28.377-14.953a.645.645 0 00-.3.329c-.056.15-.093 1.725-.093 3.88 0 3.544.009 3.648.196 3.891a.7.7 0 001.022.057c.178-.178.188-.31.188-4.022v-3.844l-.244-.188c-.272-.215-.431-.234-.769-.103zm2.672.094l-.253.197v3.825c0 4.303-.01 4.228.647 4.228.244 0 .412-.066.534-.197.169-.187.178-.393.178-4.031 0-4.2.02-4.05-.562-4.172-.206-.037-.356 0-.544.15zm-.011 10.838a.706.706 0 00-.14.806c.15.29.262.356.618.356.319 0 .684-.347.684-.656 0-.094-.084-.272-.196-.413-.225-.28-.732-.337-.966-.093zm-.046 3.469c-.225.28-.234.393-.103.74.188.506.975.497 1.21-.018.328-.713-.628-1.332-1.107-.722zm.001 3.375c-.262.328-.243.646.038.928.45.46 1.115.178 1.115-.469 0-.656-.759-.956-1.153-.46zm.038 3.365c-.281.281-.3.6-.038.928.394.497 1.153.197 1.153-.46 0-.646-.665-.927-1.115-.468zm-38.205.797a.7.7 0 00.057 1.022c.243.197.337.197 4.725.197 4.387 0 4.48 0 4.725-.197a.7.7 0 00.056-1.022c-.178-.178-.31-.188-4.781-.188-4.472 0-4.603.01-4.782.188zm38.347 2.465c-.132.066-.263.244-.32.423-.065.253-.056.356.104.562.215.29.703.384.937.197.394-.337.32-1.05-.13-1.219-.292-.103-.31-.103-.592.038zm-38.345.535c-.234.234-.244.666-.01.947l.179.225h9.224l.178-.225c.234-.281.225-.713-.01-.947-.178-.178-.309-.188-4.78-.188-4.473 0-4.604.01-4.782.188zm.216 2.813c-.394.159-.525.721-.253 1.106l.14.206h9.357l.14-.206a.773.773 0 00-.028-.928l-.178-.225-4.49-.02c-2.466-.009-4.575.02-4.688.066zm37.994.149a.707.707 0 00-.14.807c.15.29.262.356.618.356.319 0 .684-.347.684-.656 0-.094-.084-.272-.196-.413-.225-.281-.732-.337-.966-.093z"/></g><defs><clipPath id="clip0_862_13031"><path fill="#fff" d="M0 0h48v48H0z"/></clipPath></defs></svg>