<svg width="22" height="30" fill="none" xmlns="http://www.w3.org/2000/svg"><path fill-rule="evenodd" clip-rule="evenodd" d="M1.64 13.058v15.907H.516a.517.517 0 000 1.035H21.01a.517.517 0 000-1.035h-.848V13.058h.087a1.554 1.554 0 001.552-1.552V1.552A1.551 1.551 0 0020.25 0H1.552A1.552 1.552 0 000 1.552v9.954a1.553 1.553 0 001.552 1.552h.087zm1.034 15.907V13.058h16.454v15.907H2.674zm15.468-14.482a.517.517 0 00-.517-.518H4.177a.517.517 0 00-.518.518v13.142c0 .285.232.517.518.517h13.448a.517.517 0 00.517-.517V14.483zM8.744 15h-4.05v12.108h2.773l-.906-8.023a.517.517 0 01.514-.576h7.651a.518.518 0 01.514.576l-.906 8.023h2.774V15h-4.05v1.25a.517.517 0 01-.518.516h-1.122v.303a.517.517 0 01-1.034 0v-.303H9.26a.517.517 0 01-.517-.517V15zm5.036 7.795c-.555.352-1.042.476-1.48.476-.626 0-1.171-.264-1.706-.587-.745-.449-1.472-1.064-2.636-.447l.513 4.543h4.86l.45-3.985zM7.836 21.15c1.127-.465 1.962-.138 2.738.312.323.187.633.4.956.56.255.128.52.224.816.213.424-.016.893-.245 1.485-.786a.501.501 0 01.11-.078l.207-1.828H7.654l.182 1.607zm4.187-6.024v.605H9.778v-.605h2.245zm8.744-6.334H1.034v2.713a.517.517 0 00.518.517H20.25a.517.517 0 00.517-.517V8.793zM17.43 1.034V4.89a.517.517 0 01-.517.518H4.889a.517.517 0 01-.517-.518V1.034h-2.82a.517.517 0 00-.518.518v6.207h19.733V1.552a.518.518 0 00-.517-.518h-2.82zm-1.035 0v3.338H5.406V1.034h10.99zM9.808 3.22h2.186a.517.517 0 000-1.034H9.808a.518.518 0 000 1.034z" fill="#0057B8"/></svg>