<svg width="50" height="50" fill="none" xmlns="http://www.w3.org/2000/svg"><path d="M46.875 41.407h-3.906v-18.84a2.344 2.344 0 00-.756-1.723L26.576 6.08a2.344 2.344 0 00-3.164.01L7.8 20.834a2.345 2.345 0 00-.768 1.733v18.84H3.125a.781.781 0 100 1.562h43.75a.781.781 0 100-1.563zM8.594 22.567a.798.798 0 01.265-.586L24.473 7.237a.781.781 0 011.04 0L41.15 21.998a.782.782 0 01.256.586v18.823H30.47V31.25a2.344 2.344 0 00-2.344-2.343h-6.25a2.344 2.344 0 00-2.344 2.343v10.157H8.594v-18.84zm20.312 18.84h-7.812V31.25a.781.781 0 01.781-.781h6.25a.781.781 0 01.781.781v10.157z" fill="#252525"/></svg>