<svg width="50" height="50" fill="none" xmlns="http://www.w3.org/2000/svg"><path d="M25.736 26.378c-9.373 0-16.998 7.624-16.998 16.997 0 .413.335.747.748.747h32.496a.747.747 0 00.748-.747c0-9.373-7.624-16.997-16.994-16.997zm9.087 16.25H16.827v-11.93a15.486 15.486 0 013.816-1.964v6.446c0 .413.334.747.747.747h8.732a.747.747 0 00.747-.747v-6.432c1.43.503 2.763 1.21 3.966 2.087a.749.749 0 00-.013.126v11.667zm-5.449-14.321v6.125h-7.236v-6.135a15.49 15.49 0 017.236.01zm-14.041 3.589v10.732H10.25c.203-4.248 2.126-8.05 5.082-10.732zm20.984 10.732V32.062a15.46 15.46 0 014.9 10.566h-4.9zM25.451 24.692c5.403 0 9.799-4.394 9.799-9.795 0-5.403-4.396-9.798-9.799-9.798s-9.799 4.395-9.799 9.798c0 5.401 4.396 9.795 9.8 9.795zm0-18.098c3.493 0 6.483 2.17 7.707 5.231-1.316-.589-3.47-1.711-4.85-2.463a.75.75 0 00-.677-.02c-.034.016-3.358 1.588-5.517 2.488l-.205.086c-1.608.672-2.65 1.106-4.596 1.33.768-3.79 4.125-6.652 8.138-6.652zm-8.297 8.172c2.37-.234 3.57-.735 5.332-1.47l.204-.086c1.778-.742 4.322-1.926 5.237-2.355 1.137.613 4.5 2.4 5.719 2.76.065.42.109.845.109 1.282 0 4.577-3.725 8.3-8.304 8.3-4.579 0-8.304-3.724-8.304-8.3 0-.043.006-.086.007-.13z" fill="#252525"/></svg>