<svg width="50" height="41" fill="none" xmlns="http://www.w3.org/2000/svg"><g fill="#252525"><path d="M35.813 28.682h-.008a.809.809 0 01-.686-.394l-7.677-12.893a.804.804 0 01-.056-.112 10.02 10.02 0 01-1.462-5.22C25.934 4.511 30.454 0 36.004 0h.012a10.004 10.004 0 017.122 2.962 10.013 10.013 0 012.936 7.128c0 1.82-.503 3.61-1.456 5.192a.77.77 0 01-.072.15l-8.047 12.871a.812.812 0 01-.686.38zm-6.909-13.989l6.926 11.631 7.256-11.606a.782.782 0 01.07-.144 8.45 8.45 0 001.302-4.484v-.001A8.407 8.407 0 0041.993 4.1a8.404 8.404 0 00-5.979-2.486h-.01c-4.661 0-8.457 3.788-8.465 8.45 0 1.59.448 3.142 1.294 4.486a.725.725 0 01.071.142z"/><path d="M36.006 13.847h-.009a4.23 4.23 0 01-3.013-1.25 4.237 4.237 0 01-1.247-3.022 4.232 4.232 0 011.253-3.012 4.24 4.24 0 013.012-1.245h.005a4.27 4.27 0 014.259 4.271 4.235 4.235 0 01-1.252 3.014 4.233 4.233 0 01-3.008 1.244zm-.004-6.913a2.63 2.63 0 00-1.872.774 2.626 2.626 0 00-.777 1.87 2.636 2.636 0 00.774 1.877c.5.501 1.165.777 1.872.777h.005a2.63 2.63 0 001.87-.772c.5-.5.776-1.165.777-1.872a2.654 2.654 0 00-2.646-2.654h-.003zM49.193 40.14H.808a.808.808 0 01-.743-1.126l8.801-20.592a.808.808 0 01.743-.49h20.767a.807.807 0 110 1.615H10.142L2.03 38.524h45.938l-7.86-18.389a.808.808 0 111.485-.635l8.341 19.514a.808.808 0 01-.742 1.125z"/><path d="M35.908 39.995a.807.807 0 01-.8-.716c-.006-.04-.522-4.014-6.085-4.958-.518-.088-1.343-.168-2.3-.26-5.265-.51-10.068-1.17-10.995-3.633-.597-1.589.276-2.8.977-3.773.768-1.065 1.021-1.53.63-2.198-.25-.423-1.04-.768-1.804-1.101-1.497-.653-3.548-1.547-3.558-3.997a.807.807 0 01.804-.811h.003c.445 0 .806.359.808.804.006 1.303.982 1.822 2.589 2.523 1.002.437 2.037.888 2.551 1.765.961 1.64-.006 2.981-.712 3.96-.662.92-1.054 1.52-.775 2.26.649 1.724 6.72 2.31 9.638 2.594.987.095 1.84.177 2.414.275 6.748 1.145 7.395 6.154 7.42 6.367a.807.807 0 01-.805.899z"/></g></svg>