<svg width="48" height="48" fill="none" xmlns="http://www.w3.org/2000/svg"><g clip-path="url(#clip0_862_13011)" fill-rule="evenodd" clip-rule="evenodd" fill="#0057B8"><path opacity=".936" d="M23.579-.047h.75a.655.655 0 01.328.375c.016.503.063 1.003.14 1.5A2.944 2.944 0 0126.58 1.5a.439.439 0 01.328.328 1.41 1.41 0 01-.094.938c-.41.214-.831.402-1.265.562.154.202.326.39.515.563.36 1.14-.031 1.53-1.172 1.171-.298-.314-.61-.61-.937-.89a16.71 16.71 0 01-1.125.984c-.922.203-1.282-.156-1.078-1.078.185-.263.388-.513.61-.75-.435-.16-.857-.348-1.267-.562a1.154 1.154 0 01.047-1.172c.683-.207 1.34-.13 1.97.234.077-.497.124-.997.14-1.5a.656.656 0 01.328-.375z"/><path opacity=".982" d="M47.953 25.078v22.5a1.076 1.076 0 01-.375.375H.328a1.076 1.076 0 01-.375-.375v-22.5c.287-.35.662-.46 1.125-.328.64.561 1.264 1.14 1.875 1.735.577-.53 1.14-1.077 1.688-1.64.375-.188.75-.188 1.125 0 .058.07.105.148.14.233.047 1.375.063 2.75.047 4.125h2.25c-.015-1.375 0-2.75.047-4.125.143-.282.378-.407.703-.375.2.002.388.049.563.141.548.564 1.11 1.11 1.687 1.64.577-.53 1.14-1.076 1.688-1.64.375-.187.75-.187 1.125 0 .058.07.105.149.14.234.047 2.875.063 5.75.047 8.625h3c-.015-5.375 0-10.75.047-16.125a21.21 21.21 0 012.625-2.062 893.482 893.482 0 003.281-9.75c.11-.406.375-.594.797-.562.422-.032.688.156.797.562a893.482 893.482 0 003.281 9.75c.934.622 1.809 1.31 2.625 2.062.047 5.375.063 10.75.047 16.125h3c-.016-2.875 0-5.75.047-8.625.143-.282.378-.407.703-.375.2.002.388.049.563.141.548.564 1.11 1.11 1.687 1.64.577-.53 1.14-1.076 1.688-1.64.375-.187.75-.187 1.125 0 .058.07.105.149.14.234.047 1.375.063 2.75.047 4.125h2.25c-.016-1.375 0-2.75.047-4.125.143-.282.378-.407.703-.375.2.002.388.049.563.141.548.564 1.11 1.11 1.687 1.64a48.903 48.903 0 011.875-1.734c.464-.131.839-.022 1.125.328zM23.86 8.672c.094-.003.156.044.188.14.7 2.134 1.42 4.26 2.156 6.376-.739.385-1.489.744-2.25 1.078a37.37 37.37 0 01-2.25-1.078 158.743 158.743 0 002.156-6.516zm-2.156 8.344c.634.27 1.26.567 1.875.89.25.063.5.063.75 0l1.781-.89c.094 1.311.125 2.624.094 3.938h-4.5v-3.938zm-1.594.281a35.69 35.69 0 01.094 3.656h-1.5c-.031-.877 0-1.752.094-2.625.444-.345.881-.689 1.312-1.03zm7.594 0c.483.32.951.664 1.406 1.031.094.873.125 1.748.094 2.625h-1.5v-3.656zm-9 5.156h10.5v11.25h-10.5v-11.25zm4.594 3.094c1.357-.204 2.28.327 2.765 1.594.222 1.323-.293 2.213-1.546 2.672-1.323.222-2.213-.294-2.672-1.547-.204-1.281.28-2.187 1.453-2.719zM1.453 27.422c.325.278.637.575.938.89.375.188.75.188 1.125 0l.89-.89c.004 1.04.067 2.072.188 3.094.07.059.148.106.234.14 1.5.063 3 .063 4.5 0a.887.887 0 00.235-.14 27.41 27.41 0 00.187-3.094l.89.89c.376.188.75.188 1.126 0l.89-.89c.047 6.344.063 12.688.047 19.031H1.453v-19.03zm33.75 0c.325.278.637.575.938.89.375.188.75.188 1.125 0l.89-.89c.004 1.04.067 2.072.188 3.094.07.059.148.106.234.14 1.5.063 3 .063 4.5 0a.887.887 0 00.234-.14c.121-1.022.184-2.053.188-3.094l.89.89c.376.188.75.188 1.126 0l.89-.89c.047 6.344.063 12.688.047 19.031h-11.25v-19.03zm-21 7.781h19.5v11.25h-4.5c.016-1.594 0-3.187-.047-4.78-1.005-3.278-3.208-4.637-6.61-4.079-2.02.652-3.287 2.011-3.796 4.078-.047 1.594-.063 3.188-.047 4.782h-4.5v-11.25zm9 3.844c2.628-.164 4.112 1.055 4.453 3.657.047 1.25.063 2.5.047 3.75h-7.5c-.015-1.25 0-2.5.047-3.75.145-1.91 1.13-3.129 2.953-3.657z"/><path opacity=".927" d="M23.11 23.953c2.14-.277 3.625.567 4.454 2.53.536 2.288-.261 3.898-2.39 4.829-2.288.536-3.898-.26-4.829-2.39-.523-2.487.4-4.143 2.766-4.97zm.188 1.593c-1.172.532-1.656 1.438-1.453 2.72.459 1.252 1.35 1.768 2.672 1.546 1.253-.459 1.769-1.35 1.547-2.672-.486-1.267-1.408-1.798-2.766-1.594z"/></g><defs><clipPath id="clip0_862_13011"><path fill="#fff" d="M0 0h48v48H0z"/></clipPath></defs></svg>