<svg width="50" height="50" fill="none" xmlns="http://www.w3.org/2000/svg"><path d="M5.674 42.62c.001.005.004.01.005.017.01.047.025.093.044.138l.022.043c.018.036.039.07.063.102l.03.04a.672.672 0 00.098.093c.008.006.013.014.02.019l.006.002c.002.002.004.005.007.006.039.028.081.043.124.061.024.011.046.028.072.036a.715.715 0 00.218.034h.002c.08 0 .157-.017.232-.043.01-.004.02-.002.03-.006L17.34 38.98a.722.722 0 00.456-.619l.373-5.059.01-.008L36.014 7.656a.72.72 0 00-.18-1.004l-5.662-3.934a.722.722 0 00-1.003.18L11.34 28.534l-.012.02-4.465 2.129a.72.72 0 00-.41.6L5.665 42.44l.001.014a.708.708 0 00.01.165zM29.942 4.312l4.477 3.112-17.013 24.452-4.47-3.112L29.942 4.313zM11.966 29.848l4.767 3.318-.342 4.635-8.039 3.145L11.13 37a.721.721 0 00-1.18-.83l-2.663 3.784.577-8.152 4.103-1.955zm34.812 15.68H2.522a.72.72 0 100 1.442h44.256a.72.72 0 100-1.442zm-10.352-8.685c.361 1.782-.134 2.884-.413 2.942-.106.02-.364-.095-.674-.502-.378-.495-.688-1.24-.85-2.046a.589.589 0 00-.008-.034c-.49-2.339-1.874-3.891-3.213-3.619-1.216.247-1.87 1.878-1.65 3.922a.718.718 0 00.009.21c.436 2.16-.105 3.761-.654 3.874-.258.053-.653-.22-1.012-.691-.478-.627-.872-1.56-1.084-2.566l-.005-.029c-.576-2.853-2.212-4.764-3.81-4.44-1.587.323-2.352 2.718-1.778 5.57a.721.721 0 101.414-.284c-.435-2.16.105-3.761.651-3.873.546-.117 1.654 1.132 2.098 3.257l.005.03c.255 1.253.738 2.393 1.362 3.21.63.827 1.36 1.266 2.086 1.266.12 0 .24-.012.36-.036 1.46-.297 2.221-2.34 1.893-4.877a.707.707 0 00-.01-.186c-.36-1.784.132-2.885.411-2.943.284-.064 1.164.767 1.525 2.548l.008.033c.21 1.005.602 1.92 1.106 2.58.534.7 1.159 1.072 1.788 1.072.107 0 .214-.01.32-.032 1.352-.277 2.012-2.256 1.545-4.61l-.001-.012c-.189-.923-.013-1.564.116-1.744.19.113.593.624.784 1.563a.95.95 0 00.016.066c.154.709.434 1.355.793 1.827.408.538.913.83 1.417.83a1.3 1.3 0 00.259-.026c1.081-.22 1.603-1.68 1.238-3.469a.721.721 0 10-1.413.287c.188.926.012 1.566-.116 1.746-.19-.115-.592-.627-.782-1.564a.937.937 0 00-.016-.067c-.38-1.743-1.41-2.85-2.475-2.629-1.073.22-1.592 1.665-1.24 3.438v.008z" fill="#252525"/></svg>