<svg width="48" height="48" fill="none" xmlns="http://www.w3.org/2000/svg"><g clip-path="url(#clip0_862_13024)" fill-rule="evenodd" clip-rule="evenodd" fill="#0057B8"><path opacity=".947" d="M47.953 17.953V34.64a2.555 2.555 0 01-.469.328c-3.937.063-7.875.063-11.812 0-.597-.431-1.222-.494-1.875-.187l-1.688 1.031c-.937.438-1.875.438-2.812 0a30.34 30.34 0 00-1.969-1.125c-.25-.062-.5-.062-.75 0-.671.352-1.328.727-1.969 1.125-1.485.534-2.829.284-4.03-.75a1.814 1.814 0 00-1.5-.375c-.797.414-1.579.852-2.345 1.313-.74.266-1.49.297-2.25.093l-2.53-1.03-11.532-.095a2.558 2.558 0 01-.469-.328V17.953c.438-1.328 1.344-2.156 2.719-2.484l6.937-.094a699.606 699.606 0 016.704-3.797 133.618 133.618 0 00-3.188-5.813c-.32.207-.664.363-1.031.47-.757-.24-.944-.708-.563-1.407.29-.137.555-.309.797-.516a3.226 3.226 0 01-.797-1.828c.417-.675.917-.738 1.5-.187.216.432.466.839.75 1.218.28-.202.593-.327.938-.375.762.15.98.587.656 1.313-.274.207-.57.38-.89.516l3.328 5.765c.31-.194.637-.35.984-.469.216.067.42.161.61.282l2.905 5.062c.328.472.312.925-.046 1.36a172.85 172.85 0 00-5.625 3.843 14.665 14.665 0 00-3.797 5.11c-.078 2.594-.063 5.188.047 7.78.843.407 1.718.72 2.625.938.227-.008.445-.055.656-.14.663-.444 1.35-.85 2.062-1.219a3.286 3.286 0 012.438 0c.546.289 1.078.601 1.594.938.47.328.97.39 1.5.187a30.434 30.434 0 011.968-1.125 3.286 3.286 0 012.438 0c.546.289 1.078.601 1.594.938.47.328.97.39 1.5.187.744-.458 1.51-.88 2.297-1.266a3.049 3.049 0 011.64-.093c.016-2.313 0-4.626-.047-6.938a14.772 14.772 0 00-3.89-5.297 172.85 172.85 0 00-5.625-3.844c-.359-.434-.374-.887-.047-1.359l2.906-5.062c.19-.12.393-.215.61-.282.346.12.674.275.984.47 1.11-1.923 2.218-3.845 3.328-5.766a4.193 4.193 0 01-.89-.516c-.325-.726-.107-1.164.656-1.313.344.048.656.173.937.375.339-.473.667-.957.984-1.453.707-.326 1.144-.107 1.313.657a5.953 5.953 0 01-.844 1.593c.242.207.507.379.797.516.382.699.194 1.167-.563 1.406a3.848 3.848 0 01-1.03-.469l-3.235 5.72a353.55 353.55 0 006.75 3.89l6.937.094c1.375.328 2.282 1.156 2.72 2.484zm-29.625-5.719a.268.268 0 01.235.094l.609 1.031a339.51 339.51 0 01-6.563 3.797.234.234 0 01-.28 0 3.826 3.826 0 00-.75-.984l6.75-3.938zm11.063 0a371.275 371.275 0 016.843 3.844c.096.047.112.11.047.187-.29.255-.525.552-.703.891a92.337 92.337 0 01-6.844-3.797l.657-1.125zm-9.563 2.625a.268.268 0 01.235.094c.215.352.418.711.609 1.078l-4.875 3.375a15.39 15.39 0 00-3.047 3.328 26.316 26.316 0 01.047-3.844 378.934 378.934 0 007.031-4.03zm8.063 0a413.188 413.188 0 017.218 4.031c.11 1.28.125 2.562.047 3.844a15.386 15.386 0 00-3.047-3.328l-4.875-3.375c.208-.4.427-.791.657-1.172zM2.859 17.015c2.313-.015 4.626 0 6.938.047.822.283 1.275.86 1.36 1.735.046 4.875.062 9.75.046 14.625h-9.75c-.016-4.875 0-9.75.047-14.625.095-.882.548-1.476 1.36-1.782zm35.25 0c2.313-.015 4.626 0 6.938.047.822.283 1.275.86 1.36 1.735.046 4.875.062 9.75.046 14.625h-9.75c-.016-4.875 0-9.75.047-14.625.095-.882.548-1.476 1.36-1.782z"/><path opacity=".931" d="M47.953 39.422v.75a2.11 2.11 0 01-1.125.703 4.584 4.584 0 01-2.531-.094 20.205 20.205 0 01-1.594-.937c-.5-.188-1-.188-1.5 0-.516.336-1.047.648-1.594.937a4.336 4.336 0 01-2.812 0 20.205 20.205 0 01-1.594-.937c-.5-.188-1-.188-1.5 0-.516.336-1.047.648-1.594.937a4.336 4.336 0 01-2.812 0 20.205 20.205 0 01-1.594-.937c-.5-.188-1-.188-1.5 0-.516.336-1.047.648-1.594.937a4.336 4.336 0 01-2.812 0 20.205 20.205 0 01-1.594-.937c-.5-.188-1-.188-1.5 0-.516.336-1.047.648-1.594.937a4.336 4.336 0 01-2.812 0 20.205 20.205 0 01-1.594-.937c-.5-.188-1-.188-1.5 0-.516.336-1.047.648-1.594.937a4.336 4.336 0 01-2.812 0 20.213 20.213 0 01-1.594-.937c-.5-.188-1-.188-1.5 0a58.72 58.72 0 01-2.719 1.593c-.414.105-.758-.004-1.03-.328v-.843a27.177 27.177 0 013.187-1.922 3.793 3.793 0 012.625 0l1.875 1.031c.375.063.75.063 1.125 0l1.875-1.031a3.793 3.793 0 012.625 0l1.875 1.031c.375.063.75.063 1.125 0l1.875-1.031a3.793 3.793 0 012.625 0l1.875 1.031c.375.063.75.063 1.125 0l1.875-1.031a3.793 3.793 0 012.625 0l1.875 1.031c.375.063.75.063 1.125 0l1.875-1.031a3.793 3.793 0 012.625 0l1.875 1.031c.375.063.75.063 1.125 0l1.875-1.031a3.793 3.793 0 012.625 0l1.875 1.031c.375.063.75.063 1.125 0a1.56 1.56 0 011.312-.281.655.655 0 01.375.328zm0 4.5v.75a2.11 2.11 0 01-1.125.703 4.584 4.584 0 01-2.531-.094 20.205 20.205 0 01-1.594-.937c-.5-.188-1-.188-1.5 0-.516.336-1.047.648-1.594.937a4.336 4.336 0 01-2.812 0 20.205 20.205 0 01-1.594-.937c-.5-.188-1-.188-1.5 0-.516.336-1.047.648-1.594.937a4.336 4.336 0 01-2.812 0 20.205 20.205 0 01-1.594-.937c-.5-.188-1-.188-1.5 0-.516.336-1.047.648-1.594.937a4.336 4.336 0 01-2.812 0 20.205 20.205 0 01-1.594-.937c-.5-.188-1-.188-1.5 0-.516.336-1.047.648-1.594.937a4.336 4.336 0 01-2.812 0 20.205 20.205 0 01-1.594-.937c-.5-.188-1-.188-1.5 0-.516.336-1.047.648-1.594.937a4.336 4.336 0 01-2.812 0 20.213 20.213 0 01-1.594-.937c-.5-.188-1-.188-1.5 0a58.72 58.72 0 01-2.719 1.593c-.414.105-.758-.004-1.03-.328v-.843a27.177 27.177 0 013.187-1.922 3.793 3.793 0 012.625 0l1.875 1.031c.375.063.75.063 1.125 0l1.875-1.031a3.793 3.793 0 012.625 0l1.875 1.031c.375.063.75.063 1.125 0l1.875-1.031a3.793 3.793 0 012.625 0l1.875 1.031c.375.063.75.063 1.125 0l1.875-1.031a3.793 3.793 0 012.625 0l1.875 1.031c.375.063.75.063 1.125 0l1.875-1.031a3.793 3.793 0 012.625 0l1.875 1.031c.375.063.75.063 1.125 0l1.875-1.031a3.793 3.793 0 012.625 0l1.875 1.031c.375.063.75.063 1.125 0a1.56 1.56 0 011.312-.281.655.655 0 01.375.328z"/></g><defs><clipPath id="clip0_862_13024"><path fill="#fff" d="M0 0h48v48H0z"/></clipPath></defs></svg>