<svg width="40" height="40" fill="none" xmlns="http://www.w3.org/2000/svg"><path d="M20 23.09a4.636 4.636 0 100-9.272 4.636 4.636 0 000 9.273zm0 0a7.727 7.727 0 00-7.727 7.728M20 23.091a7.727 7.727 0 017.727 7.727M15.364 37h9.272c4.328 0 6.492 0 8.145-.842a7.728 7.728 0 003.377-3.377C37 31.128 37 28.964 37 24.636v-9.272c0-4.328 0-6.492-.842-8.145a7.728 7.728 0 00-3.377-3.377C31.128 3 28.964 3 24.636 3h-9.272c-4.328 0-6.492 0-8.145.842A7.727 7.727 0 003.842 7.22C3 8.872 3 11.036 3 15.364v9.272c0 4.328 0 6.492.842 8.145a7.728 7.728 0 003.377 3.377C8.872 37 11.036 37 15.364 37zm-1.237-6.182h11.746c1.73 0 2.596 0 3.258-.337a3.09 3.09 0 001.35-1.35c.337-.662.337-1.527.337-3.258V14.127c0-1.73 0-2.596-.337-3.258a3.09 3.09 0 00-1.35-1.35c-.662-.337-1.527-.337-3.258-.337H14.127c-1.73 0-2.596 0-3.258.337a3.09 3.09 0 00-1.35 1.35c-.337.662-.337 1.527-.337 3.258v11.746c0 1.73 0 2.596.337 3.258a3.09 3.09 0 001.35 1.35c.662.337 1.527.337 3.258.337z" fill="transparent" stroke="currentColor" stroke-width="1.5"/></svg>