<svg width="50" height="50" fill="none" xmlns="http://www.w3.org/2000/svg"><path d="M29.167 36.458v-25c0-.575-.467-1.041-1.042-1.041H5.208a1.04 1.04 0 00-1.041 1.041v25c0 .576.466 1.042 1.041 1.042h3.125m20.834-1.042c0 .576-.467 1.042-1.042 1.042H16.667m12.5-1.042v-18.75a1.04 1.04 0 011.041-1.041h6.86c.277 0 .542.11.737.305l7.723 7.723c.196.195.305.46.305.737v11.026c0 .576-.466 1.042-1.041 1.042h-3.125m-12.5-1.042c0 .576.466 1.042 1.041 1.042h3.125m-25 0a4.167 4.167 0 008.334 0m-8.334 0a4.167 4.167 0 118.334 0m16.666 0a4.167 4.167 0 008.334 0m-8.334 0a4.167 4.167 0 018.334 0" stroke="#222" stroke-width="1.5"/></svg>