<svg width="50" height="50" fill="none" xmlns="http://www.w3.org/2000/svg"><circle cx="7.092" cy="7.092" r="7.092" transform="matrix(-1 0 0 1 32.54 10.416)" stroke="#fff" stroke-width="1.5"/><path d="M13.035 35.123a3.61 3.61 0 012.396-3.4v0a29.779 29.779 0 0120.031 0v0a3.61 3.61 0 012.396 3.4v4.015a2 2 0 01-2.283 1.98l-6.31-.901a27.002 27.002 0 00-7.637 0l-6.31.901a2 2 0 01-2.283-1.98v-4.015z" stroke="#fff" stroke-width="1.5"/><path d="M36.084 24.797a5.572 5.572 0 100-11.145m6.102 23.858l.546.077a2.718 2.718 0 003.103-2.69v-1.834a2.836 2.836 0 00-1.882-2.67 23.402 23.402 0 00-3.437-.94m-26.635-4.656a5.572 5.572 0 010-11.145M7.779 37.51l-.546.077a2.718 2.718 0 01-3.103-2.69v-1.834c0-1.198.754-2.267 1.882-2.67a23.401 23.401 0 013.437-.94" stroke="#fff" stroke-width="1.5" stroke-linecap="round"/></svg>