<svg width="49" height="49" fill="none" xmlns="http://www.w3.org/2000/svg"><circle cx="6.125" cy="6.125" r="6.125" transform="matrix(-1 0 0 1 30.625 18.375)" stroke="#fff" stroke-width="1.5"/><path d="M33.688 10.078l.375-.65-.375.65zm0 28.84l-.375-.649.375.65zm-18.375 0l.375-.649-.375.65zm0-28.84l.375.65-.375-.65zm3.01-4.5l.743.1-.743-.1zM5.388 19.366l-.41.628.41-.628zm-.38-.954l-.717-.223.716.223zm5.277 20.01l.24.71-.24-.71zm-.906-.207l.555-.504-.555.504zm9.531 5.925l-.205.722.205-.722zm-.587-.721l-.744.099.744-.099zm12.355 0l.744.1-.744-.1zm-.587.722l.204.721-.204-.721zm9.533-5.925l.555.504-.555-.504zm-.906.206l.24-.71-.24.71zm5.278-20.007l.716-.223-.716.223zM5.388 29.63l.41.628-.41-.628zm33.33-19.056l-.241-.71.24.71zm.905.207l-.555.504.555-.504zm-30.244 0l.556.505-.556-.505zm.906-.206l.24-.71-.24.71zm33.33 19.056l-.41.628.41-.628zm.38.954l.717.223-.716-.223zM30.679 5.578l.744-.1-.744.1zm-.587-.722l-.205.722.205-.722zm-.156.82a6.865 6.865 0 003.378 5.052l.75-1.3a5.365 5.365 0 01-2.641-3.95l-1.487.199zm3.378 5.052a6.86 6.86 0 005.645.557l-.481-1.42a5.36 5.36 0 01-4.414-.436l-.75 1.299zm11.4 7.464a21.14 21.14 0 00-4.534-7.915l-1.11 1.008a19.641 19.641 0 014.211 7.353l1.432-.447zM41.585 24.5a5.37 5.37 0 012.44-4.504l-.82-1.256a6.87 6.87 0 00-3.12 5.76h1.5zm2.44 4.503a5.37 5.37 0 01-2.44-4.503h-1.5a6.87 6.87 0 003.12 5.76l.82-1.257zm-3.847 9.717a21.142 21.142 0 004.533-7.912l-1.432-.446a19.642 19.642 0 01-4.211 7.35l1.11 1.008zm-6.116.848a5.36 5.36 0 014.414-.435l.481-1.421a6.86 6.86 0 00-5.645.557l.75 1.3zm-2.642 3.95a5.365 5.365 0 012.642-3.95l-.75-1.299a6.865 6.865 0 00-3.378 5.052l1.487.197zm-6.92 2.147c2.008 0 3.952-.28 5.794-.803l-.41-1.443a19.68 19.68 0 01-5.383.746v1.5zm-5.796-.803c1.843.523 3.788.803 5.797.803v-1.5a19.68 19.68 0 01-5.387-.746l-.41 1.443zm-3.767-5.294a5.365 5.365 0 012.641 3.95l1.487-.198a6.865 6.865 0 00-3.378-5.051l-.75 1.3zm-4.413-.436a5.36 5.36 0 014.413.436l.75-1.299a6.86 6.86 0 00-5.644-.557l.481 1.42zM4.29 30.807a21.142 21.142 0 004.532 7.912l1.111-1.008a19.641 19.641 0 01-4.21-7.35l-1.433.446zm3.127-6.309a5.37 5.37 0 01-2.44 4.504l.82 1.256a6.87 6.87 0 003.12-5.76h-1.5zm-2.44-4.504a5.37 5.37 0 012.44 4.504h1.5a6.87 6.87 0 00-3.12-5.76l-.82 1.256zm3.846-9.716a21.141 21.141 0 00-4.533 7.911l1.432.447a19.633 19.633 0 014.212-7.35l-1.111-1.008zm6.114-.85a5.36 5.36 0 01-4.413.436l-.48 1.421a6.86 6.86 0 005.643-.557l-.75-1.3zm2.641-3.949a5.365 5.365 0 01-2.641 3.95l.75 1.299a6.865 6.865 0 003.378-5.05l-1.487-.199zm6.923-2.147c-2.01 0-3.954.28-5.797.804l.41 1.443a19.68 19.68 0 015.387-.747v-1.5zm5.794.803a21.18 21.18 0 00-5.794-.803v1.5c1.868 0 3.674.26 5.384.746l.41-1.443zm-11.23 1.542a.176.176 0 01.033-.084.063.063 0 01.013-.013.01.01 0 01.003-.001l-.41-1.443c-.66.187-1.049.765-1.126 1.343l1.487.198zM5.798 18.738a.184.184 0 01-.07-.079.064.064 0 01-.005-.02v-.003l-1.432-.447c-.23.74.14 1.448.687 1.805l.82-1.256zm4.246 18.974a.177.177 0 01-.09.007.066.066 0 01-.017-.005.01.01 0 01-.003-.003l-1.11 1.008c.46.507 1.149.6 1.701.413l-.48-1.42zm9.071 5.707l-.003-.002a.064.064 0 01-.013-.013.176.176 0 01-.033-.084l-1.487.198c.077.578.467 1.156 1.126 1.344l.41-1.443zm10.82-.098a.176.176 0 01-.033.084.062.062 0 01-.013.013.01.01 0 01-.003.002l.41 1.442c.66-.187 1.049-.765 1.126-1.344l-1.487-.197zm9.134-5.61l-.003.003a.065.065 0 01-.018.006.175.175 0 01-.09-.008l-.48 1.42c.551.188 1.241.095 1.701-.412l-1.11-1.008zm4.211-19.073v.004c0 .002 0 .01-.005.02a.184.184 0 01-.07.078l.821 1.256c.546-.356.917-1.065.686-1.804l-1.432.446zM5.723 30.361v-.004c0-.003 0-.01.005-.02a.184.184 0 01.07-.079l-.82-1.256c-.546.357-.918 1.065-.687 1.805l1.432-.446zm33.235-19.076a.176.176 0 01.09-.008c.01.002.015.005.017.006.002 0 .003.001.003.002l1.11-1.008c-.46-.507-1.149-.6-1.701-.413l.48 1.42zm-29.023 0l.003-.002a.064.064 0 01.017-.005.175.175 0 01.09.007l.48-1.42c-.552-.187-1.241-.094-1.701.412l1.11 1.009zm33.27 18.974a.19.19 0 01.07.079.06.06 0 01.005.02v.004l1.432.446c.23-.74-.14-1.448-.686-1.805l-.82 1.256zM31.422 5.48c-.077-.579-.467-1.157-1.126-1.344l-.41 1.443.003.002a.062.062 0 01.013.012.176.176 0 01.033.085l1.487-.198z" fill="#fff"/></svg>