<svg width="40" height="40" fill="none" xmlns="http://www.w3.org/2000/svg"><path d="M13.334 24.25a.75.75 0 100 1.5v-1.5zm3.333 1.5a.75.75 0 000-1.5v1.5zm-3.333-8.167a.75.75 0 100 1.5v-1.5zm10 1.5a.75.75 0 000-1.5v1.5zm-10-8.166a.75.75 0 100 1.5v-1.5zm10 1.5a.75.75 0 000-1.5v1.5zM29.25 15a.75.75 0 001.5 0h-1.5zM15 35.75a.75.75 0 000-1.5v1.5zm-6.536-1.125l.345-.666-.345.666zm-1.422-1.422l-.665.346.665-.346zM28.204 5.375l-.346.666.346-.666zm1.421 1.422l-.666.345.666-.345zM8.464 5.375l-.346-.665.346.665zM7.042 6.797l-.665-.346.665.346zm6.292 18.953h3.333v-1.5h-3.333v1.5zm0-6.667h10v-1.5h-10v1.5zm0-6.666h10v-1.5h-10v1.5zm-1.3-6.667h12.6v-1.5h-12.6v1.5zm17.216 4.617V15h1.5v-4.633h-1.5zM15 34.25h-2.966v1.5H15v-1.5zm-7.583-4.617V10.367h-1.5v19.266h1.5zm4.617 4.617c-.962 0-1.638 0-2.164-.044-.518-.043-.824-.124-1.06-.247l-.692 1.331c.486.253 1.016.36 1.628.41.603.05 1.351.05 2.288.05v-1.5zm-6.117-4.617c0 .937 0 1.685.05 2.288.05.612.157 1.142.41 1.628l1.33-.691c-.122-.237-.203-.543-.246-1.06-.043-.527-.044-1.203-.044-2.165h-1.5zm2.892 4.326a2.583 2.583 0 01-1.101-1.102l-1.331.692a4.083 4.083 0 001.741 1.741l.691-1.33zM24.634 5.75c.961 0 1.637 0 2.163.044.518.043.825.124 1.06.247l.692-1.331c-.486-.253-1.015-.36-1.627-.41-.604-.05-1.352-.05-2.288-.05v1.5zm6.116 4.617c0-.937 0-1.685-.05-2.288-.05-.612-.157-1.142-.41-1.628l-1.33.691c.122.237.203.543.246 1.06.044.527.044 1.203.044 2.165h1.5zM27.858 6.04c.472.245.856.63 1.101 1.101l1.332-.691a4.083 4.083 0 00-1.742-1.741l-.691 1.33zM12.034 4.25c-.937 0-1.685 0-2.288.05-.612.05-1.142.157-1.628.41l.691 1.33c.237-.122.543-.203 1.06-.246.527-.043 1.203-.044 2.165-.044v-1.5zm-4.617 6.117c0-.962 0-1.638.044-2.164.043-.518.124-.824.247-1.06L6.377 6.45c-.253.486-.36 1.016-.41 1.628-.05.603-.05 1.351-.05 2.288h1.5zm.701-5.657a4.083 4.083 0 00-1.741 1.74l1.33.691A2.59 2.59 0 018.809 6.04l-.691-1.33zM30.917 25a2.583 2.583 0 01-2.583 2.583v1.5A4.083 4.083 0 0032.417 25h-1.5zm-2.583 2.583A2.583 2.583 0 0125.75 25h-1.5a4.083 4.083 0 004.084 4.083v-1.5zM25.75 25a2.583 2.583 0 012.584-2.583v-1.5A4.083 4.083 0 0024.25 25h1.5zm2.584-2.583A2.583 2.583 0 0130.917 25h1.5a4.083 4.083 0 00-4.083-4.083v1.5zm6.658 11.833H21.676v1.5h13.316v-1.5zm-.742.741a.74.74 0 01.742-.741v1.5c.419 0 .758-.34.758-.759h-1.5zm-5.916-5.908a5.915 5.915 0 015.916 5.908h1.5c0-4.092-3.326-7.408-7.416-7.408v1.5zm-5.917 5.908c0-3.261 2.652-5.908 5.917-5.908v-1.5c-4.09 0-7.417 3.316-7.417 7.408h1.5zm-1.5 0c0 .42.34.759.759.759v-1.5c.409 0 .741.332.741.741h-1.5z" fill="currentColor"/></svg>