<svg width="30" height="30" fill="none" xmlns="http://www.w3.org/2000/svg"><path d="M25 15.137v-.262a9.934 9.934 0 00-.15-1.588v-.037a19.39 19.39 0 00-.175-.825V12.4a9.994 9.994 0 00-1.225-2.775c-.262-.4-.55-.787-.863-1.15a9.44 9.44 0 00-1-1c-.362-.313-.75-.6-1.15-.862a9.994 9.994 0 00-2.774-1.226h-.025a8.51 8.51 0 00-.813-.174 9.837 9.837 0 00-1.725-.15h-.15c-.8 0-1.575.112-2.313.3A9.833 9.833 0 005.3 12.537 9.379 9.379 0 005 14.85v.125c0 .588.05 1.175.15 1.737.05.276.112.55.175.813v.025a9.994 9.994 0 001.225 2.775c.263.4.55.788.862 1.15.313.362.65.7 1 1 .363.313.75.6 1.15.862a9.994 9.994 0 002.776 1.226h.025c.262.075.537.125.812.175.563.1 1.15.15 1.737.15h.138c.8 0 1.575-.113 2.313-.3A10.02 10.02 0 0024.6 17.35c.287-.65.4-1.425.4-2.213zm-1.587 4.276L19.425 23.4a9.72 9.72 0 01-1.163.525l5.675-5.675c-.162.4-.337.788-.524 1.163zm.687-1.688L17.725 24.1a7.23 7.23 0 01-.863.212l7.45-7.45a7.23 7.23 0 01-.212.863zm.287-1.3l-7.962 7.962a7.126 7.126 0 01-.725.075l8.762-8.762c-.012.25-.037.488-.075.725zm-9.05 8.063c-.112 0-.224.012-.337.012-.1 0-.213 0-.313-.012l9.813-9.813c0 .1.012.212.012.313 0 .112 0 .225-.012.337l-9.162 9.163zm-1.575-.075l10.65-10.65c.026.2.05.387.063.587L14.35 24.475c-.2-.013-.4-.038-.588-.063zm-.85-.15l11.35-11.35c.038.175.075.362.1.537L13.45 24.375c-.175-.038-.362-.075-.537-.113zm-.787-.213L24.05 12.125c.05.162.1.338.15.5L12.625 24.2c-.175-.05-.338-.1-.5-.15zm-.738-.262l12.4-12.4c.063.15.126.312.175.462l-12.1 12.1c-.162-.037-.312-.1-.475-.162zm-.675-.313l12.763-12.763c.075.15.137.288.212.438L11.15 23.675c-.15-.063-.3-.137-.438-.2zm-.65-.363l13.05-13.05c.088.138.163.276.238.413L10.475 23.35c-.137-.075-.275-.15-.412-.238zm-.6-.4l13.25-13.25c.088.126.175.25.263.388L9.85 22.975a10.414 10.414 0 01-.387-.263zm-.562-.437L22.275 8.9c.1.112.2.237.288.362l-13.3 13.3a4.066 4.066 0 01-.363-.287zm-.525-.475L21.8 8.375c.113.113.212.225.313.338l-13.4 13.4c-.113-.1-.225-.2-.338-.313zm-.487-.512l13.4-13.4c.112.1.224.2.337.312L8.2 21.625c-.112-.113-.212-.225-.312-.337zm-.45-.55l13.3-13.3c.125.087.237.187.362.287L7.725 21.1a4.05 4.05 0 01-.287-.363zm-.413-.588L20.15 7.025c.125.087.263.175.388.262l-13.25 13.25a8.971 8.971 0 01-.263-.387zm-.375-.625L19.525 6.65c.138.075.275.15.413.237l-13.05 13.05a6.973 6.973 0 01-.238-.412zm-.325-.675L18.85 6.325c.15.063.3.138.438.212L6.525 19.288c-.063-.137-.138-.287-.2-.437zm-.288-.713l12.1-12.1c.163.05.313.113.463.176l-12.4 12.4c-.05-.163-.112-.313-.163-.476zm-.237-.762L17.375 5.8c.175.038.337.088.5.15L5.95 17.875c-.05-.163-.1-.325-.15-.5zM5.5 15c0-.113 0-.225.013-.338L14.675 5.5c.112 0 .225-.013.337-.013.1 0 .213 0 .313.013l-9.813 9.813C5.5 15.213 5.5 15.1 5.5 15zm1.088-4.412L10.575 6.6a9.72 9.72 0 011.163-.525L6.075 11.75c.15-.4.325-.787.513-1.162zM5.9 12.274L12.275 5.9a7.23 7.23 0 01.862-.213l-7.45 7.45a7.23 7.23 0 01.213-.862zm-.288 1.3l7.963-7.962c.238-.038.475-.063.725-.076L5.537 14.3c.013-.25.038-.488.075-.725zm-.087 2.075L15.65 5.525c.2.012.388.037.588.063l-10.65 10.65a8.462 8.462 0 01-.063-.588zm.1.9L16.55 5.625c.188.025.363.063.537.1l-11.35 11.35c-.037-.162-.075-.35-.112-.525zm4.088-9.438l-2.6 2.6a9.532 9.532 0 012.6-2.6zm10.575 15.775l2.6-2.6a9.532 9.532 0 01-2.6 2.6z" fill="#0057B8"/><path d="M15 1C7.263 1 1 7.263 1 15c0 7.738 6.263 14 14 14 7.738 0 14-6.262 14-14 0-7.737-6.262-14-14-14zm0 27C7.838 28 2 22.163 2 15 2 7.838 7.838 2 15 2c7.163 0 13 5.838 13 13 0 7.163-5.837 13-13 13z" fill="#0057B8"/></svg>