<svg width="49" height="49" fill="none" xmlns="http://www.w3.org/2000/svg"><circle cx="6.125" cy="6.125" r="6.125" transform="matrix(-1 0 0 1 30.625 18.375)" stroke="#fff" stroke-width="1.5"/><path d="M33.68 10.08l-.375.65.375-.65zm0 28.838l-.375-.649.375.65zm-18.375 0l.375-.649-.375.65zm0-28.838l.375.65-.375-.65zm3.01-4.5l-.744-.099.744.1zm.587-.72l-.205-.722.205.721zM5.384 19.367l.41-.628-.41.628zm-.38-.954l-.717-.223.716.223zm5.275 20.007l.24.71-.24-.71zm8.623 5.72l-.205.72.205-.72zm11.768-.72l.743.1-.743-.1zm-.588.722l-.204-.721.204.721zm9.538-5.926l.555.504-.555-.504zm-.907.206l.241-.71-.24.71zm5.279-20.01l.716-.224-.716.224zm-.381.954l-.41-.629.41.629zM5.004 30.586l-.716.223.715-.223zm.38-.954l.41.628-.41-.628zm33.329-19.057l-.241-.71.24.71zm.906.207l-.555.504.555-.504zm-29.34-.204l.24-.71-.24.71zm33.332 19.055l.41-.628-.41.628zm.38.954l-.716-.223.716.223zm-13.32-25.01l-.744.1.743-.1zm-.588-.72l.204-.722-.204.721zm-.156.82a6.865 6.865 0 003.378 5.053l.75-1.3a5.365 5.365 0 01-2.641-3.95l-1.487.197zm3.378 5.053a6.86 6.86 0 005.649.556l-.482-1.42a5.36 5.36 0 01-4.417-.435l-.75 1.299zm11.403 7.46a21.144 21.144 0 00-4.533-7.913l-1.111 1.009a19.64 19.64 0 014.212 7.35l1.432-.447zm-3.13 6.31a5.37 5.37 0 012.443-4.505l-.82-1.257a6.87 6.87 0 00-3.123 5.762h1.5zm2.443 4.505a5.37 5.37 0 01-2.443-4.505h-1.5a6.87 6.87 0 003.123 5.762l.82-1.257zm-3.846 9.716a21.142 21.142 0 004.532-7.91l-1.432-.447a19.64 19.64 0 01-4.21 7.35l1.11 1.007zm-6.12.847a5.36 5.36 0 014.417-.434l.482-1.42a6.86 6.86 0 00-5.649.555l.75 1.3zm-2.642 3.952a5.365 5.365 0 012.642-3.952l-.75-1.299a6.865 6.865 0 00-3.378 5.054l1.486.197zm-6.915 2.146c2.006 0 3.948-.279 5.79-.801l-.41-1.443a19.678 19.678 0 01-5.38.744v1.5zm-5.8-.804a21.18 21.18 0 005.8.804v-1.5c-1.87 0-3.679-.26-5.39-.747l-.41 1.443zm-3.768-5.294a5.365 5.365 0 012.642 3.95l1.486-.198a6.865 6.865 0 00-3.378-5.051l-.75 1.3zm-4.41-.436a5.36 5.36 0 014.41.436l.75-1.299a6.86 6.86 0 00-5.641-.558l.48 1.42zm-6.232-8.323a21.142 21.142 0 004.53 7.91l1.11-1.009a19.642 19.642 0 01-4.209-7.348l-1.431.447zM7.414 24.5a5.37 5.37 0 01-2.44 4.504l.82 1.256a6.87 6.87 0 003.12-5.76h-1.5zm-2.44-4.504a5.37 5.37 0 012.44 4.504h1.5a6.87 6.87 0 00-3.12-5.76l-.82 1.256zm3.844-9.716a21.141 21.141 0 00-4.53 7.911l1.431.447a19.641 19.641 0 014.21-7.35L8.82 10.28zm6.112-.85a5.36 5.36 0 01-4.41.437l-.48 1.421a6.86 6.86 0 005.64-.558l-.75-1.3zm2.642-3.949a5.365 5.365 0 01-2.642 3.95l.75 1.299a6.865 6.865 0 003.378-5.05l-1.486-.199zm6.926-2.148c-2.01 0-3.957.28-5.801.805l.41 1.443a19.68 19.68 0 015.39-.748v-1.5zm5.79.802a21.18 21.18 0 00-5.79-.802v1.5c1.866 0 3.67.26 5.38.745l.41-1.443zM19.057 5.68a.176.176 0 01.033-.085.06.06 0 01.013-.013.01.01 0 01.003-.001l-.41-1.443c-.66.187-1.049.765-1.125 1.343l1.486.199zM5.794 18.74a.184.184 0 01-.07-.079.064.064 0 01-.005-.02v-.003l-1.432-.447c-.23.74.14 1.448.687 1.805l.82-1.256zm4.245 18.97a.176.176 0 01-.09.009.066.066 0 01-.017-.006.01.01 0 01-.003-.003l-1.111 1.008c.46.507 1.149.6 1.701.414l-.48-1.421zm9.068 5.709l-.003-.002a.06.06 0 01-.013-.013.177.177 0 01-.033-.084l-1.486.198c.077.578.466 1.156 1.125 1.343l.41-1.442zm10.82-.096a.177.177 0 01-.033.084.064.064 0 01-.013.013l-.003.002.41 1.443c.66-.188 1.049-.766 1.125-1.345l-1.486-.197zm9.137-5.61l-.003.002a.061.061 0 01-.017.006.175.175 0 01-.09-.008l-.482 1.42c.553.188 1.243.095 1.703-.412l-1.11-1.008zm4.212-19.077v.004c0 .002-.001.01-.005.02a.184.184 0 01-.07.078l.82 1.257c.546-.357.917-1.066.687-1.806l-1.432.447zM5.719 30.362v-.003a.06.06 0 01.005-.02.184.184 0 01.07-.079l-.82-1.256c-.546.357-.917 1.065-.686 1.805l1.431-.447zm33.235-19.076a.175.175 0 01.09-.008l.017.005a.009.009 0 01.003.003l1.11-1.008c-.46-.508-1.15-.6-1.702-.413l.482 1.42zm-29.025.002l.003-.002a.063.063 0 01.017-.006.176.176 0 01.09.008l.48-1.42c-.552-.188-1.24-.094-1.7.412l1.11 1.008zm33.272 18.974c.037.024.06.055.07.078.004.01.005.018.005.02v.004l1.431.447c.231-.74-.14-1.45-.686-1.806l-.82 1.257zM31.414 5.479c-.077-.579-.467-1.157-1.127-1.344l-.41 1.443.004.001a.066.066 0 01.013.013.177.177 0 01.033.085l1.487-.198z" fill="#fff"/></svg>