<svg width="576" height="576" fill="none" xmlns="http://www.w3.org/2000/svg"><g opacity=".24" stroke="#fff" stroke-width=".432" stroke-miterlimit="10"><path d="M279.615 479.476c115.823 0 209.716-93.894 209.716-209.717 0-115.823-93.893-209.716-209.716-209.716-115.823 0-209.717 93.893-209.717 209.716 0 115.823 93.894 209.717 209.717 209.717z"/><path d="M268.078 505.801c130.363 0 236.044-105.68 236.044-236.043S398.441 33.715 268.078 33.715 32.035 139.395 32.035 269.758s105.68 236.043 236.043 236.043z"/><path d="M287.995 548.248c143.732 0 260.249-116.518 260.249-260.249 0-143.732-116.517-260.249-260.249-260.249-143.731 0-260.249 116.517-260.249 260.249 0 143.731 116.518 260.249 260.249 260.249z"/><path d="M288 575c158.506 0 287-128.494 287-287S446.506 1 288 1 1 129.494 1 288s128.494 287 287 287z"/><path d="M296.062 456.368c103.061 0 186.608-83.548 186.608-186.609S399.123 83.15 296.062 83.15s-186.609 83.548-186.609 186.61 83.548 186.609 186.609 186.609z"/><path d="M274.353 428.519c87.681 0 158.76-71.079 158.76-158.759 0-87.681-71.079-158.76-158.76-158.76-87.68 0-158.759 71.079-158.759 158.76 0 87.68 71.079 158.759 158.759 158.759z"/></g></svg>