<svg width="478" height="478" fill="none" xmlns="http://www.w3.org/2000/svg"><g opacity=".24" stroke="#fff" stroke-width=".43" stroke-miterlimit="10"><path d="M232.044 397.785c96.048 0 173.911-77.863 173.911-173.911S328.092 49.963 232.044 49.963c-96.049 0-173.911 77.863-173.911 173.911s77.862 173.911 173.911 173.911z"/><path d="M222.481 419.615c108.106 0 195.744-87.637 195.744-195.743S330.587 28.129 222.481 28.129 26.738 115.766 26.738 223.872s87.637 195.743 195.743 195.743z"/><path d="M238.996 454.816c119.192 0 215.816-96.624 215.816-215.816 0-119.192-96.624-215.816-215.816-215.816C119.804 23.184 23.18 119.808 23.18 239c0 119.192 96.624 215.816 215.816 215.816z"/><path d="M239 477c131.444 0 238-106.556 238-238C477 107.556 370.444 1 239 1 107.556 1 1 107.556 1 239c0 131.444 106.556 238 238 238z"/><path d="M245.686 378.62c85.465 0 154.749-69.283 154.749-154.748 0-85.466-69.284-154.749-154.749-154.749-85.465 0-154.749 69.283-154.749 154.749 0 85.465 69.284 154.748 154.749 154.748z"/><path d="M227.686 355.527c72.71 0 131.654-58.943 131.654-131.654S300.396 92.219 227.686 92.219c-72.711 0-131.655 58.943-131.655 131.654s58.944 131.654 131.655 131.654z"/></g></svg>