<?xml version="1.0" encoding="UTF-8"?><!DOCTYPE svg PUBLIC "-//W3C//DTD SVG 1.1//EN" "http://www.w3.org/Graphics/SVG/1.1/DTD/svg11.dtd"><svg xmlns="http://www.w3.org/2000/svg"><defs><clipPath id="ek-a"><path fill="#fff" d="M0 0h48v48H0z"/></clipPath><clipPath id="moskow-a"><path fill="#fff" d="M0 0h48v48H0z"/></clipPath><clipPath id="phone-a"><path fill="#fff" d="M0 0h20v20H0z"/></clipPath><clipPath id="place-a"><path fill="#fff" d="M0 0h20v20H0z"/></clipPath><filter id="play-hov-a" width="80" height="80" x="0" y="0" color-interpolation-filters="sRGB" filterUnits="userSpaceOnUse"><feFlood flood-opacity="0" result="BackgroundImageFix"/><feColorMatrix in="SourceAlpha" result="hardAlpha" values="0 0 0 0 0 0 0 0 0 0 0 0 0 0 0 0 0 0 127 0"/><feOffset dy="2"/><feGaussianBlur stdDeviation="5"/><feComposite in2="hardAlpha" operator="out"/><feColorMatrix values="0 0 0 0 0 0 0 0 0 0 0 0 0 0 0 0 0 0 0.3 0"/><feBlend in2="BackgroundImageFix" result="effect1_dropShadow_1111_10729"/><feBlend in="SourceGraphic" in2="effect1_dropShadow_1111_10729" result="shape"/></filter><filter id="play-a" width="80" height="80" x="0" y="0" color-interpolation-filters="sRGB" filterUnits="userSpaceOnUse"><feFlood flood-opacity="0" result="BackgroundImageFix"/><feColorMatrix in="SourceAlpha" result="hardAlpha" values="0 0 0 0 0 0 0 0 0 0 0 0 0 0 0 0 0 0 127 0"/><feOffset dy="2"/><feGaussianBlur stdDeviation="5"/><feComposite in2="hardAlpha" operator="out"/><feColorMatrix values="0 0 0 0 0 0 0 0 0 0 0 0 0 0 0 0 0 0 0.3 0"/><feBlend in2="BackgroundImageFix" result="effect1_dropShadow_1111_10729"/><feBlend in="SourceGraphic" in2="effect1_dropShadow_1111_10729" result="shape"/></filter><clipPath id="sankt-a"><path fill="#fff" d="M0 0h48v48H0z"/></clipPath></defs><symbol id="Filter" viewBox="0 0 40 40"><path stroke="#252525" stroke-linecap="round" stroke-linejoin="round" stroke-width="1.5" d="M36 11.5H22M7 11.5H3M37 28.5h-4"/><circle cx="3.5" cy="3.5" r="3.5" stroke="#252525" stroke-width="1.5" transform="matrix(-1 0 0 1 18 8)"/><path stroke="#252525" stroke-linecap="round" stroke-linejoin="round" stroke-width="1.5" d="M4 28.5h14"/><circle cx="25.5" cy="28.5" r="3.5" stroke="#252525" stroke-width="1.5"/></symbol><symbol id="alert" viewBox="0 0 24 24"><path stroke="currentColor" stroke-linecap="round" stroke-linejoin="round" stroke-width="2" d="M10.29 3.86L1.82 18a2 2 0 0 0 1.71 3h16.94a2 2 0 0 0 1.71-3L13.71 3.86a2 2 0 0 0-3.42 0zM12 9v4M12 16v.5"/></symbol><symbol id="arrow-bottom" viewBox="0 0 12 8"><path stroke="#fff" stroke-width="1.5" d="M1 1l5 5 5-5"/></symbol><symbol id="arrow-next" viewBox="0 0 8 12"><path d="M1 11l5-5-5-5"/></symbol><symbol id="arrow-prev" viewBox="0 0 8 12"><path d="M7 1L2 6l5 5"/></symbol><symbol id="arrow" viewBox="0 0 11 6"><path stroke="currentColor" stroke-linecap="round" stroke-linejoin="round" stroke-width="2" d="M1 1l4.5 4L10 1"/></symbol><symbol id="back" viewBox="0 0 5 10"><path fill="#4E88C4" d="M4.01.198L.126 4.63a.471.471 0 0 0-.098.171A.656.656 0 0 0 0 5c0 .07.01.136.029.198a.471.471 0 0 0 .098.171l3.882 4.446a.532.532 0 0 0 .818-.013A.68.68 0 0 0 5 9.34a.68.68 0 0 0-.173-.461L1.44 5l3.387-3.879a.667.667 0 0 0 .161-.455.69.69 0 0 0-.172-.468A.522.522 0 0 0 4.412 0a.522.522 0 0 0-.403.198z"/></symbol><symbol id="bank" viewBox="0 0 50 50"><g fill="#252525"><path d="M6.131 38.514a.72.72 0 1 0 0 1.442h37.1a.72.72 0 1 0 0-1.442h-4.025V17.229h4.024a.72.72 0 1 0 0-1.442H10.264a.716.716 0 0 0-.202-.032.712.712 0 0 0-.201.032H6.13a.72.72 0 1 0 0 1.442h3.212v21.285H6.131zm14.417 0V17.229h7.968v21.285h-7.968zm17.216 0h-7.806V17.229h7.806v21.285zM10.779 17.229h8.327v21.285h-8.327V17.229zM47.605 44.387H1.76a.72.72 0 1 0 0 1.442h45.845a.72.72 0 1 0 0-1.442z"/><path d="M48.227 15.781L25.304 2.684a.722.722 0 0 0-.714-.001L1.517 15.78a.721.721 0 0 0 .713 1.254L24.945 4.14l22.566 12.894a.722.722 0 0 0 .716-1.252z"/></g></symbol><symbol id="basket" viewBox="0 0 36 36"><rect width="24" height="19.5" x="6" y="10.5" rx="4"/><path d="M24 15V9a6 6 0 0 0-12 0v6"/></symbol><symbol id="basket2" viewBox="0 0 20 20"><rect width="16" height="13" x="2" y="6" rx="4"/><path d="M14 9V5a4 4 0 1 0-8 0v4"/></symbol><symbol id="beans" viewBox="0 0 51 50"><g fill="#252525"><path d="M15.123 8.924c-7.28 0-13.2 7.289-13.2 16.249 0 8.96 5.92 16.25 13.2 16.25 7.278 0 13.2-7.29 13.2-16.25-.002-8.96-5.922-16.25-13.2-16.25zm0 34.423C6.784 43.347 0 35.194 0 25.173 0 15.152 6.784 7.001 15.123 7.001c8.34 0 15.123 8.152 15.123 18.172-.001 10.021-6.785 18.174-15.123 18.174z"/><path d="M15.12 43.347a.963.963 0 0 1-.875-.561c-.207-.45-4.988-11.091.093-18.172 1.154-1.608 1.804-3.62 1.934-5.98a.962.962 0 0 1 1.92.105c-.15 2.73-.921 5.085-2.292 6.995-4.436 6.183.047 16.15.093 16.25a.96.96 0 0 1-.873 1.363zM16.988 15.356a.961.961 0 0 1-.95-.811c-.55-3.463-1.773-6.156-1.786-6.183a.96.96 0 1 1 1.748-.8c.055.119 1.345 2.963 1.938 6.682a.962.962 0 0 1-.95 1.112zM34.543 40.69c-1.242 0-2.475-.195-3.669-.59-2.055-.682-3.906-1.95-5.351-3.667a.962.962 0 0 1 1.47-1.239c1.235 1.467 2.743 2.502 4.487 3.079 2.946.975 6.191.488 9.14-1.37 3.008-1.898 5.342-4.982 6.57-8.69 2.513-7.584-.447-15.41-6.597-17.448-3.343-1.107-7.09-.316-10.28 2.173a.962.962 0 0 1-1.183-1.516c3.706-2.89 8.105-3.793 12.067-2.48 7.156 2.37 10.665 11.287 7.818 19.877-1.369 4.127-3.986 7.577-7.37 9.71-2.27 1.43-4.705 2.162-7.102 2.162z"/><path d="M31.173 40.148a.963.963 0 0 1-.705-1.617c.01-.013 1.16-1.258 2.347-3.16.478-.765.901-1.537 1.257-2.296.322-.688.594-1.372.808-2.037.734-2.28.812-4.376.232-6.233-2.346-7.521 4.77-15.28 5.073-15.607a.96.96 0 1 1 1.407 1.31c-.066.073-6.658 7.274-4.645 13.727.699 2.241.619 4.73-.239 7.393-.238.742-.54 1.503-.897 2.264a24.088 24.088 0 0 1-1.366 2.498c-1.291 2.069-2.52 3.395-2.572 3.451a.942.942 0 0 1-.7.306z"/></g></symbol><symbol id="box" viewBox="0 0 49 49"><path stroke="#222" stroke-linejoin="round" stroke-width="1.5" d="M4.078 12.59v23.153a1 1 0 0 0 .616.923l19.8 8.25M4.079 12.59l19.648-8.186a2 2 0 0 1 1.538 0l9.44 3.932M4.077 12.59l10.209 4.253m10.208 4.254v23.82m0-23.82L44.91 12.59m-20.416 8.507l-10.209-4.254m10.209 28.073l19.801-8.25a1 1 0 0 0 .615-.923V12.59m0 0L34.703 8.336m-20.417 8.507l20.417-8.507"/></symbol><symbol id="card" viewBox="0 0 50 50"><g fill="#252525"><path d="M44.532 9.726H5.291a3.604 3.604 0 0 0-3.6 3.599V36.5a3.603 3.603 0 0 0 3.6 3.598h39.241a3.603 3.603 0 0 0 3.599-3.598V13.325c0-1.985-1.614-3.6-3.599-3.6zM3.186 13.325c0-1.161.944-2.105 2.104-2.105h39.242c1.16 0 2.104.944 2.104 2.105v1.658H3.186v-1.658zm43.45 23.174c0 1.16-.944 2.104-2.104 2.104H5.291A2.107 2.107 0 0 1 3.186 36.5V21.661h43.45v14.838zm0-16.333H3.186v-3.689h43.45v3.69z"/><path d="M8.914 35.657a2.608 2.608 0 0 0 2.606-2.604 2.61 2.61 0 0 0-2.606-2.607 2.609 2.609 0 0 0-2.605 2.607 2.608 2.608 0 0 0 2.605 2.604zm0-3.716a1.112 1.112 0 1 1-1.11 1.112c0-.613.498-1.112 1.11-1.112zM14.49 33.888h21.057a.747.747 0 1 0 0-1.494H14.49a.747.747 0 1 0 0 1.494z"/></g></symbol><symbol id="cart" viewBox="0 0 50 50"><path fill="#252525" d="M46.947 9.15a.746.746 0 0 0-.567-.26H11.116L9.678 4.071a.748.748 0 0 0-.716-.533H3.447a.747.747 0 1 0 0 1.494h4.958l9.085 30.445c0 .003.004.006.005.01l1.128 3.838a3.893 3.893 0 0 0-1.154 2.769 3.916 3.916 0 0 0 3.91 3.913 3.91 3.91 0 0 0 3.896-3.713h9.795c0 .028-.004.055-.004.083a3.913 3.913 0 0 0 3.909 3.909 3.914 3.914 0 0 0 3.908-3.91 3.914 3.914 0 0 0-3.908-3.909c-1.594 0-2.966.96-3.573 2.333h-10.34a3.89 3.89 0 0 0-.92-1.469 3.88 3.88 0 0 0-2.761-1.145h-.001a3.88 3.88 0 0 0-1.45.282l-.723-2.458H42.46c.37 0 .683-.27.739-.634L47.12 9.75a.747.747 0 0 0-.172-.6zm-7.972 30.813a2.417 2.417 0 0 1 2.414 2.414 2.417 2.417 0 0 1-2.414 2.414 2.417 2.417 0 0 1-2.414-2.414 2.417 2.417 0 0 1 2.414-2.415zM21.38 39.68c.643 0 1.248.252 1.704.708a2.417 2.417 0 0 1-1.705 4.124 2.42 2.42 0 0 1-2.416-2.418 2.418 2.418 0 0 1 2.417-2.413zm20.44-5.165H18.766l-1.413-4.807a.748.748 0 0 0-.076-.168l-5.716-19.156H45.51l-3.69 24.131z"/></symbol><symbol id="catalog" viewBox="0 0 36 36"><path fill="#fff" d="M11 21a3 3 0 1 0 0-6 3 3 0 0 0 0 6zM22 21a3 3 0 1 0 0-6 3 3 0 0 0 0 6zM33 21a3 3 0 1 0 0-6 3 3 0 0 0 0 6z"/></symbol><symbol id="catalog2" viewBox="0 0 20 20"><path d="M17.5 14.125a3.375 3.375 0 1 1-6.75 0 3.375 3.375 0 0 1 6.75 0zM19 19l-2-2M5 7H4M16 4H2M5 10H4M9 10H8M14 7H8"/><path d="M17 8V4.2c0-1.12 0-1.68-.218-2.108a2 2 0 0 0-.874-.874C15.48 1 14.92 1 13.8 1H4.2c-1.12 0-1.68 0-2.108.218a2 2 0 0 0-.874.874C1 2.52 1 3.08 1 4.2v9.6c0 1.12 0 1.68.218 2.108a2 2 0 0 0 .874.874C2.52 17 3.08 17 4.2 17H8"/></symbol><symbol id="close" viewBox="0 0 20 20"><path d="M18 2L2 18M2 2l16 16"/></symbol><symbol id="cofee" viewBox="0 0 26 26"><path fill="#0057B8" d="M23.42 10.733H22.31c.168-1.007.269-1.88.336-2.553a1.341 1.341 0 0 0-1.344-1.478H1.35c-.79 0-1.411.689-1.344 1.478.437 4.418 2.47 17.335 11.321 17.335 4.838 0 7.626-3.847 9.255-8.063h1.495s1.68 0 2.016-1.008l1.343-3.023c0-1.411-.705-2.688-2.015-2.688zm-7.542 11.691c-1.327 1.176-2.822 1.747-4.552 1.747-1.73 0-3.225-.571-4.552-1.747-1.159-1.041-2.183-2.536-3.04-4.451-1.579-3.595-2.184-7.76-2.385-9.91h19.954c-.218 2.166-.806 6.315-2.385 9.927-.856 1.898-1.881 3.393-3.04 4.434zm6.988-6.517c0 .017-.017.033-.017.033-.135.084-.504.168-.773.168h-.588l1.109-4.03h.823c.42 0 .604.587.655 1.09l-1.21 2.739zM9.31 3.679c0 .033 0 .084.017.117.017.084.017.168.034.252.034.151.067.286.1.42.085.252.169.453.236.588.033.067.067.117.084.151.017.034.033.05.033.05.034.05.101.101.168.084a.174.174 0 0 0 .135-.201v-.017s-.017-.084-.034-.218c-.017-.135-.05-.336-.084-.571a2.515 2.515 0 0 1-.033-.37V3.78 3.578a.69.69 0 0 1 .117-.286c.067-.1.168-.201.286-.37.05-.083.117-.167.168-.285.016-.05.033-.1.05-.168a.597.597 0 0 0 .034-.168c0-.033.016-.067.016-.084V2.016c0-.084-.016-.168-.033-.252a6.757 6.757 0 0 0-.185-.857c-.067-.252-.151-.437-.201-.588-.05-.134-.084-.218-.084-.218A.185.185 0 0 0 9.966 0c-.101.017-.152.1-.152.185 0 0 .017.084.034.218s.034.353.067.588c.034.235.05.52.067.806v.219c0 .016-.016.168-.016.184-.017.034-.034.084-.05.135-.018.05-.051.1-.085.15-.084.102-.201.236-.319.404-.117.185-.185.42-.185.622v.134l-.016.034zM10.654 3.645v.034c0 .033 0 .084.017.117.017.084.017.168.034.252.033.151.067.286.1.42.085.252.168.453.236.588.033.067.067.117.084.151.016.034.033.05.033.05.034.05.101.101.168.084a.174.174 0 0 0 .134-.201v-.017s-.016-.084-.033-.218c-.017-.135-.05-.336-.084-.571a2.515 2.515 0 0 1-.034-.37V3.78 3.578a.69.69 0 0 1 .118-.286c.067-.1.168-.201.286-.37.05-.083.117-.167.168-.285.016-.05.033-.1.05-.168a.597.597 0 0 0 .034-.168c0-.033.016-.067.016-.084V2.016c0-.084-.017-.168-.033-.252a6.757 6.757 0 0 0-.185-.857c-.067-.252-.151-.437-.202-.588-.05-.134-.084-.218-.084-.218A.185.185 0 0 0 11.31 0c-.1.017-.15.1-.15.185 0 0 .016.084.033.218s.033.353.067.588.05.52.067.806v.219c0 .016-.017.168-.017.184-.016.034-.033.084-.05.135a.68.68 0 0 1-.084.15c-.084.102-.202.236-.32.404-.117.185-.184.42-.184.622v.084c-.017.033-.017.033-.017.05zM11.998 3.645v.034c0 .033 0 .084.017.117.017.084.017.168.033.252.034.151.068.286.101.42.084.252.168.453.235.588.034.067.068.117.084.151.017.034.034.05.034.05.034.05.1.101.168.084a.174.174 0 0 0 .134-.201v-.017s-.017-.084-.033-.218c-.017-.135-.05-.336-.084-.571a2.515 2.515 0 0 1-.034-.37V3.78 3.578a.69.69 0 0 1 .118-.286c.067-.1.168-.201.285-.37.05-.083.118-.167.168-.285.017-.05.034-.1.05-.168a.597.597 0 0 0 .034-.168c0-.033.017-.067.017-.084V2.016c0-.084-.017-.168-.034-.252a6.757 6.757 0 0 0-.184-.857c-.067-.252-.151-.437-.202-.588-.05-.134-.084-.218-.084-.218A.185.185 0 0 0 12.653 0c-.1.017-.151.1-.151.185 0 0 .017.084.034.218.016.134.033.353.067.588.033.235.05.52.067.806v.219c0 .016-.017.168-.017.184-.017.034-.034.084-.05.135-.017.05-.05.1-.084.15-.084.102-.202.236-.32.404-.117.185-.184.42-.184.622v.084c-.017.033-.017.033-.017.05z"/><path fill="#0057B8" d="M19.018 9.39H3.632a.68.68 0 0 0-.671.772c.218 1.36.537 2.973 1.024 4.603.202.671.437 1.343.689 1.998 1.63 4.082 3.796 6.064 6.635 6.064 2.838 0 5.005-1.982 6.634-6.064.27-.655.487-1.327.69-1.998.486-1.63.805-3.242 1.024-4.603a.648.648 0 0 0-.639-.772zm.32.722a33.504 33.504 0 0 1-.941 4.317H4.254a33.509 33.509 0 0 1-.94-4.317c-.018-.1.016-.185.083-.269a.302.302 0 0 1 .252-.117h15.37c.1 0 .184.033.251.117.067.067.084.168.067.269z"/><path fill="#0057B8" d="M11.41 10.75c-.085-.05-.185-.017-.236.067L9.83 13.17c-.05.084-.016.185.068.235.033.017.05.017.083.017a.2.2 0 0 0 .152-.084l1.343-2.352c.034-.084.017-.184-.067-.235zM10.57 10.75c-.085-.05-.185-.017-.236.067L8.99 13.17c-.05.084-.016.185.068.235.033.017.05.017.084.017a.2.2 0 0 0 .15-.084l1.345-2.352c.033-.084.016-.184-.068-.235zM9.73 10.75c-.084-.05-.185-.017-.236.067L8.151 13.17c-.05.084-.017.185.067.235.033.017.05.017.084.017a.2.2 0 0 0 .151-.084l1.344-2.352c.033-.084.017-.184-.067-.235zM8.89 10.75c-.084-.05-.185-.017-.235.067L7.31 13.17c-.05.084-.017.185.067.235.034.017.05.017.084.017a.2.2 0 0 0 .151-.084l1.344-2.352c.033-.084.017-.184-.067-.235zM8.05 10.75c-.084-.05-.185-.017-.235.067L6.47 13.17c-.05.084-.017.185.067.235.034.017.05.017.084.017a.2.2 0 0 0 .151-.084l1.344-2.352c.034-.084.017-.184-.067-.235zM7.21 10.75c-.084-.05-.185-.017-.235.067L5.63 13.17c-.05.084-.017.185.067.235.034.017.05.017.084.017a.2.2 0 0 0 .151-.084l1.344-2.352c.034-.084.017-.184-.067-.235zM6.37 10.75c-.084-.05-.185-.017-.235.067L4.791 13.17c-.05.084-.017.185.067.235.034.017.05.017.084.017a.2.2 0 0 0 .152-.084l1.343-2.352c.034-.084.017-.184-.067-.235zM5.53 10.75c-.084-.05-.184-.017-.235.067l-.84 1.512c-.05.084-.016.185.067.235.034.017.05.017.084.017a.176.176 0 0 0 .152-.084l.84-1.512c.033-.084.016-.184-.068-.235zM12.25 10.75c-.085-.05-.186-.017-.236.067L10.67 13.17c-.05.084-.017.185.067.235.034.017.05.017.084.017a.2.2 0 0 0 .152-.084l1.343-2.352c.034-.084.017-.184-.067-.235zM13.089 10.75c-.084-.05-.185-.017-.235.067L11.51 13.17c-.05.084-.017.185.067.235.034.017.05.017.084.017a.2.2 0 0 0 .151-.084l1.344-2.352c.034-.084.017-.184-.067-.235zM13.929 10.75c-.084-.05-.185-.017-.235.067L12.35 13.17c-.05.084-.017.185.067.235.034.017.05.017.084.017a.2.2 0 0 0 .151-.084l1.344-2.352c.034-.084.017-.184-.067-.235zM14.769 10.75c-.084-.05-.185-.017-.236.067L13.19 13.17c-.05.084-.017.185.067.235.034.017.05.017.084.017a.2.2 0 0 0 .151-.084l1.344-2.352c.033-.084.017-.184-.067-.235zM15.608 10.75c-.084-.05-.184-.017-.235.067L14.03 13.17c-.05.084-.017.185.067.235.033.017.05.017.084.017a.2.2 0 0 0 .15-.084l1.345-2.352c.033-.084.016-.184-.068-.235zM16.448 10.75c-.084-.05-.184-.017-.235.067L14.87 13.17c-.05.084-.016.185.068.235.033.017.05.017.084.017a.2.2 0 0 0 .15-.084l1.345-2.352c.033-.084.016-.184-.068-.235zM17.288 10.75c-.084-.05-.185-.017-.235.067l-1.344 2.352c-.05.084-.017.185.067.235.034.017.05.017.084.017a.2.2 0 0 0 .152-.084l1.343-2.352c.034-.084.017-.184-.067-.235zM18.128 10.75c-.084-.05-.185-.017-.235.067l-1.344 2.352c-.05.084-.017.185.067.235.034.017.05.017.084.017a.2.2 0 0 0 .151-.084l1.344-2.352c.034-.084.017-.184-.067-.235zM18.296 11.926c-.084-.05-.185-.017-.235.067l-.672 1.176c-.05.084-.017.185.067.235.034.017.05.017.084.017a.2.2 0 0 0 .151-.084l.672-1.176c.034-.084.017-.185-.067-.235z"/></symbol><symbol id="coffee" viewBox="0 0 40 40"><path stroke="#252525" stroke-width="1.5" d="M9 16h22l-1.451 17.415A5 5 0 0 1 24.566 38h-9.132a5 5 0 0 1-4.983-4.585L9 16z"/><circle cx="3.5" cy="3.5" r="3.5" stroke="#252525" stroke-width="1.5" transform="matrix(-1 0 0 1 24 24)"/><path stroke="#252525" stroke-width="1.5" d="M6 12.333A3.333 3.333 0 0 1 9.333 9h21.334A3.333 3.333 0 0 1 34 12.333v.334A3.333 3.333 0 0 1 30.667 16H9.333A3.333 3.333 0 0 1 6 12.667v-.334zM9 5.333A3.333 3.333 0 0 1 12.333 2h15.334A3.333 3.333 0 0 1 31 5.333v2C31 8.253 30.254 9 29.333 9H10.667C9.747 9 9 8.254 9 7.333v-2z"/></symbol><symbol id="courier" viewBox="0 0 50 50"><g fill="#252525"><path d="M24.902 24.651c-10.409 0-18.875 8.467-18.875 18.875 0 .398.349.747.747.747h9.91c1.644 2.739 4.632 4.631 8.019 4.631a9.25 9.25 0 0 0 8.018-4.631H42.98a.766.766 0 0 0 .747-.747c.05-10.408-8.417-18.875-18.825-18.875zM7.572 42.78a17.383 17.383 0 0 1 7.818-13.795v10.558c0 1.145.2 2.191.598 3.237H7.57zm17.13 4.582c-4.332 0-7.818-3.536-7.818-7.82V28.089c2.39-1.245 5.13-1.992 8.018-1.992 2.739 0 5.328.647 7.67 1.793v11.603c0 1.295-.3 2.49-.847 3.536-.05.05-.05.1-.1.15-1.345 2.54-3.934 4.183-6.922 4.183zm8.766-4.582c.348-.996.597-2.092.597-3.237V28.735c4.731 2.938 7.968 8.118 8.217 13.994h-8.814v.05zM24.603 22.61c5.976 0 10.856-4.88 10.856-10.857 0-.249 0-.498-.05-.747h4.233a.766.766 0 0 0 .747-.747.766.766 0 0 0-.747-.747H35.21C34.164 4.632 29.782.946 24.603.946c-5.976 0-10.857 4.88-10.857 10.857 0 5.926 4.88 10.807 10.857 10.807zm0-20.17c4.382 0 8.067 3.038 9.063 7.122H15.54c.996-4.084 4.681-7.122 9.064-7.122zm-9.313 8.616h18.576c0 .249.05.498.05.747 0 5.13-4.184 9.362-9.363 9.362-5.18 0-9.313-4.233-9.313-9.412 0-.249 0-.498.05-.697z"/></g></symbol><symbol id="croissant" viewBox="0 0 50 50"><path fill="#252525" d="M42.474 25.853l.384-.501a.791.791 0 0 0 .082-.133c.393-.823.411-1.79.055-2.794-.581-1.638-2.182-3.35-3.892-4.163-.028-.013-.056-.02-.085-.03-.03-.02-.062-.042-.097-.06-1.204-.574-2.84-.86-4.268-.748a5.98 5.98 0 0 0-1.836.42l.232-1.09a.787.787 0 0 0 .016-.156c0-3.643-4.993-5.968-8.431-5.968a.764.764 0 0 0-.135.012.757.757 0 0 0-.135-.012c-3.436 0-8.428 2.325-8.428 5.968 0 .053.005.104.016.156l.212.998a5.8 5.8 0 0 0-1.82-.457c-1.426-.135-3 .131-4.216.712-.033.016-.062.036-.091.056-.031.01-.063.019-.094.034-1.217.578-2.417 1.635-3.21 2.826-.975 1.465-1.198 2.932-.627 4.13a.77.77 0 0 0 .082.133l.747.975c-3.489 2.89-4.72 6.81-2.838 9.315.707.944 1.795 1.545 3.145 1.738.315.044.639.066.97.066 1.904 0 4.037-.737 5.952-2.052.708.62 1.436 1.004 2.31 1.004.555 0 1.17-.152 1.874-.489l.185-.086a.671.671 0 0 0 .08-.043c.224-.14.98-.64 1.571-1.334.791 1.357 1.982 2.118 4.18 2.118h.27c2.111 0 3.295-.698 4.088-1.96.428.545 1.033 1.022 1.793 1.384l.18.085c.707.338 1.323.49 1.88.49 1.047 0 1.887-.548 2.736-1.406 2.085 1.487 4.497 2.343 6.577 2.343.332 0 .657-.022.97-.066 1.29-.184 2.319-.745 2.98-1.625 1.846-2.462.33-6.755-3.364-9.79zm-35.022 9.88c-.949-.135-1.695-.534-2.16-1.154-1.358-1.808-.233-4.9 2.55-7.234l4.726 6.16c.182.222.36.433.535.636-1.872 1.222-3.98 1.829-5.65 1.592zm11.99-3.148c-.018.487-.92 1.31-1.586 1.737l-.148.069c-1.515.724-2.111.45-3.97-1.816l-6.312-8.23c-.397-.936.171-2.023.552-2.594.64-.962 1.638-1.844 2.607-2.305.033-.016.063-.037.093-.056.032-.01.064-.02.095-.034.966-.462 2.281-.682 3.43-.573.7.066 1.943.32 2.397 1.27.021.046.052.082.08.12l2.204 10.36c.182.737.361 1.414.562 2.028-.001.008-.004.015-.004.024zm5.192 2.317h-.27c-2.508 0-3.113-1.007-4.023-4.705l-2.91-13.672c.078-2.557 4.168-4.4 6.933-4.4a.752.752 0 0 0 .135-.012.75.75 0 0 0 .136.012c2.766 0 6.858 1.843 6.935 4.4l-2.907 13.65c-.932 3.777-1.503 4.727-4.03 4.727zm6.7-.347l-.18-.084c-.93-.444-1.538-1.1-1.63-1.754-.002-.016-.008-.03-.01-.045.217-.65.41-1.37.606-2.163l2.208-10.369c.451-.934 1.723-1.17 2.443-1.226 1.164-.091 2.54.146 3.506.607.028.014.058.022.086.031a.762.762 0 0 0 .099.06c1.358.646 2.673 2.04 3.125 3.314.213.601.224 1.134.033 1.585l-6.297 8.212c-1.872 2.284-2.469 2.557-3.99 1.832zm13.307.19c-.423.564-1.094.914-1.994 1.042-1.83.26-4.269-.494-6.332-1.92l.18-.216 5.071-6.614c2.955 2.46 4.39 5.955 3.075 7.708z"/></symbol><symbol id="cup" viewBox="0 0 34 40"><path fill="#252525" d="M32.016 7.41H25.608a.77.77 0 0 0 0 1.539h4.035l-.834 8.636h-5.15a8.656 8.656 0 0 0-6.883-3.412 8.656 8.656 0 0 0-6.884 3.412H4.744L3.909 8.95h17.52a.77.77 0 0 0 0-1.538H1.539V5.922a2.27 2.27 0 0 1 2.267-2.266h25.941a2.27 2.27 0 0 1 2.267 2.266V7.41h.003zm-5.223 31.053H6.762l-1.004-10.4h4.136a8.655 8.655 0 0 0 13.767 0h4.136l-1.004 10.4zm1.153-11.94h-4.677a.771.771 0 0 0-.634.333 7.118 7.118 0 0 1-5.858 3.078 7.122 7.122 0 0 1-5.858-3.078.771.771 0 0 0-.633-.332H5.609l-.714-7.402h5.392c.253 0 .49-.124.634-.332a7.118 7.118 0 0 1 5.858-3.078 7.122 7.122 0 0 1 5.858 3.078.77.77 0 0 0 .633.332h5.393l-.717 7.402zm1.803-24.405h-1.312V.769a.77.77 0 0 0-1.54 0v1.348H3.808A3.81 3.81 0 0 0 0 5.922v2.256c0 .425.345.77.77.77h1.595l2.933 30.357c.038.395.369.695.765.695H27.49a.769.769 0 0 0 .766-.695l2.933-30.357h1.595a.77.77 0 0 0 .77-.77V5.922a3.808 3.808 0 0 0-3.805-3.804z"/></symbol><symbol id="delete" viewBox="0 0 22 23"><path fill="#fff" d="M.417 8.174c-.55-.183-.555-.479.011-.667L20.518.81c.557-.186.876.126.72.671l-5.74 20.09c-.159.557-.48.576-.715.048L11 13.105l6.316-8.42L8.893 11 .417 8.174z"/></symbol><symbol id="ek" viewBox="0 0 48 48"><g fill="#0057B8" clip-path="url(#ek-a)"><path d="M16.463.197l-.244.187v4.21h-1.05c-1.143.01-1.312.065-1.48.506-.057.16-.095 1.303-.095 2.925v2.672l-.675-.028-.684-.028-.028-3.628-.019-3.629-.244-.187c-.14-.113-.328-.197-.421-.197-.244 0-6.47 3.122-6.666 3.347-.14.16-.169.44-.188 2.24l-.028 2.054-1.19.028c-1.153.028-1.2.028-1.388.272-.187.243-.187.29-.187 11.278v11.044l-.713.037C.03 33.356.094 33.094.094 37.275c0 3.384.01 3.516.188 3.694.253.253.778.253 1.031 0 .178-.178.188-.31.188-3.235v-3.047h13.875v11.907H1.5v-1.5c0-1.378-.019-1.519-.188-1.688-.253-.253-.778-.253-1.031 0-.178.178-.188.31-.188 2.157 0 1.978 0 1.978.235 2.203L.554 48H20.56c19.416 0 20.016-.01 20.231-.178.16-.122.216-.272.216-.525 0-.506-.272-.703-.984-.703h-.554V35.916c0-6.366-.037-10.782-.084-10.913-.047-.131-.497-.581-.994-1.012l-.9-.788v-3.806c.01-3.516 0-3.825-.15-4.013-.243-.29-.684-.347-.965-.122l-.235.188-.047 3.29-.046 3.282-.863-.722-.872-.722v-7.641h10.5v33.657h-.562c-.478 0-.61.037-.797.234-.3.29-.3.647 0 .938.215.225.29.234 1.265.234.975 0 1.05-.01 1.266-.234l.234-.225V12.844h.657c.581 0 .694-.028.89-.235.132-.121.235-.309.235-.412 0-.366-1.116-3.338-1.322-3.506-.15-.122-.375-.16-.966-.16h-.769L43.276 5.72c-1.21-2.035-1.735-2.832-1.875-2.86a4.218 4.218 0 0 0-.666-.065l-.469-.028-.047-1.21c-.046-1.181-.056-1.21-.3-1.397-.206-.159-.309-.168-.562-.103-.45.131-.544.394-.544 1.65v1.107h-.778c-.656 0-.816.028-.947.178-.084.093-.787 1.368-1.556 2.83l-1.387 2.663-.797.028c-.675.02-.816.057-.985.235-.234.244-1.237 3.047-1.237 3.44 0 .441.365.657 1.134.657h.647v3.243c0 2.56-.028 3.226-.112 3.17-.066-.038-.994-.807-2.063-1.707l-1.95-1.631v-5.344c0-5.634-.01-5.766-.422-5.925-.084-.028-.619-.056-1.181-.056h-1.022v-2.11c0-2.043-.01-2.109-.206-2.296C25.754 0 25.64 0 21.226 0c-4.425 0-4.519 0-4.763.197zM24.751 3v1.594h-7.125V1.406h7.125V3zm16.565 2.175c.32.534.891 1.5 1.285 2.156l.703 1.2H35.71l.722-1.387c.394-.76.91-1.725 1.134-2.157l.422-.768h2.766l.562.956zM10.782 7.781v2.907H6.094V7.218L8.42 6.056a114.316 114.316 0 0 1 2.344-1.172c.01-.009.019 1.294.019 2.897zm16.594 5.86c0 7.518 0 7.64.187 7.828.253.253.76.243.994-.01.16-.178.188-.393.225-1.93l.047-1.735 4.612 3.872 4.622 3.88V46.595H28.782v-11.1c0-11.081 0-11.09-.197-11.344-.15-.188-.272-.244-.553-.244-.703 0-.656-.9-.656 11.55v11.138H16.782V40.18c0-7.5.103-6.825-1.069-6.881l-.712-.037V6h12.375v7.64zm18.675-2.935l.262.732h-6.76c-5.371 0-6.75-.029-6.721-.122.028-.057.14-.394.253-.75l.216-.629 6.243.02 6.235.027.272.722zM13.595 22.688V33.28H3.282V12.094h10.312v10.594z"/><path d="M17.306 8.54l-.244.188V31.21l.244.188c.31.244.61.253.89.019l.226-.178V8.7l-.225-.178c-.281-.234-.581-.225-.89.019zM20.869 8.54l-.244.188v22.481l.244.188c.403.318.806.243 1.022-.188.206-.394.206-22.087 0-22.481-.216-.431-.62-.506-1.022-.188zM24.302 8.409c-.066.028-.178.169-.253.31-.206.402-.216 22.087 0 22.49.225.44.731.525 1.06.169l.205-.216V8.746L25.1 8.55a.75.75 0 0 0-.797-.141zM31.134 27.62c-.187.243-.197.346-.197 3.73 0 3.385.01 3.497.188 3.694.281.3.769.281 1.022-.037.187-.244.197-.357.197-3.713v-3.46l-.235-.224c-.309-.32-.722-.31-.975.01zM34.595 27.628c-.188.244-.197.347-.17 1.444.03 1.013.057 1.219.207 1.388.235.253.74.262.994.01.169-.17.187-.31.187-1.454s-.018-1.284-.187-1.453a.705.705 0 0 0-1.031.066zM34.603 32.212c-.187.244-.197.357-.197 3.572 0 2.728.028 3.366.14 3.581.217.432.62.507 1.023.188l.243-.188V35.85c0-3.385-.009-3.516-.187-3.694a.7.7 0 0 0-1.022.056zM31.125 36.75c-.169.17-.188.31-.188 1.435s.02 1.265.188 1.453c.281.3.769.281 1.022-.038.178-.225.197-.375.197-1.443 0-1.116-.01-1.2-.216-1.388-.281-.262-.75-.272-1.003-.019zM31.125 41.344c-.169.169-.188.31-.188 1.434 0 1.125.02 1.266.188 1.454.281.3.769.28 1.022-.038.178-.225.197-.375.197-1.444 0-1.115-.01-1.2-.216-1.387-.281-.263-.75-.272-1.003-.019zM34.595 41.41c-.188.244-.197.347-.17 1.444.03 1.012.057 1.218.207 1.387.235.253.74.263.994.01.169-.17.187-.31.187-1.454 0-1.143-.018-1.284-.187-1.453a.705.705 0 0 0-1.031.066zM5.156 14.438c-.112.112-.187.31-.187.515 0 .638.684.938 1.106.488.272-.29.263-.675-.028-.956-.272-.281-.638-.3-.89-.047zM8.027 14.447c-.487.384-.215 1.21.413 1.21s.9-.826.412-1.21c-.14-.113-.318-.197-.412-.197-.094 0-.272.084-.413.197zM10.829 14.484c-.3.29-.31.694-.02.966.45.431 1.098.131 1.098-.497 0-.647-.638-.919-1.078-.469zM5.13 17.606c-.216.235-.206.797.01.985.093.093.327.159.515.159.384 0 .628-.253.628-.656a.889.889 0 0 0-.15-.45c-.188-.263-.778-.29-1.003-.038zM7.931 17.644a.889.889 0 0 0-.15.45c0 .412.244.656.657.656.412 0 .656-.244.656-.656 0-.413-.244-.657-.656-.657-.272 0-.404.057-.507.207zM10.744 17.644a.888.888 0 0 0-.15.45c0 .403.244.656.647.656.44 0 .665-.225.665-.675 0-.412-.234-.637-.684-.637-.244 0-.375.056-.478.206zM5.16 20.719c-.404.403-.122 1.218.421 1.218.328 0 .703-.393.703-.73 0-.563-.73-.882-1.125-.488zM7.968 20.719a.7.7 0 0 0 .056 1.022c.14.112.319.197.413.197.093 0 .272-.085.412-.197.488-.385.216-1.21-.412-1.21a.75.75 0 0 0-.47.188zM10.799 20.747c-.272.29-.263.675.028.956.44.45 1.078.179 1.078-.468 0-.638-.684-.938-1.106-.488zM5.213 23.822c-.188.15-.244.272-.244.544 0 .43.225.665.637.665.628 0 .9-.722.44-1.172-.28-.28-.505-.29-.833-.037zM8.027 23.822c-.487.384-.215 1.21.413 1.21s.9-.826.412-1.21c-.14-.113-.318-.197-.412-.197-.094 0-.272.084-.413.197zM10.827 23.86c-.469.459-.187 1.171.45 1.171.403 0 .628-.243.628-.684 0-.253-.065-.385-.243-.525-.329-.253-.554-.244-.835.037zM5.129 26.981c-.253.282-.207.816.093 1.05.638.497 1.444-.459.872-1.03-.243-.245-.759-.245-.965-.02zM7.968 27a.7.7 0 0 0 .056 1.022c.14.112.319.197.413.197.093 0 .272-.085.412-.197.488-.384.216-1.21-.412-1.21a.75.75 0 0 0-.47.188zM10.78 27c-.57.572.235 1.528.873 1.031.31-.243.356-.815.084-1.059-.234-.216-.731-.197-.956.028zM5.156 30.094c-.112.113-.187.31-.187.516 0 .637.684.937 1.106.487.272-.29.263-.675-.028-.956-.272-.281-.638-.3-.89-.047zM7.985 30.122c-.421.45-.15 1.19.45 1.19.61 0 .891-.778.441-1.2-.281-.262-.637-.262-.89.01zM10.829 30.14c-.3.291-.31.694-.02.966.45.431 1.098.131 1.098-.497 0-.647-.638-.919-1.078-.469zM39.206 15.187a.645.645 0 0 0-.3.329c-.056.15-.093 1.725-.093 3.88 0 3.544.009 3.648.196 3.891a.7.7 0 0 0 1.022.057c.178-.178.188-.31.188-4.022v-3.844l-.244-.188c-.272-.215-.431-.234-.769-.103zM41.878 15.281l-.253.197v3.825c0 4.303-.01 4.228.647 4.228.244 0 .412-.066.534-.197.169-.187.178-.393.178-4.031 0-4.2.02-4.05-.562-4.172-.206-.037-.356 0-.544.15zM41.867 26.119a.706.706 0 0 0-.14.806c.15.29.262.356.618.356.319 0 .684-.347.684-.656 0-.094-.084-.272-.196-.413-.225-.28-.732-.337-.966-.093zM41.821 29.588c-.225.28-.234.393-.103.74.188.506.975.497 1.21-.018.328-.713-.628-1.332-1.107-.722zM41.822 32.963c-.262.328-.243.646.038.928.45.46 1.115.178 1.115-.469 0-.656-.759-.956-1.153-.46zM41.86 36.328c-.281.281-.3.6-.038.928.394.497 1.153.197 1.153-.46 0-.646-.665-.927-1.115-.468zM3.655 37.125a.7.7 0 0 0 .057 1.022c.243.197.337.197 4.725.197 4.387 0 4.48 0 4.725-.197a.7.7 0 0 0 .056-1.022c-.178-.178-.31-.188-4.781-.188-4.472 0-4.603.01-4.782.188zM42.002 39.59c-.132.066-.263.244-.32.423-.065.253-.056.356.104.562.215.29.703.384.937.197.394-.337.32-1.05-.13-1.219-.292-.103-.31-.103-.592.038zM3.657 40.125c-.234.234-.244.666-.01.947l.179.225H13.05l.178-.225c.234-.281.225-.713-.01-.947-.178-.178-.309-.188-4.78-.188-4.473 0-4.604.01-4.782.188zM3.873 42.938c-.394.159-.525.721-.253 1.106l.14.206h9.357l.14-.206a.773.773 0 0 0-.028-.928l-.178-.225-4.49-.02c-2.466-.009-4.575.02-4.688.066zM41.867 43.087a.707.707 0 0 0-.14.807c.15.29.262.356.618.356.319 0 .684-.347.684-.656 0-.094-.084-.272-.196-.413-.225-.281-.732-.337-.966-.093z"/></g></symbol><symbol id="eq" viewBox="0 0 22 30"><path fill="#0057B8" fill-rule="evenodd" d="M1.64 13.058v15.907H.516a.517.517 0 0 0 0 1.035h20.494a.517.517 0 0 0 0-1.035h-.848V13.058h.087a1.554 1.554 0 0 0 1.552-1.552V1.552A1.551 1.551 0 0 0 20.25 0H1.552A1.552 1.552 0 0 0 0 1.552v9.954a1.553 1.553 0 0 0 1.552 1.552h.087zm1.034 15.907V13.058h16.454v15.907H2.674zm15.468-14.482a.517.517 0 0 0-.517-.518H4.177a.517.517 0 0 0-.518.518v13.142c0 .285.232.517.518.517h13.448a.517.517 0 0 0 .517-.517V14.483zM8.744 15h-4.05v12.108h2.773l-.906-8.023a.517.517 0 0 1 .514-.576h7.651a.518.518 0 0 1 .514.576l-.906 8.023h2.774V15h-4.05v1.25a.517.517 0 0 1-.518.516h-1.122v.303a.517.517 0 0 1-1.034 0v-.303H9.26a.517.517 0 0 1-.517-.517V15zm5.036 7.795c-.555.352-1.042.476-1.48.476-.626 0-1.171-.264-1.706-.587-.745-.449-1.472-1.064-2.636-.447l.513 4.543h4.86l.45-3.985zM7.836 21.15c1.127-.465 1.962-.138 2.738.312.323.187.633.4.956.56.255.128.52.224.816.213.424-.016.893-.245 1.485-.786a.501.501 0 0 1 .11-.078l.207-1.828H7.654l.182 1.607zm4.187-6.024v.605H9.778v-.605h2.245zm8.744-6.334H1.034v2.713a.517.517 0 0 0 .518.517H20.25a.517.517 0 0 0 .517-.517V8.793zM17.43 1.034V4.89a.517.517 0 0 1-.517.518H4.889a.517.517 0 0 1-.517-.518V1.034h-2.82a.517.517 0 0 0-.518.518v6.207h19.733V1.552a.518.518 0 0 0-.517-.518h-2.82zm-1.035 0v3.338H5.406V1.034h10.99zM9.808 3.22h2.186a.517.517 0 0 0 0-1.034H9.808a.518.518 0 0 0 0 1.034z" clip-rule="evenodd"/></symbol><symbol id="facebook" viewBox="0 0 24 24"><path fill="#fff" d="M22 12c0-5.52-4.48-10-10-10S2 6.48 2 12c0 4.84 3.44 8.87 8 9.8V15H8v-3h2V9.5C10 7.57 11.57 6 13.5 6H16v3h-2c-.55 0-1 .45-1 1v2h3v3h-3v6.95c5.05-.5 9-4.76 9-9.95z"/></symbol><symbol id="footer-delivery" viewBox="0 0 50 50"><path stroke="#fff" stroke-width="1.5" d="M29.167 36.458v-25c0-.575-.466-1.041-1.042-1.041H5.21c-.576 0-1.042.466-1.042 1.041v25c0 .576.466 1.042 1.042 1.042h3.125m20.833-1.042c0 .576-.466 1.042-1.042 1.042H16.667m12.5-1.042v-18.75c0-.575.466-1.041 1.042-1.041h6.86c.276 0 .541.11.736.305l7.724 7.723c.195.195.305.46.305.737v11.026c0 .576-.467 1.042-1.042 1.042h-3.125m-12.5-1.042c0 .576.466 1.042 1.042 1.042h3.125m-25 0a4.167 4.167 0 1 0 8.333 0m-8.333 0a4.167 4.167 0 1 1 8.333 0m16.667 0a4.167 4.167 0 1 0 8.333 0m-8.333 0a4.167 4.167 0 1 1 8.333 0" opacity=".8"/></symbol><symbol id="footer-learn" viewBox="0 0 50 50"><path stroke="#fff" stroke-linecap="round" stroke-width="1.5" d="M10.417 22.916v11.836c0 1.667.993 3.173 2.525 3.83l10.417 4.464c1.048.45 2.234.45 3.282 0l10.417-4.464a4.167 4.167 0 0 0 2.526-3.83V22.916m6.25-4.167v10.417M3.947 16.776l19.19-9.595a4.167 4.167 0 0 1 3.727 0l19.19 9.595c.767.384.767 1.48 0 1.863l-19.19 9.595a4.167 4.167 0 0 1-3.727 0L3.947 18.64a1.042 1.042 0 0 1 0-1.863z" opacity=".8"/></symbol><symbol id="footer-sale" viewBox="0 0 50 50"><g opacity=".8"><path stroke="#fff" stroke-width="1.5" d="M20.377 8.104c1.175-1 1.763-1.5 2.375-1.794a5.209 5.209 0 0 1 4.494 0c.614.292 1.202.792 2.375 1.794.469.4.702.598.952.764.572.384 1.215.65 1.892.784.293.058.6.083 1.212.133 1.54.12 2.308.183 2.95.41a5.207 5.207 0 0 1 3.177 3.175c.227.644.288 1.413.41 2.95.048.613.073.919.132 1.215.133.675.4 1.319.783 1.89.167.25.367.483.765.951 1 1.175 1.502 1.763 1.796 2.375a5.208 5.208 0 0 1 0 4.494c-.292.613-.794 1.2-1.796 2.375-.273.303-.528.621-.765.952a5.202 5.202 0 0 0-.783 1.89c-.059.296-.084.602-.131 1.214-.123 1.538-.184 2.309-.41 2.95a5.207 5.207 0 0 1-3.178 3.175c-.642.23-1.41.29-2.95.411-.612.05-.917.075-1.212.133-.677.134-1.32.4-1.892.784-.33.237-.648.492-.95.764-1.175 1-1.763 1.5-2.375 1.794a5.21 5.21 0 0 1-4.494 0c-.614-.292-1.202-.792-2.375-1.794a10.98 10.98 0 0 0-.952-.764 5.209 5.209 0 0 0-1.892-.784 10.965 10.965 0 0 0-1.212-.133c-1.54-.12-2.309-.183-2.95-.41a5.207 5.207 0 0 1-3.177-3.175c-.227-.642-.288-1.413-.41-2.95-.021-.407-.065-.813-.132-1.215a5.208 5.208 0 0 0-.783-1.89c-.167-.25-.367-.483-.765-.952-1-1.175-1.502-1.762-1.796-2.375a5.208 5.208 0 0 1 0-4.494c.294-.612.794-1.2 1.796-2.375.398-.468.598-.702.765-.952.383-.571.65-1.214.783-1.89.058-.295.083-.601.131-1.214.123-1.537.184-2.306.41-2.95a5.208 5.208 0 0 1 3.18-3.175c.642-.227 1.41-.29 2.95-.41.612-.05.917-.075 1.212-.133.677-.134 1.32-.4 1.892-.784.25-.166.481-.364.948-.764z"/><path stroke="#fff" stroke-linecap="round" stroke-width="1.5" d="M18.75 31.25l12.5-12.5"/><path fill="#fff" d="M32.29 30.208a2.083 2.083 0 1 1-4.166 0 2.083 2.083 0 0 1 4.166 0zM21.874 19.791a2.083 2.083 0 1 1-4.167 0 2.083 2.083 0 0 1 4.167 0z"/></g></symbol><symbol id="footer-support" viewBox="0 0 50 50"><g fill="#fff" opacity=".8"><path d="M25.188 27.024A15.812 15.812 0 0 0 9.406 42.821a.742.742 0 0 0 .743.743h30.099a.742.742 0 0 0 .742-.743 15.812 15.812 0 0 0-15.802-15.797zM10.891 42.08a14.307 14.307 0 0 1 28.58 0H10.89zM25.004 8a8 8 0 1 0-.008 16 8 8 0 0 0 .008-16zm0 14.694a6.698 6.698 0 1 1-.009-13.396 6.698 6.698 0 0 1 .01 13.396z"/><path d="M13.703 21.287a.743.743 0 0 0 .742-.742v-8.169a.627.627 0 0 0 .065-.109 11.194 11.194 0 0 1 20.792-.079v8.366a11.114 11.114 0 0 1-2.416 3.703.743.743 0 0 0 0 1.05.733.733 0 0 0 .495.213.747.747 0 0 0 .53-.218 12.659 12.659 0 0 0 2.722-4.015h.357a4.95 4.95 0 0 0 0-9.9h-.406a12.668 12.668 0 0 0-23.267 0h-.495a4.95 4.95 0 0 0 0 9.9h.88zm23.089-8.416h.178a3.465 3.465 0 1 1 0 6.93h-.178v-6.93zM9.317 16.337a3.465 3.465 0 0 1 3.465-3.466h.178v6.93h-.178a3.466 3.466 0 0 1-3.465-3.464z"/></g></symbol><symbol id="house" viewBox="0 0 50 50"><path fill="#252525" d="M46.875 41.407h-3.906v-18.84a2.344 2.344 0 0 0-.756-1.723L26.576 6.08a2.344 2.344 0 0 0-3.164.01L7.8 20.834a2.345 2.345 0 0 0-.768 1.733v18.84H3.125a.781.781 0 1 0 0 1.562h43.75a.781.781 0 1 0 0-1.563zM8.594 22.567a.798.798 0 0 1 .265-.586L24.473 7.237a.781.781 0 0 1 1.04 0L41.15 21.998a.782.782 0 0 1 .256.586v18.823H30.47V31.25a2.344 2.344 0 0 0-2.344-2.343h-6.25a2.344 2.344 0 0 0-2.344 2.343v10.157H8.594v-18.84zm20.312 18.84h-7.812V31.25a.781.781 0 0 1 .781-.781h6.25a.781.781 0 0 1 .781.781v10.157z"/></symbol><symbol id="instagram" viewBox="0 0 24 24"><path fill="#fff" d="M13.029 2.001c.73-.003 1.459.005 2.189.022l.194.007c.224.008.445.018.712.03 1.064.05 1.79.218 2.427.465.66.254 1.216.598 1.772 1.154.508.5.901 1.104 1.153 1.771.247.637.415 1.364.465 2.428.012.266.022.488.03.712l.006.194c.017.73.025 1.459.023 2.188v2.056c.003.73-.005 1.46-.022 2.19l-.006.193c-.008.224-.018.445-.03.712-.05 1.064-.22 1.79-.466 2.427a4.884 4.884 0 0 1-1.153 1.772c-.5.509-1.105.902-1.772 1.153-.637.247-1.363.415-2.427.465-.267.012-.488.022-.712.03l-.194.006c-.73.018-1.46.026-2.19.023l-.745.001h-1.31c-.73.003-1.459-.005-2.188-.023l-.194-.006a60.403 60.403 0 0 1-.712-.03c-1.064-.05-1.79-.22-2.428-.466a4.888 4.888 0 0 1-1.771-1.153 4.903 4.903 0 0 1-1.154-1.772c-.247-.637-.415-1.363-.465-2.427a74.175 74.175 0 0 1-.03-.712l-.005-.194c-.019-.73-.027-1.459-.025-2.189v-2.056a78.81 78.81 0 0 1 .022-2.188l.007-.194c.008-.224.018-.446.03-.712.05-1.065.218-1.79.465-2.428A4.88 4.88 0 0 1 3.68 3.68a4.897 4.897 0 0 1 1.77-1.155c.638-.247 1.363-.415 2.428-.465l.712-.03.194-.005A79.05 79.05 0 0 1 10.973 2l2.056.001zm-1.028 5a5 5 0 1 0 0 10 5 5 0 0 0 0-10zm0 2a3 3 0 1 1 0 6 3 3 0 1 1 0-6zm5.25-3.5a1.25 1.25 0 0 0 0 2.498 1.25 1.25 0 0 0 0-2.5v.002z"/></symbol><symbol id="lk" viewBox="0 0 24 24"><circle cx="4" cy="4" r="4" transform="matrix(-1 0 0 1 16 3)"/><path d="M5 16.435c0-.86.54-1.628 1.351-1.917a16.794 16.794 0 0 1 11.298 0A2.036 2.036 0 0 1 19 16.434v2.193a2 2 0 0 1-2.338 1.971l-.1-.017a27 27 0 0 0-9.124 0l-.1.017A2 2 0 0 1 5 18.628v-2.193z"/></symbol><symbol id="lk2" viewBox="0 0 20 20"><circle cx="4" cy="4" r="4" transform="matrix(-1 0 0 1 14 1)"/><path d="M3 14.935c0-.86.54-1.628 1.351-1.918a16.794 16.794 0 0 1 11.298 0A2.036 2.036 0 0 1 17 14.935v1.315c0 1.188-1.052 2.1-2.227 1.932l-.955-.136a27.002 27.002 0 0 0-7.636 0l-.955.136A1.951 1.951 0 0 1 3 16.25v-1.315z"/></symbol><symbol id="main" viewBox="0 0 20 20"><path d="M10.317 18.75C6.956 18.75 2 16.167 2 10.457c0-4.37 2.756-7.518 5.777-8.672.773-.34 5.107-1.657 7.577.212a16.15 16.15 0 0 0-1.956-.493c-.584-.114-1.194-.217-2.119.054-2.61.774-3.826 3.114-3.794 6.294 0 4.756 3.524 7.654 7.134 7.654 1.449 0 2.573-.293 3.356-.813-1.378 2.709-4.14 4.057-7.658 4.057z"/><path fill="#FF671F" d="M16.717 4.39a3.143 3.143 0 0 1-3.14 3.147 3.143 3.143 0 0 1-3.14-3.147 3.143 3.143 0 0 1 3.14-3.147 3.143 3.143 0 0 1 3.14 3.147z"/></symbol><symbol id="man" viewBox="0 0 50 50"><g fill="#252525"><path d="M25.736 26.378c-9.373 0-16.998 7.624-16.998 16.997 0 .413.335.747.748.747h32.496a.747.747 0 0 0 .748-.747c0-9.373-7.624-16.997-16.994-16.997zm9.087 16.25H16.827v-11.93a15.486 15.486 0 0 1 3.816-1.964v6.446c0 .413.334.747.747.747h8.732a.747.747 0 0 0 .747-.747v-6.432c1.43.503 2.763 1.21 3.966 2.087a.749.749 0 0 0-.013.126v11.667zm-5.449-14.321v6.125h-7.236v-6.135a15.49 15.49 0 0 1 7.236.01zm-14.041 3.589v10.732H10.25c.203-4.248 2.126-8.05 5.082-10.732zm20.984 10.732V32.062a15.46 15.46 0 0 1 4.9 10.566h-4.9zM25.451 24.692c5.403 0 9.799-4.394 9.799-9.795 0-5.403-4.396-9.798-9.799-9.798s-9.799 4.395-9.799 9.798c0 5.401 4.396 9.795 9.8 9.795zm0-18.098c3.493 0 6.483 2.17 7.707 5.231-1.316-.589-3.47-1.711-4.85-2.463a.75.75 0 0 0-.677-.02c-.034.016-3.358 1.588-5.517 2.488l-.205.086c-1.608.672-2.65 1.106-4.596 1.33.768-3.79 4.125-6.652 8.138-6.652zm-8.297 8.172c2.37-.234 3.57-.735 5.332-1.47l.204-.086c1.778-.742 4.322-1.926 5.237-2.355 1.137.613 4.5 2.4 5.719 2.76.065.42.109.845.109 1.282 0 4.577-3.725 8.3-8.304 8.3-4.579 0-8.304-3.724-8.304-8.3 0-.043.006-.086.007-.13z"/></g></symbol><symbol id="map" viewBox="0 0 50 41"><g fill="#252525"><path d="M35.813 28.682h-.008a.809.809 0 0 1-.686-.394l-7.677-12.893a.804.804 0 0 1-.056-.112 10.02 10.02 0 0 1-1.462-5.22C25.934 4.511 30.454 0 36.004 0h.012a10.004 10.004 0 0 1 7.122 2.962 10.013 10.013 0 0 1 2.936 7.128c0 1.82-.503 3.61-1.456 5.192a.77.77 0 0 1-.072.15l-8.047 12.871a.812.812 0 0 1-.686.38zm-6.909-13.989l6.926 11.631 7.256-11.606a.782.782 0 0 1 .07-.144 8.45 8.45 0 0 0 1.302-4.484v-.001A8.407 8.407 0 0 0 41.993 4.1a8.404 8.404 0 0 0-5.979-2.486h-.01c-4.661 0-8.457 3.788-8.465 8.45 0 1.59.448 3.142 1.294 4.486.029.044.052.092.071.142z"/><path d="M36.006 13.847h-.009a4.23 4.23 0 0 1-3.013-1.25 4.237 4.237 0 0 1-1.247-3.022 4.232 4.232 0 0 1 1.253-3.012 4.24 4.24 0 0 1 3.012-1.245h.005a4.27 4.27 0 0 1 4.259 4.271 4.235 4.235 0 0 1-1.252 3.014 4.233 4.233 0 0 1-3.008 1.244zm-.004-6.913c-.707 0-1.372.274-1.872.774-.5.499-.777 1.163-.777 1.87-.001.709.274 1.375.774 1.877.5.501 1.165.777 1.872.777h.005c.707 0 1.37-.274 1.87-.772.5-.5.776-1.165.777-1.872a2.654 2.654 0 0 0-2.646-2.654h-.003zM49.193 40.14H.808a.808.808 0 0 1-.743-1.126l8.801-20.592a.808.808 0 0 1 .743-.49h20.767a.807.807 0 1 1 0 1.615H10.142L2.03 38.524h45.938l-7.86-18.389a.808.808 0 1 1 1.485-.635l8.341 19.514a.808.808 0 0 1-.742 1.125z"/><path d="M35.908 39.995a.807.807 0 0 1-.8-.716c-.006-.04-.522-4.014-6.085-4.958-.518-.088-1.343-.168-2.3-.26-5.265-.51-10.068-1.17-10.995-3.633-.597-1.589.276-2.8.977-3.773.768-1.065 1.021-1.53.63-2.198-.25-.423-1.04-.768-1.804-1.101-1.497-.653-3.548-1.547-3.558-3.997a.807.807 0 0 1 .804-.811h.003c.445 0 .806.359.808.804.006 1.303.982 1.822 2.589 2.523 1.002.437 2.037.888 2.551 1.765.961 1.64-.006 2.981-.712 3.96-.662.92-1.054 1.52-.775 2.26.649 1.724 6.72 2.31 9.638 2.594.987.095 1.84.177 2.414.275 6.748 1.145 7.395 6.154 7.42 6.367a.807.807 0 0 1-.805.899z"/></g></symbol><symbol id="menu" viewBox="0 0 20 20"><path d="M19 4H6M19 10H6M19 16H6M3 4H1M3 10H1M3 16H1"/></symbol><symbol id="moskow" viewBox="0 0 48 48"><g fill="#0057B8" fill-rule="evenodd" clip-path="url(#moskow-a)" clip-rule="evenodd"><path d="M23.579-.047h.75a.655.655 0 0 1 .328.375c.016.503.063 1.003.14 1.5A2.944 2.944 0 0 1 26.58 1.5a.439.439 0 0 1 .328.328c.076.325.045.637-.094.938-.41.214-.831.402-1.265.562.154.202.326.39.515.563.36 1.14-.031 1.53-1.172 1.171-.298-.314-.61-.61-.937-.89a16.71 16.71 0 0 1-1.125.984c-.922.203-1.282-.156-1.078-1.078.185-.263.388-.513.61-.75-.435-.16-.857-.348-1.267-.562a1.154 1.154 0 0 1 .047-1.172c.683-.207 1.34-.13 1.97.234.077-.497.124-.997.14-1.5a.656.656 0 0 1 .328-.375z" opacity=".936"/><path d="M47.953 25.078v22.5a1.076 1.076 0 0 1-.375.375H.328a1.076 1.076 0 0 1-.375-.375v-22.5c.287-.35.662-.46 1.125-.328.64.561 1.264 1.14 1.875 1.735.577-.53 1.14-1.077 1.688-1.64.375-.188.75-.188 1.125 0 .058.07.105.148.14.233.047 1.375.063 2.75.047 4.125h2.25c-.015-1.375 0-2.75.047-4.125.143-.282.378-.407.703-.375.2.002.388.049.563.141.548.564 1.11 1.11 1.687 1.64.577-.53 1.14-1.076 1.688-1.64.375-.187.75-.187 1.125 0 .058.07.105.149.14.234.047 2.875.063 5.75.047 8.625h3c-.015-5.375 0-10.75.047-16.125a21.21 21.21 0 0 1 2.625-2.062 893.482 893.482 0 0 0 3.281-9.75c.11-.406.375-.594.797-.562.422-.032.688.156.797.562a893.482 893.482 0 0 0 3.281 9.75c.934.622 1.809 1.31 2.625 2.062.047 5.375.063 10.75.047 16.125h3c-.016-2.875 0-5.75.047-8.625.143-.282.378-.407.703-.375.2.002.388.049.563.141.548.564 1.11 1.11 1.687 1.64.577-.53 1.14-1.076 1.688-1.64.375-.187.75-.187 1.125 0 .058.07.105.149.14.234.047 1.375.063 2.75.047 4.125h2.25c-.016-1.375 0-2.75.047-4.125.143-.282.378-.407.703-.375.2.002.388.049.563.141.548.564 1.11 1.11 1.687 1.64a48.903 48.903 0 0 1 1.875-1.734c.464-.131.839-.022 1.125.328zM23.86 8.672c.094-.003.156.044.188.14.7 2.134 1.42 4.26 2.156 6.376-.739.385-1.489.744-2.25 1.078-.76-.333-1.51-.693-2.25-1.078a158.743 158.743 0 0 0 2.156-6.516zm-2.156 8.344c.634.27 1.26.567 1.875.89.25.063.5.063.75 0l1.781-.89c.094 1.311.125 2.624.094 3.938h-4.5v-3.938zm-1.594.281a35.69 35.69 0 0 1 .094 3.656h-1.5c-.031-.877 0-1.752.094-2.625.444-.345.881-.689 1.312-1.03zm7.594 0c.483.32.951.664 1.406 1.031.094.873.125 1.748.094 2.625h-1.5v-3.656zm-9 5.156h10.5v11.25h-10.5v-11.25zm4.594 3.094c1.357-.204 2.28.327 2.765 1.594.222 1.323-.293 2.213-1.546 2.672-1.323.222-2.213-.294-2.672-1.547-.204-1.281.28-2.187 1.453-2.719zM1.453 27.422c.325.278.637.575.938.89.375.188.75.188 1.125 0l.89-.89c.004 1.04.067 2.072.188 3.094.07.059.148.106.234.14 1.5.063 3 .063 4.5 0a.887.887 0 0 0 .235-.14c.12-1.022.183-2.053.187-3.094l.89.89c.376.188.75.188 1.126 0l.89-.89c.047 6.344.063 12.688.047 19.031H1.453v-19.03zm33.75 0c.325.278.637.575.938.89.375.188.75.188 1.125 0l.89-.89c.004 1.04.067 2.072.188 3.094.07.059.148.106.234.14 1.5.063 3 .063 4.5 0a.887.887 0 0 0 .234-.14c.121-1.022.184-2.053.188-3.094l.89.89c.376.188.75.188 1.126 0l.89-.89c.047 6.344.063 12.688.047 19.031h-11.25v-19.03zm-21 7.781h19.5v11.25h-4.5c.016-1.594 0-3.187-.047-4.78-1.005-3.278-3.208-4.637-6.61-4.079-2.02.652-3.287 2.011-3.796 4.078-.047 1.594-.063 3.188-.047 4.782h-4.5v-11.25zm9 3.844c2.628-.164 4.112 1.055 4.453 3.657.047 1.25.063 2.5.047 3.75h-7.5c-.015-1.25 0-2.5.047-3.75.145-1.91 1.13-3.129 2.953-3.657z" opacity=".982"/><path d="M23.11 23.953c2.14-.277 3.625.567 4.454 2.53.536 2.288-.261 3.898-2.39 4.829-2.288.536-3.898-.26-4.829-2.39-.523-2.487.4-4.143 2.766-4.97zm.188 1.593c-1.172.532-1.656 1.438-1.453 2.72.459 1.252 1.35 1.768 2.672 1.546 1.253-.459 1.769-1.35 1.547-2.672-.486-1.267-1.408-1.798-2.766-1.594z" opacity=".927"/></g></symbol><symbol id="next" viewBox="0 0 8 14"><path d="M1 13l5-6-5-6"/></symbol><symbol id="pen" viewBox="0 0 50 50"><g fill="#252525"><path d="M5.674 42.62c.001.005.004.01.005.017.01.047.025.093.044.138l.022.043c.018.036.039.07.063.102l.03.04a.672.672 0 0 0 .098.093c.008.006.013.014.02.019l.006.002c.002.002.004.005.007.006.039.028.081.043.124.061.024.011.046.028.072.036a.715.715 0 0 0 .218.034h.002c.08 0 .157-.017.232-.043.01-.004.02-.002.03-.006L17.34 38.98a.722.722 0 0 0 .456-.619l.373-5.059.01-.008L36.014 7.656a.72.72 0 0 0-.18-1.004l-5.662-3.934a.722.722 0 0 0-1.003.18L11.34 28.534l-.012.02-4.465 2.129a.72.72 0 0 0-.41.6L5.665 42.44l.001.014a.708.708 0 0 0 .01.165zM29.942 4.312l4.477 3.112-17.013 24.452-4.47-3.112L29.942 4.313zM11.966 29.848l4.767 3.318-.342 4.635-8.039 3.145L11.13 37a.721.721 0 0 0-1.18-.83l-2.663 3.784.577-8.152 4.103-1.955zM46.778 45.528H2.522a.72.72 0 1 0 0 1.442h44.256a.72.72 0 1 0 0-1.442zM36.426 36.843c.361 1.782-.134 2.884-.413 2.942-.106.02-.364-.095-.674-.502-.378-.495-.688-1.24-.85-2.046a.589.589 0 0 0-.008-.034c-.49-2.339-1.874-3.891-3.213-3.619-1.216.247-1.87 1.878-1.65 3.922a.718.718 0 0 0 .009.21c.436 2.16-.105 3.761-.654 3.874-.258.053-.653-.22-1.012-.691-.478-.627-.872-1.56-1.084-2.566l-.005-.029c-.576-2.853-2.212-4.764-3.81-4.44-1.587.323-2.352 2.718-1.778 5.57a.721.721 0 1 0 1.414-.284c-.435-2.16.105-3.761.651-3.873.546-.117 1.654 1.132 2.098 3.257l.005.03c.255 1.253.738 2.393 1.362 3.21.63.827 1.36 1.266 2.086 1.266.12 0 .24-.012.36-.036 1.46-.297 2.221-2.34 1.893-4.877a.707.707 0 0 0-.01-.186c-.36-1.784.132-2.885.411-2.943.284-.064 1.164.767 1.525 2.548l.008.033c.21 1.005.602 1.92 1.106 2.58.534.7 1.159 1.072 1.788 1.072.107 0 .214-.01.32-.032 1.352-.277 2.012-2.256 1.545-4.61l-.001-.012c-.189-.923-.013-1.564.116-1.744.19.113.593.624.784 1.563a.95.95 0 0 0 .016.066c.154.709.434 1.355.793 1.827.408.538.913.83 1.417.83a1.3 1.3 0 0 0 .259-.026c1.081-.22 1.603-1.68 1.238-3.469a.721.721 0 1 0-1.413.287c.188.926.012 1.566-.116 1.746-.19-.115-.592-.627-.782-1.564a.937.937 0 0 0-.016-.067c-.38-1.743-1.41-2.85-2.475-2.629-1.073.22-1.592 1.665-1.24 3.438v.008z"/></g></symbol><symbol id="phone" viewBox="0 0 20 20"><g clip-path="url(#phone-a)"><path fill="#fff" d="M17.5 13.683v2.947a.833.833 0 0 1-.775.832c-.364.025-.662.038-.892.038C8.47 17.5 2.5 11.53 2.5 4.167c0-.23.013-.528.038-.892A.833.833 0 0 1 3.37 2.5h2.947a.417.417 0 0 1 .415.375c.019.192.036.344.053.46.166 1.156.505 2.28 1.007 3.334a.38.38 0 0 1-.123.473L5.871 8.427a10.872 10.872 0 0 0 5.703 5.703l1.284-1.795a.385.385 0 0 1 .477-.124c1.054.5 2.178.84 3.333 1.004.116.017.269.035.459.053a.417.417 0 0 1 .374.415H17.5z"/></g></symbol><symbol id="place" viewBox="0 0 20 20"><g clip-path="url(#place-a)"><path fill="#fff" d="M10 19.774L4.697 14.47a7.5 7.5 0 1 1 10.606 0L10 19.774zm4.125-6.482a5.833 5.833 0 1 0-8.25 0L10 17.417l4.125-4.125zM10 10.834A1.667 1.667 0 1 1 10 7.5a1.667 1.667 0 0 1 0 3.334z"/></g></symbol><symbol id="play-hov" viewBox="0 0 80 80"><g filter="url(#play-hov-a)"><rect width="60" height="60" x="10" y="8" fill="#FF671F" rx="7"/><path fill="#fff" d="M52 38L34 48.392V27.608L52 38z"/></g></symbol><symbol id="play" viewBox="0 0 80 80"><g filter="url(#play-a)"><rect width="60" height="60" x="10" y="8" fill="#fff" rx="7"/><path fill="#FF671F" d="M52 38L34 48.392V27.608L52 38z"/></g></symbol><symbol id="prev" viewBox="0 0 8 14"><path d="M7 13L2 7l5-6"/></symbol><symbol id="question" viewBox="0 0 24 24"><path stroke="currentColor" stroke-linecap="round" stroke-linejoin="round" stroke-width="2" d="M12 22c5.523 0 10-4.477 10-10S17.523 2 12 2 2 6.477 2 12s4.477 10 10 10z"/><path stroke="currentColor" stroke-linecap="round" stroke-linejoin="round" stroke-width="2" d="M9.09 9a3 3 0 0 1 5.83 1c0 2-3 3-3 3M12 16v.5"/></symbol><symbol id="quote" viewBox="0 0 24 30"><path fill="#252525" d="M0 15L11.39 0h1.708L1.708 15l11.39 15H11.39L0 15zm10.902 0l11.39-15H24L12.61 15 24 30h-1.709l-11.39-15z"/></symbol><symbol id="sankt" viewBox="0 0 48 48"><g fill="#0057B8" fill-rule="evenodd" clip-path="url(#sankt-a)" clip-rule="evenodd"><path d="M47.953 17.953V34.64a2.555 2.555 0 0 1-.469.328c-3.937.063-7.875.063-11.812 0-.597-.431-1.222-.494-1.875-.187l-1.688 1.031c-.937.438-1.875.438-2.812 0a30.34 30.34 0 0 0-1.969-1.125c-.25-.062-.5-.062-.75 0-.671.352-1.328.727-1.969 1.125-1.485.534-2.829.284-4.03-.75a1.814 1.814 0 0 0-1.5-.375c-.797.414-1.579.852-2.345 1.313-.74.266-1.49.297-2.25.093l-2.53-1.03-11.532-.095a2.558 2.558 0 0 1-.469-.328V17.953c.438-1.328 1.344-2.156 2.719-2.484l6.937-.094a699.606 699.606 0 0 1 6.704-3.797 133.618 133.618 0 0 0-3.188-5.813c-.32.207-.664.363-1.031.47-.757-.24-.944-.708-.563-1.407.29-.137.555-.309.797-.516a3.226 3.226 0 0 1-.797-1.828c.417-.675.917-.738 1.5-.187.216.432.466.839.75 1.218.28-.202.593-.327.938-.375.762.15.98.587.656 1.313-.274.207-.57.38-.89.516l3.328 5.765c.31-.194.637-.35.984-.469.216.067.42.161.61.282l2.905 5.062c.328.472.312.925-.046 1.36a172.85 172.85 0 0 0-5.625 3.843 14.665 14.665 0 0 0-3.797 5.11c-.078 2.594-.063 5.188.047 7.78.843.407 1.718.72 2.625.938.227-.008.445-.055.656-.14.663-.444 1.35-.85 2.062-1.219a3.286 3.286 0 0 1 2.438 0c.546.289 1.078.601 1.594.938.47.328.97.39 1.5.187a30.434 30.434 0 0 1 1.968-1.125 3.286 3.286 0 0 1 2.438 0c.546.289 1.078.601 1.594.938.47.328.97.39 1.5.187.744-.458 1.51-.88 2.297-1.266a3.049 3.049 0 0 1 1.64-.093c.016-2.313 0-4.626-.047-6.938a14.772 14.772 0 0 0-3.89-5.297 172.85 172.85 0 0 0-5.625-3.844c-.359-.434-.374-.887-.047-1.359l2.906-5.062c.19-.12.393-.215.61-.282.346.12.674.275.984.47 1.11-1.923 2.218-3.845 3.328-5.766a4.193 4.193 0 0 1-.89-.516c-.325-.726-.107-1.164.656-1.313.344.048.656.173.937.375.339-.473.667-.957.984-1.453.707-.326 1.144-.107 1.313.657a5.953 5.953 0 0 1-.844 1.593c.242.207.507.379.797.516.382.699.194 1.167-.563 1.406a3.848 3.848 0 0 1-1.03-.469l-3.235 5.72a353.55 353.55 0 0 0 6.75 3.89l6.937.094c1.375.328 2.282 1.156 2.72 2.484zm-29.625-5.719a.268.268 0 0 1 .235.094l.609 1.031a339.51 339.51 0 0 1-6.563 3.797.234.234 0 0 1-.28 0 3.826 3.826 0 0 0-.75-.984l6.75-3.938zm11.063 0a371.275 371.275 0 0 1 6.843 3.844c.096.047.112.11.047.187-.29.255-.525.552-.703.891a92.337 92.337 0 0 1-6.844-3.797l.657-1.125zm-9.563 2.625a.268.268 0 0 1 .235.094c.215.352.418.711.609 1.078l-4.875 3.375a15.39 15.39 0 0 0-3.047 3.328 26.316 26.316 0 0 1 .047-3.844 378.934 378.934 0 0 0 7.031-4.03zm8.063 0a413.188 413.188 0 0 1 7.218 4.031c.11 1.28.125 2.562.047 3.844a15.386 15.386 0 0 0-3.047-3.328l-4.875-3.375c.208-.4.427-.791.657-1.172zM2.859 17.015c2.313-.015 4.626 0 6.938.047.822.283 1.275.86 1.36 1.735.046 4.875.062 9.75.046 14.625h-9.75c-.016-4.875 0-9.75.047-14.625.095-.882.548-1.476 1.36-1.782zm35.25 0c2.313-.015 4.626 0 6.938.047.822.283 1.275.86 1.36 1.735.046 4.875.062 9.75.046 14.625h-9.75c-.016-4.875 0-9.75.047-14.625.095-.882.548-1.476 1.36-1.782z" opacity=".947"/><path d="M47.953 39.422v.75a2.11 2.11 0 0 1-1.125.703 4.584 4.584 0 0 1-2.531-.094 20.205 20.205 0 0 1-1.594-.937c-.5-.188-1-.188-1.5 0-.516.336-1.047.648-1.594.937a4.336 4.336 0 0 1-2.812 0 20.205 20.205 0 0 1-1.594-.937c-.5-.188-1-.188-1.5 0-.516.336-1.047.648-1.594.937a4.336 4.336 0 0 1-2.812 0 20.205 20.205 0 0 1-1.594-.937c-.5-.188-1-.188-1.5 0-.516.336-1.047.648-1.594.937a4.336 4.336 0 0 1-2.812 0 20.205 20.205 0 0 1-1.594-.937c-.5-.188-1-.188-1.5 0-.516.336-1.047.648-1.594.937a4.336 4.336 0 0 1-2.812 0 20.205 20.205 0 0 1-1.594-.937c-.5-.188-1-.188-1.5 0-.516.336-1.047.648-1.594.937a4.336 4.336 0 0 1-2.812 0 20.213 20.213 0 0 1-1.594-.937c-.5-.188-1-.188-1.5 0a58.72 58.72 0 0 1-2.719 1.593c-.414.105-.758-.004-1.03-.328v-.843a27.177 27.177 0 0 1 3.187-1.922 3.793 3.793 0 0 1 2.625 0l1.875 1.031c.375.063.75.063 1.125 0l1.875-1.031a3.793 3.793 0 0 1 2.625 0l1.875 1.031c.375.063.75.063 1.125 0l1.875-1.031a3.793 3.793 0 0 1 2.625 0l1.875 1.031c.375.063.75.063 1.125 0l1.875-1.031a3.793 3.793 0 0 1 2.625 0l1.875 1.031c.375.063.75.063 1.125 0l1.875-1.031a3.793 3.793 0 0 1 2.625 0l1.875 1.031c.375.063.75.063 1.125 0l1.875-1.031a3.793 3.793 0 0 1 2.625 0l1.875 1.031c.375.063.75.063 1.125 0a1.56 1.56 0 0 1 1.312-.281.655.655 0 0 1 .375.328zM47.953 43.922v.75a2.11 2.11 0 0 1-1.125.703 4.584 4.584 0 0 1-2.531-.094 20.205 20.205 0 0 1-1.594-.937c-.5-.188-1-.188-1.5 0-.516.336-1.047.648-1.594.937a4.336 4.336 0 0 1-2.812 0 20.205 20.205 0 0 1-1.594-.937c-.5-.188-1-.188-1.5 0-.516.336-1.047.648-1.594.937a4.336 4.336 0 0 1-2.812 0 20.205 20.205 0 0 1-1.594-.937c-.5-.188-1-.188-1.5 0-.516.336-1.047.648-1.594.937a4.336 4.336 0 0 1-2.812 0 20.205 20.205 0 0 1-1.594-.937c-.5-.188-1-.188-1.5 0-.516.336-1.047.648-1.594.937a4.336 4.336 0 0 1-2.812 0 20.205 20.205 0 0 1-1.594-.937c-.5-.188-1-.188-1.5 0-.516.336-1.047.648-1.594.937a4.336 4.336 0 0 1-2.812 0 20.213 20.213 0 0 1-1.594-.937c-.5-.188-1-.188-1.5 0a58.72 58.72 0 0 1-2.719 1.593c-.414.105-.758-.004-1.03-.328v-.843a27.177 27.177 0 0 1 3.187-1.922 3.793 3.793 0 0 1 2.625 0l1.875 1.031c.375.063.75.063 1.125 0l1.875-1.031a3.793 3.793 0 0 1 2.625 0l1.875 1.031c.375.063.75.063 1.125 0l1.875-1.031a3.793 3.793 0 0 1 2.625 0l1.875 1.031c.375.063.75.063 1.125 0l1.875-1.031a3.793 3.793 0 0 1 2.625 0l1.875 1.031c.375.063.75.063 1.125 0l1.875-1.031a3.793 3.793 0 0 1 2.625 0l1.875 1.031c.375.063.75.063 1.125 0l1.875-1.031a3.793 3.793 0 0 1 2.625 0l1.875 1.031c.375.063.75.063 1.125 0a1.56 1.56 0 0 1 1.312-.281.655.655 0 0 1 .375.328z" opacity=".931"/></g></symbol><symbol id="search" viewBox="0 0 50 50"><path d="M21 3C11.602 3 4 10.602 4 20s7.602 17 17 17c3.355 0 6.46-.984 9.094-2.656l12.281 12.281 4.25-4.25L34.5 30.281C36.68 27.421 38 23.88 38 20c0-9.398-7.602-17-17-17zm0 4c7.2 0 13 5.8 13 13s-5.8 13-13 13S8 27.2 8 20 13.8 7 21 7z"/></symbol><symbol id="send" viewBox="0 0 22 23"><path fill="#fff" d="M.417 8.174c-.55-.183-.555-.479.011-.667L20.518.81c.557-.186.876.126.72.671l-5.74 20.09c-.159.557-.48.576-.715.048L11 13.105l6.316-8.42L8.893 11 .417 8.174z"/></symbol><symbol id="share" viewBox="0 0 20 20"><path stroke="currentColor" stroke-linecap="round" stroke-linejoin="round" stroke-width="2" d="M15 6.667a2.5 2.5 0 1 0 0-5 2.5 2.5 0 0 0 0 5zM5 12.5a2.5 2.5 0 1 0 0-5 2.5 2.5 0 0 0 0 5zM15 18.333a2.5 2.5 0 1 0 0-5 2.5 2.5 0 0 0 0 5zM7.158 11.258l5.692 3.317M12.841 5.425L7.159 8.742"/></symbol><symbol id="shield" viewBox="0 0 40 40"><g stroke="#252525" stroke-width="1.5"><path d="M5.96 8.965c0-.728.474-1.372 1.168-1.59L19.497 3.49c.325-.102.673-.102.998 0l12.369 3.884a1.667 1.667 0 0 1 1.167 1.59V19.21c0 6.18-3.42 11.854-8.887 14.74l-4.37 2.306a1.666 1.666 0 0 1-1.556 0l-4.37-2.306a16.667 16.667 0 0 1-8.887-14.74V8.965z"/><path stroke-linecap="round" stroke-linejoin="round" d="M15.612 19l3.51 3.334 7.017-6.667"/></g></symbol><symbol id="sout" viewBox="0 0 40 40"><path fill="transparent" stroke="currentColor" stroke-width="1.5" d="M20 23.09a4.636 4.636 0 1 0 0-9.272 4.636 4.636 0 0 0 0 9.273zm0 0a7.727 7.727 0 0 0-7.727 7.728M20 23.091a7.727 7.727 0 0 1 7.727 7.727M15.364 37h9.272c4.328 0 6.492 0 8.145-.842a7.728 7.728 0 0 0 3.377-3.377C37 31.128 37 28.964 37 24.636v-9.272c0-4.328 0-6.492-.842-8.145a7.728 7.728 0 0 0-3.377-3.377C31.128 3 28.964 3 24.636 3h-9.272c-4.328 0-6.492 0-8.145.842A7.727 7.727 0 0 0 3.842 7.22C3 8.872 3 11.036 3 15.364v9.272c0 4.328 0 6.492.842 8.145a7.728 7.728 0 0 0 3.377 3.377C8.872 37 11.036 37 15.364 37zm-1.237-6.182h11.746c1.73 0 2.596 0 3.258-.337a3.09 3.09 0 0 0 1.35-1.35c.337-.662.337-1.527.337-3.258V14.127c0-1.73 0-2.596-.337-3.258a3.09 3.09 0 0 0-1.35-1.35c-.662-.337-1.527-.337-3.258-.337H14.127c-1.73 0-2.596 0-3.258.337a3.09 3.09 0 0 0-1.35 1.35c-.337.662-.337 1.527-.337 3.258v11.746c0 1.73 0 2.596.337 3.258a3.09 3.09 0 0 0 1.35 1.35c.662.337 1.527.337 3.258.337z"/></symbol><symbol id="truck" viewBox="0 0 50 50"><path stroke="#222" stroke-width="1.5" d="M29.167 36.458v-25c0-.575-.467-1.041-1.042-1.041H5.208c-.575 0-1.041.466-1.041 1.041v25c0 .576.466 1.042 1.041 1.042h3.125m20.834-1.042c0 .576-.467 1.042-1.042 1.042H16.667m12.5-1.042v-18.75c0-.575.466-1.041 1.041-1.041h6.86c.277 0 .542.11.737.305l7.723 7.723c.196.195.305.46.305.737v11.026c0 .576-.466 1.042-1.041 1.042h-3.125m-12.5-1.042c0 .576.466 1.042 1.041 1.042h3.125m-25 0a4.167 4.167 0 0 0 8.334 0m-8.334 0a4.167 4.167 0 1 1 8.334 0m16.666 0a4.167 4.167 0 0 0 8.334 0m-8.334 0a4.167 4.167 0 0 1 8.334 0"/></symbol><symbol id="u-1" viewBox="0 0 49 49"><path stroke="#fff" stroke-linejoin="round" stroke-width="1.5" d="M4.082 12.589v23.153a1 1 0 0 0 .615.923l19.802 8.25M4.082 12.59L23.73 4.403a2 2 0 0 1 1.538 0l9.439 3.933M4.082 12.588l10.208 4.253M24.5 21.096v23.82m0-23.82l20.416-8.507M24.5 21.096L14.29 16.842M24.5 44.915l19.801-8.25a1 1 0 0 0 .615-.923V12.589m0 0L34.707 8.335M14.29 16.843l20.417-8.506"/></symbol><symbol id="u-2" viewBox="0 0 50 50"><circle cx="7.092" cy="7.092" r="7.092" stroke="#fff" stroke-width="1.5" transform="matrix(-1 0 0 1 32.54 10.416)"/><path stroke="#fff" stroke-width="1.5" d="M13.035 35.123a3.61 3.61 0 0 1 2.396-3.4 29.779 29.779 0 0 1 20.031 0 3.61 3.61 0 0 1 2.396 3.4v4.015a2 2 0 0 1-2.283 1.98l-6.31-.901a27.002 27.002 0 0 0-7.637 0l-6.31.901a2 2 0 0 1-2.283-1.98v-4.015z"/><path stroke="#fff" stroke-linecap="round" stroke-width="1.5" d="M36.084 24.797a5.572 5.572 0 1 0 0-11.145M42.186 37.51l.546.077a2.718 2.718 0 0 0 3.103-2.69v-1.834a2.836 2.836 0 0 0-1.882-2.67 23.402 23.402 0 0 0-3.437-.94M13.881 24.797a5.572 5.572 0 0 1 0-11.145M7.779 37.51l-.546.077a2.718 2.718 0 0 1-3.103-2.69v-1.834c0-1.198.754-2.267 1.882-2.67a23.401 23.401 0 0 1 3.437-.94"/></symbol><symbol id="u-3" viewBox="0 0 49 49"><circle cx="6.125" cy="6.125" r="6.125" stroke="#fff" stroke-width="1.5" transform="matrix(-1 0 0 1 30.625 18.375)"/><path fill="#fff" d="M33.688 10.078l.375-.65-.375.65zm0 28.84l-.375-.649.375.65zm-18.375 0l.375-.649-.375.65zm0-28.84l.375.65-.375-.65zm3.01-4.5l.743.1-.743-.1zM5.388 19.366l-.41.628.41-.628zm-.38-.954l-.717-.223.716.223zm5.277 20.01l.24.71-.24-.71zm-.906-.207l.555-.504-.555.504zm9.531 5.925l-.205.722.205-.722zm-.587-.721l-.744.099.744-.099zm12.355 0l.744.1-.744-.1zm-.587.722l.204.721-.204-.721zm9.533-5.925l.555.504-.555-.504zm-.906.206l.24-.71-.24.71zm5.278-20.007l.716-.223-.716.223zM5.388 29.63l.41.628-.41-.628zm33.33-19.056l-.241-.71.24.71zm.905.207l-.555.504.555-.504zm-30.244 0l.556.505-.556-.505zm.906-.206l.24-.71-.24.71zm33.33 19.056l-.41.628.41-.628zm.38.954l.717.223-.716-.223zM30.679 5.578l.744-.1-.744.1zm-.587-.722l-.205.722.205-.722zm-.156.82a6.865 6.865 0 0 0 3.378 5.052l.75-1.3a5.365 5.365 0 0 1-2.641-3.95l-1.487.199zm3.378 5.052a6.86 6.86 0 0 0 5.645.557l-.481-1.42a5.36 5.36 0 0 1-4.414-.436l-.75 1.299zm11.4 7.464a21.14 21.14 0 0 0-4.534-7.915l-1.11 1.008a19.641 19.641 0 0 1 4.211 7.353l1.432-.447zM41.585 24.5a5.37 5.37 0 0 1 2.44-4.504l-.82-1.256a6.87 6.87 0 0 0-3.12 5.76h1.5zm2.44 4.503a5.37 5.37 0 0 1-2.44-4.503h-1.5a6.87 6.87 0 0 0 3.12 5.76l.82-1.257zm-3.847 9.717a21.142 21.142 0 0 0 4.533-7.912l-1.432-.446a19.642 19.642 0 0 1-4.211 7.35l1.11 1.008zm-6.116.848a5.36 5.36 0 0 1 4.414-.435l.481-1.421a6.86 6.86 0 0 0-5.645.557l.75 1.3zm-2.642 3.95a5.365 5.365 0 0 1 2.642-3.95l-.75-1.299a6.865 6.865 0 0 0-3.378 5.052l1.487.197zm-6.92 2.147c2.008 0 3.952-.28 5.794-.803l-.41-1.443a19.68 19.68 0 0 1-5.383.746v1.5zm-5.796-.803c1.843.523 3.788.803 5.797.803v-1.5a19.68 19.68 0 0 1-5.387-.746l-.41 1.443zm-3.767-5.294a5.365 5.365 0 0 1 2.641 3.95l1.487-.198a6.865 6.865 0 0 0-3.378-5.051l-.75 1.3zm-4.413-.436a5.36 5.36 0 0 1 4.413.436l.75-1.299a6.86 6.86 0 0 0-5.644-.557l.481 1.42zm-6.234-8.325a21.142 21.142 0 0 0 4.532 7.912l1.111-1.008a19.641 19.641 0 0 1-4.21-7.35l-1.433.446zm3.127-6.309a5.37 5.37 0 0 1-2.44 4.504l.82 1.256a6.87 6.87 0 0 0 3.12-5.76h-1.5zm-2.44-4.504a5.37 5.37 0 0 1 2.44 4.504h1.5a6.87 6.87 0 0 0-3.12-5.76l-.82 1.256zm3.846-9.716a21.141 21.141 0 0 0-4.533 7.911l1.432.447c.861-2.76 2.314-5.26 4.212-7.35l-1.111-1.008zm6.114-.85a5.36 5.36 0 0 1-4.413.436l-.48 1.421a6.86 6.86 0 0 0 5.643-.557l-.75-1.3zm2.641-3.949a5.365 5.365 0 0 1-2.641 3.95l.75 1.299a6.865 6.865 0 0 0 3.378-5.05l-1.487-.199zm6.923-2.147c-2.01 0-3.954.28-5.797.804l.41 1.443a19.68 19.68 0 0 1 5.387-.747v-1.5zm5.794.803a21.18 21.18 0 0 0-5.794-.803v1.5c1.868 0 3.674.26 5.384.746l.41-1.443zm-11.23 1.542a.176.176 0 0 1 .033-.084.063.063 0 0 1 .013-.013.01.01 0 0 1 .003-.001l-.41-1.443c-.66.187-1.049.765-1.126 1.343l1.487.198zM5.798 18.738a.184.184 0 0 1-.07-.079.064.064 0 0 1-.005-.02v-.003l-1.432-.447c-.23.74.14 1.448.687 1.805l.82-1.256zm4.246 18.974a.177.177 0 0 1-.09.007.066.066 0 0 1-.017-.005.01.01 0 0 1-.003-.003l-1.11 1.008c.46.507 1.149.6 1.701.413l-.48-1.42zm9.071 5.707l-.003-.002a.064.064 0 0 1-.013-.013.176.176 0 0 1-.033-.084l-1.487.198c.077.578.467 1.156 1.126 1.344l.41-1.443zm10.82-.098a.176.176 0 0 1-.033.084.062.062 0 0 1-.013.013.01.01 0 0 1-.003.002l.41 1.442c.66-.187 1.049-.765 1.126-1.344l-1.487-.197zm9.134-5.61l-.003.003a.065.065 0 0 1-.018.006.175.175 0 0 1-.09-.008l-.48 1.42c.551.188 1.241.095 1.701-.412l-1.11-1.008zm4.211-19.073v.004c0 .002 0 .01-.005.02a.184.184 0 0 1-.07.078l.821 1.256c.546-.356.917-1.065.686-1.804l-1.432.446zM5.723 30.361v-.004c0-.003 0-.01.005-.02a.184.184 0 0 1 .07-.079l-.82-1.256c-.546.357-.918 1.065-.687 1.805l1.432-.446zm33.235-19.076a.176.176 0 0 1 .09-.008c.01.002.015.005.017.006.002 0 .003.001.003.002l1.11-1.008c-.46-.507-1.149-.6-1.701-.413l.48 1.42zm-29.023 0l.003-.002a.064.064 0 0 1 .017-.005.175.175 0 0 1 .09.007l.48-1.42c-.552-.187-1.241-.094-1.701.412l1.11 1.009zm33.27 18.974c.038.025.06.056.07.079a.06.06 0 0 1 .005.02v.004l1.432.446c.23-.74-.14-1.448-.686-1.805l-.82 1.256zM31.422 5.48c-.077-.579-.467-1.157-1.126-1.344l-.41 1.443.003.002a.062.062 0 0 1 .013.012.176.176 0 0 1 .033.085l1.487-.198z"/></symbol><symbol id="u-4" viewBox="0 0 49 49"><path stroke="#fff" stroke-width="1.5" d="M23.473 3.751a1.2 1.2 0 0 1 2.056 0l6.102 10.14a1.2 1.2 0 0 0 .758.55l11.529 2.67a1.2 1.2 0 0 1 .635 1.956l-7.757 8.937a1.2 1.2 0 0 0-.29.89l1.024 11.79a1.2 1.2 0 0 1-1.664 1.209l-10.897-4.617a1.2 1.2 0 0 0-.936 0l-10.896 4.617a1.2 1.2 0 0 1-1.664-1.209l1.023-11.79a1.2 1.2 0 0 0-.29-.89L4.45 19.067a1.2 1.2 0 0 1 .636-1.956l11.529-2.67a1.2 1.2 0 0 0 .757-.55l6.102-10.14z"/></symbol><symbol id="u-5" viewBox="0 0 49 49"><path stroke="#fff" stroke-linecap="round" stroke-width="1.5" d="M30.626 5.103v9.229a2 2 0 0 0 2 2h7.188m-23.48 8.167h16.334M16.335 34.707H24.5M29.69 4.082a2 2 0 0 1 1.537.72l9.145 10.974a2 2 0 0 1 .464 1.28v23.86a4 4 0 0 1-4 4H12.168a4 4 0 0 1-4-4V8.081a4 4 0 0 1 4-4h17.521z"/></symbol><symbol id="vedomost" viewBox="0 0 40 40"><path fill="currentColor" d="M13.334 24.25a.75.75 0 1 0 0 1.5v-1.5zm3.333 1.5a.75.75 0 0 0 0-1.5v1.5zm-3.333-8.167a.75.75 0 1 0 0 1.5v-1.5zm10 1.5a.75.75 0 0 0 0-1.5v1.5zm-10-8.166a.75.75 0 1 0 0 1.5v-1.5zm10 1.5a.75.75 0 0 0 0-1.5v1.5zM29.25 15a.75.75 0 0 0 1.5 0h-1.5zM15 35.75a.75.75 0 0 0 0-1.5v1.5zm-6.536-1.125l.345-.666-.345.666zm-1.422-1.422l-.665.346.665-.346zM28.204 5.375l-.346.666.346-.666zm1.421 1.422l-.666.345.666-.345zM8.464 5.375l-.346-.665.346.665zM7.042 6.797l-.665-.346.665.346zm6.292 18.953h3.333v-1.5h-3.333v1.5zm0-6.667h10v-1.5h-10v1.5zm0-6.666h10v-1.5h-10v1.5zm-1.3-6.667h12.6v-1.5h-12.6v1.5zm17.216 4.617V15h1.5v-4.633h-1.5zM15 34.25h-2.966v1.5H15v-1.5zm-7.583-4.617V10.367h-1.5v19.266h1.5zm4.617 4.617c-.962 0-1.638 0-2.164-.044-.518-.043-.824-.124-1.06-.247l-.692 1.331c.486.253 1.016.36 1.628.41.603.05 1.351.05 2.288.05v-1.5zm-6.117-4.617c0 .937 0 1.685.05 2.288.05.612.157 1.142.41 1.628l1.33-.691c-.122-.237-.203-.543-.246-1.06-.043-.527-.044-1.203-.044-2.165h-1.5zm2.892 4.326a2.583 2.583 0 0 1-1.101-1.102l-1.331.692a4.083 4.083 0 0 0 1.741 1.741l.691-1.33zM24.634 5.75c.961 0 1.637 0 2.163.044.518.043.825.124 1.06.247l.692-1.331c-.486-.253-1.015-.36-1.627-.41-.604-.05-1.352-.05-2.288-.05v1.5zm6.116 4.617c0-.937 0-1.685-.05-2.288-.05-.612-.157-1.142-.41-1.628l-1.33.691c.122.237.203.543.246 1.06.044.527.044 1.203.044 2.165h1.5zM27.858 6.04c.472.245.856.63 1.101 1.101l1.332-.691a4.083 4.083 0 0 0-1.742-1.741l-.691 1.33zM12.034 4.25c-.937 0-1.685 0-2.288.05-.612.05-1.142.157-1.628.41l.691 1.33c.237-.122.543-.203 1.06-.246.527-.043 1.203-.044 2.165-.044v-1.5zm-4.617 6.117c0-.962 0-1.638.044-2.164.043-.518.124-.824.247-1.06L6.377 6.45c-.253.486-.36 1.016-.41 1.628-.05.603-.05 1.351-.05 2.288h1.5zm.701-5.657A4.083 4.083 0 0 0 6.377 6.45l1.33.691c.246-.471.63-.856 1.102-1.101L8.118 4.71zM30.917 25a2.583 2.583 0 0 1-2.583 2.583v1.5A4.083 4.083 0 0 0 32.417 25h-1.5zm-2.583 2.583A2.583 2.583 0 0 1 25.75 25h-1.5a4.083 4.083 0 0 0 4.084 4.083v-1.5zM25.75 25a2.583 2.583 0 0 1 2.584-2.583v-1.5A4.083 4.083 0 0 0 24.25 25h1.5zm2.584-2.583A2.583 2.583 0 0 1 30.917 25h1.5a4.083 4.083 0 0 0-4.083-4.083v1.5zm6.658 11.833H21.676v1.5h13.316v-1.5zm-.742.741c0-.41.332-.741.742-.741v1.5c.419 0 .758-.34.758-.759h-1.5zm-5.916-5.908c3.264 0 5.916 2.647 5.916 5.908h1.5c0-4.092-3.326-7.408-7.416-7.408v1.5zm-5.917 5.908c0-3.261 2.652-5.908 5.917-5.908v-1.5c-4.09 0-7.417 3.316-7.417 7.408h1.5zm-1.5 0c0 .42.34.759.759.759v-1.5c.409 0 .741.332.741.741h-1.5z"/></symbol><symbol id="youtube" viewBox="0 0 24 24"><path fill="#fff" d="M12.076 3h.134c1.233.005 7.48.05 9.165.513.51.141.973.416 1.346.798.372.381.64.856.776 1.376.152.582.259 1.352.33 2.147l.015.16.034.398.011.159c.098 1.4.11 2.71.111 2.996v.115a50.147 50.147 0 0 1-.123 3.155l-.012.16-.013.16c-.075.876-.186 1.745-.353 2.385-.136.52-.403.996-.776 1.378a2.998 2.998 0 0 1-1.346.797c-1.74.477-8.354.511-9.27.513h-.213c-.463 0-2.38-.01-4.39-.08l-.255-.01-.131-.005-.256-.01-.257-.012c-1.665-.075-3.25-.196-3.981-.398a2.998 2.998 0 0 1-1.346-.796A3.09 3.09 0 0 1 .5 17.522c-.167-.638-.278-1.51-.353-2.385l-.012-.161-.012-.16A49.08 49.08 0 0 1 0 11.7v-.188c.003-.33.015-1.467.096-2.723l.01-.158.005-.08.012-.158.033-.399.015-.159c.072-.795.178-1.566.33-2.147.136-.52.404-.995.776-1.377a2.997 2.997 0 0 1 1.347-.797c.73-.2 2.315-.322 3.98-.398l.255-.01.258-.01.13-.005.256-.01c1.428-.047 2.856-.073 4.284-.078h.29V3zM9.6 7.915v7.378l6.236-3.687L9.6 7.916z"/></symbol><symbol id="z" viewBox="0 0 30 30"><path fill="#0057B8" d="M25 15.137v-.112-.15a9.934 9.934 0 0 0-.15-1.588v-.025-.012a19.39 19.39 0 0 0-.175-.825v-.013-.012a9.994 9.994 0 0 0-1.225-2.775c-.262-.4-.55-.787-.863-1.15a9.44 9.44 0 0 0-1-1c-.362-.313-.75-.6-1.15-.862a9.994 9.994 0 0 0-2.774-1.226h-.013-.012a8.51 8.51 0 0 0-.813-.174 9.837 9.837 0 0 0-1.725-.15H14.95c-.8 0-1.575.112-2.313.3A9.833 9.833 0 0 0 5.3 12.537 9.379 9.379 0 0 0 5 14.85v.125c0 .588.05 1.175.15 1.737.05.276.112.55.175.813v.025a9.994 9.994 0 0 0 1.225 2.775c.263.4.55.788.862 1.15.313.362.65.7 1 1 .363.313.75.6 1.15.862a9.994 9.994 0 0 0 2.776 1.226h.025c.262.075.537.125.812.175.563.1 1.15.15 1.737.15h.138c.8 0 1.575-.113 2.313-.3A10.02 10.02 0 0 0 24.6 17.35c.287-.65.4-1.425.4-2.213zm-1.587 4.276L19.425 23.4a9.72 9.72 0 0 1-1.163.525l5.675-5.675c-.162.4-.337.788-.524 1.163zm.687-1.688L17.725 24.1a7.23 7.23 0 0 1-.863.212l7.45-7.45a7.23 7.23 0 0 1-.212.863zm.287-1.3l-7.962 7.962a7.126 7.126 0 0 1-.725.075l8.762-8.762c-.012.25-.037.488-.075.725zm-9.05 8.063c-.112 0-.224.012-.337.012-.1 0-.213 0-.313-.012l9.813-9.813c0 .1.012.212.012.313 0 .112 0 .225-.012.337l-9.162 9.163zm-1.575-.075l10.65-10.65c.026.2.05.387.063.587L14.35 24.475c-.2-.013-.4-.038-.588-.063zm-.85-.15l11.35-11.35c.038.175.075.362.1.537L13.45 24.375c-.175-.038-.362-.075-.537-.113zm-.787-.213L24.05 12.125c.05.162.1.338.15.5L12.625 24.2c-.175-.05-.338-.1-.5-.15zm-.738-.262l12.4-12.4c.063.15.126.312.175.462l-12.1 12.1c-.162-.037-.312-.1-.475-.162zm-.675-.313l12.763-12.763c.075.15.137.288.212.438L11.15 23.675c-.15-.063-.3-.137-.438-.2zm-.65-.363l13.05-13.05c.088.138.163.276.238.413L10.475 23.35c-.137-.075-.275-.15-.412-.238zm-.6-.4l13.25-13.25c.088.126.175.25.263.388L9.85 22.975a10.414 10.414 0 0 1-.387-.263zm-.562-.437L22.275 8.9c.1.112.2.237.288.362l-13.3 13.3a4.066 4.066 0 0 1-.363-.287zm-.525-.475L21.8 8.375c.113.113.212.225.313.338l-13.4 13.4c-.113-.1-.225-.2-.338-.313zm-.487-.512l13.4-13.4c.112.1.224.2.337.312L8.2 21.625c-.112-.113-.212-.225-.312-.337zm-.45-.55l13.3-13.3c.125.087.237.187.362.287L7.725 21.1c-.1-.113-.2-.238-.287-.363zm-.413-.588L20.15 7.025c.125.087.263.175.388.262l-13.25 13.25c-.088-.124-.176-.25-.263-.387zm-.375-.625L19.525 6.65c.138.075.275.15.413.237l-13.05 13.05a6.973 6.973 0 0 1-.238-.412zm-.325-.675L18.85 6.325c.15.063.3.138.438.212L6.525 19.288c-.063-.137-.138-.287-.2-.437zm-.288-.713l12.1-12.1c.163.05.313.113.463.176l-12.4 12.4c-.05-.163-.112-.313-.163-.476zm-.237-.762L17.375 5.8c.175.038.337.088.5.15L5.95 17.875c-.05-.163-.1-.325-.15-.5zM5.5 15c0-.113 0-.225.013-.338L14.675 5.5c.112 0 .225-.013.337-.013.1 0 .213 0 .313.013l-9.813 9.813C5.5 15.213 5.5 15.1 5.5 15zm1.088-4.412L10.575 6.6a9.72 9.72 0 0 1 1.163-.525L6.075 11.75c.15-.4.325-.787.513-1.162zM5.9 12.274L12.275 5.9a7.23 7.23 0 0 1 .862-.213l-7.45 7.45a7.23 7.23 0 0 1 .213-.862zm-.288 1.3l7.963-7.962c.238-.038.475-.063.725-.076L5.537 14.3c.013-.25.038-.488.075-.725zm-.087 2.075L15.65 5.525c.2.012.388.037.588.063l-10.65 10.65a8.462 8.462 0 0 1-.063-.588zm.1.9L16.55 5.625c.188.025.363.063.537.1l-11.35 11.35c-.037-.162-.075-.35-.112-.525zm4.088-9.438l-2.6 2.6a9.532 9.532 0 0 1 2.6-2.6zm10.575 15.775l2.6-2.6a9.532 9.532 0 0 1-2.6 2.6z"/><path fill="#0057B8" d="M15 1C7.263 1 1 7.263 1 15c0 7.738 6.263 14 14 14 7.738 0 14-6.262 14-14 0-7.737-6.262-14-14-14zm0 27C7.838 28 2 22.163 2 15 2 7.838 7.838 2 15 2c7.163 0 13 5.838 13 13 0 7.163-5.837 13-13 13z"/></symbol></svg>