<?xml version="1.0" encoding="UTF-8"?><!DOCTYPE svg PUBLIC "-//W3C//DTD SVG 1.1//EN" "http://www.w3.org/Graphics/SVG/1.1/DTD/svg11.dtd"><svg xmlns="http://www.w3.org/2000/svg"><defs><clipPath id="phone-a"><path fill="#fff" d="M0 0h20v20H0z"/></clipPath><clipPath id="place-a"><path fill="#fff" d="M0 0h20v20H0z"/></clipPath></defs><symbol id="alert" viewBox="0 0 24 24"><path stroke="currentColor" stroke-linecap="round" stroke-linejoin="round" stroke-width="2" d="M10.29 3.86L1.82 18a2 2 0 0 0 1.71 3h16.94a2 2 0 0 0 1.71-3L13.71 3.86a2 2 0 0 0-3.42 0zM12 9v4M12 16v.5"/></symbol><symbol id="arrow-bottom" viewBox="0 0 12 8"><path stroke="#fff" stroke-width="1.5" d="M1 1l5 5 5-5"/></symbol><symbol id="arrow-next" viewBox="0 0 8 12"><path d="M1 11l5-5-5-5"/></symbol><symbol id="arrow-prev" viewBox="0 0 8 12"><path d="M7 1L2 6l5 5"/></symbol><symbol id="arrow" viewBox="0 0 11 6"><path stroke="currentColor" stroke-linecap="round" stroke-linejoin="round" stroke-width="2" d="M1 1l4.5 4L10 1"/></symbol><symbol id="basket" viewBox="0 0 36 36"><rect width="24" height="19.5" x="6" y="10.5" rx="4"/><path d="M24 15V9a6 6 0 0 0-12 0v6"/></symbol><symbol id="basket2" viewBox="0 0 20 20"><rect width="16" height="13" x="2" y="6" rx="4"/><path d="M14 9V5a4 4 0 1 0-8 0v4"/></symbol><symbol id="catalog" viewBox="0 0 36 36"><path fill="#fff" d="M11 21a3 3 0 1 0 0-6 3 3 0 0 0 0 6zM22 21a3 3 0 1 0 0-6 3 3 0 0 0 0 6zM33 21a3 3 0 1 0 0-6 3 3 0 0 0 0 6z"/></symbol><symbol id="catalog2" viewBox="0 0 20 20"><path d="M17.5 14.125a3.375 3.375 0 1 1-6.75 0 3.375 3.375 0 0 1 6.75 0zM19 19l-2-2M5 7H4M16 4H2M5 10H4M9 10H8M14 7H8"/><path d="M17 8V4.2c0-1.12 0-1.68-.218-2.108a2 2 0 0 0-.874-.874C15.48 1 14.92 1 13.8 1H4.2c-1.12 0-1.68 0-2.108.218a2 2 0 0 0-.874.874C1 2.52 1 3.08 1 4.2v9.6c0 1.12 0 1.68.218 2.108a2 2 0 0 0 .874.874C2.52 17 3.08 17 4.2 17H8"/></symbol><symbol id="close" viewBox="0 0 20 20"><path d="M18 2L2 18M2 2l16 16"/></symbol><symbol id="lk" viewBox="0 0 24 24"><circle cx="4" cy="4" r="4" transform="matrix(-1 0 0 1 16 3)"/><path d="M5 16.435c0-.86.54-1.628 1.351-1.917a16.794 16.794 0 0 1 11.298 0A2.036 2.036 0 0 1 19 16.434v2.193a2 2 0 0 1-2.338 1.971l-.1-.017a27 27 0 0 0-9.124 0l-.1.017A2 2 0 0 1 5 18.628v-2.193z"/></symbol><symbol id="lk2" viewBox="0 0 20 20"><circle cx="4" cy="4" r="4" transform="matrix(-1 0 0 1 14 1)"/><path d="M3 14.935c0-.86.54-1.628 1.351-1.918a16.794 16.794 0 0 1 11.298 0A2.036 2.036 0 0 1 17 14.935v1.315c0 1.188-1.052 2.1-2.227 1.932l-.955-.136a27.002 27.002 0 0 0-7.636 0l-.955.136A1.951 1.951 0 0 1 3 16.25v-1.315z"/></symbol><symbol id="main" viewBox="0 0 20 20"><path d="M10.317 18.75C6.956 18.75 2 16.167 2 10.457c0-4.37 2.756-7.518 5.777-8.672.773-.34 5.107-1.657 7.577.212a16.15 16.15 0 0 0-1.956-.493c-.584-.114-1.194-.217-2.119.054-2.61.774-3.826 3.114-3.794 6.294 0 4.756 3.524 7.654 7.134 7.654 1.449 0 2.573-.293 3.356-.813-1.378 2.709-4.14 4.057-7.658 4.057z"/><path fill="#FF671F" d="M16.717 4.39a3.143 3.143 0 0 1-3.14 3.147 3.143 3.143 0 0 1-3.14-3.147 3.143 3.143 0 0 1 3.14-3.147 3.143 3.143 0 0 1 3.14 3.147z"/></symbol><symbol id="menu" viewBox="0 0 20 20"><path d="M19 4H6M19 10H6M19 16H6M3 4H1M3 10H1M3 16H1"/></symbol><symbol id="next" viewBox="0 0 8 14"><path d="M1 13l5-6-5-6"/></symbol><symbol id="phone" viewBox="0 0 20 20"><g clip-path="url(#phone-a)"><path fill="#fff" d="M17.5 13.683v2.947a.833.833 0 0 1-.775.832c-.364.025-.662.038-.892.038C8.47 17.5 2.5 11.53 2.5 4.167c0-.23.013-.528.038-.892A.833.833 0 0 1 3.37 2.5h2.947a.417.417 0 0 1 .415.375c.019.192.036.344.053.46.166 1.156.505 2.28 1.007 3.334a.38.38 0 0 1-.123.473L5.871 8.427a10.872 10.872 0 0 0 5.703 5.703l1.284-1.795a.385.385 0 0 1 .477-.124c1.054.5 2.178.84 3.333 1.004.116.017.269.035.459.053a.417.417 0 0 1 .374.415H17.5z"/></g></symbol><symbol id="place" viewBox="0 0 20 20"><g clip-path="url(#place-a)"><path fill="#fff" d="M10 19.774L4.697 14.47a7.5 7.5 0 1 1 10.606 0L10 19.774zm4.125-6.482a5.833 5.833 0 1 0-8.25 0L10 17.417l4.125-4.125zM10 10.834A1.667 1.667 0 1 1 10 7.5a1.667 1.667 0 0 1 0 3.334z"/></g></symbol><symbol id="prev" viewBox="0 0 8 14"><path d="M7 13L2 7l5-6"/></symbol><symbol id="question" viewBox="0 0 24 24"><path stroke="currentColor" stroke-linecap="round" stroke-linejoin="round" stroke-width="2" d="M12 22c5.523 0 10-4.477 10-10S17.523 2 12 2 2 6.477 2 12s4.477 10 10 10z"/><path stroke="currentColor" stroke-linecap="round" stroke-linejoin="round" stroke-width="2" d="M9.09 9a3 3 0 0 1 5.83 1c0 2-3 3-3 3M12 16v.5"/></symbol><symbol id="search" viewBox="0 0 50 50"><path d="M21 3C11.602 3 4 10.602 4 20s7.602 17 17 17c3.355 0 6.46-.984 9.094-2.656l12.281 12.281 4.25-4.25L34.5 30.281C36.68 27.421 38 23.88 38 20c0-9.398-7.602-17-17-17zm0 4c7.2 0 13 5.8 13 13s-5.8 13-13 13S8 27.2 8 20 13.8 7 21 7z"/></symbol><symbol id="share" viewBox="0 0 20 20"><path stroke="currentColor" stroke-linecap="round" stroke-linejoin="round" stroke-width="2" d="M15 6.667a2.5 2.5 0 1 0 0-5 2.5 2.5 0 0 0 0 5zM5 12.5a2.5 2.5 0 1 0 0-5 2.5 2.5 0 0 0 0 5zM15 18.333a2.5 2.5 0 1 0 0-5 2.5 2.5 0 0 0 0 5zM7.158 11.258l5.692 3.317M12.841 5.425L7.159 8.742"/></symbol></svg>