<svg width="60" height="60" fill="none" xmlns="http://www.w3.org/2000/svg"><rect width="60" height="60" rx="7" fill="#252525"/><path d="M49.628 34.1a2.495 2.495 0 00-2.919-.892 2.458 2.458 0 00-.428-1.174 2.49 2.49 0 00-3.449-.624l-.41.269a2.468 2.468 0 00-.42-1.108 2.498 2.498 0 00-3.468-.61c-.012.009-.021.02-.033.029-.005.004-.01.004-.016.009-3.267 2.735-7.257 5.563-8.278 5.563-.756 0-3.056-1.289-4.904-2.324-2.356-1.32-4.58-2.566-5.858-2.665-2.397-.174-9.713 4.073-10.541 4.56a.707.707 0 00.715 1.218c2.98-1.749 8.24-4.487 9.718-4.368.965.074 3.255 1.357 5.275 2.489 2.665 1.492 4.388 2.413 5.452 2.489.046.01.094.014.143.014h4.849a1.606 1.606 0 010 3.211l-.02.002h-.03c-.047.004-4.787.334-6.742.008-1.831-.306-4.172-2.384-4.196-2.405a.705.705 0 10-.943 1.053c.108.096 2.669 2.373 4.907 2.746.73.122 1.776.161 2.84.161 2.018 0 4.102-.144 4.234-.153h.001a3.02 3.02 0 002.966-3.017 3.021 3.021 0 00-3.017-3.018H33.4c2.388-1.508 5.14-3.768 5.954-4.448a1.08 1.08 0 011.491.268 1.079 1.079 0 01-.265 1.501c-.012.008-.021.02-.033.029a.642.642 0 00-.069.058l-.034.042c-.018.022-.037.043-.052.066-.01.016-.018.033-.027.05-.012.023-.025.046-.035.07-.007.02-.012.039-.017.058-.008.024-.016.047-.02.072-.005.02-.006.042-.008.062-.002.024-.006.048-.006.073 0 .021.004.043.006.065.002.023.003.046.008.07.004.023.012.045.02.069.006.02.011.042.02.063.01.023.023.046.035.069.01.016.015.033.026.049l.006.008c.003.003.003.007.006.01.007.01.017.018.024.027.024.032.05.06.078.087a.801.801 0 00.178.12.68.68 0 00.098.036l.046.014c.049.01.098.017.148.017l.007.001c.006 0 .012-.003.019-.003a.699.699 0 00.16-.024c.016-.004.032-.008.048-.014a.718.718 0 00.159-.075l2.251-1.471a1.08 1.08 0 011.501.264 1.072 1.072 0 01-.265 1.498l-.723.507a.707.707 0 00.812 1.158l.71-.499 1.311-.86a1.081 1.081 0 011.5.262 1.08 1.08 0 01-.266 1.502l-.002.001C40.53 41.8 31.83 47.38 30.55 47.395c-.952 0-3.055-1.253-4.911-2.36-2.094-1.247-4.072-2.426-5.468-2.612-2.79-.37-7.083 2.861-7.564 3.231a.707.707 0 00.862 1.12c1.178-.904 4.643-3.2 6.515-2.95 1.109.148 3.14 1.358 4.931 2.426 2.208 1.316 4.293 2.56 5.634 2.56 2.338 0 15.791-9.362 18.465-11.238a.704.704 0 00.109-.095 2.49 2.49 0 00.505-3.376zM24.655 21.12a5.145 5.145 0 005.14-5.139 5.145 5.145 0 00-5.14-5.14 5.145 5.145 0 00-5.14 5.14 5.145 5.145 0 005.14 5.14zm0-8.865a3.73 3.73 0 013.726 3.726 3.73 3.73 0 01-3.726 3.726 3.73 3.73 0 01-3.726-3.726 3.73 3.73 0 013.726-3.726zm12.708 7.675a3.953 3.953 0 003.948-3.948 3.953 3.953 0 00-3.948-3.949 3.953 3.953 0 00-3.949 3.949 3.953 3.953 0 003.949 3.949zm0-6.483a2.538 2.538 0 012.535 2.535 2.538 2.538 0 01-2.535 2.535 2.538 2.538 0 01-2.536-2.535 2.538 2.538 0 012.536-2.535z" fill="#FF671F"/><path d="M25.688 26.979a5.145 5.145 0 005.138 5.138 5.145 5.145 0 005.139-5.138 5.145 5.145 0 00-5.14-5.14 5.145 5.145 0 00-5.137 5.14zm5.138-3.726a3.73 3.73 0 013.726 3.726 3.73 3.73 0 01-3.726 3.725 3.73 3.73 0 01-3.725-3.725 3.73 3.73 0 013.725-3.726z" fill="#FF671F"/></svg>