<svg width="60" height="60" fill="none" xmlns="http://www.w3.org/2000/svg"><rect width="60" height="60" rx="7" fill="#252525"/><path d="M13.287 33.813h5.978a.732.732 0 100-1.465h-5.102c.098-.425.244-.903.44-1.229.358-.596 1.314-1.366 1.673-1.628.46-.363.878-.637 1.247-.88.999-.659 1.862-1.227 1.862-2.662a3.359 3.359 0 00-3.355-3.355 3.36 3.36 0 00-3.357 3.355.732.732 0 101.465 0 1.892 1.892 0 013.782 0c0 .62-.25.81-1.203 1.439-.373.245-.837.55-1.324.935-.15.108-1.47 1.085-2.045 2.042-.578.962-.769 2.462-.788 2.63a.733.733 0 00.727.818z" fill="#7289A1"/><path d="M20.584 31.128h3.8v2.006a.732.732 0 101.466 0v-2.006h1.148a.732.732 0 100-1.464H25.85v-6.282a.732.732 0 00-1.348-.397l-4.533 7.014a.733.733 0 00.615 1.13zm3.8-5.263v3.799H21.93l2.455-3.8zm4.647 12.94a.732.732 0 00.905-.503l4.605-16.115a.732.732 0 10-1.409-.402l-4.604 16.114a.733.733 0 00.503.906zm8.787-14.235h4.77l-2.033 3.447h-1.912a.732.732 0 100 1.465h1.048l-2.243 3.804a.732.732 0 101.262.745l2.682-4.549h1.837a.732.732 0 000-1.465h-.974L44.5 24.21a.734.734 0 00-.63-1.105h-6.052a.732.732 0 100 1.465z" fill="#7289A1"/><path d="M51.755 14.09H6.842a.732.732 0 00-.733.732v29.294c0 .405.328.733.733.733h44.913a.733.733 0 00.732-.733V14.822a.732.732 0 00-.732-.732zm-.733 29.294H7.575v-27.83h43.449v27.83z" fill="#7289A1"/></svg>