<svg width="60" height="60" fill="none" xmlns="http://www.w3.org/2000/svg"><rect width="60" height="60" rx="7" fill="#252525"/><path d="M25.526 26.898a6.05 6.05 0 106.05 6.05 6.06 6.06 0 00-6.05-6.05zm0 10.645a4.595 4.595 0 114.595-4.595 4.603 4.603 0 01-4.595 4.595zM13.001 26.832a.728.728 0 00-.728.728v10.673a.728.728 0 001.456 0V27.56a.728.728 0 00-.728-.728zm24.75 0a.728.728 0 00-.728.728v10.673a.728.728 0 001.456 0V27.56a.728.728 0 00-.728-.728z" fill="#3A9463"/><path d="M48.422 15.674H16.888a.728.728 0 00-.728.728v3.153h-2.668a.728.728 0 00-.728.728v3.638H9.611a.728.728 0 00-.728.728v16.98a.727.727 0 00.728.728h31.534a.728.728 0 00.728-.728v-3.638h3.153a.728.728 0 00.728-.728v-3.154h2.668a.728.728 0 00.728-.727v-16.98a.727.727 0 00-.728-.728zM40.417 40.9H10.338V25.377h30.08V40.9zm3.882-4.366h-2.426V24.65a.728.728 0 00-.728-.728H14.22v-2.91H44.3v15.524zm3.396-3.881h-1.94v-12.37a.728.728 0 00-.729-.728h-27.41v-2.426h30.079v15.525z" fill="#3A9463"/></svg>